<?xml version="1.0" encoding="utf-8"?>
<!-- Generator: Adobe Illustrator 19.0.1, SVG Export Plug-In . SVG Version: 6.00 Build 0)  -->
<svg version="1.1" id="Layer_1" xmlns="http://www.w3.org/2000/svg" xmlns:xlink="http://www.w3.org/1999/xlink" x="0px" y="0px"
	 viewBox="-164 42.3 512 512" style="enable-background:new -164 42.3 512 512;" xml:space="preserve">
<style type="text/css">
	.st0{fill:#231F20;stroke:#FFFFFF;stroke-width:2;stroke-miterlimit:10;}
	.st1{fill:#231F20;stroke:#FFFFFF;stroke-width:2;}
</style>
<path class="st0" d="M317.3,315.1c-22.6-24.2-54.6-30-67.5,13.1c30.2-20.1,60.8,26.8,33.9,47.6c-21.9,17-61.5,19.1-86.5,5.5
	c-30.8-16.8-53.8-37.8-70.2-66.5c57.1,13.7,119.6-1.1,143-45.4c63.6-120.3-63.4-201-114-121.9c-17.9,27.9-9.8,61.5,35.2,59.1
	c-29.1-21.6-1.9-63.6,26.7-45.3c23.4,14.9,22.5,51.9,9.8,77.3c-15.2,30.2-60.6,50.7-95.1,24.7c-34.1-64.7-9.4-162.6-108.1-194.6
	C-121,21.6-170.3,244.4,6.8,274.4c0,0,0,0,0,0c-29.5,0.5-55.4,8.1-91.8,26c-98.3,48.2-78.4,204.9,21.8,187.9
	c34.5-5.8,51.2-50.3,0.9-65.4c16.5,29.6-28,47.1-41.9,1.9c-11.3-36.5,21.1-74.9,52.5-85C-21.2,330,3.6,329,30.8,334
	c-36.6,34.2-56.5,80.4-42.4,123.6c44.5,135.6,192.1,82.5,162.8-6.7c-10.3-31.5-41.4-46.5-68-10.2c35.2-8.9,50.5,38.8,18.2,49.4
	c-26.4,8.7-60.2-13.5-66-41.3c-7.8-37.4,19.7-77.2,54.7-95.3c22.2,35.4,38.8,48.7,83.2,72.2C259.3,471.1,386.4,389.1,317.3,315.1z"
	/>
<path class="st1" d="M130.4,216.6c0,14.5-11.8,26.3-26.3,26.3s-26.3-11.8-26.3-26.3s11.8-26.3,26.3-26.3S130.4,202.1,130.4,216.6z"
	/>
<path class="st1" d="M65,227.1c0,14.5-11.8,26.3-26.3,26.3s-26.3-11.8-26.3-26.3s11.8-26.3,26.3-26.3S65,212.6,65,227.1z"/>
</svg>
