<?xml version="1.0" standalone="no"?>
<!DOCTYPE svg PUBLIC "-//W3C//DTD SVG 1.1//EN" "http://www.w3.org/Graphics/SVG/1.1/DTD/svg11.dtd" >
<svg>
<metadata>
Created by FontForge 20090914 at Thu Sep  1 10:27:04 2016
 By www-data
(r) (c) 2003 [T&#226;&#128;&#144;26] Chicago www.t26.com 773.862.1201 T0886 ID#5134271 designer: Anuthin Wongsunkakon
</metadata>
<defs>
<font id="CarbonRegular" horiz-adv-x="570" >
  <font-face 
    font-family="CarbonRegular"
    font-weight="400"
    font-stretch="normal"
    units-per-em="1000"
    panose-1="0 0 4 0 0 0 0 0 0 0"
    ascent="800"
    descent="-200"
    x-height="410"
    cap-height="580"
    bbox="-5 -200 885 801"
    underline-thickness="20"
    underline-position="-123"
    unicode-range="U+0020-U+F002"
  />
<missing-glyph horiz-adv-x="500" 
d="M63 0v800h375v-800h-375zM125 63h250v675h-250v-675z" />
    <glyph glyph-name=".notdef" horiz-adv-x="500" 
d="M63 0v800h375v-800h-375zM125 63h250v675h-250v-675z" />
    <glyph glyph-name="space" unicode=" " horiz-adv-x="350" 
 />
    <glyph glyph-name="exclam" unicode="!" horiz-adv-x="276" 
d="M191 437l-18 -269h-70l-18 269v143h106v-143zM181 0h-88v88h88v-88z" />
    <glyph glyph-name="quotedbl" unicode="&#x22;" horiz-adv-x="405" 
d="M325 410h-70v170h70v-170zM150 410h-70v170h70v-170z" />
    <glyph glyph-name="numbersign" unicode="#" horiz-adv-x="602" 
d="M522 410l-7 -64h-86l-10 -114h86l-7 -64h-86l-17 -168h-66l17 168h-116l-17 -168h-66l17 168h-84l7 64h84l10 114h-84l7 64h84l16 170h66l-16 -170h116l16 170h66l-16 -170h86zM363 346h-116l-10 -114h116z" />
    <glyph glyph-name="dollar" unicode="$" horiz-adv-x="546" 
d="M466 207c0 -34 -11.832 -62.833 -35.499 -86.5s-54.167 -35.5 -91.5 -35.5h-29v-173h-54v173h-146v68h236c14 0 25.833 4.83301 35.5 14.5s14.5 21.5 14.5 35.5c0 32 -18 48.333 -54 49l-129 4c-38.667 1.33301 -70.5 12.833 -95.5 34.5s-37.5 48.5 -37.5 80.5
c0 34 11.833 63.167 35.5 87.5s54.167 36.5 91.5 36.5h49v165h54v-165h121v-68h-231c-13.333 0 -25 -5.16699 -35 -15.5s-15 -22.5 -15 -36.5c0 -16 6.66699 -28.667 20 -38c11.333 -8 23.666 -12.333 36.999 -13l133 -3c36 -0.666992 66 -12.167 90 -34.5
s36 -48.833 36 -79.5z" />
    <glyph glyph-name="percent" unicode="%" horiz-adv-x="653" 
d="M300 434c0 -20.667 -7.16699 -38.167 -21.5 -52.5s-31.833 -21.5 -52.5 -21.5h-72c-20.667 0 -38.167 7.16699 -52.5 21.5s-21.5 31.833 -21.5 52.5v72c0 20.667 7.16699 38.167 21.5 52.5s31.833 21.5 52.5 21.5h72c20.667 0 38.167 -7.16699 52.5 -21.5
s21.5 -31.833 21.5 -52.5v-72zM573 580l-420 -625l-61 45l421 625zM567 54c0 -20.667 -7.16699 -38.167 -21.5 -52.5s-31.833 -21.5 -52.5 -21.5h-72c-20.667 0 -38.167 7.16699 -52.5 21.5s-21.5 31.833 -21.5 52.5v72c0 20.667 7.16699 38.167 21.5 52.5
s31.833 21.5 52.5 21.5h72c20.667 0 38.167 -7.16699 52.5 -21.5s21.5 -31.833 21.5 -52.5v-72zM240 431v78c0 7.33301 -3.66699 11 -11 11h-78c-7.33301 0 -11 -3.66699 -11 -11v-78c0 -7.33301 3.66699 -11 11 -11h78c7.33301 0 11 3.66699 11 11zM507 51v78
c0 7.33301 -3.66699 11 -11 11h-78c-7.33301 0 -11 -3.66699 -11 -11v-78c0 -7.33301 3.66699 -11 11 -11h78c7.33301 0 11 3.66699 11 11z" />
    <glyph glyph-name="ampersand" unicode="&#x26;" horiz-adv-x="577" 
d="M522 23l-49.001 -48.001l-57 64c-33.333 -30 -71 -45 -113 -45h-106c-36.667 0 -67 11.833 -91 35.5s-36 52.834 -36 87.501v101c0 22 5.5 41.833 16.5 59.5s25.167 28.834 42.5 33.501c-24.667 15.333 -37 40.666 -37 75.999v78c0 36.667 11.667 66.334 35 89.001
s53.333 34 90 34h31c36.667 0 66.334 -11.333 89.001 -34s34 -52.334 34 -89.001v-55h-70v65c0 14 -4.33301 25.667 -13 35s-19.667 14 -33 14h-45c-14 0 -25.5 -4.66699 -34.5 -14s-13.5 -21 -13.5 -35v-72c0 -28.667 6.66699 -48.667 20 -60
c6 -5.33301 21.333 -12.333 46 -21c22.667 -7.33301 40 -18 52 -32l126 -146c8 18 12 36 12 54v57h70v-51c0 -38 -10 -74.667 -30 -110zM365.999 87.999l-142 159c-12 13.333 -25.333 20 -40 20c-12 0 -22.333 -4.66699 -31 -14s-13 -21.333 -13 -36v-104
c0 -14 4.83301 -26 14.5 -36s21.5 -15 35.5 -15h112c22 0 43.333 8.66699 64 26z" />
    <glyph glyph-name="quotesingle" unicode="'" horiz-adv-x="230" 
d="M150 410h-70v170h70v-170z" />
    <glyph glyph-name="parenleft" unicode="(" horiz-adv-x="397" 
d="M317 -88l-90 -0.00195312c-40.667 0 -75.334 14.333 -104.001 43s-43 63.334 -43 104.001v442c0 40.667 14.333 75.334 43 104.001s63.334 43 104.001 43h90v-68h-97c-20 0 -36.667 -7.33301 -50 -22s-20 -31.667 -20 -51v-454c0 -19.333 6.66699 -36.333 20 -51
s30 -22 50 -22h97v-68z" />
    <glyph glyph-name="parenright" unicode=")" horiz-adv-x="397" 
d="M317 59c0 -40.667 -14.333 -75.332 -43 -103.999s-63.334 -43 -104.001 -43h-90v68h97c20 0 36.667 7.33301 50 22s20 31.667 20 51v454c0 19.333 -6.66699 36.333 -20 51s-30 22 -50 22h-97v68h90c40.667 0 75.334 -14.333 104.001 -43s43 -63.334 43 -104.001v-442z
" />
    <glyph glyph-name="asterisk" unicode="*" horiz-adv-x="534" 
d="M454 385l-111 -91v-8l111 -91l-51 -51l-105 105l-3 -2l8 -148h-72l8 148l-3 2l-105 -105l-51 51l111 91v8l-111 91l51 51l105 -105l3 2l-8 150h72l-8 -150l3 -2l105 105z" />
    <glyph glyph-name="plus" unicode="+" horiz-adv-x="568" 
d="M488 255h-170v-171h-70v171h-168v70h168v168h70v-168h170v-70z" />
    <glyph glyph-name="comma" unicode="," horiz-adv-x="279" 
d="M199 37c0 -20 -5 -35 -15 -45l-73 -96l-29 23l49 79v8h-34c-6.66699 0 -10 3.33301 -10 10v80c0 6.66699 3.33301 10 10 10h92c6.66699 0 10 -3.33301 10 -10v-59z" />
    <glyph glyph-name="hyphen" unicode="-" horiz-adv-x="455" 
d="M375 257h-295v66h295v-66z" />
    <glyph glyph-name="hyphen" unicode="&#x2010;" horiz-adv-x="455" 
d="M375 257h-295v66h295v-66z" />
    <glyph glyph-name="period" unicode="." horiz-adv-x="280" 
d="M192 10c0 -6.66699 -3.33301 -10 -10 -10h-92c-6.66699 -0 -10 3.33301 -10 10v92c0 6.66699 3.33301 10 10 10h92c6.66699 0 10 -3.33301 10 -10v-92z" />
    <glyph glyph-name="slash" unicode="/" horiz-adv-x="454" 
d="M424 653l-326 -767l-68 31l325 767z" />
    <glyph glyph-name="zero" unicode="0" 
d="M490 127c0 -36.667 -12 -67 -36 -91s-54.333 -36 -91 -36h-156c-36.667 0 -67 12 -91 36s-36 54.333 -36 91v326c0 36.667 12 67 36 91s54.333 36 91 36h156c36.667 0 67 -12 91 -36s36 -54.333 36 -91v-326zM420 121v338c0 14 -4.83301 26.333 -14.5 37
s-21.5 16 -35.5 16h-170c-13.333 0 -25 -5.33301 -35 -16s-15 -23 -15 -37v-338c0 -14 5 -26.333 15 -37s21.667 -16 35 -16h170c14 0 25.833 5.33301 35.5 16s14.5 23 14.5 37zM326 260c0 -6.66699 -3.33301 -10 -10 -10h-59c-6.66699 0 -10 3.33301 -10 10v59
c0 6.66699 3.33301 10 10 10h59c6.66699 0 10 -3.33301 10 -10v-59z" />
    <glyph glyph-name="one" unicode="1" horiz-adv-x="404" 
d="M334 0h-256v64h92v409l-59 -55l-41 42l111 120h59v-516h94v-64z" />
    <glyph glyph-name="two" unicode="2" horiz-adv-x="552" 
d="M472 0l-391.999 0.000976562v64c0 52.667 27.333 102.667 82 150c5.33301 4.66699 56 39.667 152 105c54.667 37.333 82 70.333 82 99v39c0 14 -5 26.333 -15 37s-21.667 16 -35 16h-144c-13.333 0 -25 -5.33301 -35 -16s-15 -23 -15 -37v-32h-72v22
c0 37.333 11.833 68.833 35.5 94.5s53.5 38.5 89.5 38.5h134c37.333 0 68.166 -11.167 92.499 -33.5s36.5 -51.5 36.5 -87.5v-43c0 -44.667 -26.667 -88.334 -80 -131.001l-150 -101c-53.333 -38.667 -80 -74.667 -80 -108v-8h314v-68z" />
    <glyph glyph-name="three" unicode="3" horiz-adv-x="560" 
d="M480 127c0 -36.667 -12 -67.002 -36 -91.002s-54.333 -36 -91 -36h-146c-36.667 0 -67 12 -91 36s-36 54.333 -36 91v28h70v-34c0 -14 5 -26.333 15 -37s21.667 -16 35 -16h160c13.333 0 25 5.33301 35 16s15 23 15 37v83c0 12.667 -4 24.334 -12 35.001
s-17.333 16 -28 16h-143v70h143c10.667 0 20 5.33301 28 16s12 22.334 12 35.001v83c0 14 -5 26.333 -15 37s-21.667 16 -35 16h-160c-13.333 0 -25 -5.33301 -35 -16s-15 -23 -15 -37v-42h-70v36c0 36.667 12 67 36 91s54.333 36 91 36h146c36.667 0 67 -12 91 -36
s36 -54.333 36 -91v-71c0 -35.333 -13.333 -66 -40 -92c26.667 -26 40 -56.667 40 -92v-71z" />
    <glyph glyph-name="four" unicode="4" horiz-adv-x="558" 
d="M488 155h-68v-155h-72v155h-268v135l275 290h65v-357h68v-68zM348 223v250l-198 -207v-43h198z" />
    <glyph glyph-name="five" unicode="5" horiz-adv-x="565" 
d="M485 127c0 -36.667 -11.999 -67 -35.999 -91s-54.333 -36 -91 -36h-151c-36.667 0 -67 12 -91 36s-36 54.333 -36 91v28h70v-34c0 -14 5 -26.333 15 -37s21.667 -16 35 -16h165c14 0 25.833 5.33301 35.5 16s14.5 23 14.5 37v128c0 18.667 -5 34.167 -15 46.5
s-23 18.5 -39 18.5l-267 -4l8 270h354v-68h-288l-4 -134l183 4c39.333 0.666992 72.166 -12.333 98.499 -39s39.5 -58.667 39.5 -96v-120z" />
    <glyph glyph-name="six" unicode="6" horiz-adv-x="544" 
d="M479 127c0 -36.667 -12 -67 -36 -91s-54.333 -36 -91 -36h-145c-36.667 -0 -67 11.833 -91 35.5s-36 54.167 -36 91.5v215c0 69.333 21.667 126.333 65 171s96 67 158 67h64v-68h-61c-42 0 -78.5 -15.833 -109.5 -47.5s-46.5 -69.5 -46.5 -113.5v-26h202
c36.667 0 67 -12 91 -36s36 -54.333 36 -91v-71zM409 121v83c0 14 -4.83301 26.333 -14.5 37s-21.5 16 -35.5 16h-209v-136c0 -14 5 -26.333 15 -37s21.667 -16 35 -16h159c14 0 25.833 5.33301 35.5 16s14.5 23 14.5 37z" />
    <glyph glyph-name="seven" unicode="7" horiz-adv-x="519" 
d="M449 516c0 -38.667 -18.667 -79 -56 -121l-103 -104c-37.333 -40.667 -56 -78.334 -56 -113.001v-178h-74v175c0 44.667 18 89.334 54 134.001c7.33301 9.33301 41 43.333 101 102c36 35.333 54 64 54 86v15h-309v68h383c4 -28 6 -49.333 6 -64z" />
    <glyph glyph-name="eight" unicode="8" horiz-adv-x="571" 
d="M491 127c0 -36.667 -12 -67 -36 -91s-54.333 -36 -91 -36h-157c-36.667 0 -67 12 -91 36s-36 54.333 -36 91v71c0 35.333 13.333 66 40 92c-26.667 26 -40 56.667 -40 92v71c0 36.667 12 67 36 91s54.333 36 91 36h157c36.667 0 67 -12 91 -36s36 -54.333 36 -91v-71
c0 -35.333 -13.333 -66 -40 -92c26.667 -26 40 -56.667 40 -92v-71zM421 376v83c0 14 -4.83301 26.333 -14.5 37s-21.5 16 -35.5 16h-171c-13.333 0 -25 -5.33301 -35 -16s-15 -23 -15 -37v-83c0 -12.667 4 -24.334 12 -35.001s17.333 -16 28 -16h191
c11.333 0 20.833 5.33301 28.5 16s11.5 22.334 11.5 35.001zM421 121v83c0 12.667 -3.83301 24.334 -11.5 35.001s-17.167 16 -28.5 16h-191c-10.667 0 -20 -5.33301 -28 -16s-12 -22.334 -12 -35.001v-83c0 -14 5 -26.333 15 -37s21.667 -16 35 -16h171
c14 0 25.833 5.33301 35.5 16s14.5 23 14.5 37z" />
    <glyph glyph-name="nine" unicode="9" horiz-adv-x="546" 
d="M466 238c0 -69.333 -21.668 -126.333 -65.001 -171s-96 -67 -158 -67h-64v68h61c42.667 0 79.334 15.833 110.001 47.5s46 69.5 46 113.5v26h-204c-36.667 0 -67 12 -91 36s-36 54.333 -36 91v71c0 36.667 12 67 36 91s54.333 36 91 36h147
c37.333 0 67.833 -11.833 91.5 -35.5s35.5 -54.167 35.5 -91.5v-215zM395.999 323v136c0 14 -4.83301 26.333 -14.5 37s-21.5 16 -35.5 16h-161c-13.333 0 -25 -5.33301 -35 -16s-15 -23 -15 -37v-83c0 -14 5 -26.333 15 -37s21.667 -16 35 -16h211z" />
    <glyph glyph-name="colon" unicode=":" horiz-adv-x="280" 
d="M192 308c0 -6.66699 -3.33301 -10 -10 -10h-92c-6.66699 0 -10 3.33301 -10 10v92c0 6.66699 3.33301 10 10 10h92c6.66699 0 10 -3.33301 10 -10v-92zM192 10c0 -6.66699 -3.33301 -10 -10 -10h-92c-6.66699 -0 -10 3.33301 -10 10v92c0 6.66699 3.33301 10 10 10h92
c6.66699 0 10 -3.33301 10 -10v-92z" />
    <glyph glyph-name="semicolon" unicode=";" horiz-adv-x="272" 
d="M192 308c0 -6.66699 -3.33301 -10 -10 -10h-92c-6.66699 0 -10 3.33301 -10 10v92c0 6.66699 3.33301 10 10 10h92c6.66699 0 10 -3.33301 10 -10v-92zM192 37c0 -20 -5 -35 -15 -45l-73 -96l-29 23l49 79v8h-34c-6.66699 0 -10 3.33301 -10 10v80
c0 6.66699 3.33301 10 10 10h92c6.66699 0 10 -3.33301 10 -10v-59z" />
    <glyph glyph-name="less" unicode="&#x3c;" horiz-adv-x="406" 
d="M336 29l-49 -49l-217 217v55l217 216l49 -49l-191 -191v-7z" />
    <glyph glyph-name="equal" unicode="=" horiz-adv-x="485" 
d="M395 329h-315v66h315v-66zM395 185h-315v66h315v-66z" />
    <glyph glyph-name="greater" unicode="&#x3e;" horiz-adv-x="406" 
d="M336 197l-217 -217l-49 49l191 192v7l-191 191l49 49l217 -216v-55z" />
    <glyph glyph-name="question" unicode="?" horiz-adv-x="558" 
d="M478 414c0 -31.333 -14 -61 -42 -89l-78 -65c-28 -23.333 -42 -45 -42 -65v-40h-72v45c0 28 14 55.667 42 83l78 64c28 24 42 45 42 63v47c0 14 -5 26.333 -15 37s-21.667 16 -35 16h-154c-13.333 0 -25 -5.33301 -35 -16s-15 -23 -15 -37v-32h-72v22
c0 37.333 11.833 68.833 35.5 94.5s53.5 38.5 89.5 38.5h146c36.667 0 67 -12 91 -36s36 -54.333 36 -91v-39zM324 0h-88v88h88v-88z" />
    <glyph glyph-name="at" unicode="@" horiz-adv-x="708" 
d="M558 84h-142.001c-34 0 -62.5 11 -85.5 33s-34.5 49 -34.5 81v88c0 34 11.333 62.5 34 85.5s51.334 34.5 86.001 34.5h72v53c0 14 -4.83301 26.333 -14.5 37s-21.5 16 -35.5 16h-168c-13.333 0 -25 -5.33301 -35 -16s-15 -23 -15 -37v-426c0 -14 5 -26.333 15 -37
s21.667 -16 35 -16h204v-68h-197c-36.667 0 -67 12 -91 36s-36 54.333 -36 91v414c0 36.667 12 67 36 91s54.333 36 91 36h154c36.667 0 67 -12 91 -36s36 -54.333 36 -91v-369zM487.999 151v187h-72c-33.333 0 -50 -15.667 -50 -47v-88c0 -34 16.667 -51 50 -51z" />
    <glyph glyph-name="A" unicode="A" 
d="M490 357v-357h-71v192h-268v-192h-71v357c0 37.333 11 67.333 33 90l134 133h76l134 -133c22 -22.667 33 -52.667 33 -90zM419 351c0 22 -5.66699 38.667 -17 50l-112 117h-8l-114 -117c-11.333 -11.333 -17 -28 -17 -50v-96h268v96z" />
    <glyph glyph-name="B" unicode="B" horiz-adv-x="554" 
d="M474 129c0 -36.667 -12.333 -67.332 -37 -91.999s-55.334 -37 -92.001 -37h-265v580h265c36.667 0 67.334 -12.333 92.001 -37s37 -55.334 37 -92.001v-62c0 -46.667 -17.333 -79 -52 -97c34.667 -15.333 52 -44.333 52 -87v-76zM402 390.002l-0.000976562 68.999
c0 14 -5 26.833 -15 38.5s-21.667 17.5 -35 17.5h-203v-188h193c22.667 0 38.334 4.83301 47.001 14.5s13 25.834 13 48.501zM401.999 120.001v75c0 44 -18.667 66 -56 66h-197v-197h203c13.333 0 25 5.83301 35 17.5s15 24.5 15 38.5z" />
    <glyph glyph-name="C" unicode="C" horiz-adv-x="568" 
d="M488 127c0 -36.667 -12 -67 -36 -91s-54.333 -36 -91 -36h-154c-36.667 0 -67 12 -91 36s-36 54.333 -36 91v326c0 36.667 12 67 36 91s54.333 36 91 36h156c36 0 65.833 -12.833 89.5 -38.5s35.5 -57.167 35.5 -94.5v-22h-72v32c0 14 -5 26.333 -15 37
s-21.667 16 -35 16h-164c-13.333 0 -25 -5.33301 -35 -16s-15 -23 -15 -37v-335c0 -14 5 -26.333 15 -37s21.667 -16 35 -16h164c13.333 0 25 5.33301 35 16s15 23 15 37v34h72v-29z" />
    <glyph glyph-name="D" unicode="D" 
d="M490 127c0 -36.667 -12 -67 -36 -91s-54.333 -36 -91 -36h-283v580h283c36.667 0 67 -12 91 -36s36 -54.333 36 -91v-326zM418 121v338c0 14 -5 26.333 -15 37s-21.667 16 -35 16h-218v-444h218c13.333 0 25 5.33301 35 16s15 23 15 37z" />
    <glyph glyph-name="E" unicode="E" horiz-adv-x="506" 
d="M426 0h-346v580h346v-68h-276v-188h214v-69h-214v-187h276v-68z" />
    <glyph glyph-name="F" unicode="F" horiz-adv-x="480" 
d="M420 512h-270v-188h208v-69h-208v-255h-70v580h340v-68z" />
    <glyph glyph-name="G" unicode="G" 
d="M490 127c0 -36.667 -12 -67 -36 -91s-54.333 -36 -91 -36h-156c-36.667 0 -67 12 -91 36s-36 54.333 -36 91v326c0 36.667 12 67 36 91s54.333 36 91 36h156c36.667 0 67 -12 91 -36s36 -54.333 36 -91v-28h-72v36c0 14 -5 26.333 -15 37s-21.667 16 -35 16h-166
c-13.333 0 -25 -5.33301 -35 -16s-15 -23 -15 -37v-339c0 -14 5 -26.333 15 -37s21.667 -16 35 -16h166c13.333 0 25 5.33301 35 16s15 23 15 37v135h-119v67h191v-197z" />
    <glyph glyph-name="H" unicode="H" horiz-adv-x="568" 
d="M488 0h-70v255h-268v-255h-70v580h70v-256h268v256h70v-580z" />
    <glyph glyph-name="I" unicode="I" horiz-adv-x="400" 
d="M320 0h-240v66h84v448h-84v66h240v-66h-85v-448h85v-66z" />
    <glyph glyph-name="J" unicode="J" horiz-adv-x="497" 
d="M447 512h-82.999v-385c0 -36.667 -11.833 -67 -35.5 -91s-53.834 -36 -90.501 -36h-81c-36.667 0 -67 12 -91 36s-36 54.333 -36 91v29h70v-38c0 -14 4.83301 -25.833 14.5 -35.5s21.5 -14.5 35.5 -14.5h93c14 0 25.833 4.83301 35.5 14.5s14.5 21.5 14.5 35.5v394h-91
v68h245v-68z" />
    <glyph glyph-name="K" unicode="K" horiz-adv-x="558" 
d="M493 32l-65 -43l-190 287l-85 -97v-179h-73v580h73v-284h10l272 291l54 -54l-195 -207z" />
    <glyph glyph-name="L" unicode="L" horiz-adv-x="474" 
d="M414 0h-334v580h74v-512h260v-68z" />
    <glyph glyph-name="M" unicode="M" horiz-adv-x="608" 
d="M528 0h-72v459l-128 -152h-48l-128 152v-459h-72v580h61l159 -195h8l159 195h61v-580z" />
    <glyph glyph-name="N" unicode="N" horiz-adv-x="566" 
d="M486 0h-72v176l-262 287v-463h-72v580h64l270 -298v298h72v-580z" />
    <glyph glyph-name="O" unicode="O" horiz-adv-x="588" 
d="M508 127c0 -36.667 -12 -67 -36 -91s-54.333 -36 -91 -36h-174c-36.667 0 -67 12 -91 36s-36 54.333 -36 91v326c0 36.667 12 67 36 91s54.333 36 91 36h174c36.667 0 67 -12 91 -36s36 -54.333 36 -91v-326zM438 121v338c0 14 -4.83301 26.333 -14.5 37
s-21.5 16 -35.5 16h-188c-13.333 0 -25 -5.33301 -35 -16s-15 -23 -15 -37v-338c0 -14 5 -26.333 15 -37s21.667 -16 35 -16h188c14 0 25.833 5.33301 35.5 16s14.5 23 14.5 37z" />
    <glyph glyph-name="P" unicode="P" horiz-adv-x="542" 
d="M472 382c0 -36.667 -12 -67 -36 -91s-54.333 -36 -91 -36h-195v-255h-70v580h265c36.667 0 67 -12 91 -36s36 -54.333 36 -91v-71zM402 375v86c0 14 -4.83301 26.333 -14.5 37s-21.5 16 -35.5 16h-202v-192h202c14 0 25.833 5.33301 35.5 16s14.5 23 14.5 37z" />
    <glyph glyph-name="Q" unicode="Q" horiz-adv-x="591" 
d="M521 37l-50.001 -50.001l-85 88l-41 -43c-20.667 -21.333 -44.667 -32 -72 -32h-70c-37.333 0 -67.166 11.333 -89.499 34s-33.5 52.334 -33.5 89.001v330c0 36.667 12 67 36 91s54.333 36 91 36h176c36.667 0 67 -12 91 -36s36 -54.333 36 -91v-180
c0 -40.667 -12.333 -74.667 -37 -102l-41 -45zM439.999 266.999l0.000976562 192c0 14 -5 26.333 -15 37s-21.667 16 -35 16h-190c-13.333 0 -25 -5.33301 -35 -16s-15 -23 -15 -37v-338c0 -14.667 3.83301 -27.167 11.5 -37.5s18.167 -15.5 31.5 -15.5h65
c19.333 0 33.666 5 42.999 15l37 40l-70 68l49 50l66 -67l39 39c12 12 18 30 18 54z" />
    <glyph glyph-name="R" unicode="R" horiz-adv-x="564" 
d="M484 0h-72v189c0 44 -18.667 66 -56 66h-207v-255h-69v580h277c36.667 0 67 -12 91 -36s36 -54.333 36 -91v-66c0 -46.667 -17.333 -78.667 -52 -96c34.667 -16 52 -45.333 52 -88v-203zM412 388v72.999c0 14 -5 26.833 -15 38.5s-21.667 17.5 -35 17.5h-213v-192h202
c22.667 0 38.5 4.83301 47.5 14.5s13.5 25.834 13.5 48.501z" />
    <glyph glyph-name="S" unicode="S" horiz-adv-x="548" 
d="M478 125c0 -36.667 -12 -67 -36 -91s-54.333 -36 -91 -36h-154c-36.667 0 -67 12 -91 36s-36 54.333 -36 91v24h70v-30c0 -14 5 -26.333 15 -37s21.667 -16 35 -16h168c14 0 25.833 5.33301 35.5 16s14.5 23 14.5 37v80c0 14 -4.83301 26.167 -14.5 36.5
s-21.5 15.833 -35.5 16.5l-157 5c-36.667 1.33301 -67 13.833 -91 37.5s-36 53.5 -36 89.5v69c0 36.667 12 67 36 91s54.333 36 91 36h142c36.667 0 67 -12 91 -36s36 -54.333 36 -91v-25h-70v31c0 14 -4.83301 26.333 -14.5 37s-21.5 16 -35.5 16h-156
c-13.333 0 -25 -5.33301 -35 -16s-15 -23 -15 -37v-81c0 -14 4.83301 -26.167 14.5 -36.5s21.5 -15.833 35.5 -16.5l157 -4c36.667 -0.666992 67 -13 91 -37s36 -54 36 -90v-69z" />
    <glyph glyph-name="T" unicode="T" horiz-adv-x="528" 
d="M478 512h-176v-512h-77v512h-175v68h428v-68z" />
    <glyph glyph-name="U" unicode="U" horiz-adv-x="568" 
d="M488 127c0 -36.667 -12 -67 -36 -91s-54.333 -36 -91 -36h-154c-36.667 0 -67 12 -91 36s-36 54.333 -36 91v453h74v-459c0 -14 5 -26.333 15 -37s21.667 -16 35 -16h160c14 0 25.833 5.33301 35.5 16s14.5 23 14.5 37v459h74v-453z" />
    <glyph glyph-name="V" unicode="V" horiz-adv-x="576" 
d="M490 227c0 -36.667 -11 -66.667 -33 -90l-134 -137h-76l-134 137c-22 23.333 -33 53.333 -33 90v353h73v-349c0 -22 5.66699 -38.667 17 -50l110 -117h8l112 117c11.333 11.333 17 28 17 50v349h73v-353z" />
    <glyph glyph-name="W" unicode="W" horiz-adv-x="642" 
d="M562 195c0 -30 -11 -62.667 -33 -98l-62 -97h-74l-69 115h-6l-69 -115h-74l-62 97c-22 35.333 -33 68 -33 98v385h73v-385c0 -20 5.66699 -39.333 17 -58l38 -67h10l52 81c10.667 16.667 16 32.334 16 47.001v222h70v-222c0 -14.667 5.66699 -30.334 17 -47.001l51 -81
h10l39 67c10.667 18.667 16 38 16 58v385h73v-385z" />
    <glyph glyph-name="X" unicode="X" horiz-adv-x="565" 
d="M485 457c0 -35.333 -14.665 -65.668 -43.998 -91.001l-93 -82l96 -73c26.667 -20.667 40 -52.334 40 -95.001v-116h-73v108c0 19.333 -1.33301 32 -4 38s-9.33398 13 -20.001 21l-110 84h-7l-95 -84c-10 -9.33301 -16.333 -17.666 -19 -24.999s-4 -20 -4 -38v-104h-72
v108c0 24.667 2 43.334 6 56.001c5.33301 16 16.666 31.333 33.999 46l97 85l-96 74c-27.333 20.667 -41 51 -41 91v120h72v-116c0 -22 6.66699 -38 20 -48l115 -87h8l93 84c16 14 24 31 24 51v116h73v-123z" />
    <glyph glyph-name="Y" unicode="Y" horiz-adv-x="564" 
d="M484 432c0 -35.333 -11 -64.666 -33 -87.999l-133 -137v-207h-72v207l-133 137c-22 23.333 -33 52.666 -33 87.999v148h70v-144c0 -20.667 5.66699 -36.667 17 -48l107 -115h14l108 115c11.333 11.333 17 27.333 17 48v144h71v-148z" />
    <glyph glyph-name="Z" unicode="Z" horiz-adv-x="552" 
d="M472 0h-392v58l295 454h-295v68h392v-58l-295 -454h295v-68z" />
    <glyph glyph-name="bracketleft" unicode="[" horiz-adv-x="396" 
d="M316 -88h-236v736h236v-68h-166v-600h166v-68z" />
    <glyph glyph-name="backslash" unicode="\" horiz-adv-x="454" 
d="M424 -83l-69 -31l-325 767l68 31z" />
    <glyph glyph-name="bracketright" unicode="]" horiz-adv-x="396" 
d="M316 -88h-236v68h166v600h-166v68h236v-736z" />
    <glyph glyph-name="asciicircum" unicode="^" horiz-adv-x="400" 
d="M350 459l-49 -32l-97 95h-7l-98 -95l-49 32l123 121h55z" />
    <glyph glyph-name="underscore" unicode="_" horiz-adv-x="375" 
d="M375 -66h-375v66h375v-66z" />
    <glyph glyph-name="grave" unicode="`" horiz-adv-x="284" 
d="M196 430h-64l-62 150h64z" />
    <glyph glyph-name="a" unicode="a" horiz-adv-x="528" 
d="M448 288v-288h-261c-36.667 0 -67 12.167 -91 36.5s-36 53.5 -36 87.5c0 30.667 12 57.5 36 80.5s54 34.5 90 34.5h192v42c0 22 -5.33301 37.5 -16 46.5s-28.667 13.5 -54 13.5h-174v69h192c34 0 62.833 -12 86.5 -36s35.5 -52.667 35.5 -86zM378 66v109.001h-195
c-14 0 -26.5 -5 -37.5 -15s-16.5 -23.333 -16.5 -40c0 -14.667 5 -27.334 15 -38.001s21.667 -16 35 -16h199z" />
    <glyph glyph-name="b" unicode="b" horiz-adv-x="554" 
d="M474 127c0 -36.667 -12 -67 -36 -91s-54.333 -36 -91 -36h-267v580h70v-248l47 46c22 21.333 46.333 32 73 32h77c36 0 66.167 -12.167 90.5 -36.5s36.5 -54.5 36.5 -90.5v-156zM404 114v180c0 14 -4.83301 25.833 -14.5 35.5s-21.5 14.5 -35.5 14.5h-73
c-14 0 -24 -1.33301 -30 -4s-14.333 -9 -25 -19l-76 -70v-187h204c14 0 25.833 4.83301 35.5 14.5s14.5 21.5 14.5 35.5z" />
    <glyph glyph-name="c" unicode="c" horiz-adv-x="538" 
d="M458 254l-70 -0.000976562v38c0 33.333 -16.667 50 -50 50h-138c-14 0 -25.833 -4.83301 -35.5 -14.5s-14.5 -21.5 -14.5 -35.5v-174c0 -14 4.83301 -25.833 14.5 -35.5s21.5 -14.5 35.5 -14.5h219v-68h-212c-36.667 0 -67 12.333 -91 37s-36 55.334 -36 92.001v154
c0 36.667 12 67 36 91s54.333 36 91 36h124c40.667 0 72 -10.5 94 -31.5s33 -50.833 33 -89.5v-35z" />
    <glyph glyph-name="d" unicode="d" horiz-adv-x="554" 
d="M474 0h-267c-36.667 0 -67 12 -91 36s-36 54.333 -36 91v156c0 36 12 66.167 36 90.5s54.333 36.5 91 36.5h77c26 0 50 -10.667 72 -32l48 -46v248h70v-580zM404 64v187l-76 70c-10.667 10 -19 16.333 -25 19s-16 4 -30 4h-73c-14 0 -25.833 -4.83301 -35.5 -14.5
s-14.5 -21.5 -14.5 -35.5v-180c0 -14 4.83301 -25.833 14.5 -35.5s21.5 -14.5 35.5 -14.5h204z" />
    <glyph glyph-name="e" unicode="e" horiz-adv-x="548" 
d="M468 167h-318v-51c0 -14 4.83301 -25.833 14.5 -35.5s21.5 -14.5 35.5 -14.5h215v-66h-208c-36.667 0 -67 12 -91 36s-36 54.333 -36 91v156c0 36.667 12 67 36 91s54.333 36 91 36h134c36.667 0 67 -12 91 -36s36 -54.333 36 -91v-116zM398 231v60
c0 14 -4.83301 25.833 -14.5 35.5s-21.5 14.5 -35.5 14.5h-148c-14 0 -25.833 -4.83301 -35.5 -14.5s-14.5 -21.5 -14.5 -35.5v-60h248z" />
    <glyph glyph-name="f" unicode="f" horiz-adv-x="488" 
d="M468 424h-72.001v38c0 14 -4.83301 25.833 -14.5 35.5s-21.5 14.5 -35.5 14.5h-82c-13.333 0 -25 -4.83301 -35 -14.5s-15 -21.5 -15 -35.5v-138h112v-69h-112v-255h-70v255h-84v69h84v135c0 36.667 11.833 66 35.5 88s53.834 33 90.501 33h67
c37.333 0 68.5 -11.667 93.5 -35s37.5 -53.333 37.5 -90v-31z" />
    <glyph glyph-name="g" unicode="g" horiz-adv-x="544" 
d="M464 44c0 -36.667 -13 -67.833 -39 -93.5s-57.333 -38.5 -94 -38.5h-167v68h180c14 0 25.833 4.83301 35.5 14.5s14.5 21.5 14.5 35.5v38h-187c-37.333 0 -67.833 11 -91.5 33s-35.5 51.333 -35.5 88v100c0 36.667 11.833 66 35.5 88s54.167 33 91.5 33h257v-366z
M394 137.001v205h-194c-14 0 -25.833 -5 -35.5 -15s-14.5 -22 -14.5 -36v-104c0 -14 4.83301 -25.833 14.5 -35.5s21.5 -14.5 35.5 -14.5h194z" />
    <glyph glyph-name="h" unicode="h" horiz-adv-x="549" 
d="M469 0l-70.001 -0.000976562v293c0 14 -5 25.833 -15 35.5s-21.667 14.5 -35 14.5h-66c-13.333 0 -22.833 -1.33301 -28.5 -4s-14.167 -9 -25.5 -19l-79 -70v-250h-70v580h70v-248l50 46c23.333 21.333 47.333 32 72 32h74c36.667 0 66.334 -11.167 89.001 -33.5
s34 -52.166 34 -89.499v-287z" />
    <glyph glyph-name="i" unicode="i" horiz-adv-x="380" 
d="M236 504h-76v76h76v-76zM320 0h-240v64h84v280h-84v66h154v-346h86v-64z" />
    <glyph glyph-name="j" unicode="j" horiz-adv-x="434" 
d="M353 504h-76v76h76v-76zM354 39c0 -36.667 -11.832 -67 -35.499 -91s-53.834 -36 -90.501 -36h-71c-36.667 0 -67 12 -91 36s-36 54.333 -36 91v29h70v-38c0 -14 4.83301 -25.833 14.5 -35.5s21.5 -14.5 35.5 -14.5h83c14 0 25.833 4.83301 35.5 14.5
s14.5 21.5 14.5 35.5v380h71v-371z" />
    <glyph glyph-name="k" unicode="k" horiz-adv-x="511" 
d="M446 37l-54 -47l-149 182l-93 -95v-77h-70v580h70v-406h3l240 246l52 -50l-151 -151z" />
    <glyph glyph-name="l" unicode="l" horiz-adv-x="375" 
d="M320 0h-240v64h85v453h-85v63h155v-516h85v-64z" />
    <glyph glyph-name="m" unicode="m" horiz-adv-x="714" 
d="M634 0l-72 -0.000976562v294c0 33.333 -14.667 50 -44 50h-20c-13.333 0 -22.333 -1.33301 -27 -4c-1.33301 -0.666992 -8.33301 -7 -21 -19l-52 -48v-273h-72v294c0 33.333 -14.333 50 -43 50h-11c-11.333 0 -22 -4.33301 -32 -13l-88 -80v-251h-72v410h72v-78l50 46
c24 21.333 45.667 32 65 32h15c46 0 80 -23.333 102 -70l38 38c21.333 20.667 43 31.334 65 32.001h26c36 0.666992 65.167 -11 87.5 -35s33.5 -54.667 33.5 -92v-283z" />
    <glyph glyph-name="n" unicode="n" horiz-adv-x="549" 
d="M469 0l-70.001 -0.000976562v293c0 14 -5 25.833 -15 35.5s-21.667 14.5 -35 14.5h-66c-13.333 0 -22.833 -1.33301 -28.5 -4s-14.167 -9 -25.5 -19l-79 -70v-250h-70v410h70v-78l50 46c23.333 21.333 47.333 32 72 32h74c36.667 0 66.334 -11.167 89.001 -33.5
s34 -52.166 34 -89.499v-287z" />
    <glyph glyph-name="o" unicode="o" horiz-adv-x="542" 
d="M472 129c0 -36.667 -12.333 -67.334 -37 -92.001s-55.334 -37 -92.001 -37h-144c-36.667 0 -67.334 12.333 -92.001 37s-37 55.334 -37 92.001v152c0 36.667 12.333 67.334 37 92.001s55.334 37 92.001 37h144c36.667 0 67.334 -12.333 92.001 -37s37 -55.334 37 -92.001
v-152zM402 118v174c0 14 -4.83301 25.833 -14.5 35.5s-21.5 14.5 -35.5 14.5h-162c-14 0 -25.833 -4.83301 -35.5 -14.5s-14.5 -21.5 -14.5 -35.5v-174c0 -14 4.83301 -25.833 14.5 -35.5s21.5 -14.5 35.5 -14.5h162c14 0 25.833 4.83301 35.5 14.5s14.5 21.5 14.5 35.5z
" />
    <glyph glyph-name="p" unicode="p" horiz-adv-x="545" 
d="M465 195c0 -36.667 -12 -67 -36 -91s-54.667 -36 -92 -36h-187v-156h-70v498h257c37.333 0 68 -12 92 -36s36 -54.333 36 -91v-88zM392 186v106c0 14 -4.83301 25.833 -14.5 35.5s-21.5 14.5 -35.5 14.5h-192v-206h192c14 0 25.833 4.83301 35.5 14.5
s14.5 21.5 14.5 35.5z" />
    <glyph glyph-name="q" unicode="q" horiz-adv-x="525" 
d="M445 -88l-70 -0.00195312v156h-192c-36.667 0 -66.334 11.333 -89.001 34s-34 52.334 -34 89.001v96c0 36.667 11.333 66.334 34 89.001s52.334 34 89.001 34h262v-498zM375 135.998v206h-193c-13.333 0 -25 -4.83301 -35 -14.5s-15 -21.5 -15 -35.5v-106
c0 -14 5 -25.833 15 -35.5s21.667 -14.5 35 -14.5h193z" />
    <glyph glyph-name="r" unicode="r" horiz-adv-x="489" 
d="M444 255l-72 -0.000976562v36c0 14 -5 25.833 -15 35.5s-21.667 14.5 -35 14.5h-45c-14.667 0 -25 -1.16699 -31 -3.5s-14 -8.5 -24 -18.5l-72 -71v-248h-70v410h70v-78l50 53c16 16.667 38 25 66 25h51c36.667 0.666992 67 -11.166 91 -35.499s36 -54.833 36 -91.5v-28z
" />
    <glyph glyph-name="s" unicode="s" horiz-adv-x="516" 
d="M451 122c0 -34 -11.833 -62.833 -35.5 -86.5s-54.167 -35.5 -91.5 -35.5h-229v68h236c14 0 25.833 4.83301 35.5 14.5s14.5 21.5 14.5 35.5c0 32 -18 48.333 -54 49l-129 4c-38.667 1.33301 -70.5 12.833 -95.5 34.5s-37.5 48.5 -37.5 80.5c0 34 11.833 63.167 35.5 87.5
s54.167 36.5 91.5 36.5h224v-68h-231c-13.333 0 -25 -5.16699 -35 -15.5s-15 -22.5 -15 -36.5c0 -16 6.66699 -28.667 20 -38c10.667 -8 23 -12.333 37 -13l133 -3c36 -0.666992 66 -12.167 90 -34.5s36 -48.833 36 -79.5z" />
    <glyph glyph-name="t" unicode="t" horiz-adv-x="508" 
d="M468 127c0 -36.667 -11.999 -67 -35.999 -91s-54.333 -36 -91 -36h-71c-36.667 0 -66.834 12 -90.501 36s-35.5 54.333 -35.5 91v217h-84v66h84v170h70v-170h100v-66h-100v-226c0 -14 5 -25.833 15 -35.5s21.667 -14.5 35 -14.5h82c14 0 25.833 4.83301 35.5 14.5
s14.5 21.5 14.5 35.5v38h72v-29z" />
    <glyph glyph-name="u" unicode="u" horiz-adv-x="545" 
d="M465 0l-69.999 0.000976562v84l-48 -52c-19.333 -20.667 -43.333 -31.334 -72 -32.001h-68c-36.667 0 -67 12 -91 36s-36 54.333 -36 91v283h70v-294c0 -14 4.83301 -25.833 14.5 -35.5s21.5 -14.5 35.5 -14.5h64c14.667 0 25.167 1.16699 31.5 3.5
s14.166 8.83301 23.499 19.5l76 82v239h70v-410z" />
    <glyph glyph-name="v" unicode="v" horiz-adv-x="542" 
d="M462 229c0 -34.667 -11 -64.667 -33 -90l-122 -139h-72l-122 139c-22 25.333 -33 55.333 -33 90v181h72v-177c0 -20 5.66699 -36.667 17 -50l95 -117h12l97 117c11.333 13.333 17 30 17 50v177h72v-181z" />
    <glyph glyph-name="w" unicode="w" horiz-adv-x="642" 
d="M562 195c0 -31.333 -11 -64.001 -33 -98.001l-64 -97h-68l-73 113h-6l-73 -113h-68l-64 97c-22 34 -33 66.667 -33 98v215h73v-215c0 -20 5.66699 -39.333 17 -58l38 -67h8l54 81c10.667 16.667 16 32.334 16 47.001v92h70v-92c0 -15.333 5.66699 -31 17 -47l53 -81h8
l39 67c10.667 18.667 16 38 16 58v215h73v-215z" />
    <glyph glyph-name="x" unicode="x" horiz-adv-x="500" 
d="M430 0h-74v38c0 18 -4.33301 31.333 -13 40l-90 89h-6l-90 -89c-8.66699 -8.66699 -13 -22 -13 -40v-38h-74v37c0 34 9 59.667 27 77l90 88v6l-90 88c-18 17.333 -27 43 -27 77v37h74v-38c0 -18 4.33301 -31.333 13 -40l90 -89h6l90 89c8.66699 8.66699 13 22 13 40v38
h74v-37c0 -34 -9 -59.667 -27 -77l-90 -88v-6l90 -88c18 -17.333 27 -43 27 -77v-37z" />
    <glyph glyph-name="y" unicode="y" horiz-adv-x="544" 
d="M464 39c0 -36.667 -12 -67 -36 -91s-54.333 -36 -91 -36h-173v69h180c14 0 25.833 4.83301 35.5 14.5s14.5 21.5 14.5 35.5v37h-187c-36.667 0 -67 12 -91 36s-36 54.333 -36 91v215h70v-223c0 -14 4.83301 -25.833 14.5 -35.5s21.5 -14.5 35.5 -14.5h194v273h70v-371z
" />
    <glyph glyph-name="z" unicode="z" horiz-adv-x="529" 
d="M449 0h-369v58l268 288h-268v64h369v-58l-267 -288h267v-64z" />
    <glyph glyph-name="braceleft" unicode="{" horiz-adv-x="446" 
d="M366 -136h-89c-36.667 0 -67 12 -91 36s-36 54.333 -36 91v195c0 34.667 -18.333 57 -55 67l-15 4v66l15 4c36.667 10 55 32.333 55 67v195c0 36.667 12 67 36 91s54.333 36 91 36h89v-68h-94c-13.333 0 -25 -5.33301 -35 -16s-15 -23 -15 -37v-212
c0 -36 -16.667 -66 -50 -90v-6c33.333 -24 50 -54 50 -90v-212c0 -14 5 -26.333 15 -37s21.667 -16 35 -16h94v-68z" />
    <glyph glyph-name="bar" unicode="|" horiz-adv-x="230" 
d="M150 -114h-70v833h70v-833z" />
    <glyph glyph-name="braceright" unicode="}" horiz-adv-x="446" 
d="M366 257l-15 -4c-36.667 -10 -55 -32.333 -55 -67v-195c0 -36.667 -12 -67 -36 -91s-54.333 -36 -91 -36h-89v68h94c13.333 0 25 5.33301 35 16s15 23 15 37v212c0 36 16.667 66 50 90v6c-33.333 24 -50 54 -50 90v212c0 14 -5 26.333 -15 37s-21.667 16 -35 16h-94v68
h89c36.667 0 67 -12 91 -36s36 -54.333 36 -91v-195c0 -34.667 18.333 -57 55 -67l15 -4v-66z" />
    <glyph glyph-name="asciitilde" unicode="~" horiz-adv-x="420" 
d="M370 550l-89 -95c-8.66699 -9.33301 -18.667 -14 -30 -14c-10.667 0 -20.667 4.66699 -30 14l-58 58c-6 6 -11.333 6.33301 -16 1l-61 -67l-36 36l88 94c8.66699 9.33301 18.667 14 30 14c10.667 0 20.667 -4.66699 30 -14l58 -58c6 -6 11.333 -6.33301 16 -1l62 68z" />
    <glyph glyph-name="nonbreakingspace" unicode="&#xa0;" horiz-adv-x="175" 
 />
    <glyph glyph-name="exclamdown" unicode="&#xa1;" horiz-adv-x="276" 
d="M181 492h-88v88h88v-88zM191 0h-106v143l18 269h70l18 -269v-143z" />
    <glyph glyph-name="cent" unicode="&#xa2;" horiz-adv-x="481" 
d="M401 116l-107 -0.000976562v-204h-54v204h-33c-36.667 0 -67 12.333 -91 37s-36 55.334 -36 92.001v96c0 36.667 12 67 36 91s54.333 36 91 36h33v192h54v-192h107v-68h-201c-14 0 -25.833 -4.83301 -35.5 -14.5s-14.5 -21.5 -14.5 -35.5v-116
c0 -14 4.83301 -25.833 14.5 -35.5s21.5 -14.5 35.5 -14.5h201v-68z" />
    <glyph glyph-name="sterling" unicode="&#xa3;" horiz-adv-x="574" 
d="M494 52h-413.999v68h70v293c0 36.667 11.667 66 35 88s53.666 33 90.999 33h67c37.333 0 68.5 -11.667 93.5 -35s37.5 -53.333 37.5 -90v-31h-72v38c0 14 -5 25.833 -15 35.5s-21.667 14.5 -35 14.5h-82c-14 0 -25.833 -4.83301 -35.5 -14.5s-14.5 -21.5 -14.5 -35.5
v-121h111v-55h-111v-120h274v-68z" />
    <glyph glyph-name="currency" unicode="&#xa4;" horiz-adv-x="550" 
d="M470 121v-69h-193c-36.667 0 -67 12 -91 36s-36 54.333 -36 91v22h-70v48h70v82h-70v48h70v28c0 36.667 12 67 36 91s54.333 36 91 36h193v-70h-198c-13.333 0 -25 -5.33301 -35 -16s-15 -23 -15 -37v-32h110v-48h-110v-82h110v-48h-110v-27c0 -14 5 -26.333 15 -37
s21.667 -16 35 -16h198z" />
    <glyph glyph-name="yen" unicode="&#xa5;" horiz-adv-x="564" 
d="M484 462c0 -36.667 -11 -66 -33 -88l-90 -86h49v-46h-87l-5 -5v-58h92v-46h-92v-81h-72v81h-88v46h88v58l-5 5h-83v46h45l-90 86c-22 22 -33 51.333 -33 88v66h70v-62c0 -20 5.66699 -36 17 -48l107 -115h14l108 115c11.333 12 17 28 17 48v62h71v-66z" />
    <glyph glyph-name="brokenbar" unicode="&#xa6;" horiz-adv-x="230" 
d="M150 370h-70v349h70v-349zM150 -114h-70v349h70v-349z" />
    <glyph glyph-name="section" unicode="&#xa7;" horiz-adv-x="544" 
d="M474 39c0 -37.333 -11.833 -67.835 -35.5 -91.502s-54.167 -35.5 -91.5 -35.5h-150c-36.667 0 -67 12 -91 36s-36 54.333 -36 91v24h70v-30c0 -14 5 -26.333 15 -37s21.667 -16 35 -16h164c14 0 25.833 5.33301 35.5 16s14.5 23 14.5 37v46
c0 13.333 -5.33301 25.5 -16 36.5s-24.334 17.833 -41.001 20.5l-146 24c-84.667 14 -127 56.333 -127 127v15c0 17.333 5.5 34.833 16.5 52.5s24.167 29.834 39.5 36.501c-34.667 19.333 -52 51 -52 95v35c0 36.667 12.333 67 37 91s55.334 36 92.001 36h124
c36.667 0 67 -12 91 -36s36 -54.333 36 -91v-25h-70v31c0 14 -4.83301 26.333 -14.5 37s-21.5 16 -35.5 16h-140c-13.333 0 -25 -5.33301 -35 -16s-15 -23 -15 -37v-47c0 -13.333 4.83301 -25 14.5 -35s21.5 -16 35.5 -18l149 -24c37.333 -6 67.333 -19.333 90 -40
c24.667 -23.333 37 -52.333 37 -87v-13c0 -18.667 -4.66699 -37 -14 -55s-21 -30.333 -35 -37c14.667 -6.66699 26.5 -19.167 35.5 -37.5s13.5 -38.166 13.5 -59.499v-35zM404 256.998l0.000976562 23.999c0 13.333 -4.83301 24.833 -14.5 34.5s-21.5 15.834 -35.5 18.501
l-144 25c-16.667 2.66699 -31.834 -2.5 -45.501 -15.5s-20.5 -26.5 -20.5 -40.5v-22c0 -13.333 4.83301 -25 14.5 -35s21.5 -16 35.5 -18l156 -23c14 -2 26.5 2.5 37.5 13.5s16.5 23.833 16.5 38.5z" />
    <glyph glyph-name="dieresis" unicode="&#xa8;" 
d="M412 654h-68v68h68v-68zM226 654h-68v68h68v-68z" />
    <glyph glyph-name="copyright" unicode="&#xa9;" horiz-adv-x="605" 
d="M525 153c0 -23.333 -8.33301 -43.333 -25 -60s-37 -25 -61 -25h-274c-23.333 0 -43.333 8.33301 -60 25s-25 36.667 -25 60v274c0 24 8.33301 44.333 25 61s36.667 25 60 25h274c24 0 44.333 -8.33301 61 -25s25 -37 25 -61v-274zM474 153v274
c0 10 -3.33301 18.333 -10 25s-15 10 -25 10h-274c-9.33301 0 -17.5 -3.33301 -24.5 -10s-10.5 -15 -10.5 -25v-274c0 -9.33301 3.5 -17.5 10.5 -24.5s15.167 -10.5 24.5 -10.5h274c10 0 18.333 3.5 25 10.5s10 15.167 10 24.5zM401 214c0 -18 -6 -32.833 -18 -44.5
s-27 -17.5 -45 -17.5h-65c-18 0 -32.833 5.83301 -44.5 17.5s-17.5 26.5 -17.5 44.5v138c0 18 5.83301 32.833 17.5 44.5s26.5 17.5 44.5 17.5h66c18 0 32.833 -6.33301 44.5 -19s17.5 -28 17.5 -46v-17h-48v22c0 9.33301 -4.33301 14 -13 14h-69
c-8.66699 0 -13 -4.66699 -13 -14v-142c0 -9.33301 4.33301 -14 13 -14h69c8.66699 0 13 4.66699 13 14v22h48v-20z" />
    <glyph glyph-name="ordfeminine" unicode="&#xaa;" horiz-adv-x="415" 
d="M335 322v-202.001h-184c-26 0 -47.667 8.66699 -65 26s-26 38.333 -26 63c0 22.667 8.66699 41.834 26 57.501s39 23.5 65 23.5h127v27c0 24.667 -14.667 37 -44 37h-124v56h137c24 0 44.667 -8.66699 62 -26s26 -38 26 -62zM335 -0.000976562h-255v68h255v-68z
M278 173.999v66h-130c-21.333 0 -32 -11.333 -32 -34c0 -8.66699 3 -16.167 9 -22.5s13 -9.5 21 -9.5h132z" />
    <glyph glyph-name="guillemotleft" unicode="&#xab;" horiz-adv-x="679" 
d="M599 49l-49 -49l-177 177v55l177 176l49 -49l-153 -151v-7zM306 49l-49 -49l-177 177v55l177 176l49 -49l-153 -151v-7z" />
    <glyph glyph-name="logicalnot" unicode="&#xac;" horiz-adv-x="559" 
d="M479 155h-59v102h-340v66h399v-168z" />
    <glyph glyph-name="minus" unicode="&#xad;" horiz-adv-x="479" 
d="M399 257h-319v66h319v-66z" />
    <glyph glyph-name="minus" unicode="&#x2212;" horiz-adv-x="479" 
d="M399 257h-319v66h319v-66z" />
    <glyph glyph-name="registered" unicode="&#xae;" horiz-adv-x="605" 
d="M525 153c0 -23.333 -8.33301 -43.333 -25 -60s-37 -25 -61 -25h-274c-23.333 0 -43.333 8.33301 -60 25s-25 36.667 -25 60v274c0 24 8.33301 44.333 25 61s36.667 25 60 25h274c24 0 44.333 -8.33301 61 -25s25 -37 25 -61v-274zM474 153v274
c0 10 -3.33301 18.333 -10 25s-15 10 -25 10h-274c-9.33301 0 -17.5 -3.33301 -24.5 -10s-10.5 -15 -10.5 -25v-274c0 -9.33301 3.5 -17.5 10.5 -24.5s15.167 -10.5 24.5 -10.5h274c10 0 18.333 3.5 25 10.5s10 15.167 10 24.5zM399 152h-47v88c0 13.333 -5.33301 20 -16 20
h-79v-108h-46v262h126c17.333 0 32 -5.83301 44 -17.5s18 -26.5 18 -44.5v-28c0 -16.667 -5.33301 -30 -16 -40c10.667 -9.33301 16 -22 16 -38v-94zM352 325v30c0 10.667 -4.33301 16 -13 16h-82v-65h77c12 0 18 6.33301 18 19z" />
    <glyph glyph-name="macron" unicode="&#xaf;" 
d="M389 668h-220v50h220v-50z" />
    <glyph glyph-name="macron" unicode="&#x2c9;" 
d="M389 668h-220v50h220v-50z" />
    <glyph glyph-name="degree" unicode="&#xb0;" horiz-adv-x="222" 
d="M202 647c0 -16.667 -6 -31 -18 -43s-26.667 -18 -44 -18h-59c-16.667 0 -31 6 -43 18s-18 26.333 -18 43v59c0 17.333 6 32 18 44s26.333 18 43 18h59c17.333 0 32 -6 44 -18s18 -26.667 18 -44v-59zM152 645v64c0 6 -3 9 -9 9h-64c-6.66699 0 -10 -3 -10 -9v-64
c0 -6.66699 3.33301 -10 10 -10h64c6 0 9 3.33301 9 10z" />
    <glyph glyph-name="plusminus" unicode="&#xb1;" horiz-adv-x="568" 
d="M488 342h-170v-171h-70v171h-168v70h168v168h70v-168h170v-70zM488 0h-408v62h408v-62z" />
    <glyph glyph-name="acute" unicode="&#xb4;" horiz-adv-x="284" 
d="M202 580l-68 -150h-64l68 150h64z" />
    <glyph glyph-name="mu" unicode="&#xb5;" horiz-adv-x="561" 
d="M531 0l-52 0.000976562c-25.333 0 -45.666 7.83301 -60.999 23.5s-23 34.167 -23 55.5v7l-48 -52c-19.333 -20.667 -43.333 -31.334 -72 -32.001h-48c-20 0 -35.333 5 -46 15l-33 32v-137h-68v498h68v-276l45 -48c11.333 -12 24 -18 38 -18h31
c14.667 0 25.167 1.16699 31.5 3.5s14.166 8.83301 23.499 19.5l76 82v237h68v-308c0 -24 13.667 -36 41 -36h29v-66z" />
    <glyph glyph-name="mu" unicode="&#x3bc;" horiz-adv-x="561" 
d="M531 0l-52 0.000976562c-25.333 0 -45.666 7.83301 -60.999 23.5s-23 34.167 -23 55.5v7l-48 -52c-19.333 -20.667 -43.333 -31.334 -72 -32.001h-48c-20 0 -35.333 5 -46 15l-33 32v-137h-68v498h68v-276l45 -48c11.333 -12 24 -18 38 -18h31
c14.667 0 25.167 1.16699 31.5 3.5s14.166 8.83301 23.499 19.5l76 82v237h68v-308c0 -24 13.667 -36 41 -36h29v-66z" />
    <glyph glyph-name="paragraph" unicode="&#xb6;" horiz-adv-x="583" 
d="M503 580h-69v-780h-70v780h-85v-780h-70v302h-20c-36.667 0 -65.667 10.667 -87 32s-32 50.333 -32 87v306c0 36.667 10.667 65.667 32 87s50.333 32 87 32h314v-66z" />
    <glyph glyph-name="periodcentered" unicode="&#xb7;" horiz-adv-x="280" 
d="M192 248c0 -6.66699 -3.33301 -10 -10 -10h-92c-6.66699 0 -10 3.33301 -10 10v92c0 6.66699 3.33301 10 10 10h92c6.66699 0 10 -3.33301 10 -10v-92z" />
    <glyph glyph-name="periodcentered" unicode="&#x2219;" horiz-adv-x="280" 
d="M192 248c0 -6.66699 -3.33301 -10 -10 -10h-92c-6.66699 0 -10 3.33301 -10 10v92c0 6.66699 3.33301 10 10 10h92c6.66699 0 10 -3.33301 10 -10v-92z" />
    <glyph glyph-name="cedilla" unicode="&#xb8;" horiz-adv-x="568" 
d="M329 -29c0.666992 -5.33301 0.999023 -10.667 0.999023 -16c0 -25.333 -9.16699 -46.5 -27.5 -63.5s-42.166 -25.5 -71.499 -25.5h-49v52h48c16 0 27.833 5.33301 35.5 16s10.167 23 7.5 37l-8 44h57z" />
    <glyph glyph-name="ordmasculine" unicode="&#xba;" horiz-adv-x="425" 
d="M355 213c0 -26.667 -9 -48.834 -27 -66.501s-40 -26.5 -66 -26.5h-99c-26.667 0 -48.834 8.83301 -66.501 26.5s-26.5 39.834 -26.5 66.501v104c0 26.667 8.83301 48.834 26.5 66.501s39.834 26.5 66.501 26.5h99c26 0 48 -8.83301 66 -26.5s27 -39.834 27 -66.501v-104z
M339 0h-255v68h255v-68zM298 205v120c0 20 -10 30 -30 30h-111c-20 0 -30 -10 -30 -30v-120c0 -20 10 -30 30 -30h111c20 0 30 10 30 30z" />
    <glyph glyph-name="guillemotright" unicode="&#xbb;" horiz-adv-x="679" 
d="M599 177l-177 -177l-49 49l153 152v7l-153 151l49 49l177 -176v-55zM306 177l-177 -177l-49 49l153 152v7l-153 151l49 49l177 -176v-55z" />
    <glyph glyph-name="questiondown" unicode="&#xbf;" horiz-adv-x="558" 
d="M322 492h-88v88h88v-88zM478 133c0 -37.333 -11.833 -68.833 -35.5 -94.5s-53.5 -38.5 -89.5 -38.5h-146c-36.667 0 -67 12 -91 36s-36 54.333 -36 91v39c0 31.333 14 61 42 89l79.5 66c27 22.667 40.5 44 40.5 64v40h72v-45c0 -28 -14 -55.667 -42 -83l-78 -64
c-28 -24 -42 -45 -42 -63v-47c0 -14 5 -26.333 15 -37s21.667 -16 35 -16h154c13.333 0 25 5.33301 35 16s15 23 15 37v32h72v-22z" />
    <glyph glyph-name="Agrave" unicode="&#xc0;" 
d="M490 357v-357h-71v192h-268v-192h-71v357c0 37.333 11 67.333 33 90l134 133h76l134 -133c22 -22.667 33 -52.667 33 -90zM419 351c0 22 -5.66699 38.667 -17 50l-112 117h-8l-114 -117c-11.333 -11.333 -17 -28 -17 -50v-96h268v96zM329 651h-64l-62 150h64z" />
    <glyph glyph-name="Aacute" unicode="&#xc1;" 
d="M490 357v-357h-71v192h-268v-192h-71v357c0 37.333 11 67.333 33 90l134 133h76l134 -133c22 -22.667 33 -52.667 33 -90zM419 351c0 22 -5.66699 38.667 -17 50l-112 117h-8l-114 -117c-11.333 -11.333 -17 -28 -17 -50v-96h268v96zM353 799l-68 -150h-64l68 150h64z
" />
    <glyph glyph-name="Acircumflex" unicode="&#xc2;" 
d="M490 357v-357h-71v192h-268v-192h-71v357c0 37.333 11 67.333 33 90l134 133h76l134 -133c22 -22.667 33 -52.667 33 -90zM419 351c0 22 -5.66699 38.667 -17 50l-112 117h-8l-114 -117c-11.333 -11.333 -17 -28 -17 -50v-96h268v96zM405 661l-40 -26l-79 73h-6l-79 -73
l-40 26l100 98h44z" />
    <glyph glyph-name="Atilde" unicode="&#xc3;" 
d="M490 357v-357h-71v192h-268v-192h-71v357c0 37.333 11 67.333 33 90l134 133h76l134 -133c22 -22.667 33 -52.667 33 -90zM419 351c0 22 -5.66699 38.667 -17 50l-112 117h-8l-114 -117c-11.333 -11.333 -17 -28 -17 -50v-96h268v96zM433 721l-73 -79
c-7.33301 -7.33301 -15.666 -11 -24.999 -11c-8.66699 0 -17 3.66699 -25 11l-48 48c-4.66699 4.66699 -9 5 -13 1l-50 -55l-30 29l73 78c7.33301 7.33301 15.333 11 24 11c9.33301 0 17.666 -3.66699 24.999 -11l48 -48c4.66699 -4.66699 9 -5 13 -1l51 56z" />
    <glyph glyph-name="Adieresis" unicode="&#xc4;" 
d="M490 357v-357h-71v192h-268v-192h-71v357c0 37.333 11 67.333 33 90l134 133h76l134 -133c22 -22.667 33 -52.667 33 -90zM419 351c0 22 -5.66699 38.667 -17 50l-112 117h-8l-114 -117c-11.333 -11.333 -17 -28 -17 -50v-96h268v96zM412 654h-68v68h68v-68zM226 654h-68
v68h68v-68z" />
    <glyph glyph-name="Aring" unicode="&#xc5;" 
d="M490 357v-357h-71v192h-268v-192h-71v357c0 37.333 11 67.333 33 90l134 133h76l134 -133c22 -22.667 33 -52.667 33 -90zM419 351c0 22 -5.66699 38.667 -17 50l-112 117h-8l-114 -117c-11.333 -11.333 -17 -28 -17 -50v-96h268v96zM360 676c0 -14 -5 -26 -15 -36
s-22 -15 -36 -15h-49c-14 0 -26 5 -36 15s-15 22 -15 36v49c0 14 5 25.833 15 35.5s22 14.5 36 14.5h49c14 0 26 -4.83301 36 -14.5s15 -21.5 15 -35.5v-49zM319 674v53c0 4.66699 -2.66699 7 -8 7h-53c-5.33301 0 -8 -2.33301 -8 -7v-53c0 -5.33301 2.66699 -8 8 -8h53
c5.33301 0 8 2.66699 8 8z" />
    <glyph glyph-name="AE" unicode="&#xc6;" horiz-adv-x="819" 
d="M739 0h-328v249h-260v-249h-71v357c0 36 11 66 33 90l126 133h76l98 -98v98h326v-68h-256v-194h194v-69h-194v-181h256v-68zM411 351c0 22 -5.66699 38.667 -17 50l-112 117h-8l-106 -117c-11.333 -12 -17 -28.667 -17 -50v-35h260v35z" />
    <glyph glyph-name="Ccedilla" unicode="&#xc7;" horiz-adv-x="568" 
d="M488 127c0 -36.667 -12 -67 -36 -91s-54.333 -36 -91 -36h-154c-36.667 0 -67 12 -91 36s-36 54.333 -36 91v326c0 36.667 12 67 36 91s54.333 36 91 36h156c36 0 65.833 -12.833 89.5 -38.5s35.5 -57.167 35.5 -94.5v-22h-72v32c0 14 -5 26.333 -15 37
s-21.667 16 -35 16h-164c-13.333 0 -25 -5.33301 -35 -16s-15 -23 -15 -37v-335c0 -14 5 -26.333 15 -37s21.667 -16 35 -16h164c13.333 0 25 5.33301 35 16s15 23 15 37v34h72v-29zM329 -29c0.666992 -5.33301 0.999023 -10.667 0.999023 -16
c0 -25.333 -9.16699 -46.5 -27.5 -63.5s-42.166 -25.5 -71.499 -25.5h-49v52h48c16 0 27.833 5.33301 35.5 16s10.167 23 7.5 37l-8 44h57z" />
    <glyph glyph-name="Egrave" unicode="&#xc8;" horiz-adv-x="506" 
d="M426 0h-346v580h346v-68h-276v-188h214v-69h-214v-187h276v-68zM285 651h-64l-62 150h64z" />
    <glyph glyph-name="Eacute" unicode="&#xc9;" horiz-adv-x="506" 
d="M426 0h-346v580h346v-68h-276v-188h214v-69h-214v-187h276v-68zM322 800l-68 -150h-64l68 150h64z" />
    <glyph glyph-name="Ecircumflex" unicode="&#xca;" horiz-adv-x="506" 
d="M426 0h-346v580h346v-68h-276v-188h214v-69h-214v-187h276v-68zM376 661l-40 -26l-79 73h-6l-79 -73l-40 26l100 98h44z" />
    <glyph glyph-name="Edieresis" unicode="&#xcb;" horiz-adv-x="506" 
d="M426 0h-346v580h346v-68h-276v-188h214v-69h-214v-187h276v-68zM376 654h-68v68h68v-68zM190 654h-68v68h68v-68z" />
    <glyph glyph-name="Igrave" unicode="&#xcc;" horiz-adv-x="400" 
d="M320 0h-240v66h84v448h-84v66h240v-66h-85v-448h85v-66zM242 650h-64l-62 150h64z" />
    <glyph glyph-name="Iacute" unicode="&#xcd;" horiz-adv-x="400" 
d="M320 0h-240v66h84v448h-84v66h240v-66h-85v-448h85v-66zM276 800l-68 -150h-64l68 150h64z" />
    <glyph glyph-name="Icircumflex" unicode="&#xce;" horiz-adv-x="400" 
d="M320 0h-240v66h84v448h-84v66h240v-66h-85v-448h85v-66zM321 661l-40 -26l-79 73h-6l-79 -73l-40 26l100 98h44z" />
    <glyph glyph-name="Idieresis" unicode="&#xcf;" horiz-adv-x="400" 
d="M320 0h-240v66h84v448h-84v66h240v-66h-85v-448h85v-66zM329 654h-68v68h68v-68zM143 654h-68v68h68v-68z" />
    <glyph glyph-name="Eth" unicode="&#xd0;" horiz-adv-x="580" 
d="M500 127c0 -36.667 -12 -67 -36 -91s-54.333 -36 -91 -36h-283v255h-40v70h40v255h283c36.667 0 67 -12 91 -36s36 -54.333 36 -91v-326zM428 121v338c0 14 -5 26.333 -15 37s-21.667 16 -35 16h-218v-187h146v-70h-146v-187h218c13.333 0 25 5.33301 35 16s15 23 15 37z
" />
    <glyph glyph-name="Ntilde" unicode="&#xd1;" horiz-adv-x="566" 
d="M486 0h-72v176l-262 287v-463h-72v580h64l270 -298v298h72v-580zM415 721l-73 -79c-7.33301 -7.33301 -15.666 -11 -24.999 -11c-8.66699 0 -17 3.66699 -25 11l-48 48c-4.66699 4.66699 -9 5 -13 1l-50 -55l-30 29l73 78c7.33301 7.33301 15.333 11 24 11
c9.33301 0 17.666 -3.66699 24.999 -11l48 -48c4.66699 -4.66699 9 -5 13 -1l51 56z" />
    <glyph glyph-name="Ograve" unicode="&#xd2;" horiz-adv-x="588" 
d="M508 127c0 -36.667 -12 -67 -36 -91s-54.333 -36 -91 -36h-174c-36.667 0 -67 12 -91 36s-36 54.333 -36 91v326c0 36.667 12 67 36 91s54.333 36 91 36h174c36.667 0 67 -12 91 -36s36 -54.333 36 -91v-326zM438 121v338c0 14 -4.83301 26.333 -14.5 37
s-21.5 16 -35.5 16h-188c-13.333 0 -25 -5.33301 -35 -16s-15 -23 -15 -37v-338c0 -14 5 -26.333 15 -37s21.667 -16 35 -16h188c14 0 25.833 5.33301 35.5 16s14.5 23 14.5 37zM339 651h-64l-62 150h64z" />
    <glyph glyph-name="Oacute" unicode="&#xd3;" horiz-adv-x="588" 
d="M508 127c0 -36.667 -12 -67 -36 -91s-54.333 -36 -91 -36h-174c-36.667 0 -67 12 -91 36s-36 54.333 -36 91v326c0 36.667 12 67 36 91s54.333 36 91 36h174c36.667 0 67 -12 91 -36s36 -54.333 36 -91v-326zM438 121v338c0 14 -4.83301 26.333 -14.5 37
s-21.5 16 -35.5 16h-188c-13.333 0 -25 -5.33301 -35 -16s-15 -23 -15 -37v-338c0 -14 5 -26.333 15 -37s21.667 -16 35 -16h188c14 0 25.833 5.33301 35.5 16s14.5 23 14.5 37zM382 801l-68 -150h-64l68 150h64z" />
    <glyph glyph-name="Ocircumflex" unicode="&#xd4;" horiz-adv-x="588" 
d="M508 127c0 -36.667 -12 -67 -36 -91s-54.333 -36 -91 -36h-174c-36.667 0 -67 12 -91 36s-36 54.333 -36 91v326c0 36.667 12 67 36 91s54.333 36 91 36h174c36.667 0 67 -12 91 -36s36 -54.333 36 -91v-326zM438 121v338c0 14 -4.83301 26.333 -14.5 37
s-21.5 16 -35.5 16h-188c-13.333 0 -25 -5.33301 -35 -16s-15 -23 -15 -37v-338c0 -14 5 -26.333 15 -37s21.667 -16 35 -16h188c14 0 25.833 5.33301 35.5 16s14.5 23 14.5 37zM415 661l-40 -26l-79 73h-6l-79 -73l-40 26l100 98h44z" />
    <glyph glyph-name="Otilde" unicode="&#xd5;" horiz-adv-x="588" 
d="M508 127c0 -36.667 -12 -67 -36 -91s-54.333 -36 -91 -36h-174c-36.667 0 -67 12 -91 36s-36 54.333 -36 91v326c0 36.667 12 67 36 91s54.333 36 91 36h174c36.667 0 67 -12 91 -36s36 -54.333 36 -91v-326zM438 121v338c0 14 -4.83301 26.333 -14.5 37
s-21.5 16 -35.5 16h-188c-13.333 0 -25 -5.33301 -35 -16s-15 -23 -15 -37v-338c0 -14 5 -26.333 15 -37s21.667 -16 35 -16h188c14 0 25.833 5.33301 35.5 16s14.5 23 14.5 37zM433 721l-73 -79c-7.33301 -7.33301 -15.666 -11 -24.999 -11c-8.66699 0 -17 3.66699 -25 11
l-48 48c-4.66699 4.66699 -9 5 -13 1l-50 -55l-30 29l73 78c7.33301 7.33301 15.333 11 24 11c9.33301 0 17.666 -3.66699 24.999 -11l48 -48c4.66699 -4.66699 9 -5 13 -1l51 56z" />
    <glyph glyph-name="Odieresis" unicode="&#xd6;" horiz-adv-x="588" 
d="M508 127c0 -36.667 -12 -67 -36 -91s-54.333 -36 -91 -36h-174c-36.667 0 -67 12 -91 36s-36 54.333 -36 91v326c0 36.667 12 67 36 91s54.333 36 91 36h174c36.667 0 67 -12 91 -36s36 -54.333 36 -91v-326zM438 121v338c0 14 -4.83301 26.333 -14.5 37
s-21.5 16 -35.5 16h-188c-13.333 0 -25 -5.33301 -35 -16s-15 -23 -15 -37v-338c0 -14 5 -26.333 15 -37s21.667 -16 35 -16h188c14 0 25.833 5.33301 35.5 16s14.5 23 14.5 37zM426 654h-68v68h68v-68zM240 654h-68v68h68v-68z" />
    <glyph glyph-name="multiply" unicode="&#xd7;" horiz-adv-x="523" 
d="M443 159l-50 -49l-131 131l-133 -132l-49 49l132 133l-130 130l50 49l130 -130l130 130l49 -49l-130 -130z" />
    <glyph glyph-name="Oslash" unicode="&#xd8;" horiz-adv-x="588" 
d="M508 127c0 -36.667 -12 -67 -36 -91s-54.333 -36 -91 -36h-174c-36.667 0 -67 12 -91 36s-36 54.333 -36 91v326c0 36.667 12 67 36 91s54.333 36 91 36h174c36.667 0 67 -12 91 -36s36 -54.333 36 -91v-326zM438 121v338.001c0 5.33301 -0.666992 10.666 -2 15.999
l-233 -407h185c14 0 25.833 5.33301 35.5 16s14.5 23 14.5 37zM386 512.001h-186c-13.333 0 -25 -5.33301 -35 -16s-15 -23 -15 -37v-338c0 -6 1 -12 3 -18z" />
    <glyph glyph-name="Ugrave" unicode="&#xd9;" horiz-adv-x="568" 
d="M488 127c0 -36.667 -12 -67 -36 -91s-54.333 -36 -91 -36h-154c-36.667 0 -67 12 -91 36s-36 54.333 -36 91v453h74v-459c0 -14 5 -26.333 15 -37s21.667 -16 35 -16h160c14 0 25.833 5.33301 35.5 16s14.5 23 14.5 37v459h74v-453zM327 651h-64l-62 150h64z" />
    <glyph glyph-name="Uacute" unicode="&#xda;" horiz-adv-x="568" 
d="M488 127c0 -36.667 -12 -67 -36 -91s-54.333 -36 -91 -36h-154c-36.667 0 -67 12 -91 36s-36 54.333 -36 91v453h74v-459c0 -14 5 -26.333 15 -37s21.667 -16 35 -16h160c14 0 25.833 5.33301 35.5 16s14.5 23 14.5 37v459h74v-453zM367 800l-68 -150h-64l68 150h64z" />
    <glyph glyph-name="Ucircumflex" unicode="&#xdb;" horiz-adv-x="568" 
d="M488 127c0 -36.667 -12 -67 -36 -91s-54.333 -36 -91 -36h-154c-36.667 0 -67 12 -91 36s-36 54.333 -36 91v453h74v-459c0 -14 5 -26.333 15 -37s21.667 -16 35 -16h160c14 0 25.833 5.33301 35.5 16s14.5 23 14.5 37v459h74v-453zM405 661l-40 -26l-79 73h-6l-79 -73
l-40 26l100 98h44z" />
    <glyph glyph-name="Udieresis" unicode="&#xdc;" horiz-adv-x="568" 
d="M488 127c0 -36.667 -12 -67 -36 -91s-54.333 -36 -91 -36h-154c-36.667 0 -67 12 -91 36s-36 54.333 -36 91v453h74v-459c0 -14 5 -26.333 15 -37s21.667 -16 35 -16h160c14 0 25.833 5.33301 35.5 16s14.5 23 14.5 37v459h74v-453zM412 654h-68v68h68v-68zM226 654h-68
v68h68v-68z" />
    <glyph glyph-name="Yacute" unicode="&#xdd;" horiz-adv-x="564" 
d="M484 432c0 -35.333 -11 -64.666 -33 -87.999l-133 -137v-207h-72v207l-133 137c-22 23.333 -33 52.666 -33 87.999v148h70v-144c0 -20.667 5.66699 -36.667 17 -48l107 -115h14l108 115c11.333 11.333 17 27.333 17 48v144h71v-148zM361 801l-68 -150h-64l68 150h64z" />
    <glyph glyph-name="Thorn" unicode="&#xde;" horiz-adv-x="542" 
d="M472 382c0 -36.667 -12 -67 -36 -91s-54.333 -36 -91 -36h-195v-255h-70v695h70v-115h195c36.667 0 67 -12 91 -36s36 -54.333 36 -91v-71zM402 375v86c0 14 -4.83301 26.333 -14.5 37s-21.5 16 -35.5 16h-202v-192h202c14 0 25.833 5.33301 35.5 16s14.5 23 14.5 37z
" />
    <glyph glyph-name="germandbls" unicode="&#xdf;" horiz-adv-x="552" 
d="M512 122c0 -34 -11.833 -62.834 -35.5 -86.501s-54.167 -35.5 -91.5 -35.5h-143v68h149c14 0 25.833 4.83301 35.5 14.5s14.5 21.5 14.5 35.5c0 26.667 -17.667 43 -53 49l-23 4c-79.333 14 -119 53.667 -119 119c0 38.667 17.667 79.334 53 122.001
s53 80.334 53 113.001c0 16 -4.66699 29.167 -14 39.5s-21.333 15.5 -36 15.5h-102c-14 0 -25.833 -4.83301 -35.5 -14.5s-14.5 -21.5 -14.5 -35.5v-618h-70v615c0 36.667 11.667 66 35 88s53.666 33 90.999 33h87c36.667 0 67.667 -12.167 93 -36.5s38 -52.833 38 -85.5
c0 -36.667 -9.33301 -70.334 -28 -101.001c-2 -3.33301 -19.333 -26.333 -52 -69c-18.667 -24 -28 -46 -28 -66c0 -13.333 4.16699 -24.833 12.5 -34.5s18.5 -15.167 30.5 -16.5l27 -3c36.667 -4.66699 66.834 -17.5 90.501 -38.5s35.5 -46.167 35.5 -75.5z" />
    <glyph glyph-name="agrave" unicode="&#xe0;" horiz-adv-x="528" 
d="M448 288v-288h-261c-36.667 0 -67 12.167 -91 36.5s-36 53.5 -36 87.5c0 30.667 12 57.5 36 80.5s54 34.5 90 34.5h192v42c0 22 -5.33301 37.5 -16 46.5s-28.667 13.5 -54 13.5h-174v69h192c34 0 62.833 -12 86.5 -36s35.5 -52.667 35.5 -86zM378 66v109.001h-195
c-14 0 -26.5 -5 -37.5 -15s-16.5 -23.333 -16.5 -40c0 -14.667 5 -27.334 15 -38.001s21.667 -16 35 -16h199zM303 468.001h-64l-62 150h64z" />
    <glyph glyph-name="aacute" unicode="&#xe1;" horiz-adv-x="528" 
d="M448 288v-288h-261c-36.667 0 -67 12.167 -91 36.5s-36 53.5 -36 87.5c0 30.667 12 57.5 36 80.5s54 34.5 90 34.5h192v42c0 22 -5.33301 37.5 -16 46.5s-28.667 13.5 -54 13.5h-174v69h192c34 0 62.833 -12 86.5 -36s35.5 -52.667 35.5 -86zM378 66v109.001h-195
c-14 0 -26.5 -5 -37.5 -15s-16.5 -23.333 -16.5 -40c0 -14.667 5 -27.334 15 -38.001s21.667 -16 35 -16h199zM346 619.001l-68 -150h-64l68 150h64z" />
    <glyph glyph-name="acircumflex" unicode="&#xe2;" horiz-adv-x="528" 
d="M448 288v-288h-261c-36.667 0 -67 12.167 -91 36.5s-36 53.5 -36 87.5c0 30.667 12 57.5 36 80.5s54 34.5 90 34.5h192v42c0 22 -5.33301 37.5 -16 46.5s-28.667 13.5 -54 13.5h-174v69h192c34 0 62.833 -12 86.5 -36s35.5 -52.667 35.5 -86zM378 66v109.001h-195
c-14 0 -26.5 -5 -37.5 -15s-16.5 -23.333 -16.5 -40c0 -14.667 5 -27.334 15 -38.001s21.667 -16 35 -16h199zM382 493.001l-40 -26l-79 73h-6l-79 -73l-40 26l100 98h44z" />
    <glyph glyph-name="atilde" unicode="&#xe3;" horiz-adv-x="528" 
d="M448 288v-288h-261c-36.667 0 -67 12.167 -91 36.5s-36 53.5 -36 87.5c0 30.667 12 57.5 36 80.5s54 34.5 90 34.5h192v42c0 22 -5.33301 37.5 -16 46.5s-28.667 13.5 -54 13.5h-174v69h192c34 0 62.833 -12 86.5 -36s35.5 -52.667 35.5 -86zM378 66v109.001h-195
c-14 0 -26.5 -5 -37.5 -15s-16.5 -23.333 -16.5 -40c0 -14.667 5 -27.334 15 -38.001s21.667 -16 35 -16h199zM405 552.001l-73 -79c-7.33301 -7.33301 -15.666 -11 -24.999 -11c-8.66699 0 -17 3.66699 -25 11l-48 48c-4.66699 4.66699 -9 5 -13 1l-50 -55l-30 29l73 78
c7.33301 7.33301 15.333 11 24 11c9.33301 0 17.666 -3.66699 24.999 -11l48 -48c4.66699 -4.66699 9 -5 13 -1l51 56z" />
    <glyph glyph-name="adieresis" unicode="&#xe4;" horiz-adv-x="528" 
d="M448 288v-288h-261c-36.667 0 -67 12.167 -91 36.5s-36 53.5 -36 87.5c0 30.667 12 57.5 36 80.5s54 34.5 90 34.5h192v42c0 22 -5.33301 37.5 -16 46.5s-28.667 13.5 -54 13.5h-174v69h192c34 0 62.833 -12 86.5 -36s35.5 -52.667 35.5 -86zM378 66v109.001h-195
c-14 0 -26.5 -5 -37.5 -15s-16.5 -23.333 -16.5 -40c0 -14.667 5 -27.334 15 -38.001s21.667 -16 35 -16h199zM389 468.001h-68v68h68v-68zM203 468.001h-68v68h68v-68z" />
    <glyph glyph-name="aring" unicode="&#xe5;" horiz-adv-x="528" 
d="M448 288v-288h-261c-36.667 0 -67 12.167 -91 36.5s-36 53.5 -36 87.5c0 30.667 12 57.5 36 80.5s54 34.5 90 34.5h192v42c0 22 -5.33301 37.5 -16 46.5s-28.667 13.5 -54 13.5h-174v69h192c34 0 62.833 -12 86.5 -36s35.5 -52.667 35.5 -86zM378 66v109.001h-195
c-14 0 -26.5 -5 -37.5 -15s-16.5 -23.333 -16.5 -40c0 -14.667 5 -27.334 15 -38.001s21.667 -16 35 -16h199zM324 516.001c0 -14 -5 -26 -15 -36s-22 -15 -36 -15h-49c-14 0 -26 5 -36 15s-15 22 -15 36v49c0 14 5 25.833 15 35.5s22 14.5 36 14.5h49
c14 0 26 -4.83301 36 -14.5s15 -21.5 15 -35.5v-49zM283 514.001v53c0 4.66699 -2.66699 7 -8 7h-53c-5.33301 0 -8 -2.33301 -8 -7v-53c0 -5.33301 2.66699 -8 8 -8h53c5.33301 0 8 2.66699 8 8z" />
    <glyph glyph-name="ae" unicode="&#xe6;" horiz-adv-x="800" 
d="M720 167l-292 -0.000976562v-53c0 -13.333 5 -24.666 15 -33.999s21.667 -14 35 -14h189v-66h-193c-12 0 -27 4 -45 12c-20 8.66699 -34 19 -42 31c-8.66699 -12 -22 -22.167 -40 -30.5s-35.333 -12.5 -52 -12.5h-108c-36.667 0 -67 12.167 -91 36.5s-36 53.5 -36 87.5
c0 30.667 12 57.5 36 80.5s54 34.5 90 34.5h172v42c0 40 -23.333 60 -70 60h-154v69h172c38 0 67 -13.667 87 -41c19.333 27.333 50 41 92 41h108c36.667 0 67 -12 91 -36s36 -54.333 36 -91v-116zM650 230.999v59.999c0 14 -4.83301 25.833 -14.5 35.5
s-21.5 14.5 -35.5 14.5h-122c-13.333 0 -25 -4.66699 -35 -14s-15 -20.666 -15 -33.999v-2v-60h222zM358 174.998l-175 0.00195312c-14 0 -26.5 -5 -37.5 -15s-16.5 -23.333 -16.5 -40c0 -14.667 5 -27.334 15 -38.001s21.667 -16 35 -16h114
c16.667 0 31.667 5.16699 45 15.5s20 24.166 20 41.499v52z" />
    <glyph glyph-name="ccedilla" unicode="&#xe7;" horiz-adv-x="538" 
d="M458 254l-70 -0.000976562v38c0 33.333 -16.667 50 -50 50h-138c-14 0 -25.833 -4.83301 -35.5 -14.5s-14.5 -21.5 -14.5 -35.5v-174c0 -14 4.83301 -25.833 14.5 -35.5s21.5 -14.5 35.5 -14.5h219v-68h-212c-36.667 0 -67 12.333 -91 37s-36 55.334 -36 92.001v154
c0 36.667 12 67 36 91s54.333 36 91 36h124c40.667 0 72 -10.5 94 -31.5s33 -50.833 33 -89.5v-35zM317 -29.001c0.666992 -5.33301 0.999023 -10.667 0.999023 -16c0 -25.333 -9.16699 -46.5 -27.5 -63.5s-42.166 -25.5 -71.499 -25.5h-49v52h48
c16 0 27.833 5.33301 35.5 16s10.167 23 7.5 37l-8 44h57z" />
    <glyph glyph-name="egrave" unicode="&#xe8;" horiz-adv-x="548" 
d="M468 167h-318v-51c0 -14 4.83301 -25.833 14.5 -35.5s21.5 -14.5 35.5 -14.5h215v-66h-208c-36.667 0 -67 12 -91 36s-36 54.333 -36 91v156c0 36.667 12 67 36 91s54.333 36 91 36h134c36.667 0 67 -12 91 -36s36 -54.333 36 -91v-116zM398 231v60
c0 14 -4.83301 25.833 -14.5 35.5s-21.5 14.5 -35.5 14.5h-148c-14 0 -25.833 -4.83301 -35.5 -14.5s-14.5 -21.5 -14.5 -35.5v-60h248zM302 468h-64l-62 150h64z" />
    <glyph glyph-name="eacute" unicode="&#xe9;" horiz-adv-x="548" 
d="M468 167h-318v-51c0 -14 4.83301 -25.833 14.5 -35.5s21.5 -14.5 35.5 -14.5h215v-66h-208c-36.667 0 -67 12 -91 36s-36 54.333 -36 91v156c0 36.667 12 67 36 91s54.333 36 91 36h134c36.667 0 67 -12 91 -36s36 -54.333 36 -91v-116zM398 231v60
c0 14 -4.83301 25.833 -14.5 35.5s-21.5 14.5 -35.5 14.5h-148c-14 0 -25.833 -4.83301 -35.5 -14.5s-14.5 -21.5 -14.5 -35.5v-60h248zM371 619l-68 -150h-64l68 150h64z" />
    <glyph glyph-name="ecircumflex" unicode="&#xea;" horiz-adv-x="548" 
d="M468 167h-318v-51c0 -14 4.83301 -25.833 14.5 -35.5s21.5 -14.5 35.5 -14.5h215v-66h-208c-36.667 0 -67 12 -91 36s-36 54.333 -36 91v156c0 36.667 12 67 36 91s54.333 36 91 36h134c36.667 0 67 -12 91 -36s36 -54.333 36 -91v-116zM398 231v60
c0 14 -4.83301 25.833 -14.5 35.5s-21.5 14.5 -35.5 14.5h-148c-14 0 -25.833 -4.83301 -35.5 -14.5s-14.5 -21.5 -14.5 -35.5v-60h248zM395 495l-40 -26l-79 73h-6l-79 -73l-40 26l100 98h44z" />
    <glyph glyph-name="edieresis" unicode="&#xeb;" horiz-adv-x="548" 
d="M468 167h-318v-51c0 -14 4.83301 -25.833 14.5 -35.5s21.5 -14.5 35.5 -14.5h215v-66h-208c-36.667 0 -67 12 -91 36s-36 54.333 -36 91v156c0 36.667 12 67 36 91s54.333 36 91 36h134c36.667 0 67 -12 91 -36s36 -54.333 36 -91v-116zM398 231v60
c0 14 -4.83301 25.833 -14.5 35.5s-21.5 14.5 -35.5 14.5h-148c-14 0 -25.833 -4.83301 -35.5 -14.5s-14.5 -21.5 -14.5 -35.5v-60h248zM403 468h-68v68h68v-68zM217 468h-68v68h68v-68z" />
    <glyph glyph-name="igrave" unicode="&#xec;" horiz-adv-x="380" 
d="M320 0h-240v64h84v280h-84v66h154v-346h86v-64zM243 468h-64l-62 150h64z" />
    <glyph glyph-name="iacute" unicode="&#xed;" horiz-adv-x="380" 
d="M320 0h-240v64h84v280h-84v66h154v-346h86v-64zM271 619l-68 -150h-64l68 150h64z" />
    <glyph glyph-name="icircumflex" unicode="&#xee;" horiz-adv-x="380" 
d="M320 0h-240v64h84v280h-84v66h154v-346h86v-64zM315 495l-40 -26l-79 73h-6l-79 -73l-40 26l100 98h44z" />
    <glyph glyph-name="idieresis" unicode="&#xef;" horiz-adv-x="380" 
d="M320 0h-240v64h84v280h-84v66h154v-346h86v-64zM327 468h-68v68h68v-68zM141 468h-68v68h68v-68z" />
    <glyph glyph-name="eth" unicode="&#xf0;" horiz-adv-x="543" 
d="M488 531l-51.999 -45.001c28.667 -41.333 43 -89.333 43 -144v-195c0 -43.333 -14 -78.666 -42 -105.999s-63.667 -41 -107 -41h-123c-36.667 0 -67 12 -91 36s-36 54.333 -36 91v35c0 35.333 12 64.333 36 87c22.667 20.667 53 34 91 40l202 32v30
c0 32 -8.66699 61.667 -26 89l-57 -50l-44 49l55 47c-26 17.333 -54 26 -84 26h-61v68h64c51.333 0 96.666 -15.333 135.999 -46l53 46zM409.001 140.999l-0.000976562 112l-209 -32c-14 -2 -25.833 -8 -35.5 -18s-14.5 -21.667 -14.5 -35v-47c0 -14 5 -26.333 15 -37
s21.667 -16 35 -16h137c18.667 0 35.334 7.33301 50.001 22s22 31.667 22 51z" />
    <glyph glyph-name="ntilde" unicode="&#xf1;" horiz-adv-x="549" 
d="M469 0l-70.001 -0.000976562v293c0 14 -5 25.833 -15 35.5s-21.667 14.5 -35 14.5h-66c-13.333 0 -22.833 -1.33301 -28.5 -4s-14.167 -9 -25.5 -19l-79 -70v-250h-70v410h70v-78l50 46c23.333 21.333 47.333 32 72 32h74c36.667 0 66.334 -11.167 89.001 -33.5
s34 -52.166 34 -89.499v-287zM415.999 557.999l-73 -79c-7.33301 -7.33301 -15.666 -11 -24.999 -11c-8.66699 0 -17 3.66699 -25 11l-48 48c-4.66699 4.66699 -9 5 -13 1l-50 -55l-30 29l73 78c7.33301 7.33301 15.333 11 24 11c9.33301 0 17.666 -3.66699 24.999 -11
l48 -48c4.66699 -4.66699 9 -5 13 -1l51 56z" />
    <glyph glyph-name="ograve" unicode="&#xf2;" horiz-adv-x="542" 
d="M472 129c0 -36.667 -12.333 -67.334 -37 -92.001s-55.334 -37 -92.001 -37h-144c-36.667 0 -67.334 12.333 -92.001 37s-37 55.334 -37 92.001v152c0 36.667 12.333 67.334 37 92.001s55.334 37 92.001 37h144c36.667 0 67.334 -12.333 92.001 -37s37 -55.334 37 -92.001
v-152zM402 118v174c0 14 -4.83301 25.833 -14.5 35.5s-21.5 14.5 -35.5 14.5h-162c-14 0 -25.833 -4.83301 -35.5 -14.5s-14.5 -21.5 -14.5 -35.5v-174c0 -14 4.83301 -25.833 14.5 -35.5s21.5 -14.5 35.5 -14.5h162c14 0 25.833 4.83301 35.5 14.5s14.5 21.5 14.5 35.5z
M310 468h-64l-62 150h64z" />
    <glyph glyph-name="oacute" unicode="&#xf3;" horiz-adv-x="542" 
d="M472 129c0 -36.667 -12.333 -67.334 -37 -92.001s-55.334 -37 -92.001 -37h-144c-36.667 0 -67.334 12.333 -92.001 37s-37 55.334 -37 92.001v152c0 36.667 12.333 67.334 37 92.001s55.334 37 92.001 37h144c36.667 0 67.334 -12.333 92.001 -37s37 -55.334 37 -92.001
v-152zM402 118v174c0 14 -4.83301 25.833 -14.5 35.5s-21.5 14.5 -35.5 14.5h-162c-14 0 -25.833 -4.83301 -35.5 -14.5s-14.5 -21.5 -14.5 -35.5v-174c0 -14 4.83301 -25.833 14.5 -35.5s21.5 -14.5 35.5 -14.5h162c14 0 25.833 4.83301 35.5 14.5s14.5 21.5 14.5 35.5z
M362 617l-68 -150h-64l68 150h64z" />
    <glyph glyph-name="ocircumflex" unicode="&#xf4;" horiz-adv-x="542" 
d="M472 129c0 -36.667 -12.333 -67.334 -37 -92.001s-55.334 -37 -92.001 -37h-144c-36.667 0 -67.334 12.333 -92.001 37s-37 55.334 -37 92.001v152c0 36.667 12.333 67.334 37 92.001s55.334 37 92.001 37h144c36.667 0 67.334 -12.333 92.001 -37s37 -55.334 37 -92.001
v-152zM402 118v174c0 14 -4.83301 25.833 -14.5 35.5s-21.5 14.5 -35.5 14.5h-162c-14 0 -25.833 -4.83301 -35.5 -14.5s-14.5 -21.5 -14.5 -35.5v-174c0 -14 4.83301 -25.833 14.5 -35.5s21.5 -14.5 35.5 -14.5h162c14 0 25.833 4.83301 35.5 14.5s14.5 21.5 14.5 35.5z
M391 493l-40 -26l-79 73h-6l-79 -73l-40 26l100 98h44z" />
    <glyph glyph-name="otilde" unicode="&#xf5;" horiz-adv-x="542" 
d="M472 129c0 -36.667 -12.333 -67.334 -37 -92.001s-55.334 -37 -92.001 -37h-144c-36.667 0 -67.334 12.333 -92.001 37s-37 55.334 -37 92.001v152c0 36.667 12.333 67.334 37 92.001s55.334 37 92.001 37h144c36.667 0 67.334 -12.333 92.001 -37s37 -55.334 37 -92.001
v-152zM402 118v174c0 14 -4.83301 25.833 -14.5 35.5s-21.5 14.5 -35.5 14.5h-162c-14 0 -25.833 -4.83301 -35.5 -14.5s-14.5 -21.5 -14.5 -35.5v-174c0 -14 4.83301 -25.833 14.5 -35.5s21.5 -14.5 35.5 -14.5h162c14 0 25.833 4.83301 35.5 14.5s14.5 21.5 14.5 35.5z
M412 558l-73 -79c-7.33301 -7.33301 -15.666 -11 -24.999 -11c-8.66699 0 -17 3.66699 -25 11l-48 48c-4.66699 4.66699 -9 5 -13 1l-50 -55l-30 29l73 78c7.33301 7.33301 15.333 11 24 11c9.33301 0 17.666 -3.66699 24.999 -11l48 -48c4.66699 -4.66699 9 -5 13 -1l51 56
z" />
    <glyph glyph-name="odieresis" unicode="&#xf6;" horiz-adv-x="542" 
d="M472 129c0 -36.667 -12.333 -67.334 -37 -92.001s-55.334 -37 -92.001 -37h-144c-36.667 0 -67.334 12.333 -92.001 37s-37 55.334 -37 92.001v152c0 36.667 12.333 67.334 37 92.001s55.334 37 92.001 37h144c36.667 0 67.334 -12.333 92.001 -37s37 -55.334 37 -92.001
v-152zM402 118v174c0 14 -4.83301 25.833 -14.5 35.5s-21.5 14.5 -35.5 14.5h-162c-14 0 -25.833 -4.83301 -35.5 -14.5s-14.5 -21.5 -14.5 -35.5v-174c0 -14 4.83301 -25.833 14.5 -35.5s21.5 -14.5 35.5 -14.5h162c14 0 25.833 4.83301 35.5 14.5s14.5 21.5 14.5 35.5z
M398 468h-68v68h68v-68zM212 468h-68v68h68v-68z" />
    <glyph glyph-name="divide" unicode="&#xf7;" horiz-adv-x="568" 
d="M324 410h-82v83h82v-83zM488 255h-408v70h408v-70zM324 84h-82v83h82v-83z" />
    <glyph glyph-name="oslash" unicode="&#xf8;" horiz-adv-x="542" 
d="M472 129c0 -36.667 -12.333 -67.334 -37 -92.001s-55.334 -37 -92.001 -37h-144c-36.667 0 -67.334 12.333 -92.001 37s-37 55.334 -37 92.001v152c0 36.667 12.333 67.334 37 92.001s55.334 37 92.001 37h144c36.667 0 67.334 -12.333 92.001 -37s37 -55.334 37 -92.001
v-152zM402 118v174c0 16 -6.33301 29 -19 39l-149 -263h118c14 0 25.833 4.83301 35.5 14.5s14.5 21.5 14.5 35.5zM319 342l-129 0.000976562c-14 0 -25.833 -4.83301 -35.5 -14.5s-14.5 -21.5 -14.5 -35.5v-174c0 -20.667 9 -35.334 27 -44.001z" />
    <glyph glyph-name="ugrave" unicode="&#xf9;" horiz-adv-x="545" 
d="M465 0l-69.999 0.000976562v84l-48 -52c-19.333 -20.667 -43.333 -31.334 -72 -32.001h-68c-36.667 0 -67 12 -91 36s-36 54.333 -36 91v283h70v-294c0 -14 4.83301 -25.833 14.5 -35.5s21.5 -14.5 35.5 -14.5h64c14.667 0 25.167 1.16699 31.5 3.5
s14.166 8.83301 23.499 19.5l76 82v239h70v-410zM317.001 469.001h-64l-62 150h64z" />
    <glyph glyph-name="uacute" unicode="&#xfa;" horiz-adv-x="545" 
d="M465 0l-69.999 0.000976562v84l-48 -52c-19.333 -20.667 -43.333 -31.334 -72 -32.001h-68c-36.667 0 -67 12 -91 36s-36 54.333 -36 91v283h70v-294c0 -14 4.83301 -25.833 14.5 -35.5s21.5 -14.5 35.5 -14.5h64c14.667 0 25.167 1.16699 31.5 3.5
s14.166 8.83301 23.499 19.5l76 82v239h70v-410zM357.001 619.001l-68 -150h-64l68 150h64z" />
    <glyph glyph-name="ucircumflex" unicode="&#xfb;" horiz-adv-x="545" 
d="M465 0l-69.999 0.000976562v84l-48 -52c-19.333 -20.667 -43.333 -31.334 -72 -32.001h-68c-36.667 0 -67 12 -91 36s-36 54.333 -36 91v283h70v-294c0 -14 4.83301 -25.833 14.5 -35.5s21.5 -14.5 35.5 -14.5h64c14.667 0 25.167 1.16699 31.5 3.5
s14.166 8.83301 23.499 19.5l76 82v239h70v-410zM395.001 494.001l-40 -26l-79 73h-6l-79 -73l-40 26l100 98h44z" />
    <glyph glyph-name="udieresis" unicode="&#xfc;" horiz-adv-x="545" 
d="M465 0l-69.999 0.000976562v84l-48 -52c-19.333 -20.667 -43.333 -31.334 -72 -32.001h-68c-36.667 0 -67 12 -91 36s-36 54.333 -36 91v283h70v-294c0 -14 4.83301 -25.833 14.5 -35.5s21.5 -14.5 35.5 -14.5h64c14.667 0 25.167 1.16699 31.5 3.5
s14.166 8.83301 23.499 19.5l76 82v239h70v-410zM397.001 468.001h-68v68h68v-68zM211.001 468.001h-68v68h68v-68z" />
    <glyph glyph-name="yacute" unicode="&#xfd;" horiz-adv-x="544" 
d="M464 39c0 -36.667 -12 -67 -36 -91s-54.333 -36 -91 -36h-173v69h180c14 0 25.833 4.83301 35.5 14.5s14.5 21.5 14.5 35.5v37h-187c-36.667 0 -67 12 -91 36s-36 54.333 -36 91v215h70v-223c0 -14 4.83301 -25.833 14.5 -35.5s21.5 -14.5 35.5 -14.5h194v273h70v-371z
M367 617l-68 -150h-64l68 150h64z" />
    <glyph glyph-name="thorn" unicode="&#xfe;" horiz-adv-x="545" 
d="M465 195c0 -36.667 -12 -67 -36 -91s-54.667 -36 -92 -36h-187v-156h-70v668h70v-170h187c37.333 0 68 -12 92 -36s36 -54.333 36 -91v-88zM392 186v106c0 14 -4.83301 25.833 -14.5 35.5s-21.5 14.5 -35.5 14.5h-192v-206h192c14 0 25.833 4.83301 35.5 14.5
s14.5 21.5 14.5 35.5z" />
    <glyph glyph-name="ydieresis" unicode="&#xff;" horiz-adv-x="544" 
d="M464 39c0 -36.667 -12 -67 -36 -91s-54.333 -36 -91 -36h-173v69h180c14 0 25.833 4.83301 35.5 14.5s14.5 21.5 14.5 35.5v37h-187c-36.667 0 -67 12 -91 36s-36 54.333 -36 91v215h70v-223c0 -14 4.83301 -25.833 14.5 -35.5s21.5 -14.5 35.5 -14.5h194v273h70v-371z
M400 468h-68v68h68v-68zM214 468h-68v68h68v-68z" />
    <glyph glyph-name="dotlessi" unicode="&#x131;" horiz-adv-x="380" 
d="M320 0h-240v64h84v280h-84v66h154v-346h86v-64z" />
    <glyph glyph-name="Lslash" unicode="&#x141;" horiz-adv-x="484" 
d="M424 0h-334v255h-40v70h40v255h74v-255h142v-70h-142v-187h260v-68z" />
    <glyph glyph-name="lslash" unicode="&#x142;" horiz-adv-x="375" 
d="M320 0h-240v64h85v191h-85v70h85v192h-85v63h155v-255h85v-70h-85v-191h85v-64z" />
    <glyph glyph-name="OE" unicode="&#x152;" horiz-adv-x="837" 
d="M757 0h-326.001v31c-15.333 -20.667 -38.666 -31 -69.999 -31h-154c-36.667 0 -67 12 -91 36s-36 54.333 -36 91v326c0 36.667 12 67 36 91s54.333 36 91 36h154c30.667 0 54 -9.66699 70 -29v29h326v-68h-269v-188h207v-69h-207v-187h269v-68zM417.999 121v338
c0 14 -4.83301 26.333 -14.5 37s-21.5 16 -35.5 16h-168c-13.333 0 -25 -5.33301 -35 -16s-15 -23 -15 -37v-338c0 -14 5 -26.333 15 -37s21.667 -16 35 -16h168c14 0 25.833 5.33301 35.5 16s14.5 23 14.5 37z" />
    <glyph glyph-name="oe" unicode="&#x153;" horiz-adv-x="831" 
d="M751 167l-294 -0.00195312v-51c0 -14 4.83301 -25.833 14.5 -35.5s21.5 -14.5 35.5 -14.5h191v-66h-184c-39.333 0 -70.333 14 -93 42c-22 -28 -53.333 -42 -94 -42h-118c-36.667 0 -67.334 12.333 -92.001 37s-37 55.334 -37 92.001v152
c0 36.667 12.333 67.334 37 92.001s55.334 37 92.001 37h118c19.333 0 38 -4 56 -12s30.667 -18 38 -30c20 28 51 42 93 42h110c36.667 0 67 -12 91 -36s36 -54.333 36 -91v-116zM681 230.998v60c0 14 -4.83301 25.833 -14.5 35.5s-21.5 14.5 -35.5 14.5h-124
c-14 0 -25.833 -4.83301 -35.5 -14.5s-14.5 -21.5 -14.5 -35.5v-60h224zM386 117.998v174c0 14 -4.83301 25.833 -14.5 35.5s-21.5 14.5 -35.5 14.5h-136c-14 0 -25.833 -4.83301 -35.5 -14.5s-14.5 -21.5 -14.5 -35.5v-174c0 -14 4.83301 -25.833 14.5 -35.5
s21.5 -14.5 35.5 -14.5h136c14 0 25.833 4.83301 35.5 14.5s14.5 21.5 14.5 35.5z" />
    <glyph glyph-name="Scaron" unicode="&#x160;" horiz-adv-x="548" 
d="M478 125c0 -36.667 -12 -67 -36 -91s-54.333 -36 -91 -36h-154c-36.667 0 -67 12 -91 36s-36 54.333 -36 91v24h70v-30c0 -14 5 -26.333 15 -37s21.667 -16 35 -16h168c14 0 25.833 5.33301 35.5 16s14.5 23 14.5 37v80c0 14 -4.83301 26.167 -14.5 36.5
s-21.5 15.833 -35.5 16.5l-157 5c-36.667 1.33301 -67 13.833 -91 37.5s-36 53.5 -36 89.5v69c0 36.667 12 67 36 91s54.333 36 91 36h142c36.667 0 67 -12 91 -36s36 -54.333 36 -91v-25h-70v31c0 14 -4.83301 26.333 -14.5 37s-21.5 16 -35.5 16h-156
c-13.333 0 -25 -5.33301 -35 -16s-15 -23 -15 -37v-81c0 -14 4.83301 -26.167 14.5 -36.5s21.5 -15.833 35.5 -16.5l157 -4c36.667 -0.666992 67 -13 91 -37s36 -54 36 -90v-69zM394 733l-100 -98h-45l-100 98l40 26l79 -73h6l79 73z" />
    <glyph glyph-name="scaron" unicode="&#x161;" horiz-adv-x="516" 
d="M451 122c0 -34 -11.833 -62.833 -35.5 -86.5s-54.167 -35.5 -91.5 -35.5h-229v68h236c14 0 25.833 4.83301 35.5 14.5s14.5 21.5 14.5 35.5c0 32 -18 48.333 -54 49l-129 4c-38.667 1.33301 -70.5 12.833 -95.5 34.5s-37.5 48.5 -37.5 80.5c0 34 11.833 63.167 35.5 87.5
s54.167 36.5 91.5 36.5h224v-68h-231c-13.333 0 -25 -5.16699 -35 -15.5s-15 -22.5 -15 -36.5c0 -16 6.66699 -28.667 20 -38c10.667 -8 23 -12.333 37 -13l133 -3c36 -0.666992 66 -12.167 90 -34.5s36 -48.833 36 -79.5zM378 567l-100 -98h-45l-100 98l40 26l79 -73h6
l79 73z" />
    <glyph glyph-name="Ydieresis" unicode="&#x178;" horiz-adv-x="564" 
d="M484 432c0 -35.333 -11 -64.666 -33 -87.999l-133 -137v-207h-72v207l-133 137c-22 23.333 -33 52.666 -33 87.999v148h70v-144c0 -20.667 5.66699 -36.667 17 -48l107 -115h14l108 115c11.333 11.333 17 27.333 17 48v144h71v-148zM412 654h-68v68h68v-68zM226 654h-68
v68h68v-68z" />
    <glyph glyph-name="Zcaron" unicode="&#x17d;" horiz-adv-x="552" 
d="M472 0h-392v58l295 454h-295v68h392v-58l-295 -454h295v-68zM406 733l-100 -98h-45l-100 98l40 26l79 -73h6l79 73z" />
    <glyph glyph-name="zcaron" unicode="&#x17e;" horiz-adv-x="529" 
d="M449 0h-369v58l268 288h-268v64h369v-58l-267 -288h267v-64zM395 567l-100 -98h-45l-100 98l40 26l79 -73h6l79 73z" />
    <glyph glyph-name="florin" unicode="&#x192;" horiz-adv-x="578" 
d="M578 492h-72v38c0 14 -5 25.833 -15 35.5s-21.667 14.5 -35 14.5h-82c-14 0 -25.833 -4.83301 -35.5 -14.5s-14.5 -21.5 -14.5 -35.5v-206h112v-69h-112v-222c0 -36.667 -11.667 -66 -35 -88s-53.666 -33 -90.999 -33h-67c-37.333 0 -68.5 11.667 -93.5 35
s-37.5 53.333 -37.5 90v31h72v-38c0 -14 5 -25.833 15 -35.5s21.667 -14.5 35 -14.5h82c14 0 25.833 4.83301 35.5 14.5s14.5 21.5 14.5 35.5v225h-84v69h84v203c0 36.667 11.667 66 35 88s53.666 33 90.999 33h67c37.333 0 68.5 -11.667 93.5 -35s37.5 -53.333 37.5 -90
v-31z" />
    <glyph glyph-name="circumflex" unicode="&#x2c6;" 
d="M405 661l-40 -26l-79 73h-6l-79 -73l-40 26l100 98h44z" />
    <glyph glyph-name="caron" unicode="&#x2c7;" 
d="M406 733l-100 -98h-45l-100 98l40 26l79 -73h6l79 73z" />
    <glyph glyph-name="breve" unicode="&#x2d8;" 
d="M407 704c-30 -45.333 -70.333 -68 -121 -68s-91 22.667 -121 68l36 30c24.667 -32 53 -48 85 -48s60.333 16 85 48z" />
    <glyph glyph-name="dotaccent" unicode="&#x2d9;" 
d="M320 658h-72v72h72v-72z" />
    <glyph glyph-name="ring" unicode="&#x2da;" 
d="M360 676c0 -14 -5 -26 -15 -36s-22 -15 -36 -15h-49c-14 0 -26 5 -36 15s-15 22 -15 36v49c0 14 5 25.833 15 35.5s22 14.5 36 14.5h49c14 0 26 -4.83301 36 -14.5s15 -21.5 15 -35.5v-49zM319 674v53c0 4.66699 -2.66699 7 -8 7h-53c-5.33301 0 -8 -2.33301 -8 -7v-53
c0 -5.33301 2.66699 -8 8 -8h53c5.33301 0 8 2.66699 8 8z" />
    <glyph glyph-name="ogonek" unicode="&#x2db;" horiz-adv-x="568" 
d="M330 -134l-49.001 0.000976562c-29.333 0 -53.166 8.5 -71.499 25.5s-27.5 38.167 -27.5 63.5c0 5.33301 0.333008 10.666 1 15.999l7 44h57l-8 -44c-2.66699 -14 0 -26.333 8 -37s19.667 -16 35 -16h48v-52z" />
    <glyph glyph-name="tilde" unicode="&#x2dc;" 
d="M433 721l-73 -79c-7.33301 -7.33301 -15.666 -11 -24.999 -11c-8.66699 0 -17 3.66699 -25 11l-48 48c-4.66699 4.66699 -9 5 -13 1l-50 -55l-30 29l73 78c7.33301 7.33301 15.333 11 24 11c9.33301 0 17.666 -3.66699 24.999 -11l48 -48c4.66699 -4.66699 9 -5 13 -1
l51 56z" />
    <glyph glyph-name="hungarumlaut" unicode="&#x2dd;" 
d="M425 786l-54 -131h-56l54 131h56zM293 786l-54 -131h-56l54 131h56z" />
    <glyph glyph-name="Delta" unicode="&#x394;" horiz-adv-x="634" 
d="M554 0h-474l237 595zM448 68l-131 333l-131 -333h262z" />
    <glyph glyph-name="Delta" unicode="&#x2206;" horiz-adv-x="634" 
d="M554 0h-474l237 595zM448 68l-131 333l-131 -333h262z" />
    <glyph glyph-name="Omega" unicode="&#x3a9;" horiz-adv-x="577" 
d="M497 309c0 -24 -9.00195 -45.667 -27.002 -65c-1.33301 -0.666992 -18.666 -14.667 -51.999 -42c-18 -14.667 -27 -29 -27 -43c0 -8.66699 3.5 -16.5 10.5 -23.5s14.833 -10.5 23.5 -10.5h66v-57h-66c-24.667 0 -47 9 -67 27s-30 39.333 -30 64
c0 28 16.833 54.5 50.5 79.5s50.5 47.5 50.5 67.5v87c0 13.333 -4.83301 25.5 -14.5 36.5s-21.5 16.5 -35.5 16.5h-181c-14 0 -25.833 -5.5 -35.5 -16.5s-14.5 -23.167 -14.5 -36.5v-87c0 -20 16.833 -42.5 50.5 -67.5s50.5 -51.5 50.5 -79.5c0 -24.667 -10 -46 -30 -64
s-42.333 -27 -67 -27h-66v57h66c8.66699 0 16.5 3.5 23.5 10.5s10.5 14.833 10.5 23.5c0 14 -9 28.333 -27 43c-33.333 27.333 -50.666 41.333 -51.999 42c-18 19.333 -27 41 -27 65v74c0 36.667 12 67.334 36 92.001s54.333 37 91 37h163c36.667 0 67 -12.333 91 -37
s36 -55.334 36 -92.001v-74z" />
    <glyph glyph-name="Omega" unicode="&#x2126;" horiz-adv-x="577" 
d="M497 309c0 -24 -9.00195 -45.667 -27.002 -65c-1.33301 -0.666992 -18.666 -14.667 -51.999 -42c-18 -14.667 -27 -29 -27 -43c0 -8.66699 3.5 -16.5 10.5 -23.5s14.833 -10.5 23.5 -10.5h66v-57h-66c-24.667 0 -47 9 -67 27s-30 39.333 -30 64
c0 28 16.833 54.5 50.5 79.5s50.5 47.5 50.5 67.5v87c0 13.333 -4.83301 25.5 -14.5 36.5s-21.5 16.5 -35.5 16.5h-181c-14 0 -25.833 -5.5 -35.5 -16.5s-14.5 -23.167 -14.5 -36.5v-87c0 -20 16.833 -42.5 50.5 -67.5s50.5 -51.5 50.5 -79.5c0 -24.667 -10 -46 -30 -64
s-42.333 -27 -67 -27h-66v57h66c8.66699 0 16.5 3.5 23.5 10.5s10.5 14.833 10.5 23.5c0 14 -9 28.333 -27 43c-33.333 27.333 -50.666 41.333 -51.999 42c-18 19.333 -27 41 -27 65v74c0 36.667 12 67.334 36 92.001s54.333 37 91 37h163c36.667 0 67 -12.333 91 -37
s36 -55.334 36 -92.001v-74z" />
    <glyph glyph-name="pi" unicode="&#x3c0;" horiz-adv-x="545" 
d="M485 0h-25.001c-38.667 0 -69 10.667 -91 32s-33 48 -33 80v232h-133v-344h-70v344h-73v66h425v-66h-79v-232c0 -13.333 4.83301 -24.333 14.5 -33s21.834 -13 36.501 -13h28v-66z" />
    <glyph glyph-name="endash" unicode="&#x2013;" horiz-adv-x="302" 
d="M272 0h-242v54h242v-54z" />
    <glyph glyph-name="emdash" unicode="&#x2014;" horiz-adv-x="360" 
d="M365 0h-370v54h370v-54z" />
    <glyph glyph-name="quoteleft" unicode="&#x2018;" horiz-adv-x="273" 
d="M195 599l-49 -79.001v-8h34c6.66699 -3.33301 10 -6.66602 10 -9.99902v-80c0 -6.66699 -3.33301 -10 -10 -10h-92c-6.66699 0 -10 3.33301 -10 10v59c0 20 5 35 15 45l73 96z" />
    <glyph glyph-name="quoteright" unicode="&#x2019;" horiz-adv-x="273" 
d="M195 543c0 -20 -5 -35 -15 -45l-73 -96l-29 23l49 79v8h-34c-6.66699 0 -10 3.33301 -10 10v80c0 6.66699 3.33301 10 10 10h92c6.66699 0 10 -3.33301 10 -10v-59z" />
    <glyph glyph-name="quotesinglbase" unicode="&#x201a;" horiz-adv-x="279" 
d="M199 37c0 -20 -5 -35 -15 -45l-73 -96l-29 23l49 79v8h-34c-6.66699 0 -10 3.33301 -10 10v80c0 6.66699 3.33301 10 10 10h92c6.66699 0 10 -3.33301 10 -10v-59z" />
    <glyph glyph-name="quotedblleft" unicode="&#x201c;" horiz-adv-x="456" 
d="M378 599l-49 -79v-8h34c6.66699 0 10 -3.33301 10 -10v-80c0 -6.66699 -3.33301 -10 -10 -10h-92c-6.66699 0 -10 3.33301 -10 10v59c0 20 5 35 15 45l73 96zM195 599l-49 -79.001v-8h34c6.66699 -3.33301 10 -6.66602 10 -9.99902v-80c0 -6.66699 -3.33301 -10 -10 -10
h-92c-6.66699 0 -10 3.33301 -10 10v59c0 20 5 35 15 45l73 96z" />
    <glyph glyph-name="quotedblright" unicode="&#x201d;" horiz-adv-x="456" 
d="M378 543c0 -20 -5 -34.999 -15 -44.999l-73 -96l-29 23l49 79v8h-34c-6.66699 3.33301 -10 6.66602 -10 9.99902v80c0 6.66699 3.33301 10 10 10h92c6.66699 0 10 -3.33301 10 -10v-59zM195 543.001c0 -20 -5 -35 -15 -45l-73 -96l-29 23l49 79v8h-34
c-6.66699 0 -10 3.33301 -10 10v80c0 6.66699 3.33301 10 10 10h92c6.66699 0 10 -3.33301 10 -10v-59z" />
    <glyph glyph-name="quotedblbase" unicode="&#x201e;" horiz-adv-x="456" 
d="M378 31c0 -20 -5 -34.999 -15 -44.999l-73 -96l-29 23l49 79v8h-34c-6.66699 3.33301 -10 6.66602 -10 9.99902v80c0 6.66699 3.33301 10 10 10h92c6.66699 0 10 -3.33301 10 -10v-59zM195 31.001c0 -20 -5 -35 -15 -45l-73 -96l-29 23l49 79v8h-34
c-6.66699 0 -10 3.33301 -10 10v80c0 6.66699 3.33301 10 10 10h92c6.66699 0 10 -3.33301 10 -10v-59z" />
    <glyph glyph-name="dagger" unicode="&#x2020;" horiz-adv-x="391" 
d="M311 401h-85v-231h-62v231h-84v60h84v119h62v-119h85v-60z" />
    <glyph glyph-name="daggerdbl" unicode="&#x2021;" horiz-adv-x="391" 
d="M311 282h-87v-112h-58v112h-86v56h86v102h-86v56h86v84h58v-84h87v-56h-87v-102h87v-56z" />
    <glyph glyph-name="bullet" unicode="&#x2022;" horiz-adv-x="354" 
d="M274 220c0 -11.333 -5.66699 -17 -17 -17h-160c-11.333 0 -17 5.66699 -17 17v159c0 12 5.66699 18 17 18h160c11.333 0 17 -6 17 -18v-159z" />
    <glyph glyph-name="ellipsis" unicode="&#x2026;" horiz-adv-x="720" 
d="M640 10c0 -6.66699 -3.33301 -10 -10 -10h-92c-6.66699 -0 -10 3.33301 -10 10v92c0 6.66699 3.33301 10 10 10h92c6.66699 0 10 -3.33301 10 -10v-92zM416 10c0 -6.66699 -3.33301 -10 -10 -10h-92c-6.66699 -0 -10 3.33301 -10 10v92c0 6.66699 3.33301 10 10 10h92
c6.66699 0 10 -3.33301 10 -10v-92zM192 10c0 -6.66699 -3.33301 -10 -10 -10h-92c-6.66699 -0 -10 3.33301 -10 10v92c0 6.66699 3.33301 10 10 10h92c6.66699 0 10 -3.33301 10 -10v-92z" />
    <glyph glyph-name="perthousand" unicode="&#x2030;" horiz-adv-x="965" 
d="M885 54c0 -20.667 -7.16699 -38.167 -21.5 -52.5s-31.833 -21.5 -52.5 -21.5h-72c-20.667 0 -38.167 7.16699 -52.5 21.5s-21.5 31.833 -21.5 52.5v72c0 20.667 7.16699 38.167 21.5 52.5s31.833 21.5 52.5 21.5h72c20.667 0 38.167 -7.16699 52.5 -21.5
s21.5 -31.833 21.5 -52.5v-72zM300 434c0 -20.667 -7.16699 -38.167 -21.5 -52.5s-31.833 -21.5 -52.5 -21.5h-72c-20.667 0 -38.167 7.16699 -52.5 21.5s-21.5 31.833 -21.5 52.5v72c0 20.667 7.16699 38.167 21.5 52.5s31.833 21.5 52.5 21.5h72
c20.667 0 38.167 -7.16699 52.5 -21.5s21.5 -31.833 21.5 -52.5v-72zM573 580l-420 -625l-61 45l421 625zM567 54c0 -20.667 -7.16699 -38.167 -21.5 -52.5s-31.833 -21.5 -52.5 -21.5h-72c-20.667 0 -38.167 7.16699 -52.5 21.5s-21.5 31.833 -21.5 52.5v72
c0 20.667 7.16699 38.167 21.5 52.5s31.833 21.5 52.5 21.5h72c20.667 0 38.167 -7.16699 52.5 -21.5s21.5 -31.833 21.5 -52.5v-72zM825 51v78c0 7.33301 -3.66699 11 -11 11h-78c-7.33301 0 -11 -3.66699 -11 -11v-78c0 -7.33301 3.66699 -11 11 -11h78
c7.33301 0 11 3.66699 11 11zM240 431v78c0 7.33301 -3.66699 11 -11 11h-78c-7.33301 0 -11 -3.66699 -11 -11v-78c0 -7.33301 3.66699 -11 11 -11h78c7.33301 0 11 3.66699 11 11zM507 51v78c0 7.33301 -3.66699 11 -11 11h-78c-7.33301 0 -11 -3.66699 -11 -11v-78
c0 -7.33301 3.66699 -11 11 -11h78c7.33301 0 11 3.66699 11 11z" />
    <glyph glyph-name="guilsinglleft" unicode="&#x2039;" horiz-adv-x="386" 
d="M306 129l-49 -49l-177 177v55l177 176l49 -49l-153 -151v-7z" />
    <glyph glyph-name="guilsinglright" unicode="&#x203a;" horiz-adv-x="386" 
d="M306 257l-177 -177l-49 49l153 152v7l-153 151l49 49l177 -176v-55z" />
    <glyph glyph-name="fraction" unicode="&#x2044;" horiz-adv-x="454" 
d="M424 653l-326 -767l-68 31l325 767z" />
    <glyph glyph-name="trademark" unicode="&#x2122;" horiz-adv-x="520" 
d="M460 375h-41v136l-38 -43h-24l-38 43v-136h-41v205h33l58 -69l58 69h33v-205zM234 542h-66v-167h-42v167h-66v38h174v-38z" />
    <glyph glyph-name="partialdiff" unicode="&#x2202;" horiz-adv-x="544" 
d="M479 147c0 -43.333 -13.999 -78.667 -41.999 -106s-63.667 -41 -107 -41h-123c-36.667 0 -67 12 -91 36s-36 54.333 -36 91v35c0 35.333 12 64.333 36 87c22.667 20.667 53 34 91 40l202 32v30c0 44 -15.333 81.833 -46 113.5s-67.334 47.5 -110.001 47.5h-61v68h64
c62 0 114.667 -22.333 158 -67s65 -101.667 65 -171v-195zM409.001 140.999l-0.000976562 112l-209 -32c-14 -2 -25.833 -8 -35.5 -18s-14.5 -21.667 -14.5 -35v-47c0 -14 5 -26.333 15 -37s21.667 -16 35 -16h137c18.667 0 35.334 7.33301 50.001 22s22 31.667 22 51z" />
    <glyph glyph-name="product" unicode="&#x220f;" horiz-adv-x="545" 
d="M485 0h-25.001c-38.667 0 -69 10.667 -91 32s-33 48 -33 80v402h-133v-514h-70v514h-73v66h425v-66h-79v-402c0 -13.333 4.83301 -24.333 14.5 -33s21.834 -13 36.501 -13h28v-66z" />
    <glyph glyph-name="summation" unicode="&#x2211;" horiz-adv-x="506" 
d="M426 0h-346v56l163 228v12l-163 228v56h346v-68h-254l151 -210v-25l-151 -209h254v-68z" />
    <glyph glyph-name="radical" unicode="&#x221a;" horiz-adv-x="727" 
d="M647 406h-148l-133 -406h-78l-100 230h-108v60h154l91 -210l124 388h198v-62z" />
    <glyph glyph-name="infinity" unicode="&#x221e;" horiz-adv-x="756" 
d="M676 258c0 -36.667 -11.998 -67.002 -35.998 -91.002s-54.333 -36 -91 -36h-37c-28 0 -60.667 20.667 -98 62l-91 114c-34.667 41.333 -62.334 62 -83.001 62h-39c-14 0 -26.333 -5 -37 -15s-16 -21.667 -16 -35v-64c0 -17.333 5.33301 -30.666 16 -39.999
s23 -12.666 37 -9.99902l114 21l17 -67l-112 -24c-6.66699 -1.33301 -13.334 -2 -20.001 -2c-30.667 0 -58.334 12 -83.001 36s-37 51.667 -37 83v64c0 36 11.833 65.5 35.5 88.5s54.167 34.5 91.5 34.5h47c30 0 64 -20.667 102 -62c2 -2 32.333 -40 91 -114
c32.667 -41.333 57.667 -62 75 -62h33c14 0 26.333 4.83301 37 14.5s16 21.5 16 35.5v75c0 14 -5.5 25.333 -16.5 34s-23.167 11.667 -36.5 9l-110 -24l-13 70l107 24c8 1.33301 15.667 2 23 2c30.667 0 57.334 -11.5 80.001 -34.5s34 -51.167 34 -84.5v-64z" />
    <glyph glyph-name="integral" unicode="&#x222b;" horiz-adv-x="484" 
d="M404 187c0 -36.667 -12.333 -67.332 -37 -91.999s-55.334 -37 -92.001 -37h-19v-145h-54v145h-122v470h122v132h54v-132h19c36.667 0 67.334 -12.333 92.001 -37s37 -55.334 37 -92.001v-10c0 -46.667 -17.333 -79 -52 -97c34.667 -15.333 52 -44.333 52 -87v-18z
M334 388.002l-0.000976562 20.999c0 14 -5 26.833 -15 38.5s-21.667 17.5 -35 17.5h-138v-140h128c22.667 0 38.334 4.83301 47.001 14.5s13 25.834 13 48.501zM333.999 176.001v21c0 44 -18.667 66 -56 66h-132v-143h138c13.333 0 25 5.83301 35 17.5s15 24.5 15 38.5z" />
    <glyph glyph-name="approxequal" unicode="&#x2248;" horiz-adv-x="490" 
d="M430 429l-114 -101c-8 -8 -17 -12 -27 -12c-11.333 0 -22.333 5.66699 -33 17l-62 64c-6 5.33301 -11.333 6 -16 2l-85 -77l-33 39l114 101c8.66699 7.33301 17.667 11 27 11c11.333 0 22.333 -5.33301 33 -16l63 -64c5.33301 -5.33301 10.333 -6 15 -2l85 77zM430 155
l-114 -101c-8 -8 -17 -12 -27 -12c-11.333 0 -22.333 5.66699 -33 17l-62 64c-6 5.33301 -11.333 6 -16 2l-85 -77l-33 39l114 101c8.66699 8 17.667 12 27 12c11.333 0 22.333 -5.66699 33 -17l63 -63c5.33301 -6 10.333 -7 15 -3l85 77z" />
    <glyph glyph-name="approxequal" unicode="&#x22f2;" horiz-adv-x="490" 
d="M430 429l-114 -101c-8 -8 -17 -12 -27 -12c-11.333 0 -22.333 5.66699 -33 17l-62 64c-6 5.33301 -11.333 6 -16 2l-85 -77l-33 39l114 101c8.66699 7.33301 17.667 11 27 11c11.333 0 22.333 -5.33301 33 -16l63 -64c5.33301 -5.33301 10.333 -6 15 -2l85 77zM430 155
l-114 -101c-8 -8 -17 -12 -27 -12c-11.333 0 -22.333 5.66699 -33 17l-62 64c-6 5.33301 -11.333 6 -16 2l-85 -77l-33 39l114 101c8.66699 8 17.667 12 27 12c11.333 0 22.333 -5.66699 33 -17l63 -63c5.33301 -6 10.333 -7 15 -3l85 77z" />
    <glyph glyph-name="notequal" unicode="&#x2260;" horiz-adv-x="485" 
d="M395 185h-180l-43 -80h-66l43 80h-69v66h104l42 78h-146v66h181l39 73h66l-39 -73h68v-66h-103l-42 -78h145v-66z" />
    <glyph glyph-name="lessequal" unicode="&#x2264;" horiz-adv-x="433" 
d="M318 190l-49 -50l-189 189v55l189 189l49 -50l-165 -163v-7zM353 0h-273v62h273v-62z" />
    <glyph glyph-name="greaterequal" unicode="&#x2265;" horiz-adv-x="433" 
d="M353 329l-189 -189l-49 50l165 163v7l-165 163l49 50l189 -189v-55zM353 0h-273v62h273v-62z" />
    <glyph glyph-name="lozenge" unicode="&#x25ca;" horiz-adv-x="677" 
d="M597 259l-258 -259l-259 259l259 258zM498 259l-159 159l-160 -159l160 -160z" />
    <glyph glyph-name="apple" unicode="&#xf000;" horiz-adv-x="739" 
d="M689 67h-3v9l-3 -7h-2l-3 7v-9h-3v12h4l3 -7l2 7h5v-12zM673 76h-4v-9h-3v9h-4v3h11v-3zM651 74c0 -6.66699 -3.33301 -10 -10 -10c-7.33301 0 -11 3.66699 -11 11c0 6.66699 3.66699 10 11 10c6.66699 0 10 -3.66699 10 -11zM552 256
c0 -26.667 -9.33301 -44.667 -28 -54l-161 -82v202l131 66c6.66699 3.33301 13.667 5 21 5c24.667 0 37 -13.667 37 -41v-96zM619 46c0 -6 -3.33301 -9 -10 -9c-6 0 -9 3 -9 9c0 6.66699 3 10 9 10c6.66699 0 10 -3.33301 10 -10zM493 470
c12 -6.66699 17.999 -16.001 17.999 -28.001c0 -13.333 -8 -24 -24 -32l-127 -64c-6 -3.33301 -9 -8.66602 -9 -15.999v-217l-201 102v197c0 18.667 7.33301 31.667 22 39c48 26 89.333 47.333 124 64c18.667 9.33301 36.334 14 53.001 14s35.667 -5 57 -15
c41.333 -20 70.333 -34.667 87 -44zM588.999 22.999l-10 -1l-9 23h-2h-6v-22h-9v51h17c12 0 18 -4.66699 18 -14c0 -6 -3 -10.333 -9 -13zM541.999 47.999c0 -17.333 -6.66699 -26 -20 -26c-12.667 0 -19 8.66699 -19 26c0 18 6.33301 27 19 27c13.333 0 20 -9 20 -27z
M496.999 73.999l-17 -51h-8l-17 51h10l11 -36l11 36h10zM443.999 22.999h-9v22h-16v-22h-10v51h10v-21h16v21h9v-51zM397.999 35.999c0 -8.66699 -6 -13 -18 -13h-20v6h3v38h-3v7h19c11.333 0 17 -4 17 -12c0 -3.33301 -3 -7.33301 -9 -12c7.33301 -1.33301 11 -6 11 -14z
M348.999 37.999l-7 -12h-6l6 12l-6 10l2 2h4zM336.999 37.999l-7 -12h-6l6 12l-6 10l2 2h4zM312.999 34.999c-3.33301 -8.66699 -9.66699 -13 -19 -13c-12 0 -18 8.66699 -18 26c0 18 6.33301 27 19 27c9.33301 0 15 -4.33301 17 -13l-9 -2c-1.33301 5.33301 -4 8 -8 8
c-6 0 -9 -6.33301 -9 -19c0 -13.333 3.33301 -20 10 -20c4 0 7 3 9 9zM264.998 22.999h-10v22h-16v-22h-9v51h9v-21h16v21h10v-51zM218.998 58.999c0 -10 -6.66699 -15 -20 -15h-6v-21h-9v51h17c12 0 18 -5 18 -15zM171.998 22.999l-9 -1l-9 23h-2h-6v-22h-10v51h17
c12 0 18 -4.66699 18 -14c0 -6 -3 -10.333 -9 -13zM124.998 24.999l-3 -2l-3 3c-2.66699 -2.66699 -6.66699 -4 -12 -4c-12.667 0 -19 8.66699 -19 26c0 18 6.66699 27 20 27c9.33301 0 15 -4.33301 17 -13l-9 -2c-1.33301 5.33301 -4.33301 8 -9 8c-6 0 -9 -6.33301 -9 -19
c0 -13.333 3.33301 -20 10 -20c1.33301 0 4 1.33301 8 4v10h-9v6h18v-24zM76.998 68.999c0 -2.66699 -3 -6.66699 -9 -12l-4 1v3c1.33301 0.666992 2.83301 1.66699 4.5 3s2.5 3 2.5 5h-4v10h10v-10zM62.998 68.999c0 -2.66699 -3 -6.66699 -9 -12l-4 1v3
c1.33301 0.666992 2.83301 1.66699 4.5 3s2.16699 3 1.5 5h-3v10h10v-10zM645.998 73.999c0 4 -1.66699 6 -5 6c-4 0 -6 -2 -6 -6c0 -3.33301 2 -5 6 -5c3.33301 0 5 1.66699 5 5zM577.998 59.999c0 5.33301 -3.33301 8 -10 8h-6v-16h7c6 0 9 2.66699 9 8zM531.998 47.999
c0 13.333 -3.33301 20 -10 20c-6 0 -9 -6.66699 -9 -20c0 -12.667 3 -19 9 -19c6.66699 0 10 6.33301 10 19zM385.998 59.999c0 4.66699 -2.66699 7 -8 7h-6v-14h7c4.66699 0 7 2.33301 7 7zM387.998 36.999c0 6 -3 9 -9 9h-7v-17h6c6.66699 0 10 2.66699 10 8z
M208.998 58.999c0 6 -3.33301 9 -10 9h-6v-17h7c6 0 9 2.66699 9 8zM160.998 59.999c0 5.33301 -3 8 -9 8h-6v-16h7c5.33301 0 8 2.66699 8 8z" />
    <glyph glyph-name="fi" unicode="&#xf001;" horiz-adv-x="713" 
d="M653 0h-240.001v64h84v193h-283v-257h-70v257h-84v67h84v135c0 36.667 11.833 66 35.5 88s53.834 33 90.501 33h87c37.333 0 68.5 -11.667 93.5 -35s37.5 -53.333 37.5 -90v-31h-72v38c0 14 -4.83301 25.833 -14.5 35.5s-21.5 14.5 -35.5 14.5h-102
c-13.333 0 -25 -4.83301 -35 -14.5s-15 -21.5 -15 -35.5v-137h353v-261h86v-64z" />
    <glyph glyph-name="fl" unicode="&#xf002;" horiz-adv-x="708" 
d="M653 0h-240.001v64h85v448h-234c-14 0 -26 -4.83301 -36 -14.5s-15 -21.5 -15 -35.5l1 -137h130v-68h-130v-257h-70v257h-84v67h84v135c0 36.667 11.833 66 35.5 88s53.834 33 90.501 33h298v-516h85v-64z" />
    <glyph glyph-name=".null" horiz-adv-x="0" 
 />
    <glyph glyph-name="nonmarkingreturn" horiz-adv-x="350" 
 />
    </font>
</defs>
</svg>
