<?xml version="1.0" standalone="no"?>
<!DOCTYPE svg PUBLIC "-//W3C//DTD SVG 1.1//EN" "http://www.w3.org/Graphics/SVG/1.1/DTD/svg11.dtd" >
<svg>
<metadata>
Created by FontForge 20090914 at Thu Sep  1 10:24:24 2016
 By www-data
(r) (c) 2003 [T&#226;&#128;&#144;26] Chicago www.t26.com 773.862.1201 T0886 ID#5134274 designer: Anuthin Wongsunkakon
</metadata>
<defs>
<font id="CarbonBold" horiz-adv-x="600" >
  <font-face 
    font-family="CarbonBold"
    font-weight="400"
    font-stretch="normal"
    units-per-em="1000"
    panose-1="0 0 4 0 0 0 0 0 0 0"
    ascent="800"
    descent="-200"
    x-height="409.998"
    cap-height="580"
    bbox="-5 -200.002 999 801.001"
    underline-thickness="20"
    underline-position="-123"
    unicode-range="U+0020-U+F002"
  />
<missing-glyph horiz-adv-x="500" 
d="M63 0v800h375v-800h-375zM125 63h250v675h-250v-675z" />
    <glyph glyph-name=".notdef" horiz-adv-x="500" 
d="M63 0v800h375v-800h-375zM125 63h250v675h-250v-675z" />
    <glyph glyph-name="space" unicode=" " horiz-adv-x="350" 
 />
    <glyph glyph-name="exclam" unicode="!" horiz-adv-x="306" 
d="M221 580v-151l-19 -269h-98l-19 269v151h136zM211 0h-118v112h118v-112z" />
    <glyph glyph-name="quotedbl" unicode="&#x22;" horiz-adv-x="445" 
d="M350 410h-80v170h80v-170zM175 410h-80v170h80v-170z" />
    <glyph glyph-name="numbersign" unicode="#" horiz-adv-x="632" 
d="M553 418l-9 -89h-86l-8 -80h86l-9 -89h-86l-17 -160h-96l16 160h-85l-17 -160h-96l16 160h-84l10 89h84l8 80h-85l10 89h84l17 162h96l-17 -162h86l17 162h96l-17 -162h86zM362 329h-86l-8 -80h86z" />
    <glyph glyph-name="dollar" unicode="$" horiz-adv-x="576" 
d="M496 210c0 -36.667 -13.333 -67.832 -40 -93.499s-60.667 -38.5 -102 -38.5h-14v-166h-84v166h-146v95h251c23.333 0 35 11 35 33c0 21.333 -13 32.333 -39 33l-129 4c-42 1.33301 -77.167 13.666 -105.5 36.999s-42.5 52.666 -42.5 87.999c0 36.667 13.333 68 40 94
s60.667 39 102 39h34v159h84v-159h121v-94h-246c-9.33301 0 -17.5 -3.5 -24.5 -10.5s-10.5 -15.167 -10.5 -24.5c0 -22 21 -34.667 63 -38h113c39.333 -0.666992 72.5 -13.167 99.5 -37.5s40.5 -53.166 40.5 -86.499z" />
    <glyph glyph-name="percent" unicode="%" horiz-adv-x="728" 
d="M330 428c0 -24 -8.66699 -44.333 -26 -61s-38.333 -25 -63 -25h-72c-24.667 0 -45.667 8.33301 -63 25s-26 37 -26 61v69c0 23.333 8.66699 43.333 26 60s38.333 25 63 25h72c24.667 0 45.667 -8.33301 63 -25s26 -36.667 26 -60v-69zM633 571l-437 -622l-85 60l437 622z
M648 63c0 -23.333 -8.66699 -43.333 -26 -60s-38.333 -25 -63 -25h-72c-24.667 0 -45.667 8.33301 -63 25s-26 36.667 -26 60v69c0 24 8.66699 44.333 26 61s38.333 25 63 25h72c24.667 0 45.667 -8.33301 63 -25s26 -37 26 -61v-69zM244 436v53
c0 6.66699 -3.33301 10 -10 10h-57c-6.66699 0 -10 -3.33301 -10 -10v-53c0 -6.66699 3.33301 -10 10 -10h57c6.66699 0 10 3.33301 10 10zM562 72v53c0 6.66699 -3.33301 10 -10 10h-57c-6.66699 0 -10 -3.33301 -10 -10v-53c0 -6.66699 3.33301 -10 10 -10h57
c6.66699 0 10 3.33301 10 10z" />
    <glyph glyph-name="ampersand" unicode="&#x26;" horiz-adv-x="607" 
d="M558 34l-71 -64.998l-58 62c-33.333 -25.333 -70.333 -38 -111 -38h-106c-40.667 0 -74.5 12.667 -101.5 38s-40.5 56.666 -40.5 93.999v96c0 42 15.667 73 47 93c-16.667 19.333 -25 42 -25 68v74c0 39.333 13.167 71.166 39.5 95.499s59.833 36.5 100.5 36.5h31
c40.667 0 73.834 -12.167 99.501 -36.5s38.5 -56.166 38.5 -95.499v-66h-100v76c0 21.333 -10.333 32 -31 32h-45c-22 0 -33 -10.667 -33 -32v-69c0 -24.667 6.33301 -41 19 -49l52 -20c17.333 -6.66699 31.666 -16.334 42.999 -29.001l109 -120c2 8 3 15.667 3 23v69h100
v-63c0 -35.333 -9 -70 -27 -104zM359 99.002l-130.999 140c-8.66699 9.33301 -18.334 14 -29.001 14c-19.333 0 -29 -11 -29 -33v-99c0 -9.33301 3.5 -17.333 10.5 -24s15.167 -10 24.5 -10h112c14 0 28 4 42 12z" />
    <glyph glyph-name="quotesingle" unicode="'" horiz-adv-x="270" 
d="M175 410h-80v170h80v-170z" />
    <glyph glyph-name="parenleft" unicode="(" horiz-adv-x="427" 
d="M347 -88l-105 0.00195312c-45.333 0 -83.666 15.167 -114.999 45.5s-47 67.166 -47 110.499v424c0 43.333 15.667 80.166 47 110.499s69.666 45.5 114.999 45.5h105v-94h-112c-15.333 0 -28.333 -5.5 -39 -16.5s-16 -24.167 -16 -39.5v-436
c0 -15.333 5.33301 -28.5 16 -39.5s23.667 -16.5 39 -16.5h112v-94z" />
    <glyph glyph-name="parenright" unicode=")" horiz-adv-x="427" 
d="M347 68c0 -43.333 -15.667 -80.168 -47 -110.501s-69.666 -45.5 -114.999 -45.5h-105v94h112c15.333 0 28.333 5.5 39 16.5s16 24.167 16 39.5v436c0 15.333 -5.33301 28.5 -16 39.5s-23.667 16.5 -39 16.5h-112v94h105c45.333 0 83.666 -15.167 114.999 -45.5
s47 -67.166 47 -110.499v-424z" />
    <glyph glyph-name="asterisk" unicode="*" horiz-adv-x="542" 
d="M467 378l-113 -90v-2l113 -89l-60 -58l-101 96l8 -136h-86l8 136l-101 -96l-60 58l114 89v2l-114 90l60 57l101 -96l-8 138h86l-8 -138l101 96z" />
    <glyph glyph-name="plus" unicode="+" horiz-adv-x="598" 
d="M518 243h-170v-159h-100v159h-168v93h168v157h100v-157h170v-93z" />
    <glyph glyph-name="comma" unicode="," horiz-adv-x="319" 
d="M224 37c0 -20 -5 -35 -15 -45l-79 -96l-33 23l49 79v8h-34c-6.66699 0 -10 3.33301 -10 10v90c0 6.66699 3.33301 10 10 10h102c6.66699 0 10 -3.33301 10 -10v-69z" />
    <glyph glyph-name="hyphen" unicode="-" horiz-adv-x="511" 
d="M416 251h-321v91h321v-91z" />
    <glyph glyph-name="hyphen" unicode="&#x2010;" horiz-adv-x="511" 
d="M416 251h-321v91h321v-91z" />
    <glyph glyph-name="period" unicode="." horiz-adv-x="312" 
d="M217 10c0 -6.66699 -3.33301 -10 -10 -10h-102c-6.66699 -0 -10 3.33301 -10 10v102c0 6.66699 3.33301 10 10 10h102c6.66699 0 10 -3.33301 10 -10v-102z" />
    <glyph glyph-name="slash" unicode="/" horiz-adv-x="484" 
d="M458 647l-337 -766l-96 42l338 766z" />
    <glyph glyph-name="zero" unicode="0" 
d="M520 135c0 -38.667 -13.5 -70.834 -40.5 -96.501s-60.833 -38.5 -101.5 -38.5h-156c-40.667 0 -74.5 12.833 -101.5 38.5s-40.5 57.834 -40.5 96.501v310c0 38.667 13.5 70.834 40.5 96.501s60.833 38.5 101.5 38.5h156c40.667 0 74.5 -12.833 101.5 -38.5
s40.5 -57.834 40.5 -96.501v-310zM420 130v320c0 10 -3.5 18.667 -10.5 26s-15.167 11 -24.5 11h-170c-9.33301 0 -17.5 -3.66699 -24.5 -11s-10.5 -16 -10.5 -26v-320c0 -10 3.5 -18.667 10.5 -26s15.167 -11 24.5 -11h170c9.33301 0 17.5 3.66699 24.5 11s10.5 16 10.5 26
zM356 261c0 -15.333 -8.33301 -23 -25 -23h-59c-16.667 0 -25 7.66699 -25 23v57c0 15.333 8.33301 23 25 23h59c16.667 0 25 -7.66699 25 -23v-57z" />
    <glyph glyph-name="one" unicode="1" horiz-adv-x="434" 
d="M364 0h-286v89h92v342l-44 -39l-62 59l125 129h81v-491h94v-89z" />
    <glyph glyph-name="two" unicode="2" horiz-adv-x="582" 
d="M502 0h-422.001v75c0 52.667 27.333 102.334 82 149.001c16 14 66.667 47.667 152 101c54.667 34.667 82 63.667 82 87v36c0 10 -3.66699 18.667 -11 26s-15.333 11 -24 11h-144c-8.66699 0 -16.667 -3.66699 -24 -11s-11 -16 -11 -26v-44h-102v35
c0 39.333 13.167 72.666 39.5 99.999s59.833 41 100.5 41h134c40.667 0 74.834 -11.833 102.501 -35.5s41.5 -55.167 41.5 -94.5v-40c0 -44.667 -25.667 -87.667 -77 -129c-4.66699 -4 -53.667 -35.667 -147 -95c-53.333 -35.333 -82 -66.333 -86 -93h314v-93z" />
    <glyph glyph-name="three" unicode="3" horiz-adv-x="590" 
d="M510 135c0 -38.667 -13.5 -70.834 -40.5 -96.501s-60.833 -38.5 -101.5 -38.5h-146c-40.667 0 -74.5 12.833 -101.5 38.5s-40.5 57.834 -40.5 96.501v41h100v-46c0 -10 3.5 -18.667 10.5 -26s15.167 -11 24.5 -11h160c9.33301 0 17.5 3.66699 24.5 11s10.5 16 10.5 26v78
c0 9.33301 -2.83301 17.333 -8.5 24s-11.167 10 -16.5 10h-158v96h158c5.33301 0 10.833 3.33301 16.5 10s8.5 14.667 8.5 24v78c0 10 -3.5 18.667 -10.5 26s-15.167 11 -24.5 11h-160c-9.33301 0 -17.5 -3.66699 -24.5 -11s-10.5 -16 -10.5 -26v-54h-100v49
c0 38.667 13.5 70.834 40.5 96.501s60.833 38.5 101.5 38.5h146c40.667 0 74.5 -12.833 101.5 -38.5s40.5 -57.834 40.5 -96.501v-67c0 -32.667 -11.667 -62 -35 -88c23.333 -26 35 -55.333 35 -88v-67z" />
    <glyph glyph-name="four" unicode="4" horiz-adv-x="588" 
d="M518 147h-68v-147h-102v147h-268v149l284 284h86v-339h68v-94zM348 241v187l-168 -167v-20h168z" />
    <glyph glyph-name="five" unicode="5" horiz-adv-x="595" 
d="M515 135c0 -38.667 -13.499 -70.834 -40.499 -96.501s-60.833 -38.5 -101.5 -38.5h-151c-40.667 0 -74.5 12.833 -101.5 38.5s-40.5 57.834 -40.5 96.501v41h100v-46c0 -10 3.5 -18.667 10.5 -26s15.167 -11 24.5 -11h165c9.33301 0 17.5 3.66699 24.5 11
s10.5 16 10.5 26v121c0 32 -13 48 -39 48l-282 -4l8 285h384v-93h-288l-4 -99l168 4c43.333 0.666992 79.666 -13 108.999 -41s44 -62 44 -102v-114z" />
    <glyph glyph-name="six" unicode="6" horiz-adv-x="574" 
d="M509 135c0 -38.667 -13.5 -70.832 -40.5 -96.499s-60.833 -38.5 -101.5 -38.5h-145c-40.667 0 -74.5 12.667 -101.5 38s-40.5 57.666 -40.5 96.999v204c0 70 23.167 127.667 69.5 173s102.5 68 168.5 68h79v-93h-76c-38 0 -71 -13.667 -99 -41s-42 -60 -42 -98v-10h187
c40.667 0 74.5 -12.833 101.5 -38.5s40.5 -58.167 40.5 -97.5v-67zM409 130.002v78.001c0 9.33301 -3.5 17.666 -10.5 24.999s-15.167 11 -24.5 11h-194v-114c0 -10 3.5 -18.667 10.5 -26s15.167 -11 24.5 -11h159c9.33301 0 17.5 3.66699 24.5 11s10.5 16 10.5 26z" />
    <glyph glyph-name="seven" unicode="7" horiz-adv-x="549" 
d="M479 505c0 -32.667 -12 -65.3311 -36 -97.998c-14.667 -19.333 -39.5 -44.833 -74.5 -76.5s-57.833 -53.834 -68.5 -66.501c-24 -28.667 -36 -55.334 -36 -80.001v-184h-104v181c0 44 18 88 54 132c13.333 16 47 48.667 101 98c36 32.667 54 58 54 76h-309v93h411
c5.33301 -35.333 8 -60.333 8 -75z" />
    <glyph glyph-name="eight" unicode="8" horiz-adv-x="601" 
d="M521 135c0 -38.667 -13.5 -70.834 -40.5 -96.501s-60.833 -38.5 -101.5 -38.5h-157c-40.667 0 -74.5 12.833 -101.5 38.5s-40.5 57.834 -40.5 96.501v67c0 32.667 11.667 62 35 88c-23.333 26 -35 55.333 -35 88v67c0 38.667 13.5 70.834 40.5 96.501
s60.833 38.5 101.5 38.5h157c40.667 0 74.5 -12.833 101.5 -38.5s40.5 -57.834 40.5 -96.501v-67c0 -32.667 -11.333 -62 -34 -88c22.667 -26 34 -55.333 34 -88v-67zM421 372v78c0 10 -3.5 18.667 -10.5 26s-15.167 11 -24.5 11h-171c-9.33301 0 -17.5 -3.66699 -24.5 -11
s-10.5 -16 -10.5 -26v-78c0 -9.33301 2.66699 -17.333 8 -24s11 -10 17 -10h191c6 0 11.667 3.33301 17 10s8 14.667 8 24zM421 130v78c0 9.33301 -2.66699 17.333 -8 24s-11 10 -17 10h-191c-6 0 -11.667 -3.33301 -17 -10s-8 -14.667 -8 -24v-78
c0 -10 3.5 -18.667 10.5 -26s15.167 -11 24.5 -11h171c9.33301 0 17.5 3.66699 24.5 11s10.5 16 10.5 26z" />
    <glyph glyph-name="nine" unicode="9" horiz-adv-x="576" 
d="M496 241c0 -70 -23 -127.669 -69 -173.002s-102.333 -68 -169 -68h-79v93h76c38 0 71 13.667 99 41s42 60 42 98v10h-189c-40.667 0 -74.5 12.833 -101.5 38.5s-40.5 58.167 -40.5 97.5v67c0 38.667 13.5 70.834 40.5 96.501s60.833 38.5 101.5 38.5h147
c41.333 0 75.333 -12.667 102 -38s40 -57.666 40 -96.999v-204zM396 335.998v113.999c0 10 -3.5 18.667 -10.5 26s-15.167 11 -24.5 11h-161c-9.33301 0 -17.5 -3.66699 -24.5 -11s-10.5 -16 -10.5 -26v-78c0 -9.33301 3.5 -17.666 10.5 -24.999s15.167 -11 24.5 -11h196z
" />
    <glyph glyph-name="colon" unicode=":" horiz-adv-x="310" 
d="M215 300c0 -6.66699 -3.33301 -10 -10 -10h-100c-6.66699 0 -10 3.33301 -10 10v100c0 6.66699 3.33301 10 10 10h100c6.66699 0 10 -3.33301 10 -10v-100zM215 10c0 -6.66699 -3.33301 -10 -10 -10h-100c-6.66699 -0 -10 3.33301 -10 10v100c0 6.66699 3.33301 10 10 10
h100c6.66699 0 10 -3.33301 10 -10v-100z" />
    <glyph glyph-name="semicolon" unicode=";" horiz-adv-x="319" 
d="M223 300c0 -6.66699 -3.33301 -10 -10 -10h-100c-6.66699 0 -10 3.33301 -10 10v100c0 6.66699 3.33301 10 10 10h100c6.66699 0 10 -3.33301 10 -10v-100zM224 37c0 -20 -5 -35 -15 -45l-79 -96l-33 23l49 79v8h-34c-6.66699 0 -10 3.33301 -10 10v90
c0 6.66699 3.33301 10 10 10h102c6.66699 0 10 -3.33301 10 -10v-69z" />
    <glyph glyph-name="less" unicode="&#x3c;" horiz-adv-x="436" 
d="M372 41l-70 -67l-232 218v64l232 218l70 -67l-197 -185c6 -2.66699 71.667 -63 197 -181z" />
    <glyph glyph-name="equal" unicode="=" horiz-adv-x="553" 
d="M458 325h-363v85h363v-85zM458 155h-363v85h363v-85z" />
    <glyph glyph-name="greater" unicode="&#x3e;" horiz-adv-x="436" 
d="M366 192l-232 -218l-70 67l197 185c-6 2.66699 -71.667 63 -197 181l70 67l232 -218v-64z" />
    <glyph glyph-name="question" unicode="?" horiz-adv-x="588" 
d="M508 408c0 -42.667 -29.001 -85.3301 -87.001 -127.997c-27.333 -20.667 -42.666 -32.334 -45.999 -35.001c-19.333 -17.333 -29 -32.333 -29 -45v-53h-102v57c0 29.333 14 57.666 42 84.999c6.66699 6.66699 32.667 27.334 78 62.001c28 21.333 42 39 42 53v44
c0 10 -3.5 18.667 -10.5 26s-15.167 11 -24.5 11h-154c-8.66699 0 -16.667 -3.66699 -24 -11s-11 -16 -11 -26v-44h-102v35c0 39.333 13.167 72.666 39.5 99.999s59.833 41 100.5 41h146c40.667 0 74.5 -12.833 101.5 -38.5s40.5 -57.834 40.5 -96.501v-37z
M353.999 0.00390625h-118v112h118v-112z" />
    <glyph glyph-name="at" unicode="@" horiz-adv-x="738" 
d="M588 77l-156.999 -0.000976562c-38 0 -70 11.667 -96 35s-39 52.666 -39 87.999v84c0 36.667 12.667 67.334 38 92.001s57.666 37 96.999 37h57v37c0 9.33301 -3.5 17.666 -10.5 24.999s-15.167 11 -24.5 11h-168c-9.33301 0 -17.5 -3.66699 -24.5 -11
s-10.5 -15.666 -10.5 -24.999v-408c0 -9.33301 3.5 -17.666 10.5 -24.999s15.167 -11 24.5 -11h219v-94h-212c-40.667 0 -74.5 12.833 -101.5 38.5s-40.5 58.167 -40.5 97.5v396c0 39.333 13.5 71.833 40.5 97.5s60.833 38.5 101.5 38.5h154
c40.667 0 74.5 -12.833 101.5 -38.5s40.5 -58.167 40.5 -97.5v-367zM488.001 169.999v150h-57c-23.333 0 -35 -10.333 -35 -31v-84c0 -23.333 11.667 -35 35 -35h57z" />
    <glyph glyph-name="A" unicode="A" 
d="M520 353v-353h-101v183h-238v-183h-101v353c0 40 12.667 72 38 96l138 131h88l138 -131c25.333 -24 38 -56 38 -96zM419 271v77.001c0 17.333 -4.33301 30 -13 38l-107 106c-2.66699 -4.66699 -37.667 -40 -105 -106c-8.66699 -8.66699 -13 -21.334 -13 -38.001v-77h238z
" />
    <glyph glyph-name="B" unicode="B" horiz-adv-x="584" 
d="M504 137c0 -38.667 -13.833 -71.168 -41.5 -97.501s-61.834 -39.5 -102.501 -39.5h-280v580h280c40.667 0 74.834 -13.167 102.501 -39.5s41.5 -58.833 41.5 -97.5v-59c0 -39.333 -13 -69.666 -39 -90.999c26 -20 39 -48 39 -84v-72zM402 384.999v65
c0 10.667 -3.66699 20 -11 28s-15.333 12 -24 12h-188v-151h178c18 0 30 3.33301 36 10s9 18.667 9 36zM402 128.999v71c0 18 -2.66699 30.5 -8 37.5s-16.333 10.5 -33 10.5h-182v-159h188c8.66699 0 16.667 4.16699 24 12.5s11 17.5 11 27.5z" />
    <glyph glyph-name="C" unicode="C" horiz-adv-x="598" 
d="M518 135c0 -38.667 -13.5 -70.8359 -40.5 -96.5029s-60.833 -38.5 -101.5 -38.5h-154c-40.667 0 -74.5 12.833 -101.5 38.5s-40.5 57.834 -40.5 96.501v310c0 38.667 13.5 70.834 40.5 96.501s60.833 38.5 101.5 38.5h156c40.667 0 74.167 -13.667 100.5 -41
s39.5 -60.666 39.5 -99.999v-35h-102v44c0 10 -3.5 18.667 -10.5 26s-15.167 11 -24.5 11h-164c-8.66699 0 -16.667 -3.66699 -24 -11s-11 -16 -11 -26v-317c0 -10 3.66699 -18.667 11 -26s15.333 -11 24 -11h164c9.33301 0 17.5 3.66699 24.5 11s10.5 16 10.5 26v45h102
v-41z" />
    <glyph glyph-name="D" unicode="D" 
d="M520 135c0 -38.667 -13.5 -70.832 -40.5 -96.499s-60.833 -38.5 -101.5 -38.5h-298v580h298c40.667 0 74.5 -12.833 101.5 -38.5s40.5 -57.834 40.5 -96.501v-310zM418 130.002v320c0 10 -3.5 18.667 -10.5 26s-15.167 11 -24.5 11h-203v-394h203
c9.33301 0 17.5 3.66699 24.5 11s10.5 16 10.5 26z" />
    <glyph glyph-name="E" unicode="E" horiz-adv-x="536" 
d="M456 0h-376v580h376v-93h-276v-150h214v-95h-214v-149h276v-93z" />
    <glyph glyph-name="F" unicode="F" horiz-adv-x="510" 
d="M450 487h-270v-150h208v-95h-208v-242h-100v580h370v-93z" />
    <glyph glyph-name="G" unicode="G" 
d="M520 135c0 -38.667 -13.5 -70.834 -40.5 -96.501s-60.833 -38.5 -101.5 -38.5h-156c-40.667 0 -74.5 12.833 -101.5 38.5s-40.5 57.834 -40.5 96.501v310c0 38.667 13.5 70.834 40.5 96.501s60.833 38.5 101.5 38.5h156c40.667 0 74.5 -12.833 101.5 -38.5
s40.5 -57.834 40.5 -96.501v-41h-102v48c0 10 -3.5 18.667 -10.5 26s-15.167 11 -24.5 11h-166c-8.66699 0 -16.667 -3.66699 -24 -11s-11 -16 -11 -26v-321c0 -10 3.66699 -18.667 11 -26s15.333 -11 24 -11h166c9.33301 0 17.5 3.66699 24.5 11s10.5 16 10.5 26v113h-119
v93h221v-202z" />
    <glyph glyph-name="H" unicode="H" horiz-adv-x="598" 
d="M518 0h-102v243h-234v-243h-102v580h102v-241h234v241h102v-580z" />
    <glyph glyph-name="I" unicode="I" horiz-adv-x="430" 
d="M350 0h-270v91h84v398h-84v91h270v-91h-85v-398h85v-91z" />
    <glyph glyph-name="J" unicode="J" horiz-adv-x="527" 
d="M477 491h-82.999v-356c0 -38.667 -13.333 -70.834 -40 -96.501s-60.334 -38.5 -101.001 -38.5h-81c-40.667 0 -74.5 12.833 -101.5 38.5s-40.5 57.834 -40.5 96.501v42h100v-51c0 -8.66699 3.5 -16.334 10.5 -23.001s15.167 -10 24.5 -10h93
c9.33301 0 17.5 3.33301 24.5 10s10.5 14.334 10.5 23.001v365h-91v89h275v-89z" />
    <glyph glyph-name="K" unicode="K" horiz-adv-x="588" 
d="M529 40l-90 -57l-188 270l-68 -74v-180h-103v581h103v-263l267 273l75 -68l-197 -199z" />
    <glyph glyph-name="L" unicode="L" horiz-adv-x="504" 
d="M444 0h-364v580h104v-487h260v-93z" />
    <glyph glyph-name="M" unicode="M" horiz-adv-x="638" 
d="M558 0h-102v414l-106 -122h-62l-106 122v-414h-102v580h83l159 -185c2.66699 7.33301 53.667 69 153 185h83v-580z" />
    <glyph glyph-name="N" unicode="N" horiz-adv-x="596" 
d="M516 0h-102v176l-232 242v-418h-102v580h86l248 -261v261h102v-580z" />
    <glyph glyph-name="O" unicode="O" horiz-adv-x="618" 
d="M538 135c0 -38.667 -13.5 -70.834 -40.5 -96.501s-60.833 -38.5 -101.5 -38.5h-174c-40.667 0 -74.5 12.833 -101.5 38.5s-40.5 57.834 -40.5 96.501v310c0 38.667 13.5 70.834 40.5 96.501s60.833 38.5 101.5 38.5h174c40.667 0 74.5 -12.833 101.5 -38.5
s40.5 -57.834 40.5 -96.501v-310zM438 130v320c0 10 -3.5 18.667 -10.5 26s-15.167 11 -24.5 11h-188c-9.33301 0 -17.5 -3.66699 -24.5 -11s-10.5 -16 -10.5 -26v-320c0 -10 3.5 -18.667 10.5 -26s15.167 -11 24.5 -11h188c9.33301 0 17.5 3.66699 24.5 11s10.5 16 10.5 26
z" />
    <glyph glyph-name="P" unicode="P" horiz-adv-x="572" 
d="M502 378c0 -39.333 -13.5 -71.832 -40.5 -97.499s-60.833 -38.5 -101.5 -38.5h-180v-242h-100v580h280c40.667 0 74.5 -12.833 101.5 -38.5s40.5 -57.834 40.5 -96.501v-67zM402 371.001v81.001c0 10 -3.5 18.667 -10.5 26s-15.167 11 -24.5 11h-187v-154h187
c9.33301 0 17.5 3.66699 24.5 11s10.5 15.666 10.5 24.999z" />
    <glyph glyph-name="Q" unicode="Q" horiz-adv-x="621" 
d="M557 49l-71.002 -68.001l-85 83c-24 -23.333 -40.333 -38 -49 -44c-19.333 -14 -40.666 -21 -63.999 -21h-70c-41.333 0 -74.666 12.333 -99.999 37s-38 56.334 -38 95.001v314c0 38.667 13.5 70.834 40.5 96.501s60.833 38.5 101.5 38.5h176
c40.667 0 74.5 -12.833 101.5 -38.5s40.5 -57.834 40.5 -96.501v-171c0 -32.667 -6 -59 -18 -79c-6 -8.66699 -24.333 -29 -55 -61zM439.998 267.999l-0.000976562 181.999c0 10 -3.5 18.667 -10.5 26s-15.167 11 -24.5 11h-190c-9.33301 0 -17.5 -3.66699 -24.5 -11
s-10.5 -16 -10.5 -26v-321c0 -24 9.33301 -36 28 -36h65c14.667 0 25.334 3.33301 32.001 10l27 27l-71 65l71 68l66 -63l31 30c7.33301 8.66699 11 21.334 11 38.001z" />
    <glyph glyph-name="R" unicode="R" horiz-adv-x="594" 
d="M514 0h-102v194c0 18 -2.66699 30.5 -8 37.5s-16.333 10.5 -33 10.5h-192v-242h-99v580h292c40.667 0 74.5 -12.833 101.5 -38.5s40.5 -57.834 40.5 -96.501v-63c0 -39.333 -13 -69.666 -39 -90.999c26 -20 39 -48 39 -84v-207zM412 383v69.001
c0 10.667 -3.66699 20 -11 28s-15.333 12 -24 12h-198v-154h187c18.667 0 31 3.16699 37 9.5s9 18.166 9 35.499z" />
    <glyph glyph-name="S" unicode="S" horiz-adv-x="578" 
d="M508 133c0 -38.667 -13.5 -70.834 -40.5 -96.501s-60.833 -38.5 -101.5 -38.5h-154c-40.667 0 -74.5 12.833 -101.5 38.5s-40.5 57.834 -40.5 96.501v37h100v-42c0 -10 3.5 -18.667 10.5 -26s15.167 -11 24.5 -11h168c9.33301 0 17.5 3.66699 24.5 11s10.5 16 10.5 26v75
c0 28.667 -32.667 43 -98 43c-8.66699 0 -25 -0.333008 -49 -1c-20 -0.666992 -35 -1 -45 -1c-41.333 1.33301 -75.333 14.666 -102 39.999s-40 57.333 -40 96v65c0 38.667 13.5 70.834 40.5 96.501s60.833 38.5 101.5 38.5h142c40.667 0 74.5 -12.833 101.5 -38.5
s40.5 -57.834 40.5 -96.501v-38h-100v43c0 10 -3.5 18.667 -10.5 26s-15.167 11 -24.5 11h-156c-9.33301 0 -17.5 -3.66699 -24.5 -11s-10.5 -16 -10.5 -26v-76c0 -28 31.667 -42 95 -42c9.33301 0 26 0.333008 50 1c21.333 0.666992 37 1 47 1
c40.667 -1.33301 74.5 -14.666 101.5 -39.999s40.5 -57.333 40.5 -96v-65z" />
    <glyph glyph-name="T" unicode="T" horiz-adv-x="558" 
d="M508 487h-176v-487h-107v487h-175v93h458v-93z" />
    <glyph glyph-name="U" unicode="U" horiz-adv-x="598" 
d="M518 135c0 -38.667 -13.5 -70.834 -40.5 -96.501s-60.833 -38.5 -101.5 -38.5h-154c-40.667 0 -74.5 12.833 -101.5 38.5s-40.5 57.834 -40.5 96.501v445h104v-450c0 -10 3.5 -18.667 10.5 -26s15.167 -11 24.5 -11h160c9.33301 0 17.5 3.66699 24.5 11s10.5 16 10.5 26
v450h104v-445z" />
    <glyph glyph-name="V" unicode="V" horiz-adv-x="606" 
d="M520 230c0 -38.667 -12.667 -70.333 -38 -95l-138 -135h-88l-138 135c-25.333 24.667 -38 56.334 -38 95.001v350h103v-346c0 -16.667 4.33301 -29.334 13 -38.001l105 -106c2.66699 5.33301 37 40.666 103 105.999c8.66699 8.66699 13 21.334 13 38.001v346h103v-350z
" />
    <glyph glyph-name="W" unicode="W" horiz-adv-x="672" 
d="M592 200c0 -31.333 -11.667 -64.999 -35 -100.999l-67 -99h-90l-64 101l-63 -101h-91l-66 99c-24 36 -36 69.667 -36 101v380h103v-381c0 -15.333 5.66699 -33.333 17 -54l31 -48c2.66699 8 13 25.667 31 53c16 22.667 24 40 24 52v226h100v-226
c0 -10.667 4.66699 -23 14 -37l44 -64l29 46c10.667 19.333 16 36.666 16 51.999v381h103v-380z" />
    <glyph glyph-name="X" unicode="X" horiz-adv-x="595" 
d="M515 449c0 -38 -16.333 -70.6689 -49 -98.002l-79 -66l81 -59c30.667 -22.667 46 -56.334 46 -101.001v-125h-103v117c0 14.667 -1 24.334 -3 29.001s-7 10 -15 16l-104 75l-89 -75c-8 -6.66699 -13 -12.5 -15 -17.5s-3 -15.5 -3 -31.5v-113h-102v117
c0 26 2.66699 45.667 8 59c6 17.333 18.333 33.666 37 48.999l83 69l-81 60c-31.333 22.667 -47 55.334 -47 98.001v128h102v-125c0 -15.333 4.66699 -26.666 14 -33.999l110 -79l87 75c12.667 10.667 19 23.334 19 38.001v125h103v-131z" />
    <glyph glyph-name="Y" unicode="Y" horiz-adv-x="594" 
d="M514 425c0 -37.333 -12.667 -68.333 -38 -93l-128 -127v-205h-102v205l-128 127c-25.333 24.667 -38 55.667 -38 93v155h100v-151c0 -16 4.33301 -28 13 -36l103 -105l104 105c8.66699 8 13 20 13 36v151h101v-155z" />
    <glyph glyph-name="Z" unicode="Z" horiz-adv-x="582" 
d="M502 0h-422v73l283 414h-283v93h422v-73l-283 -414h283v-93z" />
    <glyph glyph-name="bracketleft" unicode="[" horiz-adv-x="426" 
d="M346 -88h-266v736h266v-94h-166v-548h166v-94z" />
    <glyph glyph-name="backslash" unicode="\" horiz-adv-x="484" 
d="M458 -77l-95 -42l-338 766l96 42z" />
    <glyph glyph-name="bracketright" unicode="]" horiz-adv-x="426" 
d="M346 -88h-266v94h166v548h-166v94h266v-736z" />
    <glyph glyph-name="asciicircum" unicode="^" horiz-adv-x="430" 
d="M381 455l-67 -42l-99 93l-99 -93l-67 42l134 125h64z" />
    <glyph glyph-name="underscore" unicode="_" horiz-adv-x="438" 
d="M443 -88h-448v88h448v-88z" />
    <glyph glyph-name="grave" unicode="`" horiz-adv-x="314" 
d="M217 430h-76l-62 150h76z" />
    <glyph glyph-name="a" unicode="a" horiz-adv-x="558" 
d="M478 283v-282.999h-276c-41.333 0 -75.333 12.667 -102 38s-40 55.666 -40 90.999c0 33.333 13.5 61.833 40.5 85.5s60.5 35.5 100.5 35.5l177 1v25c0 16 -3.66699 27 -11 33s-22 9 -44 9h-189v92h207c38 0 70.333 -12.5 97 -37.5s40 -54.833 40 -89.5zM378 89.001v74
h-180c-10 0 -19 -3.33301 -27 -10s-12 -15.667 -12 -27c0 -10 3.66699 -18.667 11 -26s15.333 -11 24 -11h184z" />
    <glyph glyph-name="b" unicode="b" horiz-adv-x="584" 
d="M504 135c0 -38.667 -13.5 -70.833 -40.5 -96.5s-60.833 -38.5 -101.5 -38.5h-282v580h100v-217c20.667 19.333 36 32 46 38c18 11.333 37.333 17 58 17h77c41.333 0.666992 75.5 -12 102.5 -38s40.5 -58.333 40.5 -97v-148zM404 123.001v171.001
c0 9.33301 -3.5 17.166 -10.5 23.499s-15.167 9.5 -24.5 9.5h-73c-16.667 0 -31.667 -6 -45 -18l-71 -62v-158h189c9.33301 0 17.5 3.33301 24.5 10s10.5 14.667 10.5 24z" />
    <glyph glyph-name="c" unicode="c" horiz-adv-x="568" 
d="M488 237l-100 -0.00292969v49c0 22 -11.667 33 -35 33h-138c-9.33301 0 -17.5 -3.16699 -24.5 -9.5s-10.5 -14.166 -10.5 -23.499v-162c0 -9.33301 3.33301 -17.166 10 -23.499s15 -9.5 25 -9.5h234v-91h-227c-40.667 0 -74.5 12.833 -101.5 38.5s-40.5 57.5 -40.5 95.5
v143c0 38.667 13.5 70.5 40.5 95.5s60.833 37.5 101.5 37.5h124c44.667 0 79.5 -11.167 104.5 -33.5s37.5 -53.166 37.5 -92.499v-47z" />
    <glyph glyph-name="d" unicode="d" horiz-adv-x="584" 
d="M504 0l-282 -0.000976562c-40.667 0 -74.5 12.833 -101.5 38.5s-40.5 57.834 -40.5 96.501v148c0 38.667 13.5 71 40.5 97s60.833 38.667 101.5 38h77c21.333 0 41 -5.66699 59 -17c10 -6 25.333 -18.667 46 -38v217h100v-580zM404 88.999v157.999l-71 62
c-13.333 12 -28.333 18 -45 18h-73c-9.33301 0 -17.5 -3.16699 -24.5 -9.5s-10.5 -14.166 -10.5 -23.499v-171c0 -9.33301 3.33301 -17.333 10 -24s15 -10 25 -10h189z" />
    <glyph glyph-name="e" unicode="e" horiz-adv-x="578" 
d="M498 156l-318 0.000976562v-34c0 -8.66699 3.33301 -16.334 10 -23.001s15 -10 25 -10h230v-89h-223c-40.667 0 -74.5 12.5 -101.5 37.5s-40.5 56.833 -40.5 95.5v144c0 38.667 13.5 70.5 40.5 95.5s60.833 37.5 101.5 37.5h134c40.667 0 74.5 -12.5 101.5 -37.5
s40.5 -56.833 40.5 -95.5v-121zM398 243.001v42c0 9.33301 -3.33301 17.166 -10 23.499s-15 9.5 -25 9.5h-148c-9.33301 0 -17.5 -3.16699 -24.5 -9.5s-10.5 -14.166 -10.5 -23.499v-42h218z" />
    <glyph glyph-name="f" unicode="f" horiz-adv-x="518" 
d="M498 404l-102.001 -0.000976562v50c0 8.66699 -3.5 16.334 -10.5 23.001s-15.167 10 -24.5 10h-82c-9.33301 0 -17.5 -3.33301 -24.5 -10s-10.5 -14.334 -10.5 -23.001v-117h112v-95h-112v-242h-100v242h-84v95h84v114c0 38.667 13.333 69.834 40 93.501
s60.334 35.5 101.001 35.5h67c41.333 0 76 -12.333 104 -37s42 -56.667 42 -96v-43z" />
    <glyph glyph-name="g" unicode="g" horiz-adv-x="574" 
d="M494 46c0 -38.667 -14.5 -71.332 -43.5 -97.999s-63.833 -40 -104.5 -40h-182v92h195c10 0 18.333 3.16699 25 9.5s10 14.166 10 23.499v26h-172c-40.667 0 -74.5 11.667 -101.5 35s-40.5 54.333 -40.5 93v95c0 38.667 13.5 69.667 40.5 93s60.833 35 101.5 35h272v-364z
M394 153.002v164.999h-179c-9.33301 0 -17.5 -3.5 -24.5 -10.5s-10.5 -14.833 -10.5 -23.5v-98c0 -9.33301 3.5 -17.166 10.5 -23.499s15.167 -9.5 24.5 -9.5h179z" />
    <glyph glyph-name="h" unicode="h" horiz-adv-x="579" 
d="M499 0l-100.002 -0.000976562v293c0 9.33301 -3.5 17.166 -10.5 23.499s-15.167 9.5 -24.5 9.5h-66c-15.333 0 -30 -6 -44 -18l-74 -62v-246h-100v580h100v-218c22.667 20 38.667 32.667 48 38c18.667 12 38.334 18 59.001 18h74
c40.667 0.666992 73.834 -11.166 99.501 -35.499s38.5 -56.166 38.5 -95.499v-287z" />
    <glyph glyph-name="i" unicode="i" horiz-adv-x="410" 
d="M266 479h-106v101h106v-101zM350 0h-270v89h84v239h-84v90h184v-329h86v-89z" />
    <glyph glyph-name="j" unicode="j" horiz-adv-x="464" 
d="M383 479h-106v101h106v-101zM384 42c0 -38.667 -13.332 -71 -39.999 -97s-60.334 -39 -101.001 -39h-71c-40.667 0 -74.5 13 -101.5 39s-40.5 58.333 -40.5 97v42h100v-51c0 -8.66699 3.5 -16.334 10.5 -23.001s15.167 -10 24.5 -10h83c9.33301 0 17.5 3.33301 24.5 10
s10.5 14.334 10.5 23.001v384h101v-375z" />
    <glyph glyph-name="k" unicode="k" horiz-adv-x="541" 
d="M482 47l-77 -63l-148 172l-77 -75v-81h-100v580h100v-369l228 223l73 -68l-152 -144z" />
    <glyph glyph-name="l" unicode="l" horiz-adv-x="405" 
d="M350 0h-270v89h85v402h-85v89h185v-491h85v-89z" />
    <glyph glyph-name="m" unicode="m" horiz-adv-x="744" 
d="M664 0l-102.003 -0.00195312v288c0 22 -9.66699 33 -29 33h-20c-10.667 0 -17.667 -1.33301 -21 -4l-16 -14l-48 -41v-262h-102v288c0 22 -9.66699 33 -29 33h-10c-8 0 -15.333 -3 -22 -9l-83 -70v-242h-102v410h102v-59c24.667 22.667 39.334 35.667 44.001 39
c18.667 13.333 37.334 20 56.001 20h15c46 0 81.333 -18.667 106 -56c26.667 24.667 44.667 39.667 54 45c14.667 6.66699 38.334 10.334 71.001 11.001c40.667 0.666992 73.5 -11.666 98.5 -36.999s37.5 -57.333 37.5 -96v-277z" />
    <glyph glyph-name="n" unicode="n" horiz-adv-x="579" 
d="M499 0l-100.001 -0.000976562v287c0 8.66699 -3.5 16.334 -10.5 23.001s-15.167 10 -24.5 10h-66c-15.333 0 -30 -6 -44 -18l-74 -61v-241h-100v410h100v-59c27.333 23.333 43.333 36.333 48 39c19.333 13.333 39 20 59 20h74c40.667 0 73.834 -11.833 99.501 -35.5
s38.5 -54.5 38.5 -92.5v-282z" />
    <glyph glyph-name="o" unicode="o" horiz-adv-x="572" 
d="M502 134c0 -38 -13.833 -69.833 -41.5 -95.5s-61.834 -38.5 -102.501 -38.5h-144c-40.667 -0 -74.834 12.833 -102.501 38.5s-41.5 57.5 -41.5 95.5v142c0 38 13.833 69.833 41.5 95.5s61.834 38.5 102.501 38.5h144c40.667 0 74.834 -12.833 102.501 -38.5
s41.5 -57.5 41.5 -95.5v-142zM402 124v162c0 9.33301 -3.33301 17.166 -10 23.499s-15 9.5 -25 9.5h-162c-9.33301 0 -17.5 -3.16699 -24.5 -9.5s-10.5 -14.166 -10.5 -23.499v-162c0 -9.33301 3.5 -17.166 10.5 -23.499s15.167 -9.5 24.5 -9.5h162
c10 0 18.333 3.16699 25 9.5s10 14.166 10 23.499z" />
    <glyph glyph-name="p" unicode="p" horiz-adv-x="575" 
d="M495 193c0 -38.667 -13.5 -70.667 -40.5 -96s-61.167 -38 -102.5 -38h-172v-147h-100v498h272c41.333 0 75.5 -12.667 102.5 -38s40.5 -57.333 40.5 -96v-83zM392 185v100c0 8.66699 -3.33301 16.334 -10 23.001s-15 10 -25 10h-177v-166h177c10 0 18.333 3.16699 25 9.5
s10 14.166 10 23.499z" />
    <glyph glyph-name="q" unicode="q" horiz-adv-x="555" 
d="M475 -88h-100v147h-177c-40.667 0 -73.834 12.167 -99.501 36.5s-38.5 55.833 -38.5 94.5v90c0 38.667 12.833 70 38.5 94s58.834 36 99.501 36h277v-498zM375 152v166h-178c-9.33301 0 -17.5 -3.33301 -24.5 -10s-10.5 -14.334 -10.5 -23.001v-100
c0 -9.33301 3.5 -17.166 10.5 -23.499s15.167 -9.5 24.5 -9.5h178z" />
    <glyph glyph-name="r" unicode="r" horiz-adv-x="519" 
d="M474 238h-101.999v47c0 9.33301 -3.5 17.166 -10.5 23.499s-15.167 9.5 -24.5 9.5h-45c-17.333 0 -32.333 -5.66699 -45 -17l-67 -61v-240h-100v410h100v-55c23.333 22 37.666 35 42.999 39c15.333 10.667 34.333 16 57 16h52
c40.667 0.666992 74.5 -11.666 101.5 -36.999s40.5 -57 40.5 -95v-40z" />
    <glyph glyph-name="s" unicode="s" horiz-adv-x="546" 
d="M481 127c0 -34.667 -13.333 -64.5029 -40 -89.5029s-60.667 -37.5 -102 -37.5h-244v91h251c23.333 0 35 11 35 33c0 20.667 -13 31.334 -39 32.001l-129 4c-42 0.666992 -77.167 12.334 -105.5 35.001s-42.5 51.334 -42.5 86.001c0 35.333 13.333 65.666 40 90.999
s60.667 38 102 38h239v-91h-246c-9.33301 0 -17.5 -3.33301 -24.5 -10s-10.5 -15 -10.5 -25c0 -20.667 21 -32.667 63 -36h113c39.333 -1.33301 72.5 -13.666 99.5 -36.999s40.5 -51.333 40.5 -84z" />
    <glyph glyph-name="t" unicode="t" horiz-adv-x="538" 
d="M498 135c0 -38.667 -13.499 -70.834 -40.499 -96.501s-60.833 -38.5 -101.5 -38.5h-71c-40.667 0 -74.334 12.833 -101.001 38.5s-40 57.834 -40 96.501v192h-84v91h84v162h100v-162h100v-91h-100v-201c0 -8.66699 3.5 -16.334 10.5 -23.001s15.167 -10 24.5 -10h82
c9.33301 0 17.5 3.33301 24.5 10s10.5 14.334 10.5 23.001v50h102v-41z" />
    <glyph glyph-name="u" unicode="u" horiz-adv-x="575" 
d="M495 0l-100 0.000976562v58c-20.667 -20 -36 -33.333 -46 -40c-17.333 -12 -37 -18 -59 -18h-68c-40.667 0 -74.5 12.5 -101.5 37.5s-40.5 56.833 -40.5 95.5v277h100v-288c0 -8.66699 3.33301 -16.334 10 -23.001s15 -10 25 -10h64c12.667 0 21.167 0.833008 25.5 2.5
s10.5 6.5 18.5 14.5l72 73v231h100v-410z" />
    <glyph glyph-name="v" unicode="v" horiz-adv-x="572" 
d="M492 232c0 -35.333 -12.333 -66.333 -37 -93l-126 -139h-86l-126 139c-24.667 26.667 -37 57.667 -37 93v178h102v-179c0 -15.333 4.33301 -28 13 -38l90 -102l92 102c8.66699 10 13 22.667 13 38v179h102v-178z" />
    <glyph glyph-name="w" unicode="w" horiz-adv-x="672" 
d="M592 196c0 -32 -12 -65 -36 -99l-68 -97h-84l-68 98l-68 -98h-84l-68 97c-24 34 -36 67 -36 99v214h103v-215c0 -14.667 5.33301 -31.334 16 -50.001l29 -45l44 62c9.33301 13.333 14 25.333 14 36v100h100v-100c0 -10.667 4.66699 -22.667 14 -36l45 -62
c9.33301 15.333 19 30.333 29 45c10 18.667 15 35.334 15 50.001v215h103v-214z" />
    <glyph glyph-name="x" unicode="x" horiz-adv-x="530" 
d="M460 0h-104v49c0 12.667 -2.66699 22 -8 28l-83 82l-83 -82c-5.33301 -6 -8 -15.333 -8 -28v-49h-104v48c0 35.333 10.667 62.666 32 81.999l82 75l-82 75c-21.333 19.333 -32 46.666 -32 81.999v48h104v-49c0 -12.667 2.66699 -22 8 -28l83 -80l83 80
c5.33301 6 8 15.333 8 28v49h104v-48c0 -35.333 -10.667 -62.666 -32 -81.999l-82 -75l82 -75c21.333 -19.333 32 -46.666 32 -81.999v-48z" />
    <glyph glyph-name="y" unicode="y" horiz-adv-x="574" 
d="M494 41c0 -38.667 -13.5 -70.833 -40.5 -96.5s-60.833 -38.5 -101.5 -38.5h-188v94h195c10 0 18.333 3.16699 25 9.5s10 14.166 10 23.499v26h-172c-40.667 0 -74.5 12.667 -101.5 38s-40.5 57.333 -40.5 96v217h100v-224c0 -9.33301 3.5 -17.166 10.5 -23.499
s15.167 -9.5 24.5 -9.5h179v257h100v-369z" />
    <glyph glyph-name="z" unicode="z" horiz-adv-x="559" 
d="M479 0h-399v73l248 249h-248v88h399v-73l-248 -249h248v-88z" />
    <glyph glyph-name="braceleft" unicode="{" horiz-adv-x="476" 
d="M396 -136l-104 -0.00195312c-40.667 0 -74.5 13 -101.5 39s-40.5 58.667 -40.5 98v189c0 18.667 -7.33301 32.334 -22 41.001c-7.33301 4 -23.333 9.33301 -48 16v86c24.667 6.66699 40.667 12 48 16c14.667 8.66699 22 22.334 22 41.001v189c0 39.333 13.5 72 40.5 98
s60.833 39 101.5 39h104v-95h-109c-8.66699 0 -16.667 -3.66699 -24 -11s-11 -16 -11 -26v-204c0 -34.667 -15 -64.667 -45 -90c30 -25.333 45 -55.333 45 -90v-204c0 -10 3.66699 -18.667 11 -26s15.333 -11 24 -11h109v-95z" />
    <glyph glyph-name="bar" unicode="|" horiz-adv-x="260" 
d="M180 -114h-100v833h100v-833z" />
    <glyph glyph-name="braceright" unicode="}" horiz-adv-x="476" 
d="M396 247c-24.667 -6.66699 -40.667 -11.998 -48 -15.998c-14.667 -8.66699 -22 -22.334 -22 -41.001v-189c0 -39.333 -13.5 -72 -40.5 -98s-60.833 -39 -101.5 -39h-104v95h109c8.66699 0 16.667 3.66699 24 11s11 16 11 26v204c0 34.667 15 64.667 45 90
c-30 25.333 -45 55.333 -45 90v204c0 10 -3.66699 18.667 -11 26s-15.333 11 -24 11h-109v95h104c40.667 0 74.5 -13 101.5 -39s40.5 -58.667 40.5 -98v-189c0 -18.667 7.33301 -32.334 22 -41.001c7.33301 -4 23.333 -9.33301 48 -16v-86z" />
    <glyph glyph-name="asciitilde" unicode="~" horiz-adv-x="457" 
d="M392 543l-89 -95c-8.66699 -9.33301 -18.667 -14 -30 -14c-10.667 0 -20.667 4.66699 -30 14l-58 58c-6 6 -11.333 6.33301 -16 1l-61 -67l-43 43l88 94c8.66699 9.33301 18.667 14 30 14c10.667 0 20.667 -4.66699 30 -14l58 -58c6 -6 11.333 -6.33301 16 -1l62 68z" />
    <glyph glyph-name="nonbreakingspace" unicode="&#xa0;" horiz-adv-x="175" 
 />
    <glyph glyph-name="exclamdown" unicode="&#xa1;" horiz-adv-x="306" 
d="M211 468h-118v112h118v-112zM221 0h-136v151l19 269h98l19 -269v-151z" />
    <glyph glyph-name="cent" unicode="&#xa2;" horiz-adv-x="511" 
d="M426 111l-107 0.000976562v-199h-74v199h-23c-39.333 0 -72 12.833 -98 38.5s-39 57.834 -39 96.501v93c0 38.667 13 70.667 39 96s58.667 38 98 38h23v187h74v-187h107v-86h-211c-11.333 0 -20.833 -3.83301 -28.5 -11.5s-11.5 -16.834 -11.5 -27.501v-113
c0 -10.667 3.83301 -19.834 11.5 -27.501s17.167 -11.5 28.5 -11.5h211v-85z" />
    <glyph glyph-name="sterling" unicode="&#xa3;" horiz-adv-x="604" 
d="M519 52h-434v84h70v273c0 37.333 12.667 67.5 38 90.5s58 34.5 98 34.5h67c40 0 73.5 -12 100.5 -36s40.5 -55 40.5 -93v-41l-92 1v46c0 10.667 -4 19.834 -12 27.501s-17.333 11.5 -28 11.5h-82c-11.333 0 -20.833 -3.83301 -28.5 -11.5s-11.5 -16.834 -11.5 -27.501
v-106h111v-72h-111v-97h274v-84z" />
    <glyph glyph-name="currency" unicode="&#xa4;" horiz-adv-x="580" 
d="M495 138v-86.001h-203c-39.333 0 -72 12.5 -98 37.5s-39 56.5 -39 94.5v11h-70v65h70v60h-70v65h70v17c0 38 13 69.5 39 94.5s58.667 37.5 98 37.5h203v-86h-208c-10.667 0 -20 -4.16699 -28 -12.5s-12 -18.166 -12 -29.499v-21h110v-65h-110v-60h110v-65h-110v-16
c0 -10.667 4 -20.167 12 -28.5s17.333 -12.5 28 -12.5h208z" />
    <glyph glyph-name="yen" unicode="&#xa5;" horiz-adv-x="594" 
d="M509 456c0 -38.667 -12 -69.333 -36 -92l-72 -66h40v-64h-98v-45h98v-59h-98v-78h-92v78h-94v59h94v45h-94v64h36l-72 66c-24 22.667 -36 53.334 -36 92.001v72h90v-69c0 -16.667 4.66699 -30 14 -40l105 -107h5l105 107c9.33301 9.33301 14 22.666 14 39.999v69h91v-72z
" />
    <glyph glyph-name="brokenbar" unicode="&#xa6;" horiz-adv-x="260" 
d="M180 353h-100v366h100v-366zM180 -114h-100v366h100v-366z" />
    <glyph glyph-name="section" unicode="&#xa7;" horiz-adv-x="574" 
d="M504 49c0 -40 -13.334 -72.834 -40.001 -98.501s-60.667 -38.5 -102 -38.5h-150c-40.667 0 -74.5 13 -101.5 39s-40.5 58.667 -40.5 98v37h100v-43c0 -10 3.5 -18.667 10.5 -26s15.167 -11 24.5 -11h164c9.33301 0 17.5 3.66699 24.5 11s10.5 16 10.5 26v44
c0 23.333 -28.333 39.333 -85 48c-86.667 13.333 -139.667 24 -159 32c-57.333 22.667 -86 62.667 -86 120v14c0 33.333 15.333 62.333 46 87c-28 24 -42 54 -42 90v33c0 39.333 13.833 72 41.5 98s61.834 39 102.501 39h124c40.667 0 74.5 -13 101.5 -39
s40.5 -58.667 40.5 -98v-38h-100v44c0 10 -3.5 18.667 -10.5 26s-15.167 11 -24.5 11h-140c-9.33301 0 -17.5 -3.66699 -24.5 -11s-10.5 -16 -10.5 -26v-45c0 -20.667 12.333 -33 37 -37l119 -16c51.333 -8.66699 90.333 -22.334 117 -41.001
c35.333 -24.667 53 -58.667 53 -102v-12c0 -33.333 -14 -62.666 -42 -87.999c28 -25.333 42 -56.666 42 -93.999v-33zM403.999 257.999l-0.000976562 23c0 20.667 -22.333 35.667 -67 45l-115 16c-11.333 2 -22.166 -1.66699 -32.499 -11s-15.5 -19 -15.5 -29v-21
c0 -22 24 -37.333 72 -46c40.667 -4 81 -8.33301 121 -13c9.33301 -1.33301 17.833 1.66699 25.5 9s11.5 16.333 11.5 27z" />
    <glyph glyph-name="dieresis" unicode="&#xa8;" 
d="M429 646h-76v76h76v-76zM247 646h-76v76h76v-76z" />
    <glyph glyph-name="copyright" unicode="&#xa9;" horiz-adv-x="635" 
d="M540 155c0 -24 -8.5 -44.5 -25.5 -61.5s-37.5 -25.5 -61.5 -25.5h-271c-24 0 -44.5 8.5 -61.5 25.5s-25.5 37.5 -25.5 61.5v271c0 24 8.5 44.5 25.5 61.5s37.5 25.5 61.5 25.5h271c24 0 44.5 -8.5 61.5 -25.5s25.5 -37.5 25.5 -61.5v-271zM485 155v271
c0 21.333 -10.667 32 -32 32h-271c-21.333 0 -32 -10.667 -32 -32v-271c0 -21.333 10.667 -32 32 -32h271c21.333 0 32 10.667 32 32zM417 215c0 -18.667 -6.16699 -34 -18.5 -46s-27.5 -18 -45.5 -18h-69c-18 0 -33.167 6 -45.5 18s-18.5 27.333 -18.5 46v136
c0 18.667 6.16699 34 18.5 46s27.5 18 45.5 18h70c18 0 33 -6.5 45 -19.5s18 -28.5 18 -46.5v-20h-52v24c0 8 -3.33301 12 -10 12h-69c-6.66699 0 -10 -4 -10 -12v-140c0 -8 3.33301 -12 10 -12h69c6.66699 0 10 4 10 12v24h52v-22z" />
    <glyph glyph-name="ordfeminine" unicode="&#xaa;" horiz-adv-x="445" 
d="M355 319l0.00195312 -201.999h-189c-28 0 -51 9 -69 27s-27 39.667 -27 65c0 23.333 9.16699 43.166 27.5 59.499s41.166 24.5 68.499 24.5h122v21c0 21.333 -13 32 -39 32h-129v64h142c25.333 0 47.166 -8.83301 65.499 -26.5s27.5 -39.167 27.5 -64.5z
M355.002 0.000976562h-265v76h265v-76zM288.002 179.001v55h-125c-18 0 -27 -9.33301 -27 -28c0 -18 8.33301 -27 25 -27h127z" />
    <glyph glyph-name="guillemotleft" unicode="&#xab;" horiz-adv-x="709" 
d="M635 60l-70 -66l-192 179v62l192 179l70 -66l-159 -146c6 -2.66699 59 -50 159 -142zM342 60l-70 -66l-192 179v62l192 179l70 -66l-159 -146c6 -2.66699 59 -50 159 -142z" />
    <glyph glyph-name="logicalnot" unicode="&#xac;" horiz-adv-x="589" 
d="M494 155h-75v91h-324v77h399v-168z" />
    <glyph glyph-name="minus" unicode="&#xad;" horiz-adv-x="509" 
d="M429 257h-349v74h349v-74z" />
    <glyph glyph-name="minus" unicode="&#x2212;" horiz-adv-x="509" 
d="M429 257h-349v74h349v-74z" />
    <glyph glyph-name="registered" unicode="&#xae;" horiz-adv-x="635" 
d="M540 155c0 -24 -8.5 -44.5 -25.5 -61.5s-37.5 -25.5 -61.5 -25.5h-271c-24 0 -44.5 8.5 -61.5 25.5s-25.5 37.5 -25.5 61.5v271c0 24 8.5 44.5 25.5 61.5s37.5 25.5 61.5 25.5h271c24 0 44.5 -8.5 61.5 -25.5s25.5 -37.5 25.5 -61.5v-271zM485 155v271
c0 21.333 -10.667 32 -32 32h-271c-21.333 0 -32 -10.667 -32 -32v-271c0 -21.333 10.667 -32 32 -32h271c21.333 0 32 10.667 32 32zM417 151h-53v90c0 11.333 -4.33301 17 -13 17h-76v-107h-54v264h132c18.667 0 34 -6 46 -18s18 -27.333 18 -46v-27
c0 -16.667 -4.66699 -30 -14 -40c9.33301 -10 14 -22.667 14 -38v-95zM364 320v35c0 8.66699 -3.66699 13 -11 13h-78v-64h74c10 0 15 5.33301 15 16z" />
    <glyph glyph-name="macron" unicode="&#xaf;" 
d="M404 656h-220v62h220v-62z" />
    <glyph glyph-name="macron" unicode="&#x2c9;" 
d="M404 656h-220v62h220v-62z" />
    <glyph glyph-name="degree" unicode="&#xb0;" horiz-adv-x="252" 
d="M217 647c0 -16.667 -6 -31 -18 -43s-26.667 -18 -44 -18h-59c-16.667 0 -31 6 -43 18s-18 26.333 -18 43v59c0 17.333 6 32 18 44s26.333 18 43 18h59c17.333 0 32 -6 44 -18s18 -26.667 18 -44v-59zM163 648v58c0 5.33301 -3 8 -9 8h-57c-6 0 -9 -2.66699 -9 -8v-58
c0 -5.33301 3 -8 9 -8h57c6 0 9 2.66699 9 8z" />
    <glyph glyph-name="plusminus" unicode="&#xb1;" horiz-adv-x="598" 
d="M513 331h-170v-166h-90v166h-168v87h168v162h90v-162h170v-87zM513 0h-428v79h428v-79z" />
    <glyph glyph-name="acute" unicode="&#xb4;" horiz-adv-x="314" 
d="M223 580l-68 -150h-76l68 150h76z" />
    <glyph glyph-name="mu" unicode="&#xb5;" horiz-adv-x="591" 
d="M561 -5h-67c-50 0 -81.667 21 -95 63c-29.333 -29.333 -52 -47 -68 -53c-13.333 -5.33301 -43 -8 -89 -8c-24 0 -45.333 8.33301 -64 25v-110h-98v498h98v-269l28 -30c16 -16 29.333 -24 40 -24h31c12.667 0 21.167 0.833008 25.5 2.5s10.5 6.5 18.5 14.5l72 74v232h98
v-305c0 -9.33301 1.66699 -14.833 5 -16.5s10.333 -2.5 21 -2.5h44v-91z" />
    <glyph glyph-name="mu" unicode="&#x3bc;" horiz-adv-x="591" 
d="M561 -5h-67c-50 0 -81.667 21 -95 63c-29.333 -29.333 -52 -47 -68 -53c-13.333 -5.33301 -43 -8 -89 -8c-24 0 -45.333 8.33301 -64 25v-110h-98v498h98v-269l28 -30c16 -16 29.333 -24 40 -24h31c12.667 0 21.167 0.833008 25.5 2.5s10.5 6.5 18.5 14.5l72 74v232h98
v-305c0 -9.33301 1.66699 -14.833 5 -16.5s10.333 -2.5 21 -2.5h44v-91z" />
    <glyph glyph-name="paragraph" unicode="&#xb6;" horiz-adv-x="633" 
d="M538 562l-69 -0.00195312v-762h-90v762h-65v-762h-90v295h-10c-39.333 0 -70.666 11.333 -93.999 34s-35 53.334 -35 92.001v299c0 38.667 11.667 69.334 35 92.001s54.666 34 93.999 34h324v-84z" />
    <glyph glyph-name="periodcentered" unicode="&#xb7;" horiz-adv-x="312" 
d="M217 242c0 -6.66699 -3.33301 -10 -10 -10h-102c-6.66699 0 -10 3.33301 -10 10v102c0 6.66699 3.33301 10 10 10h102c6.66699 0 10 -3.33301 10 -10v-102z" />
    <glyph glyph-name="periodcentered" unicode="&#x2219;" horiz-adv-x="312" 
d="M217 242c0 -6.66699 -3.33301 -10 -10 -10h-102c-6.66699 0 -10 3.33301 -10 10v102c0 6.66699 3.33301 10 10 10h102c6.66699 0 10 -3.33301 10 -10v-102z" />
    <glyph glyph-name="cedilla" unicode="&#xb8;" horiz-adv-x="598" 
d="M352 -35c0.666992 -5.33301 1 -10.667 1 -16c0 -25.333 -9.5 -46.5 -28.5 -63.5s-43.167 -25.5 -72.5 -25.5h-55v58h48c16 0 27.833 5.33301 35.5 16s10.167 23 7.5 37l-8 44h63z" />
    <glyph glyph-name="ordmasculine" unicode="&#xba;" horiz-adv-x="455" 
d="M375 213c0 -27.333 -9.5 -50.166 -28.5 -68.499s-42.167 -27.5 -69.5 -27.5h-99c-28 0 -51.333 9.16699 -70 27.5s-28 41.166 -28 68.499v101c0 27.333 9.33301 50.166 28 68.499s42 27.5 70 27.5h99c27.333 0 50.5 -9.16699 69.5 -27.5s28.5 -41.166 28.5 -68.499v-101z
M359 0h-265v76h265v-76zM308 205v117c0 16 -8.33301 24 -25 24h-111c-16.667 0 -25 -8 -25 -24v-117c0 -16 8.33301 -24 25 -24h111c16.667 0 25 8 25 24z" />
    <glyph glyph-name="guillemotright" unicode="&#xbb;" horiz-adv-x="709" 
d="M629 173l-192 -179l-70 66l159 146c-6 2.66699 -59 50 -159 142l70 66l192 -179v-62zM336 173l-192 -179l-70 66l159 146c-6 2.66699 -59 50 -159 142l70 66l192 -179v-62z" />
    <glyph glyph-name="questiondown" unicode="&#xbf;" horiz-adv-x="588" 
d="M352 468h-118v112h118v-112zM508 141c0 -39.333 -13.167 -72.668 -39.5 -100.001s-59.833 -41 -100.5 -41h-146c-40.667 0 -74.5 12.833 -101.5 38.5s-40.5 57.834 -40.5 96.501v37c0 32 14 62.333 42 91c6.66699 6.66699 32.667 27.334 78 62.001
c28 21.333 42 39.666 42 54.999v53h102v-57c0 -29.333 -14 -57.666 -42 -84.999c-6.66699 -6.66699 -32.667 -27.334 -78 -62.001c-28 -21.333 -42 -39 -42 -53v-44c0 -10 3.66699 -18.667 11 -26s15.333 -11 24 -11h154c9.33301 0 17.5 3.66699 24.5 11s10.5 16 10.5 26v44
h102v-35z" />
    <glyph glyph-name="Agrave" unicode="&#xc0;" 
d="M535 353v-353h-101v183h-238v-183h-101v353c0 40 12.667 72 38 96l138 131h88l138 -131c25.333 -24 38 -56 38 -96zM434 271v77.001c0 17.333 -4.33301 30 -13 38l-107 106c-2.66699 -4.66699 -37.667 -40 -105 -106c-8.66699 -8.66699 -13 -21.334 -13 -38.001v-77h238z
M365 651.001h-76l-62 150h76z" />
    <glyph glyph-name="Aacute" unicode="&#xc1;" 
d="M535 353v-353h-101v183h-238v-183h-101v353c0 40 12.667 72 38 96l138 131h88l138 -131c25.333 -24 38 -56 38 -96zM434 271v77.001c0 17.333 -4.33301 30 -13 38l-107 106c-2.66699 -4.66699 -37.667 -40 -105 -106c-8.66699 -8.66699 -13 -21.334 -13 -38.001v-77h238z
M389 799.001l-68 -150h-76l68 150h76z" />
    <glyph glyph-name="Acircumflex" unicode="&#xc2;" 
d="M535 353v-353h-101v183h-238v-183h-101v353c0 40 12.667 72 38 96l138 131h88l138 -131c25.333 -24 38 -56 38 -96zM434 271v77.001c0 17.333 -4.33301 30 -13 38l-107 106c-2.66699 -4.66699 -37.667 -40 -105 -106c-8.66699 -8.66699 -13 -21.334 -13 -38.001v-77h238z
M451 665.001l-57 -33l-81 65l-81 -65l-57 33l112 94h53z" />
    <glyph glyph-name="Atilde" unicode="&#xc3;" 
d="M535 353v-353h-101v183h-238v-183h-101v353c0 40 12.667 72 38 96l138 131h88l138 -131c25.333 -24 38 -56 38 -96zM434 271v77.001c0 17.333 -4.33301 30 -13 38l-107 106c-2.66699 -4.66699 -37.667 -40 -105 -106c-8.66699 -8.66699 -13 -21.334 -13 -38.001v-77h238z
M461 713.001l-73.001 -78c-7.33301 -8 -15.666 -12 -24.999 -12c-8.66699 0 -17 4 -25 12l-47 48c-4.66699 4.66699 -9 4.66699 -13 0l-51 -55l-37 37l73 78c6.66699 7.33301 14.667 11 24 11c8.66699 0 17 -3.66699 25 -11l48 -48c4.66699 -4.66699 9 -5 13 -1l51 56z" />
    <glyph glyph-name="Adieresis" unicode="&#xc4;" 
d="M535 353v-353h-101v183h-238v-183h-101v353c0 40 12.667 72 38 96l138 131h88l138 -131c25.333 -24 38 -56 38 -96zM434 271v77.001c0 17.333 -4.33301 30 -13 38l-107 106c-2.66699 -4.66699 -37.667 -40 -105 -106c-8.66699 -8.66699 -13 -21.334 -13 -38.001v-77h238z
M444 646.001h-76v76h76v-76zM262 646.001h-76v76h76v-76z" />
    <glyph glyph-name="Aring" unicode="&#xc5;" 
d="M535 353v-353h-101v183h-238v-183h-101v353c0 40 12.667 72 38 96l138 131h88l138 -131c25.333 -24 38 -56 38 -96zM434 271v77.001c0 17.333 -4.33301 30 -13 38l-107 106c-2.66699 -4.66699 -37.667 -40 -105 -106c-8.66699 -8.66699 -13 -21.334 -13 -38.001v-77h238z
M390 676.001c0 -14 -5 -26 -15 -36s-22 -15 -36 -15h-49c-14 0 -26 5 -36 15s-15 22 -15 36v49c0 14 5 25.833 15 35.5s22 14.5 36 14.5h49c14 0 26 -4.83301 36 -14.5s15 -21.5 15 -35.5v-49zM346 676.001v48c0 4.66699 -2.33301 7 -7 7h-49c-4.66699 0 -7 -2.33301 -7 -7
v-48c0 -4.66699 2.33301 -7 7 -7h49c4.66699 0 7 2.33301 7 7z" />
    <glyph glyph-name="AE" unicode="&#xc6;" horiz-adv-x="849" 
d="M769 0h-358v237h-230v-237h-101v353c0 38.667 12.333 70.667 37 96l131 131h88l77 -73v73h356v-93h-256v-156h194v-94h-194v-144h256v-93zM411 329v18.999c0 17.333 -4.33301 30 -13 38l-107 106c-2.66699 -5.33301 -35 -40.666 -97 -105.999
c-8.66699 -9.33301 -13 -22 -13 -38v-19h230z" />
    <glyph glyph-name="Ccedilla" unicode="&#xc7;" horiz-adv-x="598" 
d="M533 135c0 -38.667 -13.5 -70.8359 -40.5 -96.5029s-60.833 -38.5 -101.5 -38.5h-154c-40.667 0 -74.5 12.833 -101.5 38.5s-40.5 57.834 -40.5 96.501v310c0 38.667 13.5 70.834 40.5 96.501s60.833 38.5 101.5 38.5h156c40.667 0 74.167 -13.667 100.5 -41
s39.5 -60.666 39.5 -99.999v-35h-102v44c0 10 -3.5 18.667 -10.5 26s-15.167 11 -24.5 11h-164c-8.66699 0 -16.667 -3.66699 -24 -11s-11 -16 -11 -26v-317c0 -10 3.66699 -18.667 11 -26s15.333 -11 24 -11h164c9.33301 0 17.5 3.66699 24.5 11s10.5 16 10.5 26v45h102
v-41zM367 -35.002c0.666992 -5.33301 1 -10.667 1 -16c0 -25.333 -9.5 -46.5 -28.5 -63.5s-43.167 -25.5 -72.5 -25.5h-55v58h48c16 0 27.833 5.33301 35.5 16s10.167 23 7.5 37l-8 44h63z" />
    <glyph glyph-name="Egrave" unicode="&#xc8;" horiz-adv-x="536" 
d="M471 0h-376v580h376v-93h-276v-150h214v-95h-214v-149h276v-93zM321 651h-76l-62 150h76z" />
    <glyph glyph-name="Eacute" unicode="&#xc9;" horiz-adv-x="536" 
d="M471 0h-376v580h376v-93h-276v-150h214v-95h-214v-149h276v-93zM358 800l-68 -150h-76l68 150h76z" />
    <glyph glyph-name="Ecircumflex" unicode="&#xca;" horiz-adv-x="536" 
d="M471 0h-376v580h376v-93h-276v-150h214v-95h-214v-149h276v-93zM422 665l-57 -33l-81 65l-81 -65l-57 33l112 94h53z" />
    <glyph glyph-name="Edieresis" unicode="&#xcb;" horiz-adv-x="536" 
d="M471 0h-376v580h376v-93h-276v-150h214v-95h-214v-149h276v-93zM408 646h-76v76h76v-76zM226 646h-76v76h76v-76z" />
    <glyph glyph-name="Igrave" unicode="&#xcc;" horiz-adv-x="430" 
d="M365 0h-270v91h84v398h-84v91h270v-91h-85v-398h85v-91zM278 650h-76l-62 150h76z" />
    <glyph glyph-name="Iacute" unicode="&#xcd;" horiz-adv-x="430" 
d="M365 0h-270v91h84v398h-84v91h270v-91h-85v-398h85v-91zM312 800l-68 -150h-76l68 150h76z" />
    <glyph glyph-name="Icircumflex" unicode="&#xce;" horiz-adv-x="430" 
d="M365 0h-270v91h84v398h-84v91h270v-91h-85v-398h85v-91zM367 665l-57 -33l-81 65l-81 -65l-57 33l112 94h53z" />
    <glyph glyph-name="Idieresis" unicode="&#xcf;" horiz-adv-x="430" 
d="M365 0h-270v91h84v398h-84v91h270v-91h-85v-398h85v-91zM361 646h-76v76h76v-76zM179 646h-76v76h76v-76z" />
    <glyph glyph-name="Eth" unicode="&#xd0;" 
d="M520 135c0 -38.667 -13.5 -70.832 -40.5 -96.499s-60.833 -38.5 -101.5 -38.5h-298v251h-35v78h35v251h298c40.667 0 74.5 -12.833 101.5 -38.5s40.5 -57.834 40.5 -96.501v-310zM418 130.002v320c0 10 -3.5 18.667 -10.5 26s-15.167 11 -24.5 11h-203v-158h121v-78h-121
v-158h203c9.33301 0 17.5 3.66699 24.5 11s10.5 16 10.5 26z" />
    <glyph glyph-name="Ntilde" unicode="&#xd1;" horiz-adv-x="596" 
d="M531 0h-102v176l-232 242v-418h-102v580h86l248 -261v261h102v-580zM443 713l-73.001 -78c-7.33301 -8 -15.666 -12 -24.999 -12c-8.66699 0 -17 4 -25 12l-47 48c-4.66699 4.66699 -9 4.66699 -13 0l-51 -55l-37 37l73 78c6.66699 7.33301 14.667 11 24 11
c8.66699 0 17 -3.66699 25 -11l48 -48c4.66699 -4.66699 9 -5 13 -1l51 56z" />
    <glyph glyph-name="Ograve" unicode="&#xd2;" horiz-adv-x="618" 
d="M553 135c0 -38.667 -13.5 -70.834 -40.5 -96.501s-60.833 -38.5 -101.5 -38.5h-174c-40.667 0 -74.5 12.833 -101.5 38.5s-40.5 57.834 -40.5 96.501v310c0 38.667 13.5 70.834 40.5 96.501s60.833 38.5 101.5 38.5h174c40.667 0 74.5 -12.833 101.5 -38.5
s40.5 -57.834 40.5 -96.501v-310zM453 130v320c0 10 -3.5 18.667 -10.5 26s-15.167 11 -24.5 11h-188c-9.33301 0 -17.5 -3.66699 -24.5 -11s-10.5 -16 -10.5 -26v-320c0 -10 3.5 -18.667 10.5 -26s15.167 -11 24.5 -11h188c9.33301 0 17.5 3.66699 24.5 11s10.5 16 10.5 26
zM375 651h-76l-62 150h76z" />
    <glyph glyph-name="Oacute" unicode="&#xd3;" horiz-adv-x="618" 
d="M553 135c0 -38.667 -13.5 -70.834 -40.5 -96.501s-60.833 -38.5 -101.5 -38.5h-174c-40.667 0 -74.5 12.833 -101.5 38.5s-40.5 57.834 -40.5 96.501v310c0 38.667 13.5 70.834 40.5 96.501s60.833 38.5 101.5 38.5h174c40.667 0 74.5 -12.833 101.5 -38.5
s40.5 -57.834 40.5 -96.501v-310zM453 130v320c0 10 -3.5 18.667 -10.5 26s-15.167 11 -24.5 11h-188c-9.33301 0 -17.5 -3.66699 -24.5 -11s-10.5 -16 -10.5 -26v-320c0 -10 3.5 -18.667 10.5 -26s15.167 -11 24.5 -11h188c9.33301 0 17.5 3.66699 24.5 11s10.5 16 10.5 26
zM418 801l-68 -150h-76l68 150h76z" />
    <glyph glyph-name="Ocircumflex" unicode="&#xd4;" horiz-adv-x="618" 
d="M553 135c0 -38.667 -13.5 -70.834 -40.5 -96.501s-60.833 -38.5 -101.5 -38.5h-174c-40.667 0 -74.5 12.833 -101.5 38.5s-40.5 57.834 -40.5 96.501v310c0 38.667 13.5 70.834 40.5 96.501s60.833 38.5 101.5 38.5h174c40.667 0 74.5 -12.833 101.5 -38.5
s40.5 -57.834 40.5 -96.501v-310zM453 130v320c0 10 -3.5 18.667 -10.5 26s-15.167 11 -24.5 11h-188c-9.33301 0 -17.5 -3.66699 -24.5 -11s-10.5 -16 -10.5 -26v-320c0 -10 3.5 -18.667 10.5 -26s15.167 -11 24.5 -11h188c9.33301 0 17.5 3.66699 24.5 11s10.5 16 10.5 26
zM461 665l-57 -33l-81 65l-81 -65l-57 33l112 94h53z" />
    <glyph glyph-name="Otilde" unicode="&#xd5;" horiz-adv-x="618" 
d="M553 135c0 -38.667 -13.5 -70.834 -40.5 -96.501s-60.833 -38.5 -101.5 -38.5h-174c-40.667 0 -74.5 12.833 -101.5 38.5s-40.5 57.834 -40.5 96.501v310c0 38.667 13.5 70.834 40.5 96.501s60.833 38.5 101.5 38.5h174c40.667 0 74.5 -12.833 101.5 -38.5
s40.5 -57.834 40.5 -96.501v-310zM453 130v320c0 10 -3.5 18.667 -10.5 26s-15.167 11 -24.5 11h-188c-9.33301 0 -17.5 -3.66699 -24.5 -11s-10.5 -16 -10.5 -26v-320c0 -10 3.5 -18.667 10.5 -26s15.167 -11 24.5 -11h188c9.33301 0 17.5 3.66699 24.5 11s10.5 16 10.5 26
zM461 713l-73.001 -78c-7.33301 -8 -15.666 -12 -24.999 -12c-8.66699 0 -17 4 -25 12l-47 48c-4.66699 4.66699 -9 4.66699 -13 0l-51 -55l-37 37l73 78c6.66699 7.33301 14.667 11 24 11c8.66699 0 17 -3.66699 25 -11l48 -48c4.66699 -4.66699 9 -5 13 -1l51 56z" />
    <glyph glyph-name="Odieresis" unicode="&#xd6;" horiz-adv-x="618" 
d="M553 135c0 -38.667 -13.5 -70.834 -40.5 -96.501s-60.833 -38.5 -101.5 -38.5h-174c-40.667 0 -74.5 12.833 -101.5 38.5s-40.5 57.834 -40.5 96.501v310c0 38.667 13.5 70.834 40.5 96.501s60.833 38.5 101.5 38.5h174c40.667 0 74.5 -12.833 101.5 -38.5
s40.5 -57.834 40.5 -96.501v-310zM453 130v320c0 10 -3.5 18.667 -10.5 26s-15.167 11 -24.5 11h-188c-9.33301 0 -17.5 -3.66699 -24.5 -11s-10.5 -16 -10.5 -26v-320c0 -10 3.5 -18.667 10.5 -26s15.167 -11 24.5 -11h188c9.33301 0 17.5 3.66699 24.5 11s10.5 16 10.5 26
zM458 646h-76v76h76v-76zM276 646h-76v76h76v-76z" />
    <glyph glyph-name="multiply" unicode="&#xd7;" horiz-adv-x="553" 
d="M479 169l-71 -65l-131 121l-133 -122l-70 66l132 122l-130 120l71 65l130 -120l130 120l71 -65l-131 -120z" />
    <glyph glyph-name="Oslash" unicode="&#xd8;" horiz-adv-x="618" 
d="M538 135c0 -38.667 -13.5 -70.834 -40.5 -96.501s-60.833 -38.5 -101.5 -38.5h-174c-40.667 0 -74.5 12.833 -101.5 38.5s-40.5 57.834 -40.5 96.501v310c0 38.667 13.5 70.834 40.5 96.501s60.833 38.5 101.5 38.5h174c40.667 0 74.5 -12.833 101.5 -38.5
s40.5 -57.834 40.5 -96.501v-310zM376 487h-161c-9.33301 0 -17.5 -3.66699 -24.5 -11s-10.5 -16 -10.5 -26v-289zM438 417l-194 -324h159c9.33301 0 17.5 3.66699 24.5 11s10.5 16 10.5 26v287z" />
    <glyph glyph-name="Ugrave" unicode="&#xd9;" horiz-adv-x="598" 
d="M533 135c0 -38.667 -13.5 -70.834 -40.5 -96.501s-60.833 -38.5 -101.5 -38.5h-154c-40.667 0 -74.5 12.833 -101.5 38.5s-40.5 57.834 -40.5 96.501v445h104v-450c0 -10 3.5 -18.667 10.5 -26s15.167 -11 24.5 -11h160c9.33301 0 17.5 3.66699 24.5 11s10.5 16 10.5 26
v450h104v-445zM363 651h-76l-62 150h76z" />
    <glyph glyph-name="Uacute" unicode="&#xda;" horiz-adv-x="598" 
d="M533 135c0 -38.667 -13.5 -70.834 -40.5 -96.501s-60.833 -38.5 -101.5 -38.5h-154c-40.667 0 -74.5 12.833 -101.5 38.5s-40.5 57.834 -40.5 96.501v445h104v-450c0 -10 3.5 -18.667 10.5 -26s15.167 -11 24.5 -11h160c9.33301 0 17.5 3.66699 24.5 11s10.5 16 10.5 26
v450h104v-445zM403 800l-68 -150h-76l68 150h76z" />
    <glyph glyph-name="Ucircumflex" unicode="&#xdb;" horiz-adv-x="598" 
d="M533 135c0 -38.667 -13.5 -70.834 -40.5 -96.501s-60.833 -38.5 -101.5 -38.5h-154c-40.667 0 -74.5 12.833 -101.5 38.5s-40.5 57.834 -40.5 96.501v445h104v-450c0 -10 3.5 -18.667 10.5 -26s15.167 -11 24.5 -11h160c9.33301 0 17.5 3.66699 24.5 11s10.5 16 10.5 26
v450h104v-445zM451 665l-57 -33l-81 65l-81 -65l-57 33l112 94h53z" />
    <glyph glyph-name="Udieresis" unicode="&#xdc;" horiz-adv-x="598" 
d="M533 135c0 -38.667 -13.5 -70.834 -40.5 -96.501s-60.833 -38.5 -101.5 -38.5h-154c-40.667 0 -74.5 12.833 -101.5 38.5s-40.5 57.834 -40.5 96.501v445h104v-450c0 -10 3.5 -18.667 10.5 -26s15.167 -11 24.5 -11h160c9.33301 0 17.5 3.66699 24.5 11s10.5 16 10.5 26
v450h104v-445zM444 646h-76v76h76v-76zM262 646h-76v76h76v-76z" />
    <glyph glyph-name="Yacute" unicode="&#xdd;" horiz-adv-x="594" 
d="M529 425c0 -37.333 -12.667 -68.333 -38 -93l-128 -127v-205h-102v205l-128 127c-25.333 24.667 -38 55.667 -38 93v155h100v-151c0 -16 4.33301 -28 13 -36l103 -105l104 105c8.66699 8 13 20 13 36v151h101v-155zM397 801l-68 -150h-76l68 150h76z" />
    <glyph glyph-name="Thorn" unicode="&#xde;" horiz-adv-x="572" 
d="M502 378c0 -39.333 -13.5 -71.833 -40.5 -97.5s-60.833 -38.5 -101.5 -38.5h-180v-242h-100v695h100v-115h180c40.667 0 74.5 -13 101.5 -39s40.5 -58.333 40.5 -97v-66zM402 372v79c0 10 -3.5 18.667 -10.5 26s-15.167 11 -24.5 11h-187v-153h187
c9.33301 0 17.5 3.66699 24.5 11s10.5 16 10.5 26z" />
    <glyph glyph-name="germandbls" unicode="&#xdf;" horiz-adv-x="587" 
d="M547 133c0 -36.667 -13.667 -67.999 -41 -93.999s-62 -39 -104 -39h-160v98h167c21.333 0 32 10.333 32 31c0 17.333 -16.333 30 -49 38c-48 12.667 -78.667 23 -92 31c-32.667 19.333 -49 51.333 -49 96c0 35.333 16.833 73.166 50.5 113.499s50.5 75.833 50.5 106.5
c0 24 -11 36 -33 36h-101c-22 0 -33 -10.333 -33 -31v-607h-105v604c0 40 13.5 72 40.5 96s61.5 36 103.5 36h86c42 0 77.333 -13.333 106 -40s43 -57.667 43 -93s-9.66699 -68 -29 -98c-4 -6.66699 -21.333 -28 -52 -64c-19.333 -22 -29 -41.667 -29 -59
c0 -16.667 17 -29 51 -37c50 -11.333 81.667 -21 95 -29c34.667 -19.333 52 -51 52 -95z" />
    <glyph glyph-name="agrave" unicode="&#xe0;" horiz-adv-x="558" 
d="M493 283v-282.999h-276c-41.333 0 -75.333 12.667 -102 38s-40 55.666 -40 90.999c0 33.333 13.5 61.833 40.5 85.5s60.5 35.5 100.5 35.5l177 1v25c0 16 -3.66699 27 -11 33s-22 9 -44 9h-189v92h207c38 0 70.333 -12.5 97 -37.5s40 -54.833 40 -89.5zM393 89.001v74
h-180c-10 0 -19 -3.33301 -27 -10s-12 -15.667 -12 -27c0 -10 3.66699 -18.667 11 -26s15.333 -11 24 -11h184zM339 468.001h-76l-62 150h76z" />
    <glyph glyph-name="aacute" unicode="&#xe1;" horiz-adv-x="558" 
d="M493 283v-282.999h-276c-41.333 0 -75.333 12.667 -102 38s-40 55.666 -40 90.999c0 33.333 13.5 61.833 40.5 85.5s60.5 35.5 100.5 35.5l177 1v25c0 16 -3.66699 27 -11 33s-22 9 -44 9h-189v92h207c38 0 70.333 -12.5 97 -37.5s40 -54.833 40 -89.5zM393 89.001v74
h-180c-10 0 -19 -3.33301 -27 -10s-12 -15.667 -12 -27c0 -10 3.66699 -18.667 11 -26s15.333 -11 24 -11h184zM387 619.001l-68 -150h-76l68 150h76z" />
    <glyph glyph-name="acircumflex" unicode="&#xe2;" horiz-adv-x="558" 
d="M493 283v-282.999h-276c-41.333 0 -75.333 12.667 -102 38s-40 55.666 -40 90.999c0 33.333 13.5 61.833 40.5 85.5s60.5 35.5 100.5 35.5l177 1v25c0 16 -3.66699 27 -11 33s-22 9 -44 9h-189v92h207c38 0 70.333 -12.5 97 -37.5s40 -54.833 40 -89.5zM393 89.001v74
h-180c-10 0 -19 -3.33301 -27 -10s-12 -15.667 -12 -27c0 -10 3.66699 -18.667 11 -26s15.333 -11 24 -11h184zM428 497.001l-57 -33l-81 65l-81 -65l-57 33l112 94h53z" />
    <glyph glyph-name="atilde" unicode="&#xe3;" horiz-adv-x="558" 
d="M493 283v-282.999h-276c-41.333 0 -75.333 12.667 -102 38s-40 55.666 -40 90.999c0 33.333 13.5 61.833 40.5 85.5s60.5 35.5 100.5 35.5l177 1v25c0 16 -3.66699 27 -11 33s-22 9 -44 9h-189v92h207c38 0 70.333 -12.5 97 -37.5s40 -54.833 40 -89.5zM393 89.001v74
h-180c-10 0 -19 -3.33301 -27 -10s-12 -15.667 -12 -27c0 -10 3.66699 -18.667 11 -26s15.333 -11 24 -11h184zM433 544.001l-73.001 -78c-7.33301 -8 -15.666 -12 -24.999 -12c-8.66699 0 -17 4 -25 12l-47 48c-4.66699 4.66699 -9 4.66699 -13 0l-51 -55l-37 37l73 78
c6.66699 7.33301 14.667 11 24 11c8.66699 0 17 -3.66699 25 -11l48 -48c4.66699 -4.66699 9 -5 13 -1l51 56z" />
    <glyph glyph-name="adieresis" unicode="&#xe4;" horiz-adv-x="558" 
d="M493 283v-282.999h-276c-41.333 0 -75.333 12.667 -102 38s-40 55.666 -40 90.999c0 33.333 13.5 61.833 40.5 85.5s60.5 35.5 100.5 35.5l177 1v25c0 16 -3.66699 27 -11 33s-22 9 -44 9h-189v92h207c38 0 70.333 -12.5 97 -37.5s40 -54.833 40 -89.5zM393 89.001v74
h-180c-10 0 -19 -3.33301 -27 -10s-12 -15.667 -12 -27c0 -10 3.66699 -18.667 11 -26s15.333 -11 24 -11h184zM421 460.001h-76v76h76v-76zM239 460.001h-76v76h76v-76z" />
    <glyph glyph-name="aring" unicode="&#xe5;" horiz-adv-x="558" 
d="M493 283v-282.999h-276c-41.333 0 -75.333 12.667 -102 38s-40 55.666 -40 90.999c0 33.333 13.5 61.833 40.5 85.5s60.5 35.5 100.5 35.5l177 1v25c0 16 -3.66699 27 -11 33s-22 9 -44 9h-189v92h207c38 0 70.333 -12.5 97 -37.5s40 -54.833 40 -89.5zM393 89.001v74
h-180c-10 0 -19 -3.33301 -27 -10s-12 -15.667 -12 -27c0 -10 3.66699 -18.667 11 -26s15.333 -11 24 -11h184zM354 516.001c0 -14 -5 -26 -15 -36s-22 -15 -36 -15h-49c-14 0 -26 5 -36 15s-15 22 -15 36v49c0 14 5 25.833 15 35.5s22 14.5 36 14.5h49
c14 0 26 -4.83301 36 -14.5s15 -21.5 15 -35.5v-49zM310 516.001v48c0 4.66699 -2.33301 7 -7 7h-49c-4.66699 0 -7 -2.33301 -7 -7v-48c0 -4.66699 2.33301 -7 7 -7h49c4.66699 0 7 2.33301 7 7z" />
    <glyph glyph-name="ae" unicode="&#xe6;" horiz-adv-x="830" 
d="M750 156l-292.001 0.000976562v-36c0 -8 3.5 -15.167 10.5 -21.5s15.167 -9.5 24.5 -9.5h204v-89h-208c-12 0 -27 3.5 -45 10.5s-32 15.833 -42 26.5c-19.333 -24.667 -50 -37 -92 -37h-108c-41.333 0 -75.333 12.667 -102 38s-40 55.666 -40 90.999
c0 33.333 13.5 61.833 40.5 85.5s60.5 35.5 100.5 35.5l157 1v25c0 16 -3.83301 27 -11.5 33s-22.167 9 -43.5 9h-169v92h187c40.667 0 69.667 -12.333 87 -37c18.667 24.667 49.334 37 92.001 37h108c40.667 0 74.5 -12.5 101.5 -37.5s40.5 -56.833 40.5 -95.5v-121z
M649.999 285.001c0 9.33301 -3.33301 17.167 -10 23.5s-15 9.5 -25 9.5h-122c-23.333 0 -35 -11 -35 -33v-42h192v42zM357.999 163.002h-160c-10 0 -19 -3.33301 -27 -10s-12 -15.667 -12 -27c0 -10 3.66699 -18.667 11 -26s15.333 -11 24 -11h114
c13.333 0 25 3.66699 35 11s15 17 15 29v34z" />
    <glyph glyph-name="ccedilla" unicode="&#xe7;" horiz-adv-x="568" 
d="M503 237l-100 -0.00292969v49c0 22 -11.667 33 -35 33h-138c-9.33301 0 -17.5 -3.16699 -24.5 -9.5s-10.5 -14.166 -10.5 -23.499v-162c0 -9.33301 3.33301 -17.166 10 -23.499s15 -9.5 25 -9.5h234v-91h-227c-40.667 0 -74.5 12.833 -101.5 38.5s-40.5 57.5 -40.5 95.5
v143c0 38.667 13.5 70.5 40.5 95.5s60.833 37.5 101.5 37.5h124c44.667 0 79.5 -11.167 104.5 -33.5s37.5 -53.166 37.5 -92.499v-47zM355 -35.0029c0.666992 -5.33301 1 -10.667 1 -16c0 -25.333 -9.5 -46.5 -28.5 -63.5s-43.167 -25.5 -72.5 -25.5h-55v58h48
c16 0 27.833 5.33301 35.5 16s10.167 23 7.5 37l-8 44h63z" />
    <glyph glyph-name="egrave" unicode="&#xe8;" horiz-adv-x="578" 
d="M513 156l-318 0.000976562v-34c0 -8.66699 3.33301 -16.334 10 -23.001s15 -10 25 -10h230v-89h-223c-40.667 0 -74.5 12.5 -101.5 37.5s-40.5 56.833 -40.5 95.5v144c0 38.667 13.5 70.5 40.5 95.5s60.833 37.5 101.5 37.5h134c40.667 0 74.5 -12.5 101.5 -37.5
s40.5 -56.833 40.5 -95.5v-121zM413 243.001v42c0 9.33301 -3.33301 17.166 -10 23.499s-15 9.5 -25 9.5h-148c-9.33301 0 -17.5 -3.16699 -24.5 -9.5s-10.5 -14.166 -10.5 -23.499v-42h218zM338 468.001h-76l-62 150h76z" />
    <glyph glyph-name="eacute" unicode="&#xe9;" horiz-adv-x="578" 
d="M513 156l-318 0.000976562v-34c0 -8.66699 3.33301 -16.334 10 -23.001s15 -10 25 -10h230v-89h-223c-40.667 0 -74.5 12.5 -101.5 37.5s-40.5 56.833 -40.5 95.5v144c0 38.667 13.5 70.5 40.5 95.5s60.833 37.5 101.5 37.5h134c40.667 0 74.5 -12.5 101.5 -37.5
s40.5 -56.833 40.5 -95.5v-121zM413 243.001v42c0 9.33301 -3.33301 17.166 -10 23.499s-15 9.5 -25 9.5h-148c-9.33301 0 -17.5 -3.16699 -24.5 -9.5s-10.5 -14.166 -10.5 -23.499v-42h218zM407 619.001l-68 -150h-76l68 150h76z" />
    <glyph glyph-name="ecircumflex" unicode="&#xea;" horiz-adv-x="578" 
d="M513 156l-318 0.000976562v-34c0 -8.66699 3.33301 -16.334 10 -23.001s15 -10 25 -10h230v-89h-223c-40.667 0 -74.5 12.5 -101.5 37.5s-40.5 56.833 -40.5 95.5v144c0 38.667 13.5 70.5 40.5 95.5s60.833 37.5 101.5 37.5h134c40.667 0 74.5 -12.5 101.5 -37.5
s40.5 -56.833 40.5 -95.5v-121zM413 243.001v42c0 9.33301 -3.33301 17.166 -10 23.499s-15 9.5 -25 9.5h-148c-9.33301 0 -17.5 -3.16699 -24.5 -9.5s-10.5 -14.166 -10.5 -23.499v-42h218zM441 499.001l-57 -33l-81 65l-81 -65l-57 33l112 94h53z" />
    <glyph glyph-name="edieresis" unicode="&#xeb;" horiz-adv-x="578" 
d="M513 156l-318 0.000976562v-34c0 -8.66699 3.33301 -16.334 10 -23.001s15 -10 25 -10h230v-89h-223c-40.667 0 -74.5 12.5 -101.5 37.5s-40.5 56.833 -40.5 95.5v144c0 38.667 13.5 70.5 40.5 95.5s60.833 37.5 101.5 37.5h134c40.667 0 74.5 -12.5 101.5 -37.5
s40.5 -56.833 40.5 -95.5v-121zM413 243.001v42c0 9.33301 -3.33301 17.166 -10 23.499s-15 9.5 -25 9.5h-148c-9.33301 0 -17.5 -3.16699 -24.5 -9.5s-10.5 -14.166 -10.5 -23.499v-42h218zM435 460.001h-76v76h76v-76zM253 460.001h-76v76h76v-76z" />
    <glyph glyph-name="igrave" unicode="&#xec;" horiz-adv-x="410" 
d="M365 0h-270v89h84v239h-84v90h184v-329h86v-89zM279 468h-76l-62 150h76z" />
    <glyph glyph-name="iacute" unicode="&#xed;" horiz-adv-x="410" 
d="M365 0h-270v89h84v239h-84v90h184v-329h86v-89zM307 619l-68 -150h-76l68 150h76z" />
    <glyph glyph-name="icircumflex" unicode="&#xee;" horiz-adv-x="410" 
d="M365 0h-270v89h84v239h-84v90h184v-329h86v-89zM361 499l-57 -33l-81 65l-81 -65l-57 33l112 94h53z" />
    <glyph glyph-name="idieresis" unicode="&#xef;" horiz-adv-x="410" 
d="M365 0h-270v89h84v239h-84v90h184v-329h86v-89zM347 460h-76v76h76v-76zM165 460h-76v76h76v-76z" />
    <glyph glyph-name="eth" unicode="&#xf0;" horiz-adv-x="574" 
d="M509 154c0 -45.333 -15.5 -82.334 -46.5 -111.001s-70.167 -43 -117.5 -43h-123c-40.667 0 -74.5 12.833 -101.5 38.5s-40.5 57.834 -40.5 96.501v33c0 38 13.667 69 41 93c24.667 22 57.667 36 99 42l189 29v16c0 25.333 -6.66699 49 -20 71l-50 -43l-57 63l42 36
c-18 8 -36.667 12 -56 12h-76v93h79c48 0 91.667 -12.333 131 -37l43 37l57 -62l-38 -33c30 -42 45 -90.667 45 -146v-185zM409 148.999l-0.000976562 89l-192 -28c-24.667 -3.33301 -37 -15.333 -37 -36v-44c0 -10 3.5 -18.667 10.5 -26s15.167 -11 24.5 -11h137
c14.667 0 27.834 5.66699 39.501 17s17.5 24.333 17.5 39z" />
    <glyph glyph-name="ntilde" unicode="&#xf1;" horiz-adv-x="579" 
d="M514 0l-100.001 -0.000976562v287c0 8.66699 -3.5 16.334 -10.5 23.001s-15.167 10 -24.5 10h-66c-15.333 0 -30 -6 -44 -18l-74 -61v-241h-100v410h100v-59c27.333 23.333 43.333 36.333 48 39c19.333 13.333 39 20 59 20h74c40.667 0 73.834 -11.833 99.501 -35.5
s38.5 -54.5 38.5 -92.5v-282zM443.999 549.999l-73.001 -78c-7.33301 -8 -15.666 -12 -24.999 -12c-8.66699 0 -17 4 -25 12l-47 48c-4.66699 4.66699 -9 4.66699 -13 0l-51 -55l-37 37l73 78c6.66699 7.33301 14.667 11 24 11c8.66699 0 17 -3.66699 25 -11l48 -48
c4.66699 -4.66699 9 -5 13 -1l51 56z" />
    <glyph glyph-name="ograve" unicode="&#xf2;" horiz-adv-x="572" 
d="M517 134c0 -38 -13.833 -69.833 -41.5 -95.5s-61.834 -38.5 -102.501 -38.5h-144c-40.667 -0 -74.834 12.833 -102.501 38.5s-41.5 57.5 -41.5 95.5v142c0 38 13.833 69.833 41.5 95.5s61.834 38.5 102.501 38.5h144c40.667 0 74.834 -12.833 102.501 -38.5
s41.5 -57.5 41.5 -95.5v-142zM417 124v162c0 9.33301 -3.33301 17.166 -10 23.499s-15 9.5 -25 9.5h-162c-9.33301 0 -17.5 -3.16699 -24.5 -9.5s-10.5 -14.166 -10.5 -23.499v-162c0 -9.33301 3.5 -17.166 10.5 -23.499s15.167 -9.5 24.5 -9.5h162
c10 0 18.333 3.16699 25 9.5s10 14.166 10 23.499zM346 468h-76l-62 150h76z" />
    <glyph glyph-name="oacute" unicode="&#xf3;" horiz-adv-x="572" 
d="M517 134c0 -38 -13.833 -69.833 -41.5 -95.5s-61.834 -38.5 -102.501 -38.5h-144c-40.667 -0 -74.834 12.833 -102.501 38.5s-41.5 57.5 -41.5 95.5v142c0 38 13.833 69.833 41.5 95.5s61.834 38.5 102.501 38.5h144c40.667 0 74.834 -12.833 102.501 -38.5
s41.5 -57.5 41.5 -95.5v-142zM417 124v162c0 9.33301 -3.33301 17.166 -10 23.499s-15 9.5 -25 9.5h-162c-9.33301 0 -17.5 -3.16699 -24.5 -9.5s-10.5 -14.166 -10.5 -23.499v-162c0 -9.33301 3.5 -17.166 10.5 -23.499s15.167 -9.5 24.5 -9.5h162
c10 0 18.333 3.16699 25 9.5s10 14.166 10 23.499zM398 617l-68 -150h-76l68 150h76z" />
    <glyph glyph-name="ocircumflex" unicode="&#xf4;" horiz-adv-x="572" 
d="M517 134c0 -38 -13.833 -69.833 -41.5 -95.5s-61.834 -38.5 -102.501 -38.5h-144c-40.667 -0 -74.834 12.833 -102.501 38.5s-41.5 57.5 -41.5 95.5v142c0 38 13.833 69.833 41.5 95.5s61.834 38.5 102.501 38.5h144c40.667 0 74.834 -12.833 102.501 -38.5
s41.5 -57.5 41.5 -95.5v-142zM417 124v162c0 9.33301 -3.33301 17.166 -10 23.499s-15 9.5 -25 9.5h-162c-9.33301 0 -17.5 -3.16699 -24.5 -9.5s-10.5 -14.166 -10.5 -23.499v-162c0 -9.33301 3.5 -17.166 10.5 -23.499s15.167 -9.5 24.5 -9.5h162
c10 0 18.333 3.16699 25 9.5s10 14.166 10 23.499zM437 497l-57 -33l-81 65l-81 -65l-57 33l112 94h53z" />
    <glyph glyph-name="otilde" unicode="&#xf5;" horiz-adv-x="572" 
d="M517 134c0 -38 -13.833 -69.833 -41.5 -95.5s-61.834 -38.5 -102.501 -38.5h-144c-40.667 -0 -74.834 12.833 -102.501 38.5s-41.5 57.5 -41.5 95.5v142c0 38 13.833 69.833 41.5 95.5s61.834 38.5 102.501 38.5h144c40.667 0 74.834 -12.833 102.501 -38.5
s41.5 -57.5 41.5 -95.5v-142zM417 124v162c0 9.33301 -3.33301 17.166 -10 23.499s-15 9.5 -25 9.5h-162c-9.33301 0 -17.5 -3.16699 -24.5 -9.5s-10.5 -14.166 -10.5 -23.499v-162c0 -9.33301 3.5 -17.166 10.5 -23.499s15.167 -9.5 24.5 -9.5h162
c10 0 18.333 3.16699 25 9.5s10 14.166 10 23.499zM440 550l-73.001 -78c-7.33301 -8 -15.666 -12 -24.999 -12c-8.66699 0 -17 4 -25 12l-47 48c-4.66699 4.66699 -9 4.66699 -13 0l-51 -55l-37 37l73 78c6.66699 7.33301 14.667 11 24 11c8.66699 0 17 -3.66699 25 -11
l48 -48c4.66699 -4.66699 9 -5 13 -1l51 56z" />
    <glyph glyph-name="odieresis" unicode="&#xf6;" horiz-adv-x="572" 
d="M517 134c0 -38 -13.833 -69.833 -41.5 -95.5s-61.834 -38.5 -102.501 -38.5h-144c-40.667 -0 -74.834 12.833 -102.501 38.5s-41.5 57.5 -41.5 95.5v142c0 38 13.833 69.833 41.5 95.5s61.834 38.5 102.501 38.5h144c40.667 0 74.834 -12.833 102.501 -38.5
s41.5 -57.5 41.5 -95.5v-142zM417 124v162c0 9.33301 -3.33301 17.166 -10 23.499s-15 9.5 -25 9.5h-162c-9.33301 0 -17.5 -3.16699 -24.5 -9.5s-10.5 -14.166 -10.5 -23.499v-162c0 -9.33301 3.5 -17.166 10.5 -23.499s15.167 -9.5 24.5 -9.5h162
c10 0 18.333 3.16699 25 9.5s10 14.166 10 23.499zM430 460h-76v76h76v-76zM248 460h-76v76h76v-76z" />
    <glyph glyph-name="divide" unicode="&#xf7;" horiz-adv-x="598" 
d="M350 388h-104v105h104v-105zM503 243h-408v93h408v-93zM350 84h-104v105h104v-105z" />
    <glyph glyph-name="oslash" unicode="&#xf8;" horiz-adv-x="572" 
d="M502 134c0 -38 -13.833 -69.833 -41.5 -95.5s-61.834 -38.5 -102.501 -38.5h-144c-40.667 -0 -74.834 12.833 -102.501 38.5s-41.5 57.5 -41.5 95.5v142c0 38 13.833 69.833 41.5 95.5s61.834 38.5 102.501 38.5h144c40.667 0 74.834 -12.833 102.501 -38.5
s41.5 -57.5 41.5 -95.5v-142zM402 124v162.001c0 4 -0.666992 8 -2 12l-125 -207h92c10 0 18.333 3.16699 25 9.5s10 14.166 10 23.499zM308 319.001l-103 -0.000976562c-9.33301 0 -17.5 -3.16699 -24.5 -9.5s-10.5 -14.166 -10.5 -23.499v-162c0 -8 2.66699 -14.667 8 -20
z" />
    <glyph glyph-name="ugrave" unicode="&#xf9;" horiz-adv-x="575" 
d="M510 0l-100 0.000976562v58c-20.667 -20 -36 -33.333 -46 -40c-17.333 -12 -37 -18 -59 -18h-68c-40.667 0 -74.5 12.5 -101.5 37.5s-40.5 56.833 -40.5 95.5v277h100v-288c0 -8.66699 3.33301 -16.334 10 -23.001s15 -10 25 -10h64c12.667 0 21.167 0.833008 25.5 2.5
s10.5 6.5 18.5 14.5l72 73v231h100v-410zM353 469.001h-76l-62 150h76z" />
    <glyph glyph-name="uacute" unicode="&#xfa;" horiz-adv-x="575" 
d="M510 0l-100 0.000976562v58c-20.667 -20 -36 -33.333 -46 -40c-17.333 -12 -37 -18 -59 -18h-68c-40.667 0 -74.5 12.5 -101.5 37.5s-40.5 56.833 -40.5 95.5v277h100v-288c0 -8.66699 3.33301 -16.334 10 -23.001s15 -10 25 -10h64c12.667 0 21.167 0.833008 25.5 2.5
s10.5 6.5 18.5 14.5l72 73v231h100v-410zM393 619.001l-68 -150h-76l68 150h76z" />
    <glyph glyph-name="ucircumflex" unicode="&#xfb;" horiz-adv-x="575" 
d="M510 0l-100 0.000976562v58c-20.667 -20 -36 -33.333 -46 -40c-17.333 -12 -37 -18 -59 -18h-68c-40.667 0 -74.5 12.5 -101.5 37.5s-40.5 56.833 -40.5 95.5v277h100v-288c0 -8.66699 3.33301 -16.334 10 -23.001s15 -10 25 -10h64c12.667 0 21.167 0.833008 25.5 2.5
s10.5 6.5 18.5 14.5l72 73v231h100v-410zM441 498.001l-57 -33l-81 65l-81 -65l-57 33l112 94h53z" />
    <glyph glyph-name="udieresis" unicode="&#xfc;" horiz-adv-x="575" 
d="M510 0l-100 0.000976562v58c-20.667 -20 -36 -33.333 -46 -40c-17.333 -12 -37 -18 -59 -18h-68c-40.667 0 -74.5 12.5 -101.5 37.5s-40.5 56.833 -40.5 95.5v277h100v-288c0 -8.66699 3.33301 -16.334 10 -23.001s15 -10 25 -10h64c12.667 0 21.167 0.833008 25.5 2.5
s10.5 6.5 18.5 14.5l72 73v231h100v-410zM429 460.001h-76v76h76v-76zM247 460.001h-76v76h76v-76z" />
    <glyph glyph-name="yacute" unicode="&#xfd;" horiz-adv-x="574" 
d="M509 41c0 -38.667 -13.5 -70.833 -40.5 -96.5s-60.833 -38.5 -101.5 -38.5h-188v94h195c10 0 18.333 3.16699 25 9.5s10 14.166 10 23.499v26h-172c-40.667 0 -74.5 12.667 -101.5 38s-40.5 57.333 -40.5 96v217h100v-224c0 -9.33301 3.5 -17.166 10.5 -23.499
s15.167 -9.5 24.5 -9.5h179v257h100v-369zM403 617.001l-68 -150h-76l68 150h76z" />
    <glyph glyph-name="thorn" unicode="&#xfe;" horiz-adv-x="575" 
d="M495 196c0 -39.333 -13.5 -72 -40.5 -98s-61.167 -39 -102.5 -39h-172v-147h-100v668h100v-170h172c41.333 0 75.5 -12.833 102.5 -38.5s40.5 -58.167 40.5 -97.5v-78zM392 187v96.001c0 9.33301 -3.33301 17.166 -10 23.499s-15 9.5 -25 9.5h-177v-163h177
c10 0 18.333 3.33301 25 10s10 14.667 10 24z" />
    <glyph glyph-name="ydieresis" unicode="&#xff;" horiz-adv-x="574" 
d="M509 41c0 -38.667 -13.5 -70.833 -40.5 -96.5s-60.833 -38.5 -101.5 -38.5h-188v94h195c10 0 18.333 3.16699 25 9.5s10 14.166 10 23.499v26h-172c-40.667 0 -74.5 12.667 -101.5 38s-40.5 57.333 -40.5 96v217h100v-224c0 -9.33301 3.5 -17.166 10.5 -23.499
s15.167 -9.5 24.5 -9.5h179v257h100v-369zM432 460.001h-76v76h76v-76zM250 460.001h-76v76h76v-76z" />
    <glyph glyph-name="dotlessi" unicode="&#x131;" horiz-adv-x="410" 
d="M350 0h-270v89h84v239h-84v90h184v-329h86v-89z" />
    <glyph glyph-name="Lslash" unicode="&#x141;" horiz-adv-x="504" 
d="M444 0h-364v251h-35v78h35v251h104v-251h117v-78h-117v-158h260v-93z" />
    <glyph glyph-name="lslash" unicode="&#x142;" horiz-adv-x="405" 
d="M350 0h-270v89h85v162h-85v78h85v162h-85v89h185v-251h85v-78h-85v-162h85v-89z" />
    <glyph glyph-name="OE" unicode="&#x152;" horiz-adv-x="867" 
d="M787 0l-356 -0.00195312v14c-18 -9.33301 -36.333 -14 -55 -14h-154c-40.667 0 -74.5 12.833 -101.5 38.5s-40.5 57.834 -40.5 96.501v310c0 38.667 13.5 70.834 40.5 96.501s60.833 38.5 101.5 38.5h154c18.667 0 37 -4.33301 55 -13v13h356v-93h-269v-150h207v-95h-207
v-149h269v-93zM418 129.998v320c0 10 -3.5 18.667 -10.5 26s-15.167 11 -24.5 11h-168c-9.33301 0 -17.5 -3.66699 -24.5 -11s-10.5 -16 -10.5 -26v-320c0 -10 3.5 -18.667 10.5 -26s15.167 -11 24.5 -11h168c9.33301 0 17.5 3.66699 24.5 11s10.5 16 10.5 26z" />
    <glyph glyph-name="oe" unicode="&#x153;" horiz-adv-x="861" 
d="M781 156l-294 0.000976562v-34c0 -8.66699 3.33301 -16.334 10 -23.001s15 -10 25 -10h206v-89h-199c-39.333 0 -70.333 13 -93 39c-24.667 -26 -56 -39 -94 -39h-118c-40.667 -0 -74.834 12.833 -102.501 38.5s-41.5 57.5 -41.5 95.5v142c0 38 13.833 69.833 41.5 95.5
s61.834 38.5 102.501 38.5h118c40 0 71.333 -12.667 94 -38c19.333 25.333 50.333 38 93 38h110c40.667 0 74.5 -12.5 101.5 -37.5s40.5 -56.833 40.5 -95.5v-121zM681 285.001c0 9.33301 -3.33301 17.166 -10 23.499s-15 9.5 -25 9.5h-124
c-9.33301 0 -17.5 -3.16699 -24.5 -9.5s-10.5 -14.166 -10.5 -23.499v-42h194v42zM386 124.001v162c0 9.33301 -3.33301 17.166 -10 23.499s-15 9.5 -25 9.5h-136c-9.33301 0 -17.5 -3.16699 -24.5 -9.5s-10.5 -14.166 -10.5 -23.499v-162
c0 -9.33301 3.5 -17.166 10.5 -23.499s15.167 -9.5 24.5 -9.5h136c10 0 18.333 3.16699 25 9.5s10 14.166 10 23.499z" />
    <glyph glyph-name="Scaron" unicode="&#x160;" horiz-adv-x="578" 
d="M523 133c0 -38.667 -13.5 -70.834 -40.5 -96.501s-60.833 -38.5 -101.5 -38.5h-154c-40.667 0 -74.5 12.833 -101.5 38.5s-40.5 57.834 -40.5 96.501v37h100v-42c0 -10 3.5 -18.667 10.5 -26s15.167 -11 24.5 -11h168c9.33301 0 17.5 3.66699 24.5 11s10.5 16 10.5 26v75
c0 28.667 -32.667 43 -98 43c-8.66699 0 -25 -0.333008 -49 -1c-20 -0.666992 -35 -1 -45 -1c-41.333 1.33301 -75.333 14.666 -102 39.999s-40 57.333 -40 96v65c0 38.667 13.5 70.834 40.5 96.501s60.833 38.5 101.5 38.5h142c40.667 0 74.5 -12.833 101.5 -38.5
s40.5 -57.834 40.5 -96.501v-38h-100v43c0 10 -3.5 18.667 -10.5 26s-15.167 11 -24.5 11h-156c-9.33301 0 -17.5 -3.66699 -24.5 -11s-10.5 -16 -10.5 -26v-76c0 -28 31.667 -42 95 -42c9.33301 0 26 0.333008 50 1c21.333 0.666992 37 1 47 1
c40.667 -1.33301 74.5 -14.666 101.5 -39.999s40.5 -57.333 40.5 -96v-65zM439 729l-111 -94h-53l-112 94l57 33l81 -65l81 65z" />
    <glyph glyph-name="scaron" unicode="&#x161;" horiz-adv-x="546" 
d="M496 127c0 -34.667 -13.333 -64.5029 -40 -89.5029s-60.667 -37.5 -102 -37.5h-244v91h251c23.333 0 35 11 35 33c0 20.667 -13 31.334 -39 32.001l-129 4c-42 0.666992 -77.167 12.334 -105.5 35.001s-42.5 51.334 -42.5 86.001c0 35.333 13.333 65.666 40 90.999
s60.667 38 102 38h239v-91h-246c-9.33301 0 -17.5 -3.33301 -24.5 -10s-10.5 -15 -10.5 -25c0 -20.667 21 -32.667 63 -36h113c39.333 -1.33301 72.5 -13.666 99.5 -36.999s40.5 -51.333 40.5 -84zM423 562.997l-111 -94h-53l-112 94l57 33l81 -65l81 65z" />
    <glyph glyph-name="Ydieresis" unicode="&#x178;" horiz-adv-x="594" 
d="M529 425c0 -37.333 -12.667 -68.333 -38 -93l-128 -127v-205h-102v205l-128 127c-25.333 24.667 -38 55.667 -38 93v155h100v-151c0 -16 4.33301 -28 13 -36l103 -105l104 105c8.66699 8 13 20 13 36v151h101v-155zM444 646h-76v76h76v-76zM262 646h-76v76h76v-76z" />
    <glyph glyph-name="Zcaron" unicode="&#x17d;" horiz-adv-x="582" 
d="M517 0h-422v73l283 414h-283v93h422v-73l-283 -414h283v-93zM451 729l-111 -94h-53l-112 94l57 33l81 -65l81 65z" />
    <glyph glyph-name="zcaron" unicode="&#x17e;" horiz-adv-x="559" 
d="M494 0h-399v73l248 249h-248v88h399v-73l-248 -249h248v-88zM440 563l-111 -94h-53l-112 94l57 33l81 -65l81 65z" />
    <glyph glyph-name="florin" unicode="&#x192;" horiz-adv-x="608" 
d="M608 470h-102v50c0 9.33301 -3.5 17.333 -10.5 24s-15.167 10 -24.5 10h-82c-9.33301 0 -17.5 -3.33301 -24.5 -10s-10.5 -14.667 -10.5 -24v-183h112v-95h-112v-200c0 -38.667 -13.167 -70 -39.5 -94s-60.166 -36 -101.499 -36h-67c-40.667 0 -75.167 12.5 -103.5 37.5
s-42.5 57.167 -42.5 96.5v44h102v-50c0 -9.33301 3.5 -17.333 10.5 -24s15.167 -10 24.5 -10h82c10 0 18.333 3.33301 25 10s10 14.667 10 24v202h-84v95h84v181c0 38.667 13.167 70 39.5 94s60.166 36 101.499 36h67c40.667 0 75.167 -12.5 103.5 -37.5
s42.5 -57.167 42.5 -96.5v-44z" />
    <glyph glyph-name="circumflex" unicode="&#x2c6;" 
d="M436 665l-57 -33l-81 65l-81 -65l-57 33l112 94h53z" />
    <glyph glyph-name="caron" unicode="&#x2c7;" 
d="M436 729l-111 -94h-53l-112 94l57 33l81 -65l81 65z" />
    <glyph glyph-name="breve" unicode="&#x2d8;" 
d="M434 693c-38 -45.333 -82.333 -68 -133 -68s-95 23.667 -133 71l48 38c24.667 -32 53 -48 85 -48s60.333 16 85 48z" />
    <glyph glyph-name="dotaccent" unicode="&#x2d9;" 
d="M343 651h-88v88h88v-88z" />
    <glyph glyph-name="ring" unicode="&#x2da;" 
d="M375 676c0 -14 -5 -26 -15 -36s-22 -15 -36 -15h-49c-14 0 -26 5 -36 15s-15 22 -15 36v49c0 14 5 25.833 15 35.5s22 14.5 36 14.5h49c14 0 26 -4.83301 36 -14.5s15 -21.5 15 -35.5v-49zM331 676v48c0 4.66699 -2.33301 7 -7 7h-49c-4.66699 0 -7 -2.33301 -7 -7v-48
c0 -4.66699 2.33301 -7 7 -7h49c4.66699 0 7 2.33301 7 7z" />
    <glyph glyph-name="ogonek" unicode="&#x2db;" horiz-adv-x="456" 
d="M306 -140l-55 0.000976562c-29.333 0 -53.5 8.5 -72.5 25.5s-28.5 38.167 -28.5 63.5c0 5.33301 0.333008 10.666 1 15.999l9 50h63l-8 -44c-2 -14 0.833008 -26.333 8.5 -37s19.167 -16 34.5 -16h48v-58z" />
    <glyph glyph-name="tilde" unicode="&#x2dc;" horiz-adv-x="621" 
d="M446 713l-73.001 -78c-7.33301 -8 -15.666 -12 -24.999 -12c-8.66699 0 -17 4 -25 12l-47 48c-4.66699 4.66699 -9 4.66699 -13 0l-51 -55l-37 37l73 78c6.66699 7.33301 14.667 11 24 11c8.66699 0 17 -3.66699 25 -11l48 -48c4.66699 -4.66699 9 -5 13 -1l51 56z" />
    <glyph glyph-name="hungarumlaut" unicode="&#x2dd;" 
d="M448 786l-54 -131h-64l54 131h64zM308 786l-54 -131h-64l54 131h64z" />
    <glyph glyph-name="Delta" unicode="&#x394;" horiz-adv-x="664" 
d="M575 0h-487l244 619zM435 94l-103 263l-103 -263h206z" />
    <glyph glyph-name="Delta" unicode="&#x2206;" horiz-adv-x="664" 
d="M575 0h-487l244 619zM435 94l-103 263l-103 -263h206z" />
    <glyph glyph-name="Omega" unicode="&#x3a9;" horiz-adv-x="607" 
d="M527 308c0 -34 -19.668 -64.999 -59.001 -92.999c-31.333 -22.667 -47 -38.667 -47 -48c0 -12 6.33301 -18 19 -18h81v-81h-81c-28.667 0 -54.5 9.83301 -77.5 29.5s-34.5 42.834 -34.5 69.501c0 24 8.66699 44.667 26 62c2 2 18.333 14.333 49 37
c17.333 13.333 26 26.333 26 39v81c0 9.33301 -3.5 17.666 -10.5 24.999s-15.167 11 -24.5 11h-181c-9.33301 0 -17.5 -3.66699 -24.5 -11s-10.5 -15.666 -10.5 -24.999v-81c0 -12.667 8.66699 -25.667 26 -39c30.667 -22.667 47 -35 49 -37c17.333 -17.333 26 -38 26 -62
c0 -26.667 -11.5 -49.834 -34.5 -69.501s-48.833 -29.5 -77.5 -29.5h-81v81h81c12.667 0 19 6 19 18c0 9.33301 -9 20.666 -27 33.999c-27.333 19.333 -44.666 33 -51.999 41c-18 19.333 -27 41.333 -27 66v69c0 38 13.5 70 40.5 96s60.833 39 101.5 39h163
c40.667 0 74.5 -13 101.5 -39s40.5 -58 40.5 -96v-69z" />
    <glyph glyph-name="Omega" unicode="&#x2126;" horiz-adv-x="607" 
d="M527 308c0 -34 -19.668 -64.999 -59.001 -92.999c-31.333 -22.667 -47 -38.667 -47 -48c0 -12 6.33301 -18 19 -18h81v-81h-81c-28.667 0 -54.5 9.83301 -77.5 29.5s-34.5 42.834 -34.5 69.501c0 24 8.66699 44.667 26 62c2 2 18.333 14.333 49 37
c17.333 13.333 26 26.333 26 39v81c0 9.33301 -3.5 17.666 -10.5 24.999s-15.167 11 -24.5 11h-181c-9.33301 0 -17.5 -3.66699 -24.5 -11s-10.5 -15.666 -10.5 -24.999v-81c0 -12.667 8.66699 -25.667 26 -39c30.667 -22.667 47 -35 49 -37c17.333 -17.333 26 -38 26 -62
c0 -26.667 -11.5 -49.834 -34.5 -69.501s-48.833 -29.5 -77.5 -29.5h-81v81h81c12.667 0 19 6 19 18c0 9.33301 -9 20.666 -27 33.999c-27.333 19.333 -44.666 33 -51.999 41c-18 19.333 -27 41.333 -27 66v69c0 38 13.5 70 40.5 96s60.833 39 101.5 39h163
c40.667 0 74.5 -13 101.5 -39s40.5 -58 40.5 -96v-69z" />
    <glyph glyph-name="pi" unicode="&#x3c0;" horiz-adv-x="575" 
d="M515 0h-40c-42.667 -0 -76.5 11.333 -101.5 34s-37.5 50.667 -37.5 84v203h-103v-321h-100v321h-73v89h455v-89h-79v-203c0 -19.333 12 -29 36 -29h43v-89z" />
    <glyph glyph-name="endash" unicode="&#x2013;" horiz-adv-x="332" 
d="M287 0h-242v68h242v-68z" />
    <glyph glyph-name="emdash" unicode="&#x2014;" horiz-adv-x="390" 
d="M380 0h-370v68h370v-68z" />
    <glyph glyph-name="quoteleft" unicode="&#x2018;" horiz-adv-x="317" 
d="M222 609l-49 -79v-8h34c6.66699 0 10 -3.33301 10 -10v-90c0 -6.66699 -3.33301 -10 -10 -10h-102c-6.66699 0 -10 3.33301 -10 10v69c0 20 5 35 15 45l79 96z" />
    <glyph glyph-name="quoteright" unicode="&#x2019;" horiz-adv-x="317" 
d="M222 534c0 -20 -5 -35 -15 -45l-79 -96l-33 23l49 79v8h-34c-6.66699 0 -10 3.33301 -10 10v90c0 6.66699 3.33301 10 10 10h102c6.66699 0 10 -3.33301 10 -10v-69z" />
    <glyph glyph-name="quotesinglbase" unicode="&#x201a;" horiz-adv-x="319" 
d="M224 37c0 -20 -5 -35 -15 -45l-79 -96l-33 23l49 79v8h-34c-6.66699 0 -10 3.33301 -10 10v90c0 6.66699 3.33301 10 10 10h102c6.66699 0 10 -3.33301 10 -10v-69z" />
    <glyph glyph-name="quotedblleft" unicode="&#x201c;" horiz-adv-x="497" 
d="M402 609l-49 -79v-8h34c6.66699 0 10 -3.33301 10 -10v-90c0 -6.66699 -3.33301 -10 -10 -10h-102c-6.66699 0 -10 3.33301 -10 10v69c0 20 5 35 15 45l79 96zM222 609l-49 -79v-8h34c6.66699 0 10 -3.33301 10 -10v-90c0 -6.66699 -3.33301 -10 -10 -10h-102
c-6.66699 0 -10 3.33301 -10 10v69c0 20 5 35 15 45l79 96z" />
    <glyph glyph-name="quotedblright" unicode="&#x201d;" horiz-adv-x="497" 
d="M402 534c0 -20 -5 -35 -15 -45l-79 -96l-33 23l49 79v8h-34c-6.66699 0 -10 3.33301 -10 10v90c0 6.66699 3.33301 10 10 10h102c6.66699 0 10 -3.33301 10 -10v-69zM222 534c0 -20 -5 -35 -15 -45l-79 -96l-33 23l49 79v8h-34c-6.66699 0 -10 3.33301 -10 10v90
c0 6.66699 3.33301 10 10 10h102c6.66699 0 10 -3.33301 10 -10v-69z" />
    <glyph glyph-name="quotedblbase" unicode="&#x201e;" horiz-adv-x="499" 
d="M404 37c0 -20 -5 -35 -15 -45l-79 -96l-33 23l49 79v8h-34c-6.66699 0 -10 3.33301 -10 10v90c0 6.66699 3.33301 10 10 10h102c6.66699 0 10 -3.33301 10 -10v-69zM224 37c0 -20 -5 -35 -15 -45l-79 -96l-33 23l49 79v8h-34c-6.66699 0 -10 3.33301 -10 10v90
c0 6.66699 3.33301 10 10 10h102c6.66699 0 10 -3.33301 10 -10v-69z" />
    <glyph glyph-name="dagger" unicode="&#x2020;" horiz-adv-x="421" 
d="M336 390h-85v-220h-82v220h-84v77h84v113h82v-113h85v-77z" />
    <glyph glyph-name="daggerdbl" unicode="&#x2021;" horiz-adv-x="421" 
d="M336 277h-87v-107h-78v107h-86v72h86v78h-86v73h86v80h78v-80h87v-73h-87v-78h87v-72z" />
    <glyph glyph-name="bullet" unicode="&#x2022;" horiz-adv-x="384" 
d="M289 220c0 -11.333 -5.66699 -17 -17 -17h-160c-11.333 0 -17 5.66699 -17 17v159c0 12 5.66699 18 17 18h160c11.333 0 17 -6 17 -18v-159z" />
    <glyph glyph-name="ellipsis" unicode="&#x2026;" horiz-adv-x="780" 
d="M685 10c0 -6.66699 -3.33301 -10 -10 -10h-102c-6.66699 -0 -10 3.33301 -10 10v102c0 6.66699 3.33301 10 10 10h102c6.66699 0 10 -3.33301 10 -10v-102zM451 10c0 -6.66699 -3.33301 -10 -10 -10h-102c-6.66699 -0 -10 3.33301 -10 10v102c0 6.66699 3.33301 10 10 10
h102c6.66699 0 10 -3.33301 10 -10v-102zM217 10c0 -6.66699 -3.33301 -10 -10 -10h-102c-6.66699 -0 -10 3.33301 -10 10v102c0 6.66699 3.33301 10 10 10h102c6.66699 0 10 -3.33301 10 -10v-102z" />
    <glyph glyph-name="perthousand" unicode="&#x2030;" horiz-adv-x="1079" 
d="M999 63c0 -23.333 -8.66699 -43.333 -26 -60s-38.333 -25 -63 -25h-72c-24.667 0 -45.667 8.33301 -63 25s-26 36.667 -26 60v69c0 24 8.66699 44.333 26 61s38.333 25 63 25h72c24.667 0 45.667 -8.33301 63 -25s26 -37 26 -61v-69zM330 428
c0 -24 -8.66699 -44.333 -26 -61s-38.333 -25 -63 -25h-72c-24.667 0 -45.667 8.33301 -63 25s-26 37 -26 61v69c0 23.333 8.66699 43.333 26 60s38.333 25 63 25h72c24.667 0 45.667 -8.33301 63 -25s26 -36.667 26 -60v-69zM633 571l-437 -622l-85 60l437 622zM648 63
c0 -23.333 -8.66699 -43.333 -26 -60s-38.333 -25 -63 -25h-72c-24.667 0 -45.667 8.33301 -63 25s-26 36.667 -26 60v69c0 24 8.66699 44.333 26 61s38.333 25 63 25h72c24.667 0 45.667 -8.33301 63 -25s26 -37 26 -61v-69zM913 72v53c0 6.66699 -3.33301 10 -10 10h-57
c-6.66699 0 -10 -3.33301 -10 -10v-53c0 -6.66699 3.33301 -10 10 -10h57c6.66699 0 10 3.33301 10 10zM244 436v53c0 6.66699 -3.33301 10 -10 10h-57c-6.66699 0 -10 -3.33301 -10 -10v-53c0 -6.66699 3.33301 -10 10 -10h57c6.66699 0 10 3.33301 10 10zM562 72v53
c0 6.66699 -3.33301 10 -10 10h-57c-6.66699 0 -10 -3.33301 -10 -10v-53c0 -6.66699 3.33301 -10 10 -10h57c6.66699 0 10 3.33301 10 10z" />
    <glyph glyph-name="guilsinglleft" unicode="&#x2039;" horiz-adv-x="416" 
d="M342 140l-70 -66l-192 179v62l192 179l70 -66l-159 -146c6 -2.66699 59 -50 159 -142z" />
    <glyph glyph-name="guilsinglright" unicode="&#x203a;" horiz-adv-x="416" 
d="M336 253l-192 -179l-70 66l159 146c-6 2.66699 -59 50 -159 142l70 66l192 -179v-62z" />
    <glyph glyph-name="fraction" unicode="&#x2044;" horiz-adv-x="484" 
d="M458 647l-337 -766l-96 42l338 766z" />
    <glyph glyph-name="trademark" unicode="&#x2122;" horiz-adv-x="550" 
d="M475 375h-45v129l-34 -39h-26l-34 39v-129h-45v205h36l56 -66l56 66h36v-205zM252 538h-66v-163h-46v163h-65v42h177v-42z" />
    <glyph glyph-name="partialdiff" unicode="&#x2202;" horiz-adv-x="574" 
d="M509 154c0 -45.333 -15.5 -82.334 -46.5 -111.001s-70.167 -43 -117.5 -43h-123c-40.667 0 -74.5 12.833 -101.5 38.5s-40.5 57.834 -40.5 96.501v33c0 38 13.667 69 41 93c24.667 22 57.667 36 99 42l189 29v16c0 38 -14 70.667 -42 98s-61 41 -99 41h-76v93h79
c66.667 0 123 -22.667 169 -68s69 -103 69 -173v-185zM409 148.999l-0.000976562 89l-192 -28c-24.667 -3.33301 -37 -15.333 -37 -36v-44c0 -10 3.5 -18.667 10.5 -26s15.167 -11 24.5 -11h137c14.667 0 27.834 5.66699 39.501 17s17.5 24.333 17.5 39z" />
    <glyph glyph-name="product" unicode="&#x220f;" horiz-adv-x="575" 
d="M515 0h-40c-42.667 0 -76.667 12 -102 36c-24.667 22 -37 50.333 -37 85v368h-103v-489h-100v489h-73v91h455v-91h-79v-368c0 -20 12 -30 36 -30h43v-91z" />
    <glyph glyph-name="summation" unicode="&#x2211;" horiz-adv-x="536" 
d="M456 0h-376v72l163 219l-163 217v72h376v-93h-240l137 -181v-33l-137 -180h240v-93z" />
    <glyph glyph-name="radical" unicode="&#x221a;" horiz-adv-x="757" 
d="M662 389h-146l-128 -389h-88l-97 221h-108v76h165l80 -183l114 354h208v-79z" />
    <glyph glyph-name="infinity" unicode="&#x221e;" horiz-adv-x="786" 
d="M701 260c0 -37.333 -12.999 -68.167 -38.999 -92.5s-58.667 -36.5 -98 -36.5h-37c-30 0 -64 19.333 -102 58l-92 107c-33.333 38.667 -59.333 58 -78 58h-39c-11.333 0 -21.333 -3.66699 -30 -11s-13 -16 -13 -26v-60c0 -13.333 4.16699 -23.5 12.5 -30.5
s18.166 -9.5 29.499 -7.5l122 21l22 -81l-122 -24c-7.33301 -1.33301 -14.666 -2 -21.999 -2c-33.333 0 -63.333 12.333 -90 37s-40 52.667 -40 84v60c0 36.667 12.833 66.667 38.5 90s58.5 35 98.5 35h47c31.333 0 66.666 -19.333 105.999 -58
c11.333 -10.667 42 -46.667 92 -108c32 -38.667 55.333 -58 70 -58h33c11.333 0 21.333 3.83301 30 11.5s13 16.5 13 26.5v70c0 10 -4.33301 18.333 -13 25s-18 9 -28 7l-120 -25l-17 84l117 25c8 1.33301 16.333 2 25 2c33.333 0 62.333 -11.667 87 -35s37 -52.333 37 -87
v-59z" />
    <glyph glyph-name="integral" unicode="&#x222b;" horiz-adv-x="514" 
d="M429 190c0 -38.667 -13.333 -70.999 -40 -96.999s-59.667 -39 -99 -39h-9v-141h-74v141h-122v477h122v129h74v-129h9c39.333 0 72.333 -12.833 99 -38.5s40 -57.834 40 -96.501v-10c0 -41.333 -14 -72.333 -42 -93c28 -19.333 42 -48 42 -86v-17zM339 385.001v21.001
c0 11.333 -4.16699 21.666 -12.5 30.999s-17.5 14 -27.5 14h-128v-117h118c19.333 0 32.5 3.5 39.5 10.5s10.5 20.5 10.5 40.5zM339 179.002v20.001c0 20 -3.16699 34.167 -9.5 42.5s-18.5 12.5 -36.5 12.5h-122v-120h128c10 0 19.167 4.66699 27.5 14
s12.5 19.666 12.5 30.999z" />
    <glyph glyph-name="approxequal" unicode="&#x2248;" horiz-adv-x="530" 
d="M455 419l-114 -101c-8 -8 -17 -12 -27 -12c-11.333 0 -22.333 5.66699 -33 17l-62 64c-6 5.33301 -11.333 6 -16 2l-85 -77l-43 49l114 101c8.66699 7.33301 17.667 11 27 11c11.333 0 22.333 -5.33301 33 -16l63 -64c5.33301 -5.33301 10.333 -6 15 -2l85 77zM455 145
l-114 -101c-8 -8 -17 -12 -27 -12c-11.333 0 -22.333 5.66699 -33 17l-62 64c-6 5.33301 -11.333 6 -16 2l-85 -77l-43 49l114 101c8.66699 8 17.667 12 27 12c11.333 0 22.333 -5.66699 33 -17l63 -63c5.33301 -6 10.333 -7 15 -3l85 77z" />
    <glyph glyph-name="approxequal" unicode="&#x22f2;" horiz-adv-x="530" 
d="M455 419l-114 -101c-8 -8 -17 -12 -27 -12c-11.333 0 -22.333 5.66699 -33 17l-62 64c-6 5.33301 -11.333 6 -16 2l-85 -77l-43 49l114 101c8.66699 7.33301 17.667 11 27 11c11.333 0 22.333 -5.33301 33 -16l63 -64c5.33301 -5.33301 10.333 -6 15 -2l85 77zM455 145
l-114 -101c-8 -8 -17 -12 -27 -12c-11.333 0 -22.333 5.66699 -33 17l-62 64c-6 5.33301 -11.333 6 -16 2l-85 -77l-43 49l114 101c8.66699 8 17.667 12 27 12c11.333 0 22.333 -5.66699 33 -17l63 -63c5.33301 -6 10.333 -7 15 -3l85 77z" />
    <glyph glyph-name="notequal" unicode="&#x2260;" horiz-adv-x="553" 
d="M458 155h-218l-27 -50h-72l27 50h-73v85h118l46 85h-164v85h209l31 58h72l-31 -58h82v-85h-127l-46 -85h173v-85z" />
    <glyph glyph-name="lessequal" unicode="&#x2264;" horiz-adv-x="463" 
d="M347 193l-63 -61l-199 192v61l199 192l63 -62l-168 -161zM378 0h-293v79h293v-79z" />
    <glyph glyph-name="greaterequal" unicode="&#x2265;" horiz-adv-x="463" 
d="M378 324l-199 -192l-63 61l168 161l-168 161l63 62l199 -192v-61zM378 0h-293v79h293v-79z" />
    <glyph glyph-name="lozenge" unicode="&#x25ca;" horiz-adv-x="707" 
d="M618 259l-264 -265l-265 265l265 264zM484 259l-130 130l-131 -130l131 -131z" />
    <glyph glyph-name="apple" unicode="&#xf000;" horiz-adv-x="739" 
d="M689 67h-3v9l-3 -7h-2l-3 7v-9h-3v12h4l3 -7l2 7h5v-12zM673 76h-4v-9h-3v9h-4v3h11v-3zM651 74c0 -6.66699 -3.33301 -10 -10 -10c-7.33301 0 -11 3.66699 -11 11c0 6.66699 3.66699 10 11 10c6.66699 0 10 -3.66699 10 -11zM552 256
c0 -26.667 -9.33301 -44.667 -28 -54l-161 -82v202l131 66c6.66699 3.33301 13.667 5 21 5c24.667 0 37 -13.667 37 -41v-96zM619 46c0 -6 -3.33301 -9 -10 -9c-6 0 -9 3 -9 9c0 6.66699 3 10 9 10c6.66699 0 10 -3.33301 10 -10zM493 470
c12 -6.66699 17.999 -16.001 17.999 -28.001c0 -13.333 -8 -24 -24 -32l-127 -64c-6 -3.33301 -9 -8.66602 -9 -15.999v-217l-201 102v197c0 18.667 7.33301 31.667 22 39c48 26 89.333 47.333 124 64c18.667 9.33301 36.334 14 53.001 14s35.667 -5 57 -15
c41.333 -20 70.333 -34.667 87 -44zM588.999 22.999l-10 -1l-9 23h-2h-6v-22h-9v51h17c12 0 18 -4.66699 18 -14c0 -6 -3 -10.333 -9 -13zM541.999 47.999c0 -17.333 -6.66699 -26 -20 -26c-12.667 0 -19 8.66699 -19 26c0 18 6.33301 27 19 27c13.333 0 20 -9 20 -27z
M496.999 73.999l-17 -51h-8l-17 51h10l11 -36l11 36h10zM443.999 22.999h-9v22h-16v-22h-10v51h10v-21h16v21h9v-51zM397.999 35.999c0 -8.66699 -6 -13 -18 -13h-20v6h3v38h-3v7h19c11.333 0 17 -4 17 -12c0 -3.33301 -3 -7.33301 -9 -12c7.33301 -1.33301 11 -6 11 -14z
M348.999 37.999l-7 -12h-6l6 12l-6 10l2 2h4zM336.999 37.999l-7 -12h-6l6 12l-6 10l2 2h4zM312.999 34.999c-3.33301 -8.66699 -9.66699 -13 -19 -13c-12 0 -18 8.66699 -18 26c0 18 6.33301 27 19 27c9.33301 0 15 -4.33301 17 -13l-9 -2c-1.33301 5.33301 -4 8 -8 8
c-6 0 -9 -6.33301 -9 -19c0 -13.333 3.33301 -20 10 -20c4 0 7 3 9 9zM264.998 22.999h-10v22h-16v-22h-9v51h9v-21h16v21h10v-51zM218.998 58.999c0 -10 -6.66699 -15 -20 -15h-6v-21h-9v51h17c12 0 18 -5 18 -15zM171.998 22.999l-9 -1l-9 23h-2h-6v-22h-10v51h17
c12 0 18 -4.66699 18 -14c0 -6 -3 -10.333 -9 -13zM124.998 24.999l-3 -2l-3 3c-2.66699 -2.66699 -6.66699 -4 -12 -4c-12.667 0 -19 8.66699 -19 26c0 18 6.66699 27 20 27c9.33301 0 15 -4.33301 17 -13l-9 -2c-1.33301 5.33301 -4.33301 8 -9 8c-6 0 -9 -6.33301 -9 -19
c0 -13.333 3.33301 -20 10 -20c1.33301 0 4 1.33301 8 4v10h-9v6h18v-24zM76.998 68.999c0 -2.66699 -3 -6.66699 -9 -12l-4 1v3c1.33301 0.666992 2.83301 1.66699 4.5 3s2.5 3 2.5 5h-4v10h10v-10zM62.998 68.999c0 -2.66699 -3 -6.66699 -9 -12l-4 1v3
c1.33301 0.666992 2.83301 1.66699 4.5 3s2.16699 3 1.5 5h-3v10h10v-10zM645.998 73.999c0 4 -1.66699 6 -5 6c-4 0 -6 -2 -6 -6c0 -3.33301 2 -5 6 -5c3.33301 0 5 1.66699 5 5zM577.998 59.999c0 5.33301 -3.33301 8 -10 8h-6v-16h7c6 0 9 2.66699 9 8zM531.998 47.999
c0 13.333 -3.33301 20 -10 20c-6 0 -9 -6.66699 -9 -20c0 -12.667 3 -19 9 -19c6.66699 0 10 6.33301 10 19zM385.998 59.999c0 4.66699 -2.66699 7 -8 7h-6v-14h7c4.66699 0 7 2.33301 7 7zM387.998 36.999c0 6 -3 9 -9 9h-7v-17h6c6.66699 0 10 2.66699 10 8z
M208.998 58.999c0 6 -3.33301 9 -10 9h-6v-17h7c6 0 9 2.66699 9 8zM160.998 59.999c0 5.33301 -3 8 -9 8h-6v-16h7c5.33301 0 8 2.66699 8 8z" />
    <glyph glyph-name="fi" unicode="&#xf001;" horiz-adv-x="743" 
d="M683 0l-270.001 -0.000976562v89h84v155h-253v-244h-100v244h-84v93h84v114c0 38.667 13.333 69.834 40 93.501s60.334 35.5 101.001 35.5h87c41.333 0 76 -12.333 104 -37s42 -56.667 42 -96v-43h-102v50c0 8.66699 -3.5 16.334 -10.5 23.001s-15.167 10 -24.5 10h-102
c-9.33301 0 -17.5 -3.33301 -24.5 -10s-10.5 -14.334 -10.5 -23.001v-116h353v-249h86v-89z" />
    <glyph glyph-name="fl" unicode="&#xf002;" horiz-adv-x="738" 
d="M683 0h-270.001v89h85v398h-219c-10 0 -18.5 -3.33301 -25.5 -10s-10.5 -14.334 -10.5 -23.001l1 -116h130v-94h-130v-244h-100v244h-84v93h84v114c0 38.667 13.333 69.834 40 93.501s60.334 35.5 101.001 35.5h313v-491h85v-89z" />
    <glyph glyph-name=".null" horiz-adv-x="0" 
 />
    <glyph glyph-name="nonmarkingreturn" horiz-adv-x="350" 
 />
    </font>
</defs>
</svg>
