<?xml version="1.0" standalone="no"?>
<!DOCTYPE svg PUBLIC "-//W3C//DTD SVG 1.1//EN" "http://www.w3.org/Graphics/SVG/1.1/DTD/svg11.dtd" >
<svg>
<metadata>
Created by FontForge 20090914 at Thu Sep  1 10:27:15 2016
 By www-data
(r) (c) 2003 [T&#226;&#128;&#144;26] Chicago www.t26.com 773.862.1201 T0886 ID#5134272 designer: Anuthin Wongsunkakon
</metadata>
<defs>
<font id="CarbonRegularItalic" horiz-adv-x="556" >
  <font-face 
    font-family="CarbonRegular Italic"
    font-weight="400"
    font-style="italic"
    font-stretch="normal"
    units-per-em="1000"
    panose-1="0 0 4 0 0 0 0 0 0 0"
    ascent="800"
    descent="-200"
    x-height="409.999"
    cap-height="580"
    bbox="-88.999 -200 881.02 801.001"
    underline-thickness="20"
    underline-position="-123"
    unicode-range="U+0020-U+F002"
  />
<missing-glyph horiz-adv-x="500" 
d="M63 0v800h375v-800h-375zM125 63h250v675h-250v-675z" />
    <glyph glyph-name=".notdef" horiz-adv-x="500" 
d="M63 0v800h375v-800h-375zM125 63h250v675h-250v-675z" />
    <glyph glyph-name="space" unicode=" " horiz-adv-x="350" 
 />
    <glyph glyph-name="exclam" unicode="!" horiz-adv-x="256" 
d="M258 580l-23 -143l-60 -269h-70l24 269l23 143h106zM170 88l-14 -88h-88l14 88h88z" />
    <glyph glyph-name="quotedbl" unicode="&#x22;" horiz-adv-x="393" 
d="M392 580l-27 -170h-70l27 170h70zM217 580l-27 -170h-70l27 170h70z" />
    <glyph glyph-name="numbersign" unicode="#" horiz-adv-x="575" 
d="M562 410l-17 -64h-86l-29 -114h86l-16 -64h-86l-44 -168h-66l44 168h-116l-44 -168h-66l44 168h-84l16 64h84l29 114h-84l17 64h84l43 170h66l-43 -170h116l43 170h66l-43 -170h86zM393 346h-116l-29 -114h116z" />
    <glyph glyph-name="dollar" unicode="$" horiz-adv-x="510" 
d="M484 495l-9.99902 -67.999h-231c-14 0 -26.667 -5.16699 -38 -15.5s-18 -22.5 -20 -36.5c-2.66699 -16 1.33301 -28.333 12 -37s22.667 -13.334 36 -14.001l133 -3c32.667 -0.666992 59 -10.5 79 -29.5s30 -42.5 30 -70.5c0 -37.333 -14.167 -69.333 -42.5 -96
s-61.5 -40 -99.5 -40h-35l-27 -173h-54l27 173h-146l11 68h236c14 0 26.667 4.83301 38 14.5s18 21.5 20 35.5c4 32 -11.333 48.333 -46 49l-128 4c-34.667 1.33301 -62.334 11.833 -83.001 31.5s-31 44.167 -31 73.5c0 38 14.5 69.833 43.5 95.5s62.833 38.5 101.5 38.5h49
l27 165h54l-27 -165h121z" />
    <glyph glyph-name="percent" unicode="%" horiz-adv-x="621" 
d="M355 506l-11 -72c-8 -49.333 -36.667 -74 -86 -74h-72c-17.333 0 -32.833 7.83301 -46.5 23.5s-18.834 32.5 -15.501 50.5l11 72c8 49.333 36.667 74 86 74h72c19.333 0 35.333 -7.66699 48 -23s17.334 -32.333 14.001 -51zM640 580l-519 -625l-54 45l520 625zM562 126
l-12.002 -72c-7.33301 -49.333 -36 -74 -86 -74h-72c-17.333 0 -32.666 7.83301 -45.999 23.5s-18.666 32.5 -15.999 50.5l11 72c8 49.333 36.667 74 86 74h72c19.333 0 35.333 -7.5 48 -22.5s17.667 -32.167 15 -51.5zM295.998 509c1.33301 7.33301 -2 11 -10 11h-77
c-8 0 -12.333 -3.66699 -13 -11l-13 -78c-1.33301 -7.33301 2 -11 10 -11h77c8 0 12.667 3.66699 14 11zM501.998 129c1.33301 7.33301 -1.66699 11 -9 11h-78c-7.33301 0 -11.666 -3.66699 -12.999 -11l-12 -78c-1.33301 -7.33301 1.66699 -11 9 -11h78
c7.33301 0 11.666 3.66699 12.999 11z" />
    <glyph glyph-name="ampersand" unicode="&#x26;" horiz-adv-x="544" 
d="M503 255l-8.00391 -50.999c-6 -38 -21.667 -74.667 -47 -110l53 -71l-57 -48l-47 64c-38 -30 -78 -45 -120 -45h-99c-34.667 0 -62.5 10 -83.5 30s-31.5 46 -31.5 78c0 6.66699 0.666992 13.667 2 21l15 95c3.33301 22 11.833 41.833 25.5 59.5s29.5 28.834 47.5 33.501
c-17.333 12 -26 32.667 -26 62c0 4.66699 0.333008 9.33398 1 14.001l13 78c6 37.333 21.333 67.166 46 89.499s55.667 33.5 93 33.5h36c30.667 0 55.834 -9.66699 75.501 -29s29.5 -44 29.5 -74c0 -6.66699 -0.333008 -13.334 -1 -20.001l-9 -55h-70l10 65
c2.66699 14 0.333984 25.667 -6.99902 35s-17.666 14 -30.999 14h-45c-32 0 -50.667 -16.333 -56 -49l-11 -72c-1.33301 -8.66699 -2 -16.334 -2 -23.001c0 -25.333 12.333 -42.333 37 -51c34 -12.667 55.667 -25.667 65 -39l103 -146c10.667 18 17.334 36 20.001 54l9 57
h70zM354.996 88.001l-117 159c-9.33301 13.333 -21.333 20 -36 20c-12.667 0 -24 -4.66699 -34 -14s-16.333 -21.333 -19 -36l-16 -104c-2 -14 1 -26 9 -36s19 -15 33 -15h112c22 0 44.667 8.66699 68 26z" />
    <glyph glyph-name="quotesingle" unicode="'" horiz-adv-x="218" 
d="M217 580l-27 -170h-70l27 170h70z" />
    <glyph glyph-name="parenleft" unicode="(" horiz-adv-x="368" 
d="M395 648l-11 -68h-97c-46.667 0 -74 -24.333 -82 -73l-72 -454c-2.66699 -20 1.5 -37.167 12.5 -51.5s26.5 -21.5 46.5 -21.5h97l-11 -68h-90c-34 0 -63.333 12.667 -88 38s-37 55.333 -37 90c0 6 0.333008 12.333 1 19l72 453c6.66699 41.333 24.167 74.333 52.5 99
s63.5 37 105.5 37h101z" />
    <glyph glyph-name="parenright" unicode=")" horiz-adv-x="383" 
d="M371 501l-71 -451c-6.66699 -42 -24.334 -75.5 -53.001 -100.5s-64 -37.5 -106 -37.5h-100l11 68h97c21.333 0 39.333 6.83301 54 20.5s23.667 31.167 27 52.5l72 454c3.33301 20 -0.666992 37.167 -12 51.5s-26.666 21.5 -45.999 21.5h-97l11 68h87
c34.667 0 64.667 -12.667 90 -38s38 -55.333 38 -90c0 -6.66699 -0.666992 -13 -2 -19z" />
    <glyph glyph-name="asterisk" unicode="*" horiz-adv-x="508" 
d="M490 385l-126 -91l-1 -8l97 -91l-59 -51l-89 105l-3 -2l-15 -148h-72l31 148l-3 2l-121 -105l-43 51l125 91l1 8l-96 91l59 51l88 -105l4 2l15 150h72l-31 -150l2 -2l122 105z" />
    <glyph glyph-name="plus" unicode="+" horiz-adv-x="531" 
d="M514 325l-11 -70h-170l-27 -171h-70l27 171h-168l11 70h168l27 168h70l-27 -168h170z" />
    <glyph glyph-name="comma" unicode="," horiz-adv-x="268" 
d="M189 96l-9.00098 -59c-3.33301 -19.333 -10.666 -34.333 -21.999 -45l-88 -96l-26 23l62 79l1 8h-34c-6.66699 0 -9.33398 3.33301 -8.00098 10l12 80c1.33301 6.66699 5.33301 10 12 10h92c6.66699 0 9.33398 -3.33301 8.00098 -10z" />
    <glyph glyph-name="hyphen" unicode="-" horiz-adv-x="453" 
d="M401 323l-10 -66h-295l10 66h295z" />
    <glyph glyph-name="hyphen" unicode="&#x2010;" horiz-adv-x="453" 
d="M401 323l-10 -66h-295l10 66h295z" />
    <glyph glyph-name="period" unicode="." horiz-adv-x="260" 
d="M183 102l-14 -92c-1.33301 -6.66699 -5.33301 -10 -12 -10h-92c-6.66699 -0 -9.33398 3.33301 -8.00098 10l14 92c1.33301 6.66699 5.33301 10 12 10h92c6.66699 0 9.33398 -3.33301 8.00098 -10z" />
    <glyph glyph-name="slash" unicode="/" horiz-adv-x="469" 
d="M502 653l-447 -767l-63 31l447 767z" />
    <glyph glyph-name="zero" unicode="0" 
d="M508 453l-52 -331c-5.33301 -35.333 -20.833 -64.5 -46.5 -87.5s-54.5 -34.5 -86.5 -34.5h-156c-34 0 -62.5 11 -85.5 33s-34.5 49.333 -34.5 82c0 6 0.333008 12.333 1 19l50 323c12.667 82 61.667 123 147 123h156c28 0 53 -11.333 75 -34s33 -48.667 33 -78
c0 -5.33301 -0.333008 -10.333 -1 -15zM439 459c2 14 -1.00098 26.333 -9.00098 37s-18.667 16 -32 16h-171c-33.333 0 -52.666 -17.667 -57.999 -53l-54 -338c-2 -14 1.5 -26.333 10.5 -37s20.5 -16 34.5 -16h159c16 0 30.5 4.83301 43.5 14.5s20.833 22.5 23.5 38.5z
M322.999 319l-10 -59c-0.666992 -6.66699 -4.33398 -10 -11.001 -10h-59c-6.66699 0 -9.66699 3.33301 -9 10l10 59c0.666992 6.66699 4.33398 10 11.001 10h59c6.66699 0 9.66699 -3.33301 9 -10z" />
    <glyph glyph-name="one" unicode="1" horiz-adv-x="461" 
d="M341 64l-10 -64h-256l10 64h92l65 409l-68 -55l-34 42l130 120h59l-82 -516h94z" />
    <glyph glyph-name="two" unicode="2" 
d="M507 453l-5 -36.999c-4.66699 -44.667 -37 -88.334 -97 -131.001l-167 -102c-60.667 -38 -93.667 -73.667 -99 -107l-2 -8h314l-10 -68h-392l10 64c8 52.667 43 102.667 105 150c6 4 62.333 39 169 105c60.667 37.333 93 70.333 97 99l7 41c2 14 -1.16699 26.333 -9.5 37
s-19.166 16 -32.499 16h-143c-34 0 -53.667 -17.667 -59 -53l-5 -34h-72l4 31c4 37.333 19.167 67.333 45.5 90s58.166 34 95.499 34h133c37.333 0 66.5 -12.167 87.5 -36.5s29.5 -54.5 25.5 -90.5z" />
    <glyph glyph-name="three" unicode="3" 
d="M503 449l-9.00098 -67.002c-4 -34 -22.333 -64.667 -55 -92c18 -20.667 27 -45 27 -73c0 -6.66699 -0.333008 -13 -1 -19l-12 -78c-6 -36 -21.333 -65 -46 -87s-54.667 -33 -90 -33h-148c-30.667 0 -57.834 10.833 -81.501 32.5s-35.5 47.834 -35.5 78.501
c0 5.33301 0.666992 10.666 2 15.999l4 28h70l-5 -34c-2.66699 -14 0.166016 -26.333 8.49902 -37s19.166 -16 32.499 -16h160c14 0 26.667 5 38 15s18.333 22.667 21 38l13 83c2 12.667 -0.166992 24.334 -6.5 35.001s-15.166 16 -26.499 16h-142l11 70h143
c10.667 0 20.834 5.33301 30.501 16s15.5 22.334 17.5 35.001l13 83c2.66699 14 -0.166016 26.333 -8.49902 37s-19.166 16 -32.499 16h-160c-33.333 0 -53 -17.667 -59 -53l-6 -42h-70l5 43c4 36 20 65 48 87s61.333 33 100 33h138c32.667 0 59.667 -11 81 -33
s32 -49 32 -81c0 -5.33301 -0.333008 -11 -1 -17z" />
    <glyph glyph-name="four" unicode="4" 
d="M488 223l-11 -68h-68l-25 -155h-72l25 155h-268l21 135l321 290h65l-56 -357h68zM387 473l-230 -207l-7 -43h198z" />
    <glyph glyph-name="five" unicode="5" 
d="M503 580l-10.999 -68.0029h-288l-25 -134l180 4c35.333 0.666992 64.666 -11 87.999 -35c21.333 -22.667 32 -50.667 32 -84c0 -7.33301 -0.333008 -14.666 -1 -21.999l-19 -121c-6 -35.333 -21.333 -64.166 -46 -86.499s-53.667 -33.5 -87 -33.5h-151
c-35.333 0 -64.5 10 -87.5 30s-34.5 46 -34.5 78c0 6 0.666992 12.333 2 19l4 28h70l-5 -34c-2 -14 1 -26.333 9 -37s19 -16 33 -16h165c13.333 0 25.833 5.33301 37.5 16s18.5 23 20.5 37l20 128c1.33301 4.66699 2 9.33398 2 14.001c0 34.667 -15.333 51.667 -46 51
l-267 -4l51 270h354z" />
    <glyph glyph-name="six" unicode="6" 
d="M483 191l-12.001 -71.001c-6.66699 -37.333 -21.667 -66.666 -45 -87.999s-53 -32 -89 -32h-146c-35.333 0 -64 10.667 -86 32s-33 47 -33 77c0 6 0.333008 12 1 18l35 222c11.333 72.667 41.333 129.667 90 171c46.667 40 103.334 60 170.001 60h64l-11 -68h-61
c-47.333 0 -87.5 -14.667 -120.5 -44s-53.5 -68.333 -61.5 -117l-4 -26h197c30.667 0 57.167 -11.5 79.5 -34.5s33.5 -50.167 33.5 -81.5c0 -6 -0.333008 -12 -1 -18zM413.999 203.999c2.66699 14 -0.166992 26.333 -8.5 37s-19.166 16 -32.499 16h-209l-22 -136
c-2 -14 1 -26.333 9 -37s19 -16 33 -16h159c33.333 0 52.666 17.667 57.999 53z" />
    <glyph glyph-name="seven" unicode="7" horiz-adv-x="524" 
d="M475 580c0 -13.333 -1.33301 -34.666 -4 -63.999c-6.66699 -38.667 -32 -79 -76 -121l-121 -104c-43.333 -40.667 -67.333 -78.334 -72 -113.001l-24 -178h-74l24 175c6 45.333 30.667 90.333 74 135c10 10 49 43.667 117 101c42 35.333 65 64 69 86l2 15h-309l11 68h383
z" />
    <glyph glyph-name="eight" unicode="8" 
d="M509 453l-10 -71.002c-6 -38 -25.667 -68.667 -59 -92c20.667 -20 31 -44.667 31 -74c0 -6 -0.666992 -12 -2 -18l-11 -75c-6 -38 -21.333 -68 -46 -90s-55.334 -33 -92.001 -33h-153c-34.667 0 -63.5 10.833 -86.5 32.5s-34.5 48.834 -34.5 81.501
c0 6.66699 0.666992 13.667 2 21l10 63c6 36.667 25 67.334 57 92.001c-19.333 18.667 -29 43 -29 73c0 6.66699 0.333008 13 1 19l13 77c12.667 80.667 61.334 121 146.001 121h157c28.667 0 53.667 -10.833 75 -32.5s32 -47.834 32 -78.501
c0 -5.33301 -0.333008 -10.666 -1 -15.999zM441 458.998c2 14 -0.999023 26.333 -8.99902 37s-19 16 -33 16h-171c-33.333 0 -53 -17.667 -59 -53l-13 -83c-2 -12.667 0.166992 -24.334 6.5 -35.001s15.166 -16 26.499 -16h190c11.333 0 21.833 5.33301 31.5 16
s15.5 22.334 17.5 35.001zM400.001 203.998c2 12.667 0.000976562 24.334 -5.99902 35.001s-14.667 16 -26 16h-190c-11.333 0 -21.833 -5.33301 -31.5 -16s-15.5 -22.334 -17.5 -35.001l-13 -83c-2 -14 1 -26.333 9 -37s19 -16 33 -16h171
c33.333 0 52.666 17.667 57.999 53z" />
    <glyph glyph-name="nine" unicode="9" 
d="M483 449l-33.001 -211c-11.333 -72.667 -41 -130.5 -89 -173.5s-105 -64.5 -171 -64.5h-64l10 68h61c44.667 0 84.334 15.5 119.001 46.5s55.667 69.167 63 114.5l4 26h-190c-36 0 -65.333 9.83301 -88 29.5s-34 45.5 -34 77.5c0 6 0.333008 12 1 18l11 77
c6 38.667 22 68.834 48 90.501s59.333 32.5 100 32.5h138c34.667 0 62.667 -10.5 84 -31.5s32 -47.5 32 -79.5c0 -6.66699 -0.666992 -13.334 -2 -20.001zM414.999 459c2.66699 14 -0.168945 26.333 -8.50195 37s-19.166 16 -32.499 16h-162
c-33.333 0 -52.666 -17.667 -57.999 -53l-13 -83c-2.66699 -16 0.5 -28.833 9.5 -38.5s20.833 -14.5 35.5 -14.5h208z" />
    <glyph glyph-name="colon" unicode=":" horiz-adv-x="249" 
d="M230 400l-14 -92c-1.33301 -6.66699 -5.33301 -10 -12 -10h-92c-6.66699 0 -9.33398 3.33301 -8.00098 10l14 92c1.33301 6.66699 5.33301 10 12 10h92c6.66699 0 9.33398 -3.33301 8.00098 -10zM183 102l-14 -92c-1.33301 -6.66699 -5.33301 -10 -12 -10h-92
c-6.66699 -0 -9.33398 3.33301 -8.00098 10l14 92c1.33301 6.66699 5.33301 10 12 10h92c6.66699 0 9.33398 -3.33301 8.00098 -10z" />
    <glyph glyph-name="semicolon" unicode=";" horiz-adv-x="246" 
d="M230 400l-14 -92c-1.33301 -6.66699 -5.33301 -10 -12 -10h-92c-6.66699 0 -9.33398 3.33301 -8.00098 10l14 92c1.33301 6.66699 5.33301 10 12 10h92c6.66699 0 9.33398 -3.33301 8.00098 -10zM182 96l-9.00098 -59c-3.33301 -19.333 -10.666 -34.333 -21.999 -45
l-88 -96l-26 23l62 79l1 8h-34c-6.66699 0 -9.33398 3.33301 -8.00098 10l12 80c1.33301 6.66699 5.33301 10 12 10h92c6.66699 0 9.33398 -3.33301 8.00098 -10z" />
    <glyph glyph-name="less" unicode="&#x3c;" horiz-adv-x="375" 
d="M377 419l-221 -191l-1 -7l161 -192l-58 -49l-182 217l9 55l251 216z" />
    <glyph glyph-name="equal" unicode="=" horiz-adv-x="445" 
d="M433 395l-11 -66h-315l11 66h315zM410 251l-11 -66h-315l11 66h315z" />
    <glyph glyph-name="greater" unicode="&#x3e;" horiz-adv-x="389" 
d="M351 252l-9 -55l-251 -217l-41 49l221 192l1 7l-161 191l58 49z" />
    <glyph glyph-name="question" unicode="?" horiz-adv-x="526" 
d="M523 453l-4.00391 -39c-3.33301 -30.667 -21.333 -60 -54 -88l-89 -65c-32.667 -24 -50.667 -46 -54 -66l-6 -40h-72l7 45c4 28 22.333 55.667 55 83l89.5 65.5c30.333 22.333 47.166 42.833 50.499 61.5l7 47c2.66699 14 -0.166016 26.333 -8.49902 37
s-19.166 16 -32.499 16h-154c-33.333 0 -52.666 -17.667 -57.999 -53l-5 -32h-73l4 22c6.66699 42.667 22.834 75.5 48.501 98.5s58.167 34.5 97.5 34.5h146c30 0 55.833 -13.167 77.5 -39.5s30.834 -55.5 27.501 -87.5zM312.996 88l-10 -88h-88l10 88h88z" />
    <glyph glyph-name="at" unicode="@" horiz-adv-x="686" 
d="M605 453l-58.999 -369h-133c-32 0 -58.5 9.83301 -79.5 29.5s-31.5 44.5 -31.5 74.5c0 6.66699 0.666992 13 2 19l14 90c4.66699 32 18.667 58.167 42 78.5s51.666 30.5 84.999 30.5h82l9 53c5.33301 35.333 -8.66699 53 -42 53h-168c-33.333 0 -53 -17.667 -59 -53
l-67 -426c-2 -14 1 -26.333 9 -37s18.667 -16 32 -16h204l-10 -68h-189c-32.667 0 -60.167 10.833 -82.5 32.5s-33.5 48.5 -33.5 80.5c0 6.66699 0.666992 13.334 2 20.001l66 418c5.33301 34 20.833 62 46.5 84s56.167 33 91.5 33h158c32.667 0 59.5 -10.333 80.5 -31
s31.5 -46.334 31.5 -77.001c0 -6 -0.333008 -12.333 -1 -19zM516.001 338h-74.001c-32.667 0 -51 -14.667 -55 -44l-14 -91c-5.33301 -34 8.33398 -51 41.001 -51l73 -1z" />
    <glyph glyph-name="A" unicode="A" horiz-adv-x="553" 
d="M521 357l-55.999 -356.999h-71l30 192h-267l-31 -192h-71l56 357c4 24 8.66699 41.167 14 51.5s16.666 23.166 33.999 38.499l155 133h76l112 -133c14.667 -17.333 22 -38 22 -62c0 -8.66699 -1 -18 -3 -28zM449.001 351.001c3.33301 22 0.666016 38.667 -8.00098 50
l-94 117h-8l-132 -117c-13.333 -11.333 -21.666 -28 -24.999 -50l-15 -96h267z" />
    <glyph glyph-name="B" unicode="B" horiz-adv-x="539" 
d="M521 451l-10.001 -61.998c-8 -50.667 -30.333 -83 -67 -97c26.667 -12.667 40 -34.667 40 -66c0 -6.66699 -0.666992 -13.667 -2 -21l-14 -88c-5.33301 -34.667 -21.166 -62.834 -47.499 -84.501s-57.5 -32.5 -93.5 -32.5h-272l92 580h258c34 0 62 -10.167 84 -30.5
s33 -46.5 33 -78.5c0 -6.66699 -0.333008 -13.334 -1 -20.001zM449.999 459.002c2 16.667 -0.833008 30.166 -8.5 40.499s-19.167 15.5 -34.5 15.5h-201l-30 -188h192c22.667 0 39.167 4.83301 49.5 14.5s17.5 25.834 21.5 48.501zM407.999 195.001
c1.33301 9.33301 2.00098 17.333 2.00098 24c0 28 -15.667 42 -47 42h-198l-31 -197h198c15.333 0 29.166 5.33301 41.499 16s19.833 24 22.5 40z" />
    <glyph glyph-name="C" unicode="C" horiz-adv-x="524" 
d="M534 447l-3.00195 -21.999h-73l5 32c2.66699 14 -0.166016 26.333 -8.49902 37s-19.166 16 -32.499 16h-167c-13.333 0 -25.333 -4.83301 -36 -14.5s-17 -21.5 -19 -35.5l-52 -332c-0.666992 -4 -1 -8 -1 -12c0 -31.333 14.667 -47 44 -47h166c30 0 47.667 17.667 53 53
l6 34h72l-6 -42c-5.33301 -36 -20.333 -64 -45 -84s-56.667 -30 -96 -30h-151c-34.667 0 -62.5 10.667 -83.5 32s-31.5 48.666 -31.5 81.999c0 7.33301 0.666992 15 2 23l50 319c6 38 22 68.167 48 90.5s58 33.5 96 33.5h154c31.333 0 57.5 -11.833 78.5 -35.5
s31.5 -50.5 31.5 -80.5c0 -6 -0.333008 -11.667 -1 -17z" />
    <glyph glyph-name="D" unicode="D" horiz-adv-x="557" 
d="M536 445l-51 -325.999c-6 -36.667 -21.667 -65.667 -47 -87s-56 -32 -92 -32h-291l92 580h278c32.667 0 59.667 -10.833 81 -32.5s32 -48.834 32 -81.501c0 -6.66699 -0.666992 -13.667 -2 -21zM466 459.001c2 14 -1.16699 26.333 -9.5 37s-19.166 16 -32.499 16h-218
l-70 -444h218c33.333 0 52.666 17.667 57.999 53z" />
    <glyph glyph-name="E" unicode="E" horiz-adv-x="461" 
d="M493 580l-11 -68h-276l-30 -188h214l-11 -69h-214l-29 -187h276l-11 -68h-346l92 580h346z" />
    <glyph glyph-name="F" unicode="F" horiz-adv-x="454" 
d="M487 580l-11 -68h-270l-30 -188h208l-11 -69h-208l-40 -255h-70l92 580h340z" />
    <glyph glyph-name="G" unicode="G" horiz-adv-x="545" 
d="M536 448l-3 -22.999h-73l6 36c2 14 -1 26.333 -9 37s-19 16 -33 16h-165c-33.333 0 -53 -17.667 -59 -53l-53 -339c-2.66699 -14 0.5 -26.333 9.5 -37s20.833 -16 35.5 -16h158c36 0 56.667 17.667 62 53l22 135h-119l11 67h191l-32 -201
c-6 -38.667 -21.333 -68.834 -46 -90.501s-54.667 -32.5 -90 -32.5h-157c-35.333 -0 -63.666 10.833 -84.999 32.5s-32 49.167 -32 82.5c0 8 0.666992 16.333 2 25l51 320c6 36.667 22 65.834 48 87.501s57 32.5 93 32.5h155c33.333 0 60.666 -10.5 81.999 -31.5
s32 -47.833 32 -80.5c0 -6.66699 -0.666992 -13.334 -2 -20.001z" />
    <glyph glyph-name="H" unicode="H" 
d="M555 580l-92 -580h-70l41 255h-268l-41 -255h-70l92 580h70l-41 -256h269l40 256h70z" />
    <glyph glyph-name="I" unicode="I" horiz-adv-x="372" 
d="M387 580l-11 -66h-84l-71 -448h84l-10 -66h-240l10 66h85l71 448h-85l11 66h240z" />
    <glyph glyph-name="J" unicode="J" horiz-adv-x="500" 
d="M514 580l-10.998 -67.998h-83l-62 -389c-6 -38.667 -21.333 -68.834 -46 -90.501s-55.334 -32.5 -92.001 -32.5h-78c-34 0 -62.167 10.167 -84.5 30.5s-33.5 46.166 -33.5 77.499c0 6 0.333008 12.333 1 19l5 29h70l-6 -38c-2.66699 -14 0.166016 -25.833 8.49902 -35.5
s19.5 -14.5 33.5 -14.5h93c32.667 0 52 18 58 54l62 390h-91l11 68h245z" />
    <glyph glyph-name="K" unicode="K" horiz-adv-x="532" 
d="M548 533l-228 -207l153 -294l-72 -43l-144 287l-101 -97l-28 -179h-73l92 580h73l-45 -284h10l318 291z" />
    <glyph glyph-name="L" unicode="L" horiz-adv-x="433" 
d="M400 68l-11 -68h-334l92 580h74l-81 -512h260z" />
    <glyph glyph-name="M" unicode="M" horiz-adv-x="596" 
d="M595 580l-92 -580h-72l73 459l-152 -152h-48l-104 152l-73 -459h-72l92 580h61l128 -195h8l190 195h61z" />
    <glyph glyph-name="N" unicode="N" horiz-adv-x="554" 
d="M553 580l-92 -580h-72l28 176l-217 287l-73 -463h-72l92 580h64l223 -298l47 298h72z" />
    <glyph glyph-name="O" unicode="O" horiz-adv-x="574" 
d="M554 445l-52 -327c-12.667 -78.667 -58.334 -118 -137.001 -118h-171c-34.667 0 -63.167 10.5 -85.5 31.5s-33.5 48.167 -33.5 81.5c0 7.33301 0.666992 15 2 23l52 328c5.33301 34.667 20.833 62.667 46.5 84s57.167 32 94.5 32h169c32.667 0 60.334 -11.5 83.001 -34.5
s34 -50.5 34 -82.5c0 -6 -0.666992 -12 -2 -18zM485 455c2.66699 15.333 -0.166016 28.667 -8.49902 40s-20.5 17 -36.5 17h-188c-13.333 0 -25 -4.66699 -35 -14s-16.333 -21 -19 -35l-53 -340c-0.666992 -4 -1 -8 -1 -12c0 -28.667 15.333 -43 46 -43h184
c33.333 0 52.666 16 57.999 48z" />
    <glyph glyph-name="P" unicode="P" horiz-adv-x="513" 
d="M518 453l-11.001 -76c-5.33301 -38.667 -20.666 -68.667 -45.999 -90s-57.333 -32 -96 -32h-200l-40 -255h-70l92 580h257c34 0 61.667 -10.333 83 -31s32 -46.667 32 -78c0 -6 -0.333008 -12 -1 -18zM449.999 461c2.66699 14 -0.166992 26.333 -8.5 37
s-19.166 16 -32.499 16h-203l-30 -192h202c33.333 0 52.666 16.333 57.999 49z" />
    <glyph glyph-name="Q" unicode="Q" horiz-adv-x="573" 
d="M555 445l-27.001 -172c-6 -40.667 -23.667 -74.667 -53 -102l-48 -45l75 -89l-58 -50l-71 88l-48 -43c-24 -21.333 -49.667 -32 -77 -32h-58c-33.333 0 -60.833 11 -82.5 33s-32.5 49 -32.5 81c0 7.33301 0.666992 14.333 2 21l51 323c6 37.333 21.833 67 47.5 89
s56.834 33 93.501 33h168c33.333 0 61.5 -11.167 84.5 -33.5s34.5 -49.833 34.5 -82.5c0 -6 -0.333008 -12.333 -1 -19zM487.999 457c2 14 -1.33203 26.667 -9.99902 38s-20 17 -34 17h-190c-14.667 0 -27.167 -5 -37.5 -15s-16.5 -22 -18.5 -36l-54 -340
c-2 -15.333 1 -28 9 -38s19.667 -15 35 -15h55c19.333 0 34.666 5 45.999 15l43 40l-59 68l57 50l56 -67l45 39c14 12 22.667 30 26 54z" />
    <glyph glyph-name="R" unicode="R" horiz-adv-x="551" 
d="M529 449l-9 -62c-6.66699 -49.333 -29.667 -82 -69 -98c27.333 -10.667 41 -33.667 41 -69c0 -6 -0.333008 -11.667 -1 -17l-32 -203h-72l30 193c1.33301 7.33301 2 14 2 20c0 28 -16 42 -48 42h-207l-40 -255h-69l92 580h267c33.333 0 61 -10.667 83 -32s33 -48 33 -80
c0 -6.66699 -0.333008 -13 -1 -19zM460 461c2 16 -1.16699 29.333 -9.5 40s-20.833 16 -37.5 16h-207l-30 -192h202c23.333 0 39.833 4 49.5 12s16.167 23 19.5 45z" />
    <glyph glyph-name="S" unicode="S" horiz-adv-x="530" 
d="M517 449l-3.99902 -21.002h-70l5 31c5.33301 35.333 -8.66699 53 -42 53h-156c-14.667 0 -27.5 -4.83301 -38.5 -14.5s-17.5 -21.5 -19.5 -35.5l-13 -84c-2 -14 1 -26.167 9 -36.5s18.667 -15.833 32 -16.5l157 -4c32 -0.666992 58.167 -10.667 78.5 -30
s30.5 -44.333 30.5 -75c0 -7.33301 -0.666992 -14.666 -2 -21.999l-13 -79c-6 -35.333 -21.333 -63.666 -46 -84.999s-55.334 -32 -92.001 -32h-150c-34 0 -62.5 10.167 -85.5 30.5s-34.5 46.166 -34.5 77.499c0 6.66699 0.666992 13 2 19l4 24h70l-5 -30
c-2 -14 1 -26.333 9 -37s18.667 -16 32 -16h169c33.333 0 52.666 17.667 57.999 53l13 80c2 14 -1 26.167 -9 36.5s-19 15.833 -33 16.5l-156 5c-29.333 0.666992 -54.833 11.834 -76.5 33.501s-32.5 48.167 -32.5 79.5c0 6 0.666992 12.333 2 19l12 75
c5.33301 34.667 20.833 62.667 46.5 84s56.834 32 93.501 32h142c32.667 0 60 -10.833 82 -32.5s33 -47.5 33 -77.5c0 -7.33301 -0.666992 -14.333 -2 -21z" />
    <glyph glyph-name="T" unicode="T" horiz-adv-x="517" 
d="M545 580l-11 -68h-176l-81 -512h-77l81 512h-175l11 68h428z" />
    <glyph glyph-name="U" unicode="U" horiz-adv-x="555" 
d="M555 580l-72.999 -461.999c-6 -37.333 -21.333 -66.333 -46 -87s-55.334 -31 -92.001 -31h-152c-34 0 -62 10.667 -84 32s-33 48.666 -33 81.999c0 7.33301 0.666992 15 2 23l70 443h74l-73 -459c-2 -14 1 -26.333 9 -37s19 -16 33 -16h160c33.333 0 53 17.667 59 53
l72 459h74z" />
    <glyph glyph-name="V" unicode="V" horiz-adv-x="553" 
d="M557 580l-56 -353c-6 -36.667 -22 -66.667 -48 -90l-155 -137h-76l-112 137c-14.667 18 -22 38 -22 60c0 8 1 18 3 30l56 353h73l-55 -349c-3.33301 -22 -0.333008 -38.667 9 -50l91 -117h8l131 117c12.667 11.333 20.667 28 24 50l56 349h73z" />
    <glyph glyph-name="W" unicode="W" horiz-adv-x="628" 
d="M629 580l-61 -385c-4.66699 -30 -21 -62.667 -49 -98l-77 -97h-74l-51 115h-6l-87 -115h-74l-46 97c-13.333 28 -20 52.667 -20 74c0 7.33301 0.666992 15.333 2 24l61 385h73l-61 -385c-3.33301 -20 -1 -39.333 7 -58l28 -67h10l64 81c14 16.667 22 32.334 24 47.001
l36 222h70l-35 -222c-2.66699 -14.667 0.333008 -30.334 9 -47.001l38 -81h10l49 67c14 18.667 22.667 38 26 58l61 385h73z" />
    <glyph glyph-name="X" unicode="X" horiz-adv-x="548" 
d="M552 580l-20.001 -123.002c-5.33301 -35.333 -24.666 -65.666 -57.999 -90.999l-106 -82l84 -73c19.333 -16.667 29 -37 29 -61c0 -9.33301 -1.33301 -20.666 -4 -33.999l-18 -116h-73l17 108c2 13.333 3 23 3 29c0 10 -5.66699 20 -17 30l-97 84h-7l-109 -84
c-17.333 -14 -28 -35 -32 -63l-17 -104h-72l17 108c4 26 9.66699 46 17 60s20.333 28 39 42l111 85l-85 74c-19.333 16.667 -29 37.667 -29 63c0 8 1 17.333 3 28l19 120h72l-19 -116c-3.33301 -22 1 -38 13 -48l101 -87h8l106 84c18 14 28.667 31 32 51l19 116h73z" />
    <glyph glyph-name="Y" unicode="Y" horiz-adv-x="529" 
d="M551 580l-23.999 -148.002c-5.33301 -35.333 -21 -64.666 -47 -87.999l-154 -137l-33 -207h-72l33 207l-111 137c-14.667 18.667 -22 38.334 -22 59.001c0 8 0.666992 17.667 2 29l24 148h70l-23 -144c-3.33301 -20.667 -0.333008 -36.667 9 -48l89 -115h14l126 115
c13.333 11.333 21.666 27.333 24.999 48l23 144h71z" />
    <glyph glyph-name="Z" unicode="Z" horiz-adv-x="514" 
d="M539 580l-9 -58l-368 -454h296l-11 -68h-392l9 58l367 454h-295l11 68h392z" />
    <glyph glyph-name="bracketleft" unicode="[" horiz-adv-x="367" 
d="M394 648l-11 -68h-166l-95 -600h166l-11 -68h-236l117 736h236z" />
    <glyph glyph-name="backslash" unicode="\" horiz-adv-x="421" 
d="M386 -83l-74 -31l-204 767l74 31z" />
    <glyph glyph-name="bracketright" unicode="]" horiz-adv-x="383" 
d="M394 648l-117 -736h-236l11 68h166l95 600h-166l11 68h236z" />
    <glyph glyph-name="asciicircum" unicode="^" horiz-adv-x="401" 
d="M398 459l-55 -32l-82 95h-7l-112 -95l-44 32l141 121h55z" />
    <glyph glyph-name="underscore" unicode="_" horiz-adv-x="441" 
d="M350 0l-10 -66h-375l10 66h375z" />
    <glyph glyph-name="grave" unicode="`" horiz-adv-x="256" 
d="M239 430h-64l-38 150h64z" />
    <glyph glyph-name="a" unicode="a" horiz-adv-x="510" 
d="M464 278l-45 -279.002h-70l13 79l-57 -47c-25.333 -20.667 -51.333 -31 -78 -31h-61c-32 0 -58.667 10.333 -80 31s-32 46.334 -32 77.001c0 6.66699 0.666992 13.334 2 20.001l25 161c6.66699 38.667 23 68.5 49 89.5s58.667 31.5 98 31.5h123c32 0 59 -11 81 -33
s33 -48.667 33 -80c0 -6.66699 -0.333008 -13 -1 -19zM396 291.998c2 13.333 -1.16797 25 -9.50098 35s-19.166 15 -32.499 15h-144c-14 0 -26.667 -5 -38 -15s-18 -22 -20 -36l-28 -175c-2 -14 1 -25.833 9 -35.5s19 -14.5 33 -14.5h61c21.333 0 42.333 8.33301 63 25
l85 69z" />
    <glyph glyph-name="b" unicode="b" horiz-adv-x="529" 
d="M494 283l-25.001 -156c-6 -38.667 -22.167 -69.5 -48.5 -92.5s-59.166 -34.5 -98.499 -34.5h-125c-38 -0 -68 10.333 -90 31s-33 47.334 -33 80.001c0 7.33301 0.666992 14.666 2 21.999l71 447h70l-40 -248l55 46c25.333 21.333 51 32 77 32h78
c30 0 55.5 -10.667 76.5 -32s31.5 -47 31.5 -77c0 -6 -0.333008 -12 -1 -18zM424.999 294c2.66699 14 -0.166992 25.833 -8.5 35.5s-19.5 14.5 -33.5 14.5h-73c-20 0 -39.333 -7.66699 -58 -23l-87 -70l-20 -126c-0.666992 -4.66699 -1 -9 -1 -13c0 -32 20.667 -48 62 -48
h133c14 0 26.667 4.83301 38 14.5s18 21.5 20 35.5z" />
    <glyph glyph-name="c" unicode="c" horiz-adv-x="506" 
d="M479 289l-5.00098 -35.002h-70l6 38c0.666992 4.66699 1 9 1 13c0 24.667 -14.667 37 -44 37h-140c-13.333 0 -25.333 -4.83301 -36 -14.5s-17.334 -21.5 -20.001 -35.5l-27 -174c-2 -13.333 0.833008 -25 8.5 -35s18.834 -15 33.501 -15h219l-11 -68h-212
c-31.333 0 -57.166 10.667 -77.499 32s-30.5 47 -30.5 77c0 6.66699 0.333008 13.334 1 20.001l25 154c6 38.667 21.833 69.5 47.5 92.5s58.167 34.5 97.5 34.5h126c33.333 0 60 -9 80 -27s30 -42 30 -72c0 -7.33301 -0.666992 -14.666 -2 -21.999z" />
    <glyph glyph-name="d" unicode="d" horiz-adv-x="533" 
d="M532 580l-69.998 -446.998c-6.66699 -41.333 -24.834 -73.833 -54.501 -97.5s-65.834 -35.5 -108.501 -35.5h-125c-32.667 0 -59 9.66699 -79 29s-30 44.666 -30 75.999c0 7.33301 0.666992 14.666 2 21.999l24 156c6 36 23 66.167 51 90.5s60.333 36.5 97 36.5h77
c26 0 48.333 -10.667 67 -32l41 -46l39 248h69zM410.002 251.002l-63.999 70c-9.33301 10 -16.833 16.333 -22.5 19s-15.5 4 -29.5 4h-73c-14 0 -26.667 -4.83301 -38 -14.5s-18 -21.5 -20 -35.5l-28 -180c-2.66699 -14 0.166016 -25.833 8.49902 -35.5
s19.5 -14.5 33.5 -14.5h133c47.333 0 74 20.333 80 61z" />
    <glyph glyph-name="e" unicode="e" horiz-adv-x="509" 
d="M477 276l-25 -66.998l-313 -67l-4 -26c-2 -14 1 -25.833 9 -35.5s19 -14.5 33 -14.5h215l-10 -66h-208c-32.667 0 -59 9.66699 -79 29s-30 44.666 -30 75.999c0 7.33301 0.666992 14.666 2 21.999l24 156c6.66699 39.333 23 70.333 49 93s59 34 99 34h126
c32.667 0 60.667 -12.333 84 -37c21.333 -22 32 -46.333 32 -73c0 -8.66699 -1.33301 -16.667 -4 -24zM411 291.002c1.33301 4 2 8 2 12c0 10.667 -4.33301 19.667 -13 27s-19 11 -31 11h-148c-14 0 -26.667 -4.83301 -38 -14.5s-18 -21.5 -20 -35.5l-14 -85l251 54z" />
    <glyph glyph-name="f" unicode="f" horiz-adv-x="462" 
d="M492 580l-11.001 -68h-161c-13.333 0 -25.666 -4.83301 -36.999 -14.5s-18.333 -21.5 -21 -35.5l-19 -120h112l-11 -69h-112l-57 -361h-70l57 361h-84l11 69h84l19 117c6 36.667 22.333 66 49 88s58.667 33 96 33h155z" />
    <glyph glyph-name="g" unicode="g" horiz-adv-x="529" 
d="M483 278l-37.998 -239.001c-6 -38 -22.667 -68.667 -50 -92s-59.666 -35 -96.999 -35h-173l11 68h180c14 0 26.667 4.83301 38 14.5s18 21.5 20 35.5l6 38h-177c-35.333 0 -64 9.83301 -86 29.5s-33 45.167 -33 76.5c0 6.66699 0.666992 13.334 2 20.001l15 95
c5.33301 36.667 21.666 66 48.999 88s59.666 33 96.999 33h124c33.333 0 60.666 -10.5 81.999 -31.5s32 -47.5 32 -79.5c0 -6.66699 -0.666992 -13.667 -2 -21zM415.002 291.999c2 13.333 -1.16699 25 -9.5 35s-19.166 15 -32.499 15h-144c-13.333 0 -25.833 -5 -37.5 -15
s-18.5 -22 -20.5 -36l-16 -104c-2.66699 -14 0.166016 -25.833 8.49902 -35.5s19.5 -14.5 33.5 -14.5h194z" />
    <glyph glyph-name="h" unicode="h" horiz-adv-x="526" 
d="M488 280l-44.0029 -280.003h-70l45 293c2 14 -1.16699 25.833 -9.5 35.5s-19.166 14.5 -32.499 14.5h-64c-20 0 -39.667 -7.66699 -59 -23l-89 -70l-40 -250h-70l92 580h69l-39 -248l58 46c26.667 20.667 52.334 31.334 77.001 32.001h67
c32.667 0 59.334 -10.167 80.001 -30.5s31 -46.166 31 -77.499c0 -7.33301 -0.666992 -14.666 -2 -21.999z" />
    <glyph glyph-name="i" unicode="i" horiz-adv-x="320" 
d="M258 580l-12 -76h-76l12 76h76zM260 64l-10 -64h-156l55 344h-84l10 66h155l-55 -346h85z" />
    <glyph glyph-name="j" unicode="j" horiz-adv-x="274" 
d="M280 580l-12 -76h-76l12 76h76zM254 410l-58.999 -371c-6 -36.667 -22.667 -67 -50 -91s-59.333 -36 -96 -36h-138l11 68h143c13.333 0 25.666 4.83301 36.999 14.5s18.333 21.5 21 35.5l60 380h71z" />
    <glyph glyph-name="k" unicode="k" horiz-adv-x="483" 
d="M479 370l-175 -151l123 -182l-62 -47l-119 182l-109 -95l-12 -77h-70l92 580h70l-64 -401h3l276 244z" />
    <glyph glyph-name="l" unicode="l" horiz-adv-x="298" 
d="M233 64l-10 -64h-154l81 517h-85l10 63h155l-81 -516h84z" />
    <glyph glyph-name="m" unicode="m" horiz-adv-x="701" 
d="M653 278l-41.9961 -278.001h-72l44 294c5.33301 33.333 -6.33398 50 -35.001 50h-21c-12.667 0 -21.667 -1.33301 -27 -4c-1.33301 -0.666992 -9.33301 -7 -24 -19l-60 -48l-41 -273h-72l44 294c5.33301 33.333 -6.33398 50 -35.001 50h-10
c-12 0 -23.667 -4.33301 -35 -13l-100 -80l-38 -251h-72l63 410h72l-13 -78l58 46c27.333 21.333 50.666 32 69.999 32h15c46 0 76.333 -23.333 91 -70l44 38c24.667 20.667 48 31.334 70 32.001h26c31.333 0.666992 56.166 -9.5 74.499 -30.5s27.5 -47.167 27.5 -78.5
c0 -7.33301 -0.666992 -15 -2 -23z" />
    <glyph glyph-name="n" unicode="n" horiz-adv-x="534" 
d="M487 281l-43.001 -281h-70l45 293c2 14 -1 25.833 -9 35.5s-19 14.5 -33 14.5h-64c-20 0 -39.667 -7.66699 -59 -23l-89 -70l-40 -250h-70l65 410h70l-13 -78l58 46c26.667 21.333 52.334 32 77.001 32h73c31.333 0 56.5 -10 75.5 -30s28.5 -45.333 28.5 -76
c0 -7.33301 -0.666992 -15 -2 -23z" />
    <glyph glyph-name="o" unicode="o" horiz-adv-x="538" 
d="M492 281l-24.002 -159c-5.33301 -36.667 -21.666 -66.167 -48.999 -88.5s-59.666 -33.5 -96.999 -33.5h-148c-29.333 0 -55 11.167 -77 33.5s-33 48.833 -33 79.5c0 5.33301 0.333008 10.666 1 15.999l24 152c14 86 63.333 129 148 129h146
c30 0 55.833 -11.167 77.5 -33.5s32.5 -48.833 32.5 -79.5c0 -5.33301 -0.333008 -10.666 -1 -15.999zM423.998 292c2 14 -1.16504 25.833 -9.49805 35.5s-19.5 14.5 -33.5 14.5h-164c-13.333 0 -25.333 -4.83301 -36 -14.5s-17.334 -21.5 -20.001 -35.5l-27 -174
c-2 -12 1.16699 -23.333 9.5 -34s19.166 -16 32.499 -16h164c14 0 26.333 4 37 12s17 18.333 19 31z" />
    <glyph glyph-name="p" unicode="p" horiz-adv-x="519" 
d="M484 284l-14.999 -94.999c-6 -38.667 -21.667 -68.5 -47 -89.5s-57.333 -31.5 -96 -31.5h-191l-24 -156h-70l59 384c11.333 76 58.333 114 141 114h131c33.333 0 60.666 -10 81.999 -30s32 -45.333 32 -76c0 -6.66699 -0.666992 -13.334 -2 -20.001zM415.001 291.001
c2 14 -1 26 -9 36s-19 15 -33 15h-149c-31.333 0 -49.333 -15 -54 -45l-23 -160h198c30.667 0 48.667 16.667 54 50z" />
    <glyph glyph-name="q" unicode="q" horiz-adv-x="505" 
d="M460 290l-59.999 -378h-70l26 156h-179c-32.667 0 -60.334 10 -83.001 30s-34 45.333 -34 76c0 6 0.333008 12 1 18l16 102c6 35.333 22.5 63.5 49.5 84.5s59.167 31.5 96.5 31.5h129c31.333 0 57.5 -10 78.5 -30s31.5 -44.333 31.5 -73c0 -6 -0.666992 -11.667 -2 -17z
M391.001 293c2 13.333 -1.16699 24.832 -9.5 34.499s-18.833 14.5 -31.5 14.5h-147c-13.333 0 -25.5 -4.66699 -36.5 -14s-17.5 -19.666 -19.5 -30.999l-17 -110c-2 -14 1 -25.833 9 -35.5s19 -14.5 33 -14.5h194z" />
    <glyph glyph-name="r" unicode="r" horiz-adv-x="424" 
d="M431 410l-11 -69h-119c-21.333 0 -41 -7.33301 -59 -22l-83 -71l-39 -248h-70l65 410h70l-12 -78l58 53c18.667 16.667 41.667 25 69 25h131z" />
    <glyph glyph-name="s" unicode="s" horiz-adv-x="486" 
d="M431 410l-11.001 -68h-220c-34.667 0 -54.334 -15.333 -59.001 -46c-2.66699 -15.333 2 -28 14 -38c10 -8 21.667 -13 35 -15l122 -15c33.333 -4 60.333 -16.167 81 -36.5s31 -44.833 31 -73.5c0 -34 -13.667 -62.167 -41 -84.5s-61.666 -33.5 -102.999 -33.5h-225l11 68
h225c34.667 0 54 14.333 58 43c4.66699 29.333 -10.666 46 -45.999 50l-117 14c-34 4 -61.833 16.5 -83.5 37.5s-32.5 46.833 -32.5 77.5c0 34 13 62.5 39 85.5s59.333 34.5 100 34.5h222z" />
    <glyph glyph-name="t" unicode="t" horiz-adv-x="417" 
d="M370 68l-9.99902 -68h-147c-32.667 0 -58.834 9.66699 -78.501 29s-29.5 44.333 -29.5 75c0 8 0.666992 15.667 2 23l34 217h-84l10 66h85l27 170h70l-27 -170h99l-10 -66h-100l-36 -226c-2 -14 1.16699 -25.833 9.5 -35.5s19.5 -14.5 33.5 -14.5h152z" />
    <glyph glyph-name="u" unicode="u" horiz-adv-x="522" 
d="M495 410l-64.998 -409.999h-70l13 84l-56 -52c-22.667 -20.667 -48.334 -31.334 -77.001 -32.001h-60c-34 0 -61.667 10.5 -83 31.5s-32 47.5 -32 79.5c0 7.33301 0.666992 14.333 2 21l43 278h70l-45 -289c-2 -16 1.33301 -29.167 10 -39.5s21.334 -15.5 38.001 -15.5
h56c15.333 0 26.166 1.16699 32.499 3.5s15.166 8.83301 26.499 19.5l89 82l38 239h70z" />
    <glyph glyph-name="v" unicode="v" horiz-adv-x="512" 
d="M490 410l-28 -181.001c-6 -34.667 -22 -64.667 -48 -90l-144 -139h-72l-99 139c-14.667 20.667 -22 41.334 -22 62.001c0 8 1 17.333 3 28l28 181h72l-28 -177c-3.33301 -20 -0.333008 -36.667 9 -50l77 -117h12l116 117c12.667 13.333 20.667 30 24 50l28 177h72z" />
    <glyph glyph-name="w" unicode="w" horiz-adv-x="627" 
d="M602 410l-34 -215.001c-4.66699 -31.333 -21 -64 -49 -98l-79 -97h-68l-55 113h-6l-91 -113h-68l-48 97c-13.333 26.667 -20 51 -20 73c0 8 0.666992 16.333 2 25l34 215h73l-34 -215c-3.33301 -20 -1 -39.333 7 -58l28 -67h8l66 81c14 16.667 22 32.334 24 47.001l15 92
h70l-14 -92c-2.66699 -15.333 0.333008 -31 9 -47l40 -81h8l49 67c14 18.667 22.667 38 26 58l34 215h73z" />
    <glyph glyph-name="x" unicode="x" horiz-adv-x="492" 
d="M470 410l-6 -37c-5.33301 -34 -18.333 -59.667 -39 -77l-104 -88l-1 -6l76 -88c12 -13.333 18 -29.333 18 -48c0 -8 -1 -17.667 -3 -29l-6 -37h-74l6 38c3.33301 18 1 31.333 -7 40l-76 89h-5l-105 -89c-10 -8.66699 -16.333 -22 -19 -40l-6 -38h-74l6 37
c5.33301 34 18.333 59.667 39 77l104 88l1 6l-76 88c-12 13.333 -18 29.333 -18 48c0 8 1 17.667 3 29l6 37h74l-6 -38c-3.33301 -18 -1.33301 -31.333 6 -40l77 -89h5l105 89c10 8.66699 16.333 22 19 40l6 38h74z" />
    <glyph glyph-name="y" unicode="y" horiz-adv-x="532" 
d="M504 410l-58.999 -374c-6 -37.333 -21.833 -67.333 -47.5 -90s-56.834 -34 -93.501 -34h-179l11 69h180c14 0 26.667 4.83301 38 14.5s18 21.5 20 35.5l6 37h-181c-34 0 -61.667 9.83301 -83 29.5s-32 45.5 -32 77.5c0 7.33301 0.666992 15 2 23l34 212h70l-35 -223
c-2.66699 -15.333 0.5 -27.5 9.5 -36.5s21.167 -13.5 36.5 -13.5h190l43 273h70z" />
    <glyph glyph-name="z" unicode="z" horiz-adv-x="492" 
d="M479 410l-9 -58l-307 -288h261l-10 -64h-359l9 58l305 288h-259l10 64h359z" />
    <glyph glyph-name="braceleft" unicode="{" horiz-adv-x="424" 
d="M454 716l-10 -68h-94c-33.333 0 -52.666 -17.667 -57.999 -53l-34 -212c-5.33301 -36 -27 -66 -65 -90l-1 -6c25.333 -20 38 -45 38 -75c0 -4.66699 -0.333008 -9.66699 -1 -15l-34 -212c-2 -14 1 -26.333 9 -37s19 -16 33 -16h93l-11 -68h-88
c-29.333 0 -54.833 10.667 -76.5 32s-32.5 47 -32.5 77c0 6 0.666992 12 2 18l30 195c1.33301 4.66699 2 9 2 13c0 27.333 -15.333 45.333 -46 54l-14 4l10 66l16 4c38 10 59.667 32.333 65 67l31 195c13.333 84.667 62.666 127 147.999 127h88z" />
    <glyph glyph-name="bar" unicode="|" horiz-adv-x="223" 
d="M239 719l-132 -833h-70l132 833h70z" />
    <glyph glyph-name="braceright" unicode="}" horiz-adv-x="421" 
d="M392 323l-9.99902 -66.001l-16 -4c-38 -10 -60 -32.333 -66 -67l-30 -195c-14 -84.667 -63.333 -127 -148 -127h-89l11 68h94c13.333 0 25.833 5.33301 37.5 16s18.5 23 20.5 37l34 212c5.33301 36 26.666 66 63.999 90l1 6c-24.667 20 -37 45 -37 75
c0 4.66699 0.333008 9.66699 1 15l34 212c2 14 -1 26.333 -9 37s-19 16 -33 16h-93l10 68h89c29.333 0 54.833 -11 76.5 -33s32.5 -48 32.5 -78c0 -5.33301 -0.666992 -10.666 -2 -15.999l-31 -195c-0.666992 -4.66699 -1 -9 -1 -13c0 -27.333 15.333 -45.333 46 -54z" />
    <glyph glyph-name="asciitilde" unicode="~" horiz-adv-x="420" 
d="M432 550l-103.999 -95c-10 -9.33301 -20.667 -14 -32 -14c-10.667 0 -20 4.66699 -28 14l-49 58c-4.66699 6 -9.66699 6.33301 -15 1l-72 -67l-30 36l102 94c10.667 9.33301 21.334 14 32.001 14c11.333 0 20.666 -4.66699 27.999 -14l49 -58
c5.33301 -6 10.666 -6.33301 15.999 -1l73 68z" />
    <glyph glyph-name="nonbreakingspace" unicode="&#xa0;" horiz-adv-x="175" 
 />
    <glyph glyph-name="exclamdown" unicode="&#xa1;" horiz-adv-x="254" 
d="M248 580l-14 -88h-88l14 88h88zM213 412l-24 -269l-23 -143h-106l23 143l60 269h70z" />
    <glyph glyph-name="cent" unicode="&#xa2;" horiz-adv-x="442" 
d="M450 468l-11.001 -67.999h-201c-33.333 0 -52.666 -16.667 -57.999 -50l-18 -116c-2 -14 1 -25.833 9 -35.5s19 -14.5 33 -14.5h201l-11 -68h-107l-32 -204h-54l32 204h-25c-33.333 0 -61 11.167 -83 33.5s-33 49.166 -33 80.499c0 6 0.666992 12.333 2 19l15 92
c14 84.667 63 127 147 127h33l31 192h54l-31 -192h107z" />
    <glyph glyph-name="sterling" unicode="&#xa3;" horiz-adv-x="534" 
d="M513 405l-4.00098 -27h-72l6 38c2 14 -1.16699 25.833 -9.5 35.5s-19.5 14.5 -33.5 14.5h-81c-33.333 0 -52.666 -16.667 -57.999 -50l-19 -121h111l-8 -55h-112l-19 -120h274l-11 -68h-414l11 68h70l47 297c6 37.333 21.5 66.166 46.5 86.499s56.833 30.5 95.5 30.5h63
c34 0 62.167 -10.667 84.5 -32s33.5 -47.666 33.5 -78.999c0 -6 -0.333008 -12 -1 -18z" />
    <glyph glyph-name="currency" unicode="&#xa4;" horiz-adv-x="513" 
d="M530 534l-11.001 -70.001h-198c-33.333 0 -53 -17.667 -59 -53l-5 -32h110l-8 -48h-109l-13 -82h109l-7 -48h-110l-4 -27c-2 -14 1 -26.333 9 -37s19 -16 33 -16h197l-11 -69h-178c-36 0 -65.5 10.333 -88.5 31s-34.5 46.667 -34.5 78c0 6 0.333008 12 1 18l4 22h-70
l7 48h70l13 82h-70l8 48h70l6 35c6.66699 38.667 22.834 68.334 48.501 89.001s57.5 31 95.5 31h195z" />
    <glyph glyph-name="yen" unicode="&#xa5;" horiz-adv-x="537" 
d="M543 528l-11 -66c-6 -36.667 -21.667 -66 -47 -88l-103 -86h49l-8 -46h-87l-5 -5l-10 -58h92l-7 -46h-92l-13 -81h-72l13 81h-88l7 46h88l10 58l-4 5h-84l8 46h44l-75 86c-15.333 17.333 -23 36.333 -23 57c0 8.66699 1 19 3 31l11 66h70l-10 -62
c-3.33301 -20 -0.333008 -36 9 -48l89 -115h14l126 115c13.333 12 21.333 28 24 48l10 62h72z" />
    <glyph glyph-name="brokenbar" unicode="&#xa6;" horiz-adv-x="223" 
d="M239 719l-55 -349h-70l55 349h70zM162 235l-55 -349h-70l55 349h70z" />
    <glyph glyph-name="section" unicode="&#xa7;" horiz-adv-x="532" 
d="M516 517l-4 -20.9961h-70l5 31c2 14 -1 26.333 -9 37s-19 16 -33 16h-140c-33.333 0 -53 -17.667 -59 -53l-7 -47c-2 -13.333 1 -25 9 -35s19 -16 33 -18l145 -24c72.667 -12 109 -47.667 109 -107c0 -6.66699 -0.666992 -13.334 -2 -20.001l-2 -13
c-8 -50.667 -29.333 -81.334 -64 -92.001c24 -11.333 36 -35.666 36 -72.999c0 -8 -0.666992 -16 -2 -24l-7 -45c-6 -36.667 -21.167 -65.334 -45.5 -86.001s-54.166 -31 -89.499 -31h-156c-30.667 0 -57.167 10.667 -79.5 32s-33.5 47.333 -33.5 78
c0 6 0.333008 11.667 1 17l4 24h70l-5 -30c-2 -14 1 -26.333 9 -37s19 -16 33 -16h159c15.333 0 29.166 5 41.499 15s19.833 22.667 22.5 38l7 46c2 13.333 -1.5 25.5 -10.5 36.5s-21.5 17.833 -37.5 20.5l-142 24c-29.333 4.66699 -54.333 16.667 -75 36
c-22.667 20.667 -34 45.667 -34 75c0 5.33301 0.666992 10.666 2 15.999l2 15c2.66699 17.333 11 34.833 25 52.5s29 29.834 45 36.501c-25.333 16 -38 41.667 -38 77c0 6 0.333008 12 1 18l5 39c6 38 22 68 48 90s58.333 33 97 33h123c32 0 59.167 -10.833 81.5 -32.5
s33.5 -47.834 33.5 -78.501c0 -6.66699 -0.666992 -13.334 -2 -20.001zM424 281.004c2 13.333 -1.16602 24.832 -9.49902 34.499s-19.166 15.834 -32.499 18.501l-140 25c-16.667 2.66699 -32.834 -2.5 -48.501 -15.5s-24.5 -26.5 -26.5 -40.5l-3 -22
c-2.66699 -13.333 0.166016 -25 8.49902 -35s19.166 -16 32.499 -18l152 -23c14 -2 27.333 2.5 40 13.5s20.334 23.833 23.001 38.5z" />
    <glyph glyph-name="dieresis" unicode="&#xa8;" horiz-adv-x="468" 
d="M501 722l-10 -68h-68l10 68h68zM315 722l-10 -68h-68l10 68h68z" />
    <glyph glyph-name="copyright" unicode="&#xa9;" horiz-adv-x="591" 
d="M567 427l-42.998 -274c-4 -26 -14.833 -46.667 -32.5 -62s-39.834 -23 -66.501 -23h-268c-22.667 0 -42.167 8.5 -58.5 25.5s-22.833 36.833 -19.5 59.5l44 274c4 25.333 15.167 46 33.5 62s40.166 24 65.499 24h273c22.667 0 41.167 -9.16699 55.5 -27.5
s19.833 -37.833 16.5 -58.5zM517.002 427c1.33301 10 -0.832031 18.333 -6.49902 25s-13.5 10 -23.5 10h-273c-23.333 0 -37 -11.667 -41 -35l-43 -274c-2 -9.33301 0 -17.5 6 -24.5s13.667 -10.5 23 -10.5h274c23.333 0 36.666 11.667 39.999 35zM431.004 349l-3 -17h-47
l3 22c2 9.33301 -1.33301 14 -10 14h-70c-8.66699 0 -13.667 -4.66699 -15 -14l-22 -142c-2 -9.33301 1.33301 -14 10 -14h70c8.66699 0 13.667 4.66699 15 14l3 22h48l-4 -20c-6 -41.333 -30 -62 -72 -62h-60c-18 0 -32.667 6 -44 18s-15.666 26.667 -12.999 44l22 138
c6 41.333 30 62 72 62h66c16 0 29.167 -6.5 39.5 -19.5s14.166 -28.167 11.499 -45.5z" />
    <glyph glyph-name="ordfeminine" unicode="&#xaa;" horiz-adv-x="397" 
d="M360 317l-31 -197h-50l9 56l-40 -33c-18 -14.667 -36.667 -22 -56 -22h-43c-22.667 0 -41.5 7.16699 -56.5 21.5s-22.5 32.5 -22.5 54.5c0 4.66699 0.333008 9.33398 1 14.001l19 115c8.66699 56.667 43 85 103 85h88c22.667 0 41.667 -7.83301 57 -23.5
s23 -34.5 23 -56.5c0 -4.66699 -0.333008 -9.33398 -1 -14.001zM321 68l-11 -68h-255l11 68h255zM312 327c2 10 -0.000976562 18.499 -6.00098 25.499s-13.667 10.5 -23 10.5h-102c-10 0 -19 -3.66699 -27 -11s-13 -15.666 -15 -24.999l-19 -124
c-1.33301 -10 0.833984 -18.333 6.50098 -25s13.5 -10 23.5 -10h43c15.333 0 30 5.66699 44 17l60 49z" />
    <glyph glyph-name="guillemotleft" unicode="&#xab;" horiz-adv-x="655" 
d="M631 359l-177 -151l-1 -7l129 -152l-57 -49l-149 177l9 55l204 176zM338 359l-177 -151l-1 -7l129 -152l-57 -49l-149 177l9 55l204 176z" />
    <glyph glyph-name="logicalnot" unicode="&#xac;" horiz-adv-x="547" 
d="M505 323l-26 -168h-59l16 102h-340l10 66h399z" />
    <glyph glyph-name="minus" unicode="&#xad;" horiz-adv-x="477" 
d="M425 323l-10 -66h-319l10 66h319z" />
    <glyph glyph-name="minus" unicode="&#x2212;" horiz-adv-x="477" 
d="M425 323l-10 -66h-319l10 66h319z" />
    <glyph glyph-name="registered" unicode="&#xae;" horiz-adv-x="591" 
d="M567 427l-42.998 -274c-4 -26 -14.833 -46.667 -32.5 -62s-39.834 -23 -66.501 -23h-268c-22.667 0 -42.167 8.5 -58.5 25.5s-22.833 36.833 -19.5 59.5l44 274c4 25.333 15.167 46 33.5 62s40.166 24 65.499 24h273c22.667 0 41.167 -9.16699 55.5 -27.5
s19.833 -37.833 16.5 -58.5zM517.002 427c1.33301 10 -0.832031 18.333 -6.49902 25s-13.5 10 -23.5 10h-273c-23.333 0 -37 -11.667 -41 -35l-43 -274c-2 -9.33301 0 -17.5 6 -24.5s13.667 -10.5 23 -10.5h274c23.333 0 36.666 11.667 39.999 35zM430.004 352l-5 -27.999
c-3.33301 -20 -12.666 -33.333 -27.999 -40c13.333 -8.66699 18.666 -21.334 15.999 -38.001l-15 -94h-47l14 88c2 13.333 -3.66699 20 -17 20h-75l-17 -108h-46l42 262h125c36 0 54 -16.667 54 -50c0 -4 -0.333008 -8 -1 -12zM383.004 355.001
c1.33301 10.667 -2.33301 16 -11 16h-81l-11 -65h78c11.333 0 18 6.33301 20 19z" />
    <glyph glyph-name="macron" unicode="&#xaf;" horiz-adv-x="446" 
d="M478 718l-8 -50h-220l8 50h220z" />
    <glyph glyph-name="macron" unicode="&#x2c9;" horiz-adv-x="446" 
d="M478 718l-8 -50h-220l8 50h220z" />
    <glyph glyph-name="degree" unicode="&#xb0;" horiz-adv-x="270" 
d="M288 706l-9 -59c-6.66699 -40.667 -30.334 -61 -71.001 -61h-59c-14.667 0 -27.5 6.5 -38.5 19.5s-15.5 26.833 -13.5 41.5l10 59c6.66699 41.333 30.334 62 71.001 62h59c14.667 0 27.5 -6.5 38.5 -19.5s15.167 -27.167 12.5 -42.5zM239 709c1.33301 6 -1.33301 9 -8 9
h-63c-6.66699 0 -10.334 -3 -11.001 -9l-10 -64c-1.33301 -6.66699 1 -10 7 -10h64c6.66699 0 10.334 3.33301 11.001 10z" />
    <glyph glyph-name="plusminus" unicode="&#xb1;" horiz-adv-x="524" 
d="M528 412l-11 -70h-170l-27 -171h-70l27 171h-168l11 70h168l27 168h70l-27 -168h170zM473 62l-10 -62h-408l10 62h408z" />
    <glyph glyph-name="acute" unicode="&#xb4;" horiz-adv-x="251" 
d="M269 580l-92 -150h-64l92 150h64z" />
    <glyph glyph-name="mu" unicode="&#xb5;" horiz-adv-x="582" 
d="M516 66l-10.002 -65.999h-40c-26.667 0 -48.167 7.66699 -64.5 23s-22.5 34 -18.5 56l1 7l-57 -52c-22.667 -20.667 -48.334 -31.334 -77.001 -32.001h-48c-20 0 -34.333 5 -43 15l-28 32l-22 -137h-68l79 498h68l-44 -276l38 -48c8.66699 -12 20.334 -18 35.001 -18h31
c14.667 0 25.334 1.16699 32.001 3.5s15.334 8.83301 26.001 19.5l89 82l38 237h68l-49 -308c-0.666992 -4.66699 -1 -8.66699 -1 -12c0 -16 12 -24 36 -24h29z" />
    <glyph glyph-name="mu" unicode="&#x3bc;" horiz-adv-x="582" 
d="M516 66l-10.002 -65.999h-40c-26.667 0 -48.167 7.66699 -64.5 23s-22.5 34 -18.5 56l1 7l-57 -52c-22.667 -20.667 -48.334 -31.334 -77.001 -32.001h-48c-20 0 -34.333 5 -43 15l-28 32l-22 -137h-68l79 498h68l-44 -276l38 -48c8.66699 -12 20.334 -18 35.001 -18h31
c14.667 0 25.334 1.16699 32.001 3.5s15.334 8.83301 26.001 19.5l89 82l38 237h68l-49 -308c-0.666992 -4.66699 -1 -8.66699 -1 -12c0 -16 12 -24 36 -24h29z" />
    <glyph glyph-name="paragraph" unicode="&#xb6;" horiz-adv-x="542" 
d="M580 646l-10 -66h-69l-124 -780h-70l124 780h-85l-124 -780h-70l48 302h-20c-26 0 -49.333 10.167 -70 30.5s-31 44.833 -31 73.5c0 5.33301 0.333008 10.333 1 15l48 306c6.66699 41.333 20.5 71.5 41.5 90.5s53.5 28.5 97.5 28.5h313z" />
    <glyph glyph-name="periodcentered" unicode="&#xb7;" horiz-adv-x="271" 
d="M221 340l-15 -92c-0.666992 -6.66699 -4.33398 -10 -11.001 -10h-92c-6.66699 0 -9.66699 3.33301 -9 10l15 92c0.666992 6.66699 4.33398 10 11.001 10h92c6.66699 0 9.66699 -3.33301 9 -10z" />
    <glyph glyph-name="periodcentered" unicode="&#x2219;" horiz-adv-x="271" 
d="M221 340l-15 -92c-0.666992 -6.66699 -4.33398 -10 -11.001 -10h-92c-6.66699 0 -9.66699 3.33301 -9 10l15 92c0.666992 6.66699 4.33398 10 11.001 10h92c6.66699 0 9.66699 -3.33301 9 -10z" />
    <glyph glyph-name="cedilla" unicode="&#xb8;" horiz-adv-x="390" 
d="M299 -29c0 -30 -10.667 -55 -32 -75s-48.666 -30 -81.999 -30h-49l8 52h48c16 0 28.667 5.33301 38 16s13.666 23 12.999 37l-1 44h57v-44z" />
    <glyph glyph-name="ordmasculine" unicode="&#xba;" horiz-adv-x="417" 
d="M381 318l-17 -112c-4 -26 -15.667 -47 -35 -63s-42 -24 -68 -24h-105c-23.333 0 -43 9.5 -59 28.5s-22 40.167 -18 63.5l17 107c10 61.333 45 92 105 92h103c23.333 0 43 -9.33301 59 -28s22 -40 18 -64zM325 68l-11 -68h-255l11 68h255zM333 326
c1.33301 10 -0.833008 18.5 -6.5 25.5s-13.5 10.5 -23.5 10.5h-116c-22.667 0 -36 -12 -40 -36l-20 -123c-1.33301 -8.66699 1 -16.667 7 -24s13.667 -11 23 -11h117c23.333 0 36.333 10 39 30z" />
    <glyph glyph-name="guillemotright" unicode="&#xbb;" horiz-adv-x="652" 
d="M611 232l-9 -55l-205 -177l-41 49l177 152l1 7l-129 151l57 49zM318 232l-9 -55l-205 -177l-41 49l177 152l1 7l-129 151l57 49z" />
    <glyph glyph-name="questiondown" unicode="&#xbf;" horiz-adv-x="511" 
d="M385 580l-10 -88h-88l10 88h88zM478 155l-3.99902 -25c-6 -40 -21.167 -71.667 -45.5 -95s-55.5 -35 -93.5 -35h-135c-38.667 0 -69.834 12 -93.501 36s-33.5 54.333 -29.5 91l4 39c3.33301 30 21.333 59 54 87l89 65c32.667 24.667 50.667 47 54 67l7 40h72l-8 -45
c-4 -28 -22.333 -55.667 -55 -83l-88 -64c-31.333 -23.333 -48.666 -44.333 -51.999 -63l-7 -47c-2 -14 1 -26.333 9 -37s18.667 -16 32 -16h154c33.333 0 52.666 17.667 57.999 53l5 32h73z" />
    <glyph glyph-name="Agrave" unicode="&#xc0;" horiz-adv-x="515" 
d="M496 357l-55.999 -356.999h-71l30 192h-267l-31 -192h-71l56 357c4 24 8.66699 41.167 14 51.5s16.666 23.166 33.999 38.499l155 133h76l112 -133c14.667 -17.333 22 -38 22 -62c0 -8.66699 -1 -18 -3 -28zM424.001 351.001c3.33301 22 0.666016 38.667 -8.00098 50
l-94 117h-8l-132 -117c-13.333 -11.333 -21.666 -28 -24.999 -50l-15 -96h267zM351.001 651.001h-64l-38 150h64z" />
    <glyph glyph-name="Aacute" unicode="&#xc1;" horiz-adv-x="515" 
d="M496 357l-55.999 -356.999h-71l30 192h-267l-31 -192h-71l56 357c4 24 8.66699 41.167 14 51.5s16.666 23.166 33.999 38.499l155 133h76l112 -133c14.667 -17.333 22 -38 22 -62c0 -8.66699 -1 -18 -3 -28zM424.001 351.001c3.33301 22 0.666016 38.667 -8.00098 50
l-94 117h-8l-132 -117c-13.333 -11.333 -21.666 -28 -24.999 -50l-15 -96h267zM448.001 799.001l-92 -150h-64l92 150h64z" />
    <glyph glyph-name="Acircumflex" unicode="&#xc2;" horiz-adv-x="515" 
d="M496 357l-55.999 -356.999h-71l30 192h-267l-31 -192h-71l56 357c4 24 8.66699 41.167 14 51.5s16.666 23.166 33.999 38.499l155 133h76l112 -133c14.667 -17.333 22 -38 22 -62c0 -8.66699 -1 -18 -3 -28zM424.001 351.001c3.33301 22 0.666016 38.667 -8.00098 50
l-94 117h-8l-132 -117c-13.333 -11.333 -21.666 -28 -24.999 -50l-15 -96h267zM460.001 661.001l-44 -26l-68 73h-6l-90 -73l-37 26l116 98h45z" />
    <glyph glyph-name="Atilde" unicode="&#xc3;" horiz-adv-x="518" 
d="M496 357l-55.999 -356.999h-71l30 192h-267l-31 -192h-71l56 357c4 24 8.66699 41.167 14 51.5s16.666 23.166 33.999 38.499l155 133h76l112 -133c14.667 -17.333 22 -38 22 -62c0 -8.66699 -1 -18 -3 -28zM424.001 351.001c3.33301 22 0.666016 38.667 -8.00098 50
l-94 117h-8l-132 -117c-13.333 -11.333 -21.666 -28 -24.999 -50l-15 -96h267zM497.001 721.001l-86 -79c-8 -7.33301 -16.667 -11 -26 -11c-8.66699 0 -16.334 3.66699 -23.001 11l-40 48c-4 4.66699 -8.33301 5 -13 1l-59 -55l-25 29l84 78
c8.66699 7.33301 17.667 11 27 11c8.66699 0 16.334 -3.66699 23.001 -11l40 -48c4 -4.66699 8.33301 -5 13 -1l60 56z" />
    <glyph glyph-name="Adieresis" unicode="&#xc4;" horiz-adv-x="515" 
d="M496 357l-55.999 -356.999h-71l30 192h-267l-31 -192h-71l56 357c4 24 8.66699 41.167 14 51.5s16.666 23.166 33.999 38.499l155 133h76l112 -133c14.667 -17.333 22 -38 22 -62c0 -8.66699 -1 -18 -3 -28zM424.001 351.001c3.33301 22 0.666016 38.667 -8.00098 50
l-94 117h-8l-132 -117c-13.333 -11.333 -21.666 -28 -24.999 -50l-15 -96h267zM476.001 722.001l-10 -68h-68l10 68h68zM290.001 722.001l-10 -68h-68l10 68h68z" />
    <glyph glyph-name="Aring" unicode="&#xc5;" horiz-adv-x="515" 
d="M496 357l-55.999 -356.999h-71l30 192h-267l-31 -192h-71l56 357c4 24 8.66699 41.167 14 51.5s16.666 23.166 33.999 38.499l155 133h76l112 -133c14.667 -17.333 22 -38 22 -62c0 -8.66699 -1 -18 -3 -28zM424.001 351.001c3.33301 22 0.666016 38.667 -8.00098 50
l-94 117h-8l-132 -117c-13.333 -11.333 -21.666 -28 -24.999 -50l-15 -96h267zM424.001 725.001l-7 -49.001c-5.33301 -34 -25 -51 -59 -51h-45c-14.667 0 -26.667 5.33301 -36 16s-13 22.334 -11 35.001l8 49c5.33301 33.333 25 50 59 50h49c12 0 22.5 -5.16699 31.5 -15.5
s12.5 -21.833 10.5 -34.5zM384.001 727c0.666992 4.66699 -1.66602 7 -6.99902 7h-53c-4.66699 0 -7.66699 -2.33301 -9 -7l-8 -53c-0.666992 -5.33301 1.66602 -8 6.99902 -8h53c4.66699 0 7.66699 2.66699 9 8z" />
    <glyph glyph-name="AE" unicode="&#xc6;" horiz-adv-x="776" 
d="M806 580l-11 -68h-256l-31 -194h194l-11 -69h-194l-28 -181h256l-11 -68h-328l39 249h-259l-40 -249h-71l56 357c6 36 22 66 48 90l147 133h76l82 -98l16 98h326zM441 351c3.33301 22 0.666016 38.667 -8.00098 50l-94 117h-8l-124 -117
c-13.333 -12 -21.666 -28.667 -24.999 -50l-6 -35h260z" />
    <glyph glyph-name="Ccedilla" unicode="&#xc7;" horiz-adv-x="499" 
d="M509 447l-3.00195 -21.999h-73l5 32c2.66699 14 -0.166016 26.333 -8.49902 37s-19.166 16 -32.499 16h-167c-13.333 0 -25.333 -4.83301 -36 -14.5s-17 -21.5 -19 -35.5l-52 -332c-0.666992 -4 -1 -8 -1 -12c0 -31.333 14.667 -47 44 -47h166c30 0 47.667 17.667 53 53
l6 34h72l-6 -42c-5.33301 -36 -20.333 -64 -45 -84s-56.667 -30 -96 -30h-151c-34.667 0 -62.5 10.667 -83.5 32s-31.5 48.666 -31.5 81.999c0 7.33301 0.666992 15 2 23l50 319c6 38 22 68.167 48 90.5s58 33.5 96 33.5h154c31.333 0 57.5 -11.833 78.5 -35.5
s31.5 -50.5 31.5 -80.5c0 -6 -0.333008 -11.667 -1 -17zM279.998 -28.999c0 -30 -10.667 -55 -32 -75s-48.666 -30 -81.999 -30h-49l8 52h48c16 0 28.667 5.33301 38 16s13.666 23 12.999 37l-1 44h57v-44z" />
    <glyph glyph-name="Egrave" unicode="&#xc8;" horiz-adv-x="437" 
d="M468 580l-11 -68h-276l-30 -188h214l-11 -69h-214l-29 -187h276l-11 -68h-346l92 580h346zM318 651h-64l-38 150h64z" />
    <glyph glyph-name="Eacute" unicode="&#xc9;" horiz-adv-x="437" 
d="M468 580l-11 -68h-276l-30 -188h214l-11 -69h-214l-29 -187h276l-11 -68h-346l92 580h346zM375 800l-92 -150h-64l92 150h64z" />
    <glyph glyph-name="Ecircumflex" unicode="&#xca;" horiz-adv-x="437" 
d="M468 580l-11 -68h-276l-30 -188h214l-11 -69h-214l-29 -187h276l-11 -68h-346l92 580h346zM431 661l-44 -26l-68 73h-6l-90 -73l-37 26l116 98h45z" />
    <glyph glyph-name="Edieresis" unicode="&#xcb;" horiz-adv-x="437" 
d="M468 580l-11 -68h-276l-30 -188h214l-11 -69h-214l-29 -187h276l-11 -68h-346l92 580h346zM440 722l-10 -68h-68l10 68h68zM254 722l-10 -68h-68l10 68h68z" />
    <glyph glyph-name="Igrave" unicode="&#xcc;" horiz-adv-x="342" 
d="M362 580l-11 -66h-84l-71 -448h84l-10 -66h-240l10 66h85l71 448h-85l11 66h240zM272 650h-64l-38 150h64z" />
    <glyph glyph-name="Iacute" unicode="&#xcd;" horiz-adv-x="343" 
d="M362 580l-11 -66h-84l-71 -448h84l-10 -66h-240l10 66h85l71 448h-85l11 66h240zM346 800l-92 -150h-64l92 150h64z" />
    <glyph glyph-name="Icircumflex" unicode="&#xce;" horiz-adv-x="351" 
d="M362 580l-11 -66h-84l-71 -448h84l-10 -66h-240l10 66h85l71 448h-85l11 66h240zM376 661l-44 -26l-68 73h-6l-90 -73l-37 26l116 98h45z" />
    <glyph glyph-name="Idieresis" unicode="&#xcf;" horiz-adv-x="367" 
d="M362 580l-11 -66h-84l-71 -448h84l-10 -66h-240l10 66h85l71 448h-85l11 66h240zM393 722l-10 -68h-68l10 68h68zM207 722l-10 -68h-68l10 68h68z" />
    <glyph glyph-name="Eth" unicode="&#xd0;" horiz-adv-x="566" 
d="M545 445l-51 -325.999c-5.33301 -36.667 -20.833 -65.667 -46.5 -87s-56.5 -32 -92.5 -32h-291l41 255h-40l10 70h41l40 255h278c32.667 0 59.667 -10.833 81 -32.5s32 -48.834 32 -81.501c0 -6.66699 -0.666992 -13.667 -2 -21zM475 459.001
c2 14 -0.999023 26.333 -8.99902 37s-19 16 -33 16h-218l-29 -187h147l-10 -70h-148l-30 -187h218c33.333 0 52.666 17.667 57.999 53z" />
    <glyph glyph-name="Ntilde" unicode="&#xd1;" horiz-adv-x="521" 
d="M528 580l-92 -580h-72l28 176l-217 287l-73 -463h-72l92 580h64l223 -298l47 298h72zM479 721l-86 -79c-8 -7.33301 -16.667 -11 -26 -11c-8.66699 0 -16.334 3.66699 -23.001 11l-40 48c-4 4.66699 -8.33301 5 -13 1l-59 -55l-25 29l84 78
c8.66699 7.33301 17.667 11 27 11c8.66699 0 16.334 -3.66699 23.001 -11l40 -48c4 -4.66699 8.33301 -5 13 -1l60 56z" />
    <glyph glyph-name="Ograve" unicode="&#xd2;" horiz-adv-x="538" 
d="M529 445l-52 -327c-12.667 -78.667 -58.334 -118 -137.001 -118h-171c-34.667 0 -63.167 10.5 -85.5 31.5s-33.5 48.167 -33.5 81.5c0 7.33301 0.666992 15 2 23l52 328c5.33301 34.667 20.833 62.667 46.5 84s57.167 32 94.5 32h169c32.667 0 60.334 -11.5 83.001 -34.5
s34 -50.5 34 -82.5c0 -6 -0.666992 -12 -2 -18zM460 455c2.66699 15.333 -0.166016 28.667 -8.49902 40s-20.5 17 -36.5 17h-188c-13.333 0 -25 -4.66699 -35 -14s-16.333 -21 -19 -35l-53 -340c-0.666992 -4 -1 -8 -1 -12c0 -28.667 15.333 -43 46 -43h184
c33.333 0 52.666 16 57.999 48zM365 651.001h-64l-38 150h64z" />
    <glyph glyph-name="Oacute" unicode="&#xd3;" horiz-adv-x="538" 
d="M529 445l-52 -327c-12.667 -78.667 -58.334 -118 -137.001 -118h-171c-34.667 0 -63.167 10.5 -85.5 31.5s-33.5 48.167 -33.5 81.5c0 7.33301 0.666992 15 2 23l52 328c5.33301 34.667 20.833 62.667 46.5 84s57.167 32 94.5 32h169c32.667 0 60.334 -11.5 83.001 -34.5
s34 -50.5 34 -82.5c0 -6 -0.666992 -12 -2 -18zM460 455c2.66699 15.333 -0.166016 28.667 -8.49902 40s-20.5 17 -36.5 17h-188c-13.333 0 -25 -4.66699 -35 -14s-16.333 -21 -19 -35l-53 -340c-0.666992 -4 -1 -8 -1 -12c0 -28.667 15.333 -43 46 -43h184
c33.333 0 52.666 16 57.999 48zM453 801.001l-92 -150h-64l92 150h64z" />
    <glyph glyph-name="Ocircumflex" unicode="&#xd4;" horiz-adv-x="538" 
d="M529 445l-52 -327c-12.667 -78.667 -58.334 -118 -137.001 -118h-171c-34.667 0 -63.167 10.5 -85.5 31.5s-33.5 48.167 -33.5 81.5c0 7.33301 0.666992 15 2 23l52 328c5.33301 34.667 20.833 62.667 46.5 84s57.167 32 94.5 32h169c32.667 0 60.334 -11.5 83.001 -34.5
s34 -50.5 34 -82.5c0 -6 -0.666992 -12 -2 -18zM460 455c2.66699 15.333 -0.166016 28.667 -8.49902 40s-20.5 17 -36.5 17h-188c-13.333 0 -25 -4.66699 -35 -14s-16.333 -21 -19 -35l-53 -340c-0.666992 -4 -1 -8 -1 -12c0 -28.667 15.333 -43 46 -43h184
c33.333 0 52.666 16 57.999 48zM470 661.001l-44 -26l-68 73h-6l-90 -73l-37 26l116 98h45z" />
    <glyph glyph-name="Otilde" unicode="&#xd5;" horiz-adv-x="538" 
d="M529 445l-52 -327c-12.667 -78.667 -58.334 -118 -137.001 -118h-171c-34.667 0 -63.167 10.5 -85.5 31.5s-33.5 48.167 -33.5 81.5c0 7.33301 0.666992 15 2 23l52 328c5.33301 34.667 20.833 62.667 46.5 84s57.167 32 94.5 32h169c32.667 0 60.334 -11.5 83.001 -34.5
s34 -50.5 34 -82.5c0 -6 -0.666992 -12 -2 -18zM460 455c2.66699 15.333 -0.166016 28.667 -8.49902 40s-20.5 17 -36.5 17h-188c-13.333 0 -25 -4.66699 -35 -14s-16.333 -21 -19 -35l-53 -340c-0.666992 -4 -1 -8 -1 -12c0 -28.667 15.333 -43 46 -43h184
c33.333 0 52.666 16 57.999 48zM497 721.001l-86 -79c-8 -7.33301 -16.667 -11 -26 -11c-8.66699 0 -16.334 3.66699 -23.001 11l-40 48c-4 4.66699 -8.33301 5 -13 1l-59 -55l-25 29l84 78c8.66699 7.33301 17.667 11 27 11c8.66699 0 16.334 -3.66699 23.001 -11l40 -48
c4 -4.66699 8.33301 -5 13 -1l60 56z" />
    <glyph glyph-name="Odieresis" unicode="&#xd6;" horiz-adv-x="538" 
d="M529 445l-52 -327c-12.667 -78.667 -58.334 -118 -137.001 -118h-171c-34.667 0 -63.167 10.5 -85.5 31.5s-33.5 48.167 -33.5 81.5c0 7.33301 0.666992 15 2 23l52 328c5.33301 34.667 20.833 62.667 46.5 84s57.167 32 94.5 32h169c32.667 0 60.334 -11.5 83.001 -34.5
s34 -50.5 34 -82.5c0 -6 -0.666992 -12 -2 -18zM460 455c2.66699 15.333 -0.166016 28.667 -8.49902 40s-20.5 17 -36.5 17h-188c-13.333 0 -25 -4.66699 -35 -14s-16.333 -21 -19 -35l-53 -340c-0.666992 -4 -1 -8 -1 -12c0 -28.667 15.333 -43 46 -43h184
c33.333 0 52.666 16 57.999 48zM492 722.001l-10 -68h-68l10 68h68zM306 722.001l-10 -68h-68l10 68h68z" />
    <glyph glyph-name="multiply" unicode="&#xd7;" horiz-adv-x="500" 
d="M483 421l-151 -130l111 -132l-57 -49l-111 131l-153 -132l-42 49l153 133l-109 130l57 49l110 -130l150 130z" />
    <glyph glyph-name="Oslash" unicode="&#xd8;" horiz-adv-x="574" 
d="M555 446l-53 -329c-6 -35.333 -20.667 -63.666 -44 -84.999s-52 -32 -86 -32h-182c-32.667 0 -60 11 -82 33s-33 48.667 -33 80c0 6.66699 0.333008 13 1 19l52 326c6 38 21.5 67.833 46.5 89.5s57.5 32.5 97.5 32.5h165c34.667 0 63.167 -11.833 85.5 -35.5
s33.5 -50.834 33.5 -81.501c0 -6 -0.333008 -11.667 -1 -17zM486 459c0.666992 5.33301 0.666992 10.667 0 16l-297 -407h185c33.333 0 53 17.667 59 53zM443 512.001h-187c-33.333 0 -52.666 -17.667 -57.999 -53l-54 -338c-0.666992 -6 -0.333984 -12 0.999023 -18z" />
    <glyph glyph-name="Ugrave" unicode="&#xd9;" horiz-adv-x="530" 
d="M530 580l-72.999 -461.999c-6 -37.333 -21.333 -66.333 -46 -87s-55.334 -31 -92.001 -31h-152c-34 0 -62 10.667 -84 32s-33 48.666 -33 81.999c0 7.33301 0.666992 15 2 23l70 443h74l-73 -459c-2 -14 1 -26.333 9 -37s19 -16 33 -16h160c33.333 0 53 17.667 59 53
l72 459h74zM359.001 651.001h-64l-38 150h64z" />
    <glyph glyph-name="Uacute" unicode="&#xda;" horiz-adv-x="530" 
d="M530 580l-72.999 -461.999c-6 -37.333 -21.333 -66.333 -46 -87s-55.334 -31 -92.001 -31h-152c-34 0 -62 10.667 -84 32s-33 48.666 -33 81.999c0 7.33301 0.666992 15 2 23l70 443h74l-73 -459c-2 -14 1 -26.333 9 -37s19 -16 33 -16h160c33.333 0 53 17.667 59 53
l72 459h74zM436.001 800.001l-92 -150h-64l92 150h64z" />
    <glyph glyph-name="Ucircumflex" unicode="&#xdb;" horiz-adv-x="530" 
d="M530 580l-72.999 -461.999c-6 -37.333 -21.333 -66.333 -46 -87s-55.334 -31 -92.001 -31h-152c-34 0 -62 10.667 -84 32s-33 48.666 -33 81.999c0 7.33301 0.666992 15 2 23l70 443h74l-73 -459c-2 -14 1 -26.333 9 -37s19 -16 33 -16h160c33.333 0 53 17.667 59 53
l72 459h74zM460.001 661.001l-44 -26l-68 73h-6l-90 -73l-37 26l116 98h45z" />
    <glyph glyph-name="Udieresis" unicode="&#xdc;" horiz-adv-x="530" 
d="M530 580l-72.999 -461.999c-6 -37.333 -21.333 -66.333 -46 -87s-55.334 -31 -92.001 -31h-152c-34 0 -62 10.667 -84 32s-33 48.666 -33 81.999c0 7.33301 0.666992 15 2 23l70 443h74l-73 -459c-2 -14 1 -26.333 9 -37s19 -16 33 -16h160c33.333 0 53 17.667 59 53
l72 459h74zM476.001 722.001l-10 -68h-68l10 68h68zM290.001 722.001l-10 -68h-68l10 68h68z" />
    <glyph glyph-name="Yacute" unicode="&#xdd;" horiz-adv-x="502" 
d="M526 580l-23.999 -148.002c-5.33301 -35.333 -21 -64.666 -47 -87.999l-154 -137l-33 -207h-72l33 207l-111 137c-14.667 18.667 -22 38.334 -22 59.001c0 8 0.666992 17.667 2 29l24 148h70l-23 -144c-3.33301 -20.667 -0.333008 -36.667 9 -48l89 -115h14l126 115
c13.333 11.333 21.666 27.333 24.999 48l23 144h71zM423.001 800.998l-92 -150h-64l92 150h64z" />
    <glyph glyph-name="Thorn" unicode="&#xde;" horiz-adv-x="503" 
d="M518 453l-11.001 -76c-5.33301 -38.667 -20.666 -68.667 -45.999 -90s-57.333 -32 -96 -32h-200l-40 -255h-70l110 695h70l-19 -115h188c34 0 61.667 -10.333 83 -31s32 -46.667 32 -78c0 -6 -0.333008 -12 -1 -18zM449.999 461c2.66699 14 -0.166992 26.333 -8.5 37
s-19.166 16 -32.499 16h-203l-30 -192h202c33.333 0 52.666 16.333 57.999 49z" />
    <glyph glyph-name="germandbls" unicode="&#xdf;" 
d="M360 0l-143 -0.00292969l10 68h150c14 0 26.667 4.83301 38 14.5s18 21.5 20 35.5c4 26.667 -11 43 -45 49l-23 4c-68 12.667 -102 45.667 -102 99c0 6 0.666992 12.667 2 20c6 38.667 30 79.334 72 122.001s65.667 80.334 71 113.001
c2.66699 16 0.166992 29.167 -7.5 39.5s-19.167 15.5 -34.5 15.5h-103c-32 0 -50.667 -16.667 -56 -50l-98 -618h-70l98 620c6 36.667 21 65.167 45 85.5s54 30.5 90 30.5h96c34 0 61.5 -10.167 82.5 -30.5s31.5 -45.166 31.5 -74.499c0 -36 -12 -71 -36 -105
c-6 -8.66699 -28.333 -34 -67 -76c-26 -28 -40.667 -52 -44 -72c-2 -13.333 0.5 -24.833 7.5 -34.5s16.167 -15.167 27.5 -16.5l26 -3c33.333 -4 59.833 -15 79.5 -33s29.5 -40 29.5 -66c0 -37.333 -15 -69.5 -45 -96.5s-64 -40.5 -102 -40.5z" />
    <glyph glyph-name="agrave" unicode="&#xe0;" horiz-adv-x="475" 
d="M439 278l-45 -279.002h-70l13 79l-57 -47c-25.333 -20.667 -51.333 -31 -78 -31h-61c-32 0 -58.667 10.333 -80 31s-32 46.334 -32 77.001c0 6.66699 0.666992 13.334 2 20.001l25 161c6.66699 38.667 23 68.5 49 89.5s58.667 31.5 98 31.5h123c32 0 59 -11 81 -33
s33 -48.667 33 -80c0 -6.66699 -0.333008 -13 -1 -19zM371 291.998c2 13.333 -1.16797 25 -9.50098 35s-19.166 15 -32.499 15h-144c-14 0 -26.667 -5 -38 -15s-18 -22 -20 -36l-28 -175c-2 -14 1 -25.833 9 -35.5s19 -14.5 33 -14.5h61c21.333 0 42.333 8.33301 63 25
l85 69zM317.999 467.998h-64l-38 150h64z" />
    <glyph glyph-name="aacute" unicode="&#xe1;" horiz-adv-x="472" 
d="M439 278l-45 -279.002h-70l13 79l-57 -47c-25.333 -20.667 -51.333 -31 -78 -31h-61c-32 0 -58.667 10.333 -80 31s-32 46.334 -32 77.001c0 6.66699 0.666992 13.334 2 20.001l25 161c6.66699 38.667 23 68.5 49 89.5s58.667 31.5 98 31.5h123c32 0 59 -11 81 -33
s33 -48.667 33 -80c0 -6.66699 -0.333008 -13 -1 -19zM371 291.998c2 13.333 -1.16797 25 -9.50098 35s-19.166 15 -32.499 15h-144c-14 0 -26.667 -5 -38 -15s-18 -22 -20 -36l-28 -175c-2 -14 1 -25.833 9 -35.5s19 -14.5 33 -14.5h61c21.333 0 42.333 8.33301 63 25
l85 69zM389.999 618.998l-92 -150h-64l92 150h64z" />
    <glyph glyph-name="acircumflex" unicode="&#xe2;" horiz-adv-x="477" 
d="M439 278l-45 -279.002h-70l13 79l-57 -47c-25.333 -20.667 -51.333 -31 -78 -31h-61c-32 0 -58.667 10.333 -80 31s-32 46.334 -32 77.001c0 6.66699 0.666992 13.334 2 20.001l25 161c6.66699 38.667 23 68.5 49 89.5s58.667 31.5 98 31.5h123c32 0 59 -11 81 -33
s33 -48.667 33 -80c0 -6.66699 -0.333008 -13 -1 -19zM371 291.998c2 13.333 -1.16797 25 -9.50098 35s-19.166 15 -32.499 15h-144c-14 0 -26.667 -5 -38 -15s-18 -22 -20 -36l-28 -175c-2 -14 1 -25.833 9 -35.5s19 -14.5 33 -14.5h61c21.333 0 42.333 8.33301 63 25
l85 69zM422.999 492.998l-44 -26l-68 73h-6l-90 -73l-37 26l116 98h45z" />
    <glyph glyph-name="atilde" unicode="&#xe3;" horiz-adv-x="478" 
d="M439 278l-45 -279.002h-70l13 79l-57 -47c-25.333 -20.667 -51.333 -31 -78 -31h-61c-32 0 -58.667 10.333 -80 31s-32 46.334 -32 77.001c0 6.66699 0.666992 13.334 2 20.001l25 161c6.66699 38.667 23 68.5 49 89.5s58.667 31.5 98 31.5h123c32 0 59 -11 81 -33
s33 -48.667 33 -80c0 -6.66699 -0.333008 -13 -1 -19zM371 291.998c2 13.333 -1.16797 25 -9.50098 35s-19.166 15 -32.499 15h-144c-14 0 -26.667 -5 -38 -15s-18 -22 -20 -36l-28 -175c-2 -14 1 -25.833 9 -35.5s19 -14.5 33 -14.5h61c21.333 0 42.333 8.33301 63 25
l85 69zM439.999 551.998l-86 -79c-8 -7.33301 -16.667 -11 -26 -11c-8.66699 0 -16.334 3.66699 -23.001 11l-40 48c-4 4.66699 -8.33301 5 -13 1l-59 -55l-25 29l84 78c8.66699 7.33301 17.667 11 27 11c8.66699 0 16.334 -3.66699 23.001 -11l40 -48
c4 -4.66699 8.33301 -5 13 -1l60 56z" />
    <glyph glyph-name="adieresis" unicode="&#xe4;" horiz-adv-x="479" 
d="M439 278l-45 -279.002h-70l13 79l-57 -47c-25.333 -20.667 -51.333 -31 -78 -31h-61c-32 0 -58.667 10.333 -80 31s-32 46.334 -32 77.001c0 6.66699 0.666992 13.334 2 20.001l25 161c6.66699 38.667 23 68.5 49 89.5s58.667 31.5 98 31.5h123c32 0 59 -11 81 -33
s33 -48.667 33 -80c0 -6.66699 -0.333008 -13 -1 -19zM371 291.998c2 13.333 -1.16797 25 -9.50098 35s-19.166 15 -32.499 15h-144c-14 0 -26.667 -5 -38 -15s-18 -22 -20 -36l-28 -175c-2 -14 1 -25.833 9 -35.5s19 -14.5 33 -14.5h61c21.333 0 42.333 8.33301 63 25
l85 69zM427.999 535.998l-10 -68h-68l10 68h68zM241.999 535.998l-10 -68h-68l10 68h68z" />
    <glyph glyph-name="aring" unicode="&#xe5;" horiz-adv-x="475" 
d="M439 278l-45 -279.002h-70l13 79l-57 -47c-25.333 -20.667 -51.333 -31 -78 -31h-61c-32 0 -58.667 10.333 -80 31s-32 46.334 -32 77.001c0 6.66699 0.666992 13.334 2 20.001l25 161c6.66699 38.667 23 68.5 49 89.5s58.667 31.5 98 31.5h123c32 0 59 -11 81 -33
s33 -48.667 33 -80c0 -6.66699 -0.333008 -13 -1 -19zM371 291.998c2 13.333 -1.16797 25 -9.50098 35s-19.166 15 -32.499 15h-144c-14 0 -26.667 -5 -38 -15s-18 -22 -20 -36l-28 -175c-2 -14 1 -25.833 9 -35.5s19 -14.5 33 -14.5h61c21.333 0 42.333 8.33301 63 25
l85 69zM378.999 564.998l-7 -49.001c-5.33301 -34 -25 -51 -59 -51h-45c-14.667 0 -26.667 5.33301 -36 16s-13 22.334 -11 35.001l8 49c5.33301 33.333 25 50 59 50h49c12 0 22.5 -5.16699 31.5 -15.5s12.5 -21.833 10.5 -34.5zM338.999 566.997
c0.666992 4.66699 -1.66602 7 -6.99902 7h-53c-4.66699 0 -7.66699 -2.33301 -9 -7l-8 -53c-0.666992 -5.33301 1.66602 -8 6.99902 -8h53c4.66699 0 7.66699 2.66699 9 8z" />
    <glyph glyph-name="ae" unicode="&#xe6;" horiz-adv-x="755" 
d="M721 276l-27 -69.001l-286 -65l-4 -26c-2 -14 1 -25.833 9 -35.5s19 -14.5 33 -14.5h215l-11 -66h-207c-60 0 -96 28.333 -108 85l-65 -54c-25.333 -20.667 -51.333 -31 -78 -31h-40c-32 0 -58.667 10.333 -80 31s-32 46.334 -32 77.001
c0 6.66699 0.666992 13.334 2 20.001l25 161c6.66699 38.667 23 68.5 49 89.5s58.667 31.5 98 31.5h102c34.667 0 63.667 -13.333 87 -40c27.333 26.667 62.333 40 105 40h101c32.667 0 60.667 -12 84 -36c21.333 -22.667 32 -47.334 32 -74.001
c0 -8.66699 -1.33301 -16.667 -4 -24zM655 290.999c1.33301 4 1.99902 8.33301 1.99902 13c0 10 -4.33301 18.667 -13 26s-19 11 -31 11h-124c-13.333 0 -25.666 -4.83301 -36.999 -14.5s-18 -21.5 -20 -35.5l-14 -85l224 52zM360.999 291.999
c2 13.333 -1.16797 25 -9.50098 35s-19.166 15 -32.499 15h-123c-14 0 -26.667 -5 -38 -15s-18 -22 -20 -36l-28 -175c-2 -14 1 -25.833 9 -35.5s19 -14.5 33 -14.5h40c22 0 43 8.33301 63 25l85 69z" />
    <glyph glyph-name="ccedilla" unicode="&#xe7;" horiz-adv-x="481" 
d="M454 289l-5.00098 -35.002h-70l6 38c0.666992 4.66699 1 9 1 13c0 24.667 -14.667 37 -44 37h-140c-13.333 0 -25.333 -4.83301 -36 -14.5s-17.334 -21.5 -20.001 -35.5l-27 -174c-2 -13.333 0.833008 -25 8.5 -35s18.834 -15 33.501 -15h219l-11 -68h-212
c-31.333 0 -57.166 10.667 -77.499 32s-30.5 47 -30.5 77c0 6.66699 0.333008 13.334 1 20.001l25 154c6 38.667 21.833 69.5 47.5 92.5s58.167 34.5 97.5 34.5h126c33.333 0 60 -9 80 -27s30 -42 30 -72c0 -7.33301 -0.666992 -14.666 -2 -21.999zM260.999 -29.002
c0 -30 -10.667 -55 -32 -75s-48.666 -30 -81.999 -30h-49l8 52h48c16 0 28.667 5.33301 38 16s13.666 23 12.999 37l-1 44h57v-44z" />
    <glyph glyph-name="egrave" unicode="&#xe8;" horiz-adv-x="477" 
d="M452 276l-25 -66.998l-313 -67l-4 -26c-2 -14 1 -25.833 9 -35.5s19 -14.5 33 -14.5h215l-10 -66h-208c-32.667 0 -59 9.66699 -79 29s-30 44.666 -30 75.999c0 7.33301 0.666992 14.666 2 21.999l24 156c6.66699 39.333 23 70.333 49 93s59 34 99 34h126
c32.667 0 60.667 -12.333 84 -37c21.333 -22 32 -46.333 32 -73c0 -8.66699 -1.33301 -16.667 -4 -24zM386 291.002c1.33301 4 2 8 2 12c0 10.667 -4.33301 19.667 -13 27s-19 11 -31 11h-148c-14 0 -26.667 -4.83301 -38 -14.5s-18 -21.5 -20 -35.5l-14 -85l251 54z
M320 468.002h-64l-38 150h64z" />
    <glyph glyph-name="eacute" unicode="&#xe9;" horiz-adv-x="477" 
d="M452 276l-25 -66.998l-313 -67l-4 -26c-2 -14 1 -25.833 9 -35.5s19 -14.5 33 -14.5h215l-10 -66h-208c-32.667 0 -59 9.66699 -79 29s-30 44.666 -30 75.999c0 7.33301 0.666992 14.666 2 21.999l24 156c6.66699 39.333 23 70.333 49 93s59 34 99 34h126
c32.667 0 60.667 -12.333 84 -37c21.333 -22 32 -46.333 32 -73c0 -8.66699 -1.33301 -16.667 -4 -24zM386 291.002c1.33301 4 2 8 2 12c0 10.667 -4.33301 19.667 -13 27s-19 11 -31 11h-148c-14 0 -26.667 -4.83301 -38 -14.5s-18 -21.5 -20 -35.5l-14 -85l251 54z
M413 619.002l-92 -150h-64l92 150h64z" />
    <glyph glyph-name="ecircumflex" unicode="&#xea;" horiz-adv-x="481" 
d="M452 276l-25 -66.998l-313 -67l-4 -26c-2 -14 1 -25.833 9 -35.5s19 -14.5 33 -14.5h215l-10 -66h-208c-32.667 0 -59 9.66699 -79 29s-30 44.666 -30 75.999c0 7.33301 0.666992 14.666 2 21.999l24 156c6.66699 39.333 23 70.333 49 93s59 34 99 34h126
c32.667 0 60.667 -12.333 84 -37c21.333 -22 32 -46.333 32 -73c0 -8.66699 -1.33301 -16.667 -4 -24zM386 291.002c1.33301 4 2 8 2 12c0 10.667 -4.33301 19.667 -13 27s-19 11 -31 11h-148c-14 0 -26.667 -4.83301 -38 -14.5s-18 -21.5 -20 -35.5l-14 -85l251 54z
M424 495.002l-44 -26l-68 73h-6l-90 -73l-37 26l116 98h45z" />
    <glyph glyph-name="edieresis" unicode="&#xeb;" horiz-adv-x="481" 
d="M452 276l-25 -66.998l-313 -67l-4 -26c-2 -14 1 -25.833 9 -35.5s19 -14.5 33 -14.5h215l-10 -66h-208c-32.667 0 -59 9.66699 -79 29s-30 44.666 -30 75.999c0 7.33301 0.666992 14.666 2 21.999l24 156c6.66699 39.333 23 70.333 49 93s59 34 99 34h126
c32.667 0 60.667 -12.333 84 -37c21.333 -22 32 -46.333 32 -73c0 -8.66699 -1.33301 -16.667 -4 -24zM386 291.002c1.33301 4 2 8 2 12c0 10.667 -4.33301 19.667 -13 27s-19 11 -31 11h-148c-14 0 -26.667 -4.83301 -38 -14.5s-18 -21.5 -20 -35.5l-14 -85l251 54z
M441 536.002l-10 -68h-68l10 68h68zM255 536.002l-10 -68h-68l10 68h68z" />
    <glyph glyph-name="igrave" unicode="&#xec;" horiz-adv-x="300" 
d="M240 64l-10 -64h-156l55 344h-84l10 66h155l-55 -346h85zM203 468h-64l-38 150h64z" />
    <glyph glyph-name="iacute" unicode="&#xed;" horiz-adv-x="302" 
d="M240 64l-10 -64h-156l55 344h-84l10 66h155l-55 -346h85zM267 618l-92 -150h-64l92 150h64z" />
    <glyph glyph-name="icircumflex" unicode="&#xee;" horiz-adv-x="295" 
d="M240 64l-10 -64h-156l55 344h-84l10 66h155l-55 -346h85zM285 494l-44 -26l-68 73h-6l-90 -73l-37 26l116 98h45z" />
    <glyph glyph-name="idieresis" unicode="&#xef;" horiz-adv-x="310" 
d="M240 64l-10 -64h-156l55 344h-84l10 66h155l-55 -346h85zM308 536l-10 -68h-68l10 68h68zM122 536l-10 -68h-68l10 68h68z" />
    <glyph glyph-name="eth" unicode="&#xf0;" horiz-adv-x="545" 
d="M548 531l-65 -49.999c18.667 -32.667 28 -68 28 -106c0 -10.667 -1 -21.667 -3 -33l-32 -201c-15.333 -94 -68.333 -141 -159 -141h-120c-34 0 -63 10.5 -87 31.5s-36 47.167 -36 78.5c0 6 0.333008 11.667 1 17l6 35c11.333 71.333 60.333 113.666 147 126.999l207 32
l5 30c5.33301 34.667 2.33301 65 -9 91l-68 -52l-36 49l66 50c-22.667 15.333 -50.667 23 -84 23h-61l11 68h64c46 0 86.667 -17 122 -51l67 51zM424 253.001l-214 -32c-34 -5.33301 -53.333 -23 -58 -53l-8 -47c-2 -14 1 -26.333 9 -37s19 -16 33 -16h137
c48 0 76 24.333 84 73z" />
    <glyph glyph-name="ntilde" unicode="&#xf1;" horiz-adv-x="501" 
d="M462 281l-43.001 -281h-70l45 293c2 14 -1 25.833 -9 35.5s-19 14.5 -33 14.5h-64c-20 0 -39.667 -7.66699 -59 -23l-89 -70l-40 -250h-70l65 410h70l-13 -78l58 46c26.667 21.333 52.334 32 77.001 32h73c31.333 0 56.5 -10 75.5 -30s28.5 -45.333 28.5 -76
c0 -7.33301 -0.666992 -15 -2 -23zM465.999 558l-86 -79c-8 -7.33301 -16.667 -11 -26 -11c-8.66699 0 -16.334 3.66699 -23.001 11l-40 48c-4 4.66699 -8.33301 5 -13 1l-59 -55l-25 29l84 78c8.66699 7.33301 17.667 11 27 11c8.66699 0 16.334 -3.66699 23.001 -11
l40 -48c4 -4.66699 8.33301 -5 13 -1l60 56z" />
    <glyph glyph-name="ograve" unicode="&#xf2;" horiz-adv-x="501" 
d="M467 281l-24.002 -159c-5.33301 -36.667 -21.666 -66.167 -48.999 -88.5s-59.666 -33.5 -96.999 -33.5h-148c-29.333 0 -55 11.167 -77 33.5s-33 48.833 -33 79.5c0 5.33301 0.333008 10.666 1 15.999l24 152c14 86 63.333 129 148 129h146
c30 0 55.833 -11.167 77.5 -33.5s32.5 -48.833 32.5 -79.5c0 -5.33301 -0.333008 -10.666 -1 -15.999zM398.998 292c2 14 -1.16504 25.833 -9.49805 35.5s-19.5 14.5 -33.5 14.5h-164c-13.333 0 -25.333 -4.83301 -36 -14.5s-17.334 -21.5 -20.001 -35.5l-27 -174
c-2 -12 1.16699 -23.333 9.5 -34s19.166 -16 32.499 -16h164c14 0 26.333 4 37 12s17 18.333 19 31zM328 468h-64l-38 150h64z" />
    <glyph glyph-name="oacute" unicode="&#xf3;" horiz-adv-x="500" 
d="M467 281l-24.002 -159c-5.33301 -36.667 -21.666 -66.167 -48.999 -88.5s-59.666 -33.5 -96.999 -33.5h-148c-29.333 0 -55 11.167 -77 33.5s-33 48.833 -33 79.5c0 5.33301 0.333008 10.666 1 15.999l24 152c14 86 63.333 129 148 129h146
c30 0 55.833 -11.167 77.5 -33.5s32.5 -48.833 32.5 -79.5c0 -5.33301 -0.333008 -10.666 -1 -15.999zM398.998 292c2 14 -1.16504 25.833 -9.49805 35.5s-19.5 14.5 -33.5 14.5h-164c-13.333 0 -25.333 -4.83301 -36 -14.5s-17.334 -21.5 -20.001 -35.5l-27 -174
c-2 -12 1.16699 -23.333 9.5 -34s19.166 -16 32.499 -16h164c14 0 26.333 4 37 12s17 18.333 19 31zM404 617l-92 -150h-64l92 150h64z" />
    <glyph glyph-name="ocircumflex" unicode="&#xf4;" horiz-adv-x="504" 
d="M467 281l-24.002 -159c-5.33301 -36.667 -21.666 -66.167 -48.999 -88.5s-59.666 -33.5 -96.999 -33.5h-148c-29.333 0 -55 11.167 -77 33.5s-33 48.833 -33 79.5c0 5.33301 0.333008 10.666 1 15.999l24 152c14 86 63.333 129 148 129h146
c30 0 55.833 -11.167 77.5 -33.5s32.5 -48.833 32.5 -79.5c0 -5.33301 -0.333008 -10.666 -1 -15.999zM398.998 292c2 14 -1.16504 25.833 -9.49805 35.5s-19.5 14.5 -33.5 14.5h-164c-13.333 0 -25.333 -4.83301 -36 -14.5s-17.334 -21.5 -20.001 -35.5l-27 -174
c-2 -12 1.16699 -23.333 9.5 -34s19.166 -16 32.499 -16h164c14 0 26.333 4 37 12s17 18.333 19 31zM423 493l-44 -26l-68 73h-6l-90 -73l-37 26l116 98h45z" />
    <glyph glyph-name="otilde" unicode="&#xf5;" horiz-adv-x="506" 
d="M467 281l-24.002 -159c-5.33301 -36.667 -21.666 -66.167 -48.999 -88.5s-59.666 -33.5 -96.999 -33.5h-148c-29.333 0 -55 11.167 -77 33.5s-33 48.833 -33 79.5c0 5.33301 0.333008 10.666 1 15.999l24 152c14 86 63.333 129 148 129h146
c30 0 55.833 -11.167 77.5 -33.5s32.5 -48.833 32.5 -79.5c0 -5.33301 -0.333008 -10.666 -1 -15.999zM398.998 292c2 14 -1.16504 25.833 -9.49805 35.5s-19.5 14.5 -33.5 14.5h-164c-13.333 0 -25.333 -4.83301 -36 -14.5s-17.334 -21.5 -20.001 -35.5l-27 -174
c-2 -12 1.16699 -23.333 9.5 -34s19.166 -16 32.499 -16h164c14 0 26.333 4 37 12s17 18.333 19 31zM460 558l-86 -79c-8 -7.33301 -16.667 -11 -26 -11c-8.66699 0 -16.334 3.66699 -23.001 11l-40 48c-4 4.66699 -8.33301 5 -13 1l-59 -55l-25 29l84 78
c8.66699 7.33301 17.667 11 27 11c8.66699 0 16.334 -3.66699 23.001 -11l40 -48c4 -4.66699 8.33301 -5 13 -1l60 56z" />
    <glyph glyph-name="odieresis" unicode="&#xf6;" horiz-adv-x="506" 
d="M467 281l-24.002 -159c-5.33301 -36.667 -21.666 -66.167 -48.999 -88.5s-59.666 -33.5 -96.999 -33.5h-148c-29.333 0 -55 11.167 -77 33.5s-33 48.833 -33 79.5c0 5.33301 0.333008 10.666 1 15.999l24 152c14 86 63.333 129 148 129h146
c30 0 55.833 -11.167 77.5 -33.5s32.5 -48.833 32.5 -79.5c0 -5.33301 -0.333008 -10.666 -1 -15.999zM398.998 292c2 14 -1.16504 25.833 -9.49805 35.5s-19.5 14.5 -33.5 14.5h-164c-13.333 0 -25.333 -4.83301 -36 -14.5s-17.334 -21.5 -20.001 -35.5l-27 -174
c-2 -12 1.16699 -23.333 9.5 -34s19.166 -16 32.499 -16h164c14 0 26.333 4 37 12s17 18.333 19 31zM445 536l-10 -68h-68l10 68h68zM259 536l-10 -68h-68l10 68h68z" />
    <glyph glyph-name="divide" unicode="&#xf7;" horiz-adv-x="511" 
d="M377 493l-13 -83h-82l13 83h82zM514 325l-11 -70h-408l11 70h408zM325 167l-13 -83h-82l13 83h82z" />
    <glyph glyph-name="oslash" unicode="&#xf8;" horiz-adv-x="537" 
d="M492 276l-25 -155c-6 -37.333 -22 -66.833 -48 -88.5s-59 -32.5 -99 -32.5h-137c-34 0 -62.333 10.667 -85 32s-34 48.333 -34 81c0 6.66699 0.666992 13.667 2 21l25 156c12.667 80 62 120 148 120h139c33.333 0 60.833 -11.333 82.5 -34s32.5 -49.667 32.5 -81
c0 -6 -0.333008 -12.333 -1 -19zM424 292c2 16 -2.33203 29 -12.999 39l-191 -263h118c33.333 0 52.666 16.667 57.999 50zM348.001 342l-129.001 0.000976562c-14 0 -26.5 -4.83301 -37.5 -14.5s-17.833 -21.5 -20.5 -35.5l-27 -174
c-3.33301 -20.667 3.33398 -35.334 20.001 -44.001z" />
    <glyph glyph-name="ugrave" unicode="&#xf9;" horiz-adv-x="486" 
d="M470 410l-64.998 -409.999h-70l13 84l-56 -52c-22.667 -20.667 -48.334 -31.334 -77.001 -32.001h-60c-34 0 -61.667 10.5 -83 31.5s-32 47.5 -32 79.5c0 7.33301 0.666992 14.333 2 21l43 278h70l-45 -289c-2 -16 1.33301 -29.167 10 -39.5s21.334 -15.5 38.001 -15.5
h56c15.333 0 26.166 1.16699 32.499 3.5s15.166 8.83301 26.499 19.5l89 82l38 239h70zM331.002 469.001h-64l-38 150h64z" />
    <glyph glyph-name="uacute" unicode="&#xfa;" horiz-adv-x="487" 
d="M470 410l-64.998 -409.999h-70l13 84l-56 -52c-22.667 -20.667 -48.334 -31.334 -77.001 -32.001h-60c-34 0 -61.667 10.5 -83 31.5s-32 47.5 -32 79.5c0 7.33301 0.666992 14.333 2 21l43 278h70l-45 -289c-2 -16 1.33301 -29.167 10 -39.5s21.334 -15.5 38.001 -15.5
h56c15.333 0 26.166 1.16699 32.499 3.5s15.166 8.83301 26.499 19.5l89 82l38 239h70zM399.002 619.001l-92 -150h-64l92 150h64z" />
    <glyph glyph-name="ucircumflex" unicode="&#xfb;" horiz-adv-x="489" 
d="M470 410l-64.998 -409.999h-70l13 84l-56 -52c-22.667 -20.667 -48.334 -31.334 -77.001 -32.001h-60c-34 0 -61.667 10.5 -83 31.5s-32 47.5 -32 79.5c0 7.33301 0.666992 14.333 2 21l43 278h70l-45 -289c-2 -16 1.33301 -29.167 10 -39.5s21.334 -15.5 38.001 -15.5
h56c15.333 0 26.166 1.16699 32.499 3.5s15.166 8.83301 26.499 19.5l89 82l38 239h70zM421.002 494.001l-44 -26l-68 73h-6l-90 -73l-37 26l116 98h45z" />
    <glyph glyph-name="udieresis" unicode="&#xfc;" horiz-adv-x="490" 
d="M470 410l-64.998 -409.999h-70l13 84l-56 -52c-22.667 -20.667 -48.334 -31.334 -77.001 -32.001h-60c-34 0 -61.667 10.5 -83 31.5s-32 47.5 -32 79.5c0 7.33301 0.666992 14.333 2 21l43 278h70l-45 -289c-2 -16 1.33301 -29.167 10 -39.5s21.334 -15.5 38.001 -15.5
h56c15.333 0 26.166 1.16699 32.499 3.5s15.166 8.83301 26.499 19.5l89 82l38 239h70zM430.002 536.001l-10 -68h-68l10 68h68zM244.002 536.001l-10 -68h-68l10 68h68z" />
    <glyph glyph-name="yacute" unicode="&#xfd;" horiz-adv-x="497" 
d="M479 410l-58.999 -374c-6 -37.333 -21.833 -67.333 -47.5 -90s-56.834 -34 -93.501 -34h-179l11 69h180c14 0 26.667 4.83301 38 14.5s18 21.5 20 35.5l6 37h-181c-34 0 -61.667 9.83301 -83 29.5s-32 45.5 -32 77.5c0 7.33301 0.666992 15 2 23l34 212h70l-35 -223
c-2.66699 -15.333 0.5 -27.5 9.5 -36.5s21.167 -13.5 36.5 -13.5h190l43 273h70zM409.001 617l-92 -150h-64l92 150h64z" />
    <glyph glyph-name="thorn" unicode="&#xfe;" horiz-adv-x="509" 
d="M484 284l-14.999 -94.999c-6 -38.667 -21.667 -68.5 -47 -89.5s-57.333 -31.5 -96 -31.5h-191l-24 -156h-70l106 668h70l-27 -170h182c33.333 0 60.666 -10 81.999 -30s32 -45.333 32 -76c0 -6.66699 -0.666992 -13.334 -2 -20.001zM415.001 291.001c2 14 -1 26 -9 36
s-19 15 -33 15h-193l-33 -205h198c30.667 0 48.667 16.667 54 50z" />
    <glyph glyph-name="ydieresis" unicode="&#xff;" horiz-adv-x="500" 
d="M479 410l-58.999 -374c-6 -37.333 -21.833 -67.333 -47.5 -90s-56.834 -34 -93.501 -34h-179l11 69h180c14 0 26.667 4.83301 38 14.5s18 21.5 20 35.5l6 37h-181c-34 0 -61.667 9.83301 -83 29.5s-32 45.5 -32 77.5c0 7.33301 0.666992 15 2 23l34 212h70l-35 -223
c-2.66699 -15.333 0.5 -27.5 9.5 -36.5s21.167 -13.5 36.5 -13.5h190l43 273h70zM433.001 536l-10 -68h-68l10 68h68zM247.001 536l-10 -68h-68l10 68h68z" />
    <glyph glyph-name="dotlessi" unicode="&#x131;" horiz-adv-x="329" 
d="M265 64l-10 -64h-156l55 344h-84l10 66h155l-55 -346h85z" />
    <glyph glyph-name="Lslash" unicode="&#x141;" horiz-adv-x="447" 
d="M410 68l-11 -68h-334l40 255h-40l11 70h40l41 255h74l-41 -255h142l-11 -70h-142l-29 -187h260z" />
    <glyph glyph-name="lslash" unicode="&#x142;" horiz-adv-x="375" 
d="M346 325l-11 -70h-84l-30 -191h84l-10 -64h-240l10 64h86l30 191h-86l11 70h86l30 192h-85l10 63h155l-40 -255h84z" />
    <glyph glyph-name="OE" unicode="&#x152;" horiz-adv-x="792" 
d="M824 580l-11.002 -68h-269l-29 -188h206l-11 -69h-206l-30 -187h269l-11 -68h-326l5 31c-16.667 -20.667 -41.667 -31 -75 -31h-140c-35.333 -0 -64.5 10.333 -87.5 31s-34.5 47 -34.5 79c0 7.33301 0.666992 14.333 2 21l52 327c6 38 21.333 67.833 46 89.5
s56.334 32.5 95.001 32.5h159c30.667 0 52.334 -9.66699 65.001 -29l5 29h326zM465.998 459c2 14 -1.00195 26.333 -9.00195 37s-19 16 -33 16h-168c-33.333 0 -52.666 -17.667 -57.999 -53l-54 -338c-2 -14 1 -26.333 9 -37s19 -16 33 -16h168
c13.333 0 25.833 5.33301 37.5 16s18.834 23 21.501 37z" />
    <glyph glyph-name="oe" unicode="&#x153;" horiz-adv-x="785" 
d="M751 276l-25.001 -68.999l-287 -65l-4 -26c-2 -14 1 -25.833 9 -35.5s19 -14.5 33 -14.5h215l-10 -66h-208c-41.333 0 -70 12.667 -86 38c-19.333 -25.333 -51.666 -38 -96.999 -38h-123c-30 0 -55.833 11.167 -77.5 33.5s-32.5 48.833 -32.5 79.5
c0 5.33301 0.333008 10.666 1 15.999l24 152c14 86 63.333 129 148 129h120c37.333 0 65 -14 83 -42c22.667 28 57.667 42 105 42h100c33.333 0 61.333 -12.333 84 -37c21.333 -22 32 -46.667 32 -74c0 -8 -1.33301 -15.667 -4 -23zM685.999 291.001c1.33301 4 2 8 2 12
c0 10.667 -4.5 19.667 -13.5 27s-19.167 11 -30.5 11h-123c-14 0 -26.667 -4.83301 -38 -14.5s-18 -21.5 -20 -35.5l-14 -85l225 52zM391.999 292.001c2 14 -0.999023 25.833 -8.99902 35.5s-19 14.5 -33 14.5h-139c-14 0 -26.333 -4.83301 -37 -14.5s-17 -21.5 -19 -35.5
l-27 -174c-2 -12 1.16699 -23.333 9.5 -34s19.166 -16 32.499 -16h139c14 0 26.333 4 37 12s17 18.333 19 31z" />
    <glyph glyph-name="Scaron" unicode="&#x160;" horiz-adv-x="497" 
d="M492 449l-3.99902 -21.002h-70l5 31c5.33301 35.333 -8.66699 53 -42 53h-156c-14.667 0 -27.5 -4.83301 -38.5 -14.5s-17.5 -21.5 -19.5 -35.5l-13 -84c-2 -14 1 -26.167 9 -36.5s18.667 -15.833 32 -16.5l157 -4c32 -0.666992 58.167 -10.667 78.5 -30
s30.5 -44.333 30.5 -75c0 -7.33301 -0.666992 -14.666 -2 -21.999l-13 -79c-6 -35.333 -21.333 -63.666 -46 -84.999s-55.334 -32 -92.001 -32h-150c-34 0 -62.5 10.167 -85.5 30.5s-34.5 46.166 -34.5 77.499c0 6.66699 0.666992 13 2 19l4 24h70l-5 -30
c-2 -14 1 -26.333 9 -37s18.667 -16 32 -16h169c33.333 0 52.666 17.667 57.999 53l13 80c2 14 -1 26.167 -9 36.5s-19 15.833 -33 16.5l-156 5c-29.333 0.666992 -54.833 11.834 -76.5 33.501s-32.5 48.167 -32.5 79.5c0 6 0.666992 12.333 2 19l12 75
c5.33301 34.667 20.833 62.667 46.5 84s56.834 32 93.501 32h142c32.667 0 60 -10.833 82 -32.5s33 -47.5 33 -77.5c0 -7.33301 -0.666992 -14.333 -2 -21zM460.001 732.998l-116 -98h-45l-84 98l45 26l67 -73h6l91 73z" />
    <glyph glyph-name="scaron" unicode="&#x161;" horiz-adv-x="451" 
d="M406 410l-11.001 -68h-220c-34.667 0 -54.334 -15.333 -59.001 -46c-2.66699 -15.333 2 -28 14 -38c10 -8 21.667 -13 35 -15l122 -15c33.333 -4 60.333 -16.167 81 -36.5s31 -44.833 31 -73.5c0 -34 -13.667 -62.167 -41 -84.5s-61.666 -33.5 -102.999 -33.5h-225l11 68
h225c34.667 0 54 14.333 58 43c4.66699 29.333 -10.666 46 -45.999 50l-117 14c-34 4 -61.833 16.5 -83.5 37.5s-32.5 46.833 -32.5 77.5c0 34 13 62.5 39 85.5s59.333 34.5 100 34.5h222zM408.999 567l-116 -98h-45l-84 98l45 26l67 -73h6l91 73z" />
    <glyph glyph-name="Ydieresis" unicode="&#x178;" horiz-adv-x="502" 
d="M526 580l-23.999 -148.002c-5.33301 -35.333 -21 -64.666 -47 -87.999l-154 -137l-33 -207h-72l33 207l-111 137c-14.667 18.667 -22 38.334 -22 59.001c0 8 0.666992 17.667 2 29l24 148h70l-23 -144c-3.33301 -20.667 -0.333008 -36.667 9 -48l89 -115h14l126 115
c13.333 11.333 21.666 27.333 24.999 48l23 144h71zM476.001 721.998l-10 -68h-68l10 68h68zM290.001 721.998l-10 -68h-68l10 68h68z" />
    <glyph glyph-name="Zcaron" unicode="&#x17d;" horiz-adv-x="485" 
d="M514 580l-9 -58l-368 -454h296l-11 -68h-392l9 58l367 454h-295l11 68h392zM472 733l-116 -98h-45l-84 98l45 26l67 -73h6l91 73z" />
    <glyph glyph-name="zcaron" unicode="&#x17e;" horiz-adv-x="462" 
d="M454 410l-9 -58l-307 -288h261l-10 -64h-359l9 58l305 288h-259l10 64h359zM420 567l-116 -98h-45l-84 98l45 26l67 -73h6l91 73z" />
    <glyph glyph-name="florin" unicode="&#x192;" horiz-adv-x="605" 
d="M635 519l-3.99805 -27h-72l6 38c2 14 -1.16699 25.833 -9.5 35.5s-19.5 14.5 -33.5 14.5h-81c-33.333 0 -52.666 -16.667 -57.999 -50l-33 -206h112l-11 -69h-112l-36 -228c-5.33301 -34.667 -20.5 -62.5 -45.5 -83.5s-54.833 -31.5 -89.5 -31.5h-68
c-32.667 0 -60.834 10.5 -84.501 31.5s-35.5 46.5 -35.5 76.5c0 6 0.333008 11.667 1 17l5 31h72l-6 -38c-2 -14 1.16699 -25.833 9.5 -35.5s19.166 -14.5 32.499 -14.5h82c33.333 0 52.666 16.667 57.999 50l35 225h-84l11 69h84l33 203c12.667 80.667 61 121 145 121h59
c35.333 0 64 -10.5 86 -31.5s33 -47.5 33 -79.5c0 -6 -0.333008 -12 -1 -18z" />
    <glyph glyph-name="circumflex" unicode="&#x2c6;" horiz-adv-x="453" 
d="M485 661l-44 -26l-68 73h-6l-90 -73l-37 26l116 98h45z" />
    <glyph glyph-name="caron" unicode="&#x2c7;" horiz-adv-x="464" 
d="M497 733l-116 -98h-45l-84 98l45 26l67 -73h6l91 73z" />
    <glyph glyph-name="breve" unicode="&#x2d8;" horiz-adv-x="461" 
d="M494 704c-31.333 -45.333 -74.333 -68 -129 -68c-48 0 -85.667 22.667 -113 68l40 30c19.333 -32 45.333 -48 78 -48c32 0 62.667 16 92 48z" />
    <glyph glyph-name="dotaccent" unicode="&#x2d9;" horiz-adv-x="383" 
d="M411 730l-12 -72h-72l12 72h72z" />
    <glyph glyph-name="ring" unicode="&#x2da;" horiz-adv-x="420" 
d="M449 725l-7 -49.001c-5.33301 -34 -25 -51 -59 -51h-45c-14.667 0 -26.667 5.33301 -36 16s-13 22.334 -11 35.001l8 49c5.33301 33.333 25 50 59 50h49c12 0 22.5 -5.16699 31.5 -15.5s12.5 -21.833 10.5 -34.5zM409 726.999c0.666992 4.66699 -1.66602 7 -6.99902 7
h-53c-4.66699 0 -7.66699 -2.33301 -9 -7l-8 -53c-0.666992 -5.33301 1.66602 -8 6.99902 -8h53c4.66699 0 7.66699 2.66699 9 8z" />
    <glyph glyph-name="ogonek" unicode="&#x2db;" horiz-adv-x="290" 
d="M292 -82l-8 -52h-49c-25.333 0 -45.833 8 -61.5 24s-23.5 35 -23.5 57c0 8 1.33301 16 4 24l14 44h57l-15 -44c-2 -6 -3 -12 -3 -18c0 -23.333 12.333 -35 37 -35h48z" />
    <glyph glyph-name="tilde" unicode="&#x2dc;" horiz-adv-x="487" 
d="M522 721l-86 -79c-8 -7.33301 -16.667 -11 -26 -11c-8.66699 0 -16.334 3.66699 -23.001 11l-40 48c-4 4.66699 -8.33301 5 -13 1l-59 -55l-25 29l84 78c8.66699 7.33301 17.667 11 27 11c8.66699 0 16.334 -3.66699 23.001 -11l40 -48c4 -4.66699 8.33301 -5 13 -1
l60 56z" />
    <glyph glyph-name="hungarumlaut" unicode="&#x2dd;" horiz-adv-x="490" 
d="M524 786l-74 -131h-56l74 131h56zM392 786l-74 -131h-56l74 131h56z" />
    <glyph glyph-name="Delta" unicode="&#x394;" horiz-adv-x="589" 
d="M529 0h-474l331 595zM434 68l-78 333l-185 -333h263z" />
    <glyph glyph-name="Delta" unicode="&#x2206;" horiz-adv-x="589" 
d="M529 0h-474l331 595zM434 68l-78 333l-185 -333h263z" />
    <glyph glyph-name="Omega" unicode="&#x3a9;" horiz-adv-x="559" 
d="M532 377l-11.002 -68.002c-4 -25.333 -16.667 -47.666 -38 -66.999c-2.66699 -2 -22 -15.667 -58 -41c-20.667 -14 -32 -28 -34 -42c-1.33301 -9.33301 1.16699 -17.333 7.5 -24s14.5 -10 24.5 -10h63l-9 -57h-59c-26 0 -48.333 9.5 -67 28.5
s-26.334 39.833 -23.001 62.5c4.66699 28 25.834 55 63.501 81s58.167 49.333 61.5 70l13 83c2.66699 13.333 -0.166016 25.5 -8.49902 36.5s-19.166 16.5 -32.499 16.5h-181c-14 0 -27.167 -5.5 -39.5 -16.5s-19.5 -23.167 -21.5 -36.5l-12 -87
c-2.66699 -20 9.83301 -41.667 37.5 -65s41.5 -46 41.5 -68c0 -32 -10.667 -57.5 -32 -76.5s-48 -28.5 -80 -28.5h-66l9 57h66c8.66699 0 17 3.5 25 10.5s12.667 14.833 14 23.5c2 14 -4.33301 29 -19 45l-43 45c-14.667 20.667 -20.667 43.334 -18 68.001l9 76
c4 36 19.5 64.833 46.5 86.5s59.167 32.5 96.5 32.5h163c32 0 58.833 -11.333 80.5 -34s32.5 -50 32.5 -82c0 -6 -0.666992 -12.333 -2 -19z" />
    <glyph glyph-name="Omega" unicode="&#x2126;" horiz-adv-x="559" 
d="M532 377l-11.002 -68.002c-4 -25.333 -16.667 -47.666 -38 -66.999c-2.66699 -2 -22 -15.667 -58 -41c-20.667 -14 -32 -28 -34 -42c-1.33301 -9.33301 1.16699 -17.333 7.5 -24s14.5 -10 24.5 -10h63l-9 -57h-59c-26 0 -48.333 9.5 -67 28.5
s-26.334 39.833 -23.001 62.5c4.66699 28 25.834 55 63.501 81s58.167 49.333 61.5 70l13 83c2.66699 13.333 -0.166016 25.5 -8.49902 36.5s-19.166 16.5 -32.499 16.5h-181c-14 0 -27.167 -5.5 -39.5 -16.5s-19.5 -23.167 -21.5 -36.5l-12 -87
c-2.66699 -20 9.83301 -41.667 37.5 -65s41.5 -46 41.5 -68c0 -32 -10.667 -57.5 -32 -76.5s-48 -28.5 -80 -28.5h-66l9 57h66c8.66699 0 17 3.5 25 10.5s12.667 14.833 14 23.5c2 14 -4.33301 29 -19 45l-43 45c-14.667 20.667 -20.667 43.334 -18 68.001l9 76
c4 36 19.5 64.833 46.5 86.5s59.167 32.5 96.5 32.5h163c32 0 58.833 -11.333 80.5 -34s32.5 -50 32.5 -82c0 -6 -0.666992 -12.333 -2 -19z" />
    <glyph glyph-name="pi" unicode="&#x3c0;" horiz-adv-x="543" 
d="M525 410l-11 -66h-79l-36 -232c-2 -13.333 1 -24.333 9 -33s19.333 -13 34 -13h28l-10 -66h-25c-31.333 0 -56.833 10.167 -76.5 30.5s-29.5 44.5 -29.5 72.5c0 6 0.333008 11.667 1 17l35 224h-133l-54 -344h-70l54 344h-73l11 66h425z" />
    <glyph glyph-name="endash" unicode="&#x2013;" horiz-adv-x="340" 
d="M256 54l-9 -54h-242l9 54h242z" />
    <glyph glyph-name="emdash" unicode="&#x2014;" horiz-adv-x="433" 
d="M349 54l-9 -54h-370l9 54h370z" />
    <glyph glyph-name="quoteleft" unicode="&#x2018;" horiz-adv-x="253" 
d="M265 599l-61.998 -79.001l-1 -8h34c6 -3.33301 9 -6.66602 9 -9.99902l-13 -80c-1.33301 -6.66699 -5.33301 -10 -12 -10h-92c-6.66699 0 -9.33398 3.33301 -8.00098 10l9 59c3.33301 19.333 10.666 34.333 21.999 45l89 96z" />
    <glyph glyph-name="quoteright" unicode="&#x2019;" horiz-adv-x="249" 
d="M265 602l-9.00098 -59c-3.33301 -19.333 -10.666 -34.333 -21.999 -45l-88 -96l-26 23l62 79l1 8h-34c-6.66699 0 -9.33398 3.33301 -8.00098 10l12 80c1.33301 6.66699 5.33301 10 12 10h92c6.66699 0 9.33398 -3.33301 8.00098 -10z" />
    <glyph glyph-name="quotesinglbase" unicode="&#x201a;" horiz-adv-x="268" 
d="M189 96l-9.00098 -59c-3.33301 -19.333 -10.666 -34.333 -21.999 -45l-88 -96l-26 23l62 79l1 8h-34c-6.66699 0 -9.33398 3.33301 -8.00098 10l12 80c1.33301 6.66699 5.33301 10 12 10h92c6.66699 0 9.33398 -3.33301 8.00098 -10z" />
    <glyph glyph-name="quotedblleft" unicode="&#x201c;" horiz-adv-x="436" 
d="M448 599l-61.998 -79l-1 -8h34c6.66699 0 9.66699 -3.33301 9 -10l-13 -80c-1.33301 -6.66699 -5.33301 -10 -12 -10h-92c-6.66699 0 -9.33398 3.33301 -8.00098 10l9 59c3.33301 19.333 10.666 34.333 21.999 45l89 96zM265.002 599l-61.998 -79.001l-1 -8h34
c6 -3.33301 9 -6.66602 9 -9.99902l-13 -80c-1.33301 -6.66699 -5.33301 -10 -12 -10h-92c-6.66699 0 -9.33398 3.33301 -8.00098 10l9 59c3.33301 19.333 10.666 34.333 21.999 45l89 96z" />
    <glyph glyph-name="quotedblright" unicode="&#x201d;" horiz-adv-x="432" 
d="M448 602l-9.00195 -58.999c-3.33301 -19.333 -10.666 -34.333 -21.999 -45l-88 -96l-26 23l62 79l1 8h-34c-6 3.33301 -8.66699 6.66602 -8 9.99902l12 80c1.33301 6.66699 5.33301 10 12 10h92c6.66699 0 9.33398 -3.33301 8.00098 -10zM264.998 602.001l-9.00098 -59
c-3.33301 -19.333 -10.666 -34.333 -21.999 -45l-88 -96l-26 23l62 79l1 8h-34c-6.66699 0 -9.33398 3.33301 -8.00098 10l12 80c1.33301 6.66699 5.33301 10 12 10h92c6.66699 0 9.33398 -3.33301 8.00098 -10z" />
    <glyph glyph-name="quotedblbase" unicode="&#x201e;" horiz-adv-x="446" 
d="M367 90l-9.00195 -58.999c-3.33301 -19.333 -10.666 -34.333 -21.999 -45l-88 -96l-26 23l62 79l1 8h-34c-6 3.33301 -8.66699 6.66602 -8 9.99902l12 80c1.33301 6.66699 5.33301 10 12 10h92c6.66699 0 9.33398 -3.33301 8.00098 -10zM183.998 90.001l-9.00098 -59
c-3.33301 -19.333 -10.666 -34.333 -21.999 -45l-88 -96l-26 23l62 79l1 8h-34c-6.66699 0 -9.33398 3.33301 -8.00098 10l12 80c1.33301 6.66699 5.33301 10 12 10h92c6.66699 0 9.33398 -3.33301 8.00098 -10z" />
    <glyph glyph-name="dagger" unicode="&#x2020;" horiz-adv-x="356" 
d="M359 461l-9 -60h-85l-37 -231h-62l37 231h-84l9 60h84l19 119h62l-19 -119h85z" />
    <glyph glyph-name="daggerdbl" unicode="&#x2021;" horiz-adv-x="367" 
d="M365 496l-9 -56h-87l-16 -102h87l-9 -56h-87l-18 -112h-58l18 112h-86l9 56h86l16 102h-86l9 56h86l13 84h58l-13 -84h87z" />
    <glyph glyph-name="bullet" unicode="&#x2022;" horiz-adv-x="342" 
d="M309 379l-25 -159c-2 -11.333 -8.66699 -17 -20 -17h-160c-11.333 0 -16 5.66699 -14 17l25 159c2 12 8.66699 18 20 18h160c11.333 0 16 -6 14 -18z" />
    <glyph glyph-name="ellipsis" unicode="&#x2026;" horiz-adv-x="708" 
d="M631 102l-14 -92c-1.33301 -6.66699 -5.33301 -10 -12 -10h-92c-6.66699 -0 -9.33398 3.33301 -8.00098 10l14 92c1.33301 6.66699 5.33301 10 12 10h92c6.66699 0 9.33398 -3.33301 8.00098 -10zM407 102l-14 -92c-1.33301 -6.66699 -5.33301 -10 -12 -10h-92
c-6.66699 -0 -9.33398 3.33301 -8.00098 10l14 92c1.33301 6.66699 5.33301 10 12 10h92c6.66699 0 9.33398 -3.33301 8.00098 -10zM183 102l-14 -92c-1.33301 -6.66699 -5.33301 -10 -12 -10h-92c-6.66699 -0 -9.33398 3.33301 -8.00098 10l14 92
c1.33301 6.66699 5.33301 10 12 10h92c6.66699 0 9.33398 -3.33301 8.00098 -10z" />
    <glyph glyph-name="perthousand" unicode="&#x2030;" horiz-adv-x="893" 
d="M880 126l-10.999 -72c-8 -49.333 -36.667 -74 -86 -74h-72c-17.333 0 -32.833 7.83301 -46.5 23.5s-18.834 32.5 -15.501 50.5l11 72c8 49.333 36.667 74 86 74h72c18.667 0 34.5 -7.5 47.5 -22.5s17.833 -32.167 14.5 -51.5zM355.001 506l-11 -72
c-8 -49.333 -36.667 -74 -86 -74h-72c-17.333 0 -32.833 7.83301 -46.5 23.5s-18.834 32.5 -15.501 50.5l11 72c8 49.333 36.667 74 86 74h72c19.333 0 35.333 -7.66699 48 -23s17.334 -32.333 14.001 -51zM640.001 580l-519 -625l-54 45l520 625zM562.001 126l-12.002 -72
c-7.33301 -49.333 -36 -74 -86 -74h-72c-17.333 0 -32.666 7.83301 -45.999 23.5s-18.666 32.5 -15.999 50.5l11 72c8 49.333 36.667 74 86 74h72c19.333 0 35.333 -7.5 48 -22.5s17.667 -32.167 15 -51.5zM820.999 129c1.33301 7.33301 -2 11 -10 11h-77
c-8 0 -12.667 -3.66699 -14 -11l-12 -78c-1.33301 -7.33301 2 -11 10 -11h77c8 0 12.667 3.66699 14 11zM295.999 509c1.33301 7.33301 -2 11 -10 11h-77c-8 0 -12.333 -3.66699 -13 -11l-13 -78c-1.33301 -7.33301 2 -11 10 -11h77c8 0 12.667 3.66699 14 11zM501.999 129
c1.33301 7.33301 -1.66699 11 -9 11h-78c-7.33301 0 -11.666 -3.66699 -12.999 -11l-12 -78c-1.33301 -7.33301 1.66699 -11 9 -11h78c7.33301 0 11.666 3.66699 12.999 11z" />
    <glyph glyph-name="guilsinglleft" unicode="&#x2039;" horiz-adv-x="362" 
d="M350 439l-176 -151l-2 -7l130 -152l-58 -49l-148 177l8 55l205 176z" />
    <glyph glyph-name="guilsinglright" unicode="&#x203a;" horiz-adv-x="361" 
d="M330 312l-8 -55l-205 -177l-41 49l176 152l2 7l-130 151l58 49z" />
    <glyph glyph-name="fraction" unicode="&#x2044;" horiz-adv-x="469" 
d="M502 653l-447 -767l-63 31l447 767z" />
    <glyph glyph-name="trademark" unicode="&#x2122;" horiz-adv-x="527" 
d="M527 580l-33 -205h-40l21 136l-45 -43h-24l-31 43l-22 -136h-40l32 205h33l47 -69l69 69h33zM301 580l-6 -38h-66l-27 -167h-42l27 167h-66l6 38h174z" />
    <glyph glyph-name="partialdiff" unicode="&#x2202;" horiz-adv-x="542" 
d="M508 342l-32 -201c-15.333 -94 -68.333 -141 -159 -141h-120c-34 0 -63 10.5 -87 31.5s-36 47.167 -36 78.5c0 6 0.333008 11.667 1 17l6 35c11.333 71.333 60.333 113.666 147 126.999l207 32l5 30c1.33301 8.66699 2 17.334 2 26.001c0 38 -12.333 70 -37 96
s-56.667 39 -96 39h-61l11 68h64c51.333 0 95.5 -20.333 132.5 -61s55.5 -88.667 55.5 -144c0 -10.667 -1 -21.667 -3 -33zM424 253l-214 -32c-34 -5.33301 -53.333 -23 -58 -53l-8 -47c-2 -14 1 -26.333 9 -37s19 -16 33 -16h137c48 0 76 24.333 84 73z" />
    <glyph glyph-name="product" unicode="&#x220f;" horiz-adv-x="538" 
d="M552 580l-10 -66h-79l-64 -402c-2 -13.333 1 -24.333 9 -33s19.333 -13 34 -13h28l-10 -66h-25c-31.333 0 -56.833 10.167 -76.5 30.5s-29.5 44.5 -29.5 72.5c0 6 0.333008 11.667 1 17l63 394h-133l-82 -514h-70l82 514h-73l10 66h425z" />
    <glyph glyph-name="summation" unicode="&#x2211;" horiz-adv-x="470" 
d="M493 580l-11 -68h-254l118 -210l-4 -25l-184 -209h254l-11 -68h-346l9 56l205 228l2 12l-133 228l9 56h346z" />
    <glyph glyph-name="radical" unicode="&#x221a;" horiz-adv-x="662" 
d="M696 468l-10 -62h-148l-197 -406h-78l-63 230h-109l10 60h154l58 -210l185 388h198z" />
    <glyph glyph-name="infinity" unicode="&#x221e;" horiz-adv-x="742" 
d="M702 322l-10.002 -64c-13.333 -84.667 -62.666 -127 -147.999 -127h-36c-28.667 0 -58 20.667 -88 62l-74 114c-27.333 41.333 -51.666 62 -72.999 62h-38c-36 0 -56.667 -16.667 -62 -50l-10 -64c-0.666992 -4.66699 -1 -9 -1 -13c0 -30.667 15.667 -43 47 -37l117 21
l6 -67l-112 -23c-6 -1.33301 -12 -2 -18 -2c-28 0 -52.833 10.833 -74.5 32.5s-32.5 46.834 -32.5 75.501c0 5.33301 0.333008 10.666 1 15.999l9 58c12.667 82 61.667 123 147 123h47c29.333 0 60 -20.667 92 -62l73 -114c26 -41.333 47.667 -62 65 -62h32
c36 0 56.667 16.667 62 50l12 75c2 12.667 -0.5 23.167 -7.5 31.5s-16.5 12.5 -28.5 12.5c-3.33301 0 -7 -0.333008 -11 -1l-113 -24l-2 70l111 24c5.33301 1.33301 11 2 17 2c26 0 49.5 -10.167 70.5 -30.5s31.5 -44.833 31.5 -73.5c0 -5.33301 -0.333008 -10.333 -1 -15z
" />
    <glyph glyph-name="integral" unicode="&#x222b;" horiz-adv-x="458" 
d="M442 407l-1.99707 -16c-2.66699 -22.667 -10.5 -43.167 -23.5 -61.5s-27.167 -30.833 -42.5 -37.5c26.667 -13.333 40 -35.666 40 -66.999c0 -6.66699 -0.666992 -13.334 -2 -20.001l-6 -34c-6 -36 -21.333 -63.833 -46 -83.5s-54.334 -29.5 -89.001 -29.5h-31l-23 -145
h-54l23 145h-122l75 470h122l21 132h54l-21 -132h14c35.333 0 64.166 -11.667 86.499 -35s31.166 -52 26.499 -86zM374.003 409c2 14 -0.999023 26.832 -8.99902 38.499s-18.667 17.5 -32 17.5h-138l-22 -140h127c22.667 0 39.167 4.83301 49.5 14.5
s17.166 25.834 20.499 48.501zM340.004 196.999c1.33301 9.33301 2 17.333 2 24c0 28 -15.667 42 -47 42h-132l-23 -143h138c33.333 0 53 18.667 59 56z" />
    <glyph glyph-name="approxequal" unicode="&#x2248;" horiz-adv-x="472" 
d="M473 429l-130.001 -101c-9.33301 -8 -18.666 -12 -27.999 -12c-12 0 -22.333 5.66699 -31 17l-53 64c-4.66699 5.33301 -9.66699 6 -15 2l-97 -77l-27 39l130 101c10 7.33301 19.667 11 29 11c11.333 0 21.333 -5.33301 30 -16l53 -64c4.66699 -5.33301 9.66699 -6 15 -2
l98 77zM429.999 155l-131 -101c-9.33301 -8 -18.666 -12 -27.999 -12c-11.333 0 -21.333 5.66699 -30 17l-53 64c-4.66699 5.33301 -9.66699 6 -15 2l-98 -77l-26 39l130 101c9.33301 8 18.666 12 27.999 12c12 0 22.333 -5.66699 31 -17l53 -63
c4.66699 -6 9.66699 -7 15 -3l97 77z" />
    <glyph glyph-name="approxequal" unicode="&#x22f2;" horiz-adv-x="472" 
d="M473 429l-130.001 -101c-9.33301 -8 -18.666 -12 -27.999 -12c-12 0 -22.333 5.66699 -31 17l-53 64c-4.66699 5.33301 -9.66699 6 -15 2l-97 -77l-27 39l130 101c10 7.33301 19.667 11 29 11c11.333 0 21.333 -5.33301 30 -16l53 -64c4.66699 -5.33301 9.66699 -6 15 -2
l98 77zM429.999 155l-131 -101c-9.33301 -8 -18.666 -12 -27.999 -12c-11.333 0 -21.333 5.66699 -30 17l-53 64c-4.66699 5.33301 -9.66699 6 -15 2l-98 -77l-26 39l130 101c9.33301 8 18.666 12 27.999 12c12 0 22.333 -5.66699 31 -17l53 -63
c4.66699 -6 9.66699 -7 15 -3l97 77z" />
    <glyph glyph-name="notequal" unicode="&#x2260;" horiz-adv-x="450" 
d="M433 395l-11 -66h-103l-54 -78h145l-11 -66h-180l-55 -80h-66l55 80h-69l11 66h104l54 78h-146l11 66h181l50 73h66l-50 -73h68z" />
    <glyph glyph-name="lessequal" unicode="&#x2264;" horiz-adv-x="383" 
d="M376 523l-191 -163l-1 -7l139 -163l-57 -50l-159 189l9 55l218 189zM338 62l-10 -62h-273l10 62h273z" />
    <glyph glyph-name="greaterequal" unicode="&#x2265;" horiz-adv-x="402" 
d="M389 384l-9 -55l-218 -189l-42 50l191 163l1 7l-139 163l57 50zM338 62l-10 -62h-273l10 62h273z" />
    <glyph glyph-name="lozenge" unicode="&#x25ca;" horiz-adv-x="641" 
d="M613 259l-299 -259l-218 259l300 258zM514 259l-134 159l-185 -159l134 -160z" />
    <glyph glyph-name="apple" unicode="&#xf000;" horiz-adv-x="730" 
d="M689 67h-3v9l-3 -7h-2l-3 7v-9h-3v12h4l3 -7l2 7h5v-12zM673 76h-4v-9h-3v9h-4v3h11v-3zM651 74c0 -6.66699 -3.33301 -10 -10 -10c-7.33301 0 -11 3.66699 -11 11c0 6.66699 3.66699 10 11 10c6.66699 0 10 -3.66699 10 -11zM552 256
c0 -26.667 -9.33301 -44.667 -28 -54l-161 -82v202l131 66c6.66699 3.33301 13.667 5 21 5c24.667 0 37 -13.667 37 -41v-96zM619 46c0 -6 -3.33301 -9 -10 -9c-6 0 -9 3 -9 9c0 6.66699 3 10 9 10c6.66699 0 10 -3.33301 10 -10zM493 470
c12 -6.66699 17.999 -16.001 17.999 -28.001c0 -13.333 -8 -24 -24 -32l-127 -64c-6 -3.33301 -9 -8.66602 -9 -15.999v-217l-201 102v197c0 18.667 7.33301 31.667 22 39c48 26 89.333 47.333 124 64c18.667 9.33301 36.334 14 53.001 14s35.667 -5 57 -15
c41.333 -20 70.333 -34.667 87 -44zM588.999 22.999l-10 -1l-9 23h-2h-6v-22h-9v51h17c12 0 18 -4.66699 18 -14c0 -6 -3 -10.333 -9 -13zM541.999 47.999c0 -17.333 -6.66699 -26 -20 -26c-12.667 0 -19 8.66699 -19 26c0 18 6.33301 27 19 27c13.333 0 20 -9 20 -27z
M496.999 73.999l-17 -51h-8l-17 51h10l11 -36l11 36h10zM443.999 22.999h-9v22h-16v-22h-10v51h10v-21h16v21h9v-51zM397.999 35.999c0 -8.66699 -6 -13 -18 -13h-20v6h3v38h-3v7h19c11.333 0 17 -4 17 -12c0 -3.33301 -3 -7.33301 -9 -12c7.33301 -1.33301 11 -6 11 -14z
M348.999 37.999l-7 -12h-6l6 12l-6 10l2 2h4zM336.999 37.999l-7 -12h-6l6 12l-6 10l2 2h4zM312.999 34.999c-3.33301 -8.66699 -9.66699 -13 -19 -13c-12 0 -18 8.66699 -18 26c0 18 6.33301 27 19 27c9.33301 0 15 -4.33301 17 -13l-9 -2c-1.33301 5.33301 -4 8 -8 8
c-6 0 -9 -6.33301 -9 -19c0 -13.333 3.33301 -20 10 -20c4 0 7 3 9 9zM264.998 22.999h-10v22h-16v-22h-9v51h9v-21h16v21h10v-51zM218.998 58.999c0 -10 -6.66699 -15 -20 -15h-6v-21h-9v51h17c12 0 18 -5 18 -15zM171.998 22.999l-9 -1l-9 23h-2h-6v-22h-10v51h17
c12 0 18 -4.66699 18 -14c0 -6 -3 -10.333 -9 -13zM124.998 24.999l-3 -2l-3 3c-2.66699 -2.66699 -6.66699 -4 -12 -4c-12.667 0 -19 8.66699 -19 26c0 18 6.66699 27 20 27c9.33301 0 15 -4.33301 17 -13l-9 -2c-1.33301 5.33301 -4.33301 8 -9 8c-6 0 -9 -6.33301 -9 -19
c0 -13.333 3.33301 -20 10 -20c1.33301 0 4 1.33301 8 4v10h-9v6h18v-24zM76.998 68.999c0 -2.66699 -3 -6.66699 -9 -12l-4 1v3c1.33301 0.666992 2.83301 1.66699 4.5 3s2.5 3 2.5 5h-4v10h10v-10zM62.998 68.999c0 -2.66699 -3 -6.66699 -9 -12l-4 1v3
c1.33301 0.666992 2.83301 1.66699 4.5 3s2.16699 3 1.5 5h-3v10h10v-10zM645.998 73.999c0 4 -1.66699 6 -5 6c-4 0 -6 -2 -6 -6c0 -3.33301 2 -5 6 -5c3.33301 0 5 1.66699 5 5zM577.998 59.999c0 5.33301 -3.33301 8 -10 8h-6v-16h7c6 0 9 2.66699 9 8zM531.998 47.999
c0 13.333 -3.33301 20 -10 20c-6 0 -9 -6.66699 -9 -20c0 -12.667 3 -19 9 -19c6.66699 0 10 6.33301 10 19zM385.998 59.999c0 4.66699 -2.66699 7 -8 7h-6v-14h7c4.66699 0 7 2.33301 7 7zM387.998 36.999c0 6 -3 9 -9 9h-7v-17h6c6.66699 0 10 2.66699 10 8z
M208.998 58.999c0 6 -3.33301 9 -10 9h-6v-17h7c6 0 9 2.66699 9 8zM160.998 59.999c0 5.33301 -3 8 -9 8h-6v-16h7c5.33301 0 8 2.66699 8 8z" />
    <glyph glyph-name="fi" unicode="&#xf001;" horiz-adv-x="679" 
d="M638 64l-10.001 -64h-156l44 276h-284l-57 -364h-70l57 364h-84l11 66h84l19 117c6 36.667 22.333 66 49 88s58.667 33 96 33h155l-11 -68h-161c-13.333 0 -25.666 -4.83301 -36.999 -14.5s-18.333 -21.5 -21 -35.5l-19 -120h353l-44 -278h86z" />
    <glyph glyph-name="fl" unicode="&#xf002;" horiz-adv-x="701" 
d="M638 64l-11.001 -64h-153l81 514h-235c-13.333 0 -25.666 -4.83301 -36.999 -14.5s-18.333 -21.5 -21 -35.5l-19 -122h112l-11 -69h-112l-57 -361h-70l57 361h-84l11 69h84l19 117c6 36.667 22.333 66 49 88s58.667 33 96 33h298l-82 -516h85z" />
    <glyph glyph-name=".null" horiz-adv-x="0" 
 />
    <glyph glyph-name="nonmarkingreturn" horiz-adv-x="350" 
 />
    </font>
</defs>
</svg>
